<?xml version="1.0" encoding="utf-8"?>
<!-- Generator: Adobe Illustrator 16.0.0, SVG Export Plug-In . SVG Version: 6.00 Build 0)  -->
<!DOCTYPE svg PUBLIC "-//W3C//DTD SVG 1.1//EN" "http://www.w3.org/Graphics/SVG/1.1/DTD/svg11.dtd">
<svg version="1.1" id="Layer_1" xmlns="http://www.w3.org/2000/svg" xmlns:xlink="http://www.w3.org/1999/xlink" x="0px" y="0px"
	 width="45px" height="45px" viewBox="0 0 45 45" enable-background="new 0 0 45 45" xml:space="preserve">
<g>
	<g>
		<line fill="none" stroke="#444444" stroke-width="1.5" stroke-miterlimit="10" x1="4.141" y1="13.292" x2="40.642" y2="13.292"/>
		<rect x="33.302" y="10.215" fill="#444444" width="1.29" height="1.292"/>
		<rect x="35.219" y="10.215" fill="#444444" width="1.29" height="1.292"/>
		<rect x="37.133" y="10.215" fill="#444444" width="1.292" height="1.292"/>
		<path fill="none" stroke="#444444" stroke-width="1.5" stroke-miterlimit="10" d="M40.694,31.539c0,1.378-1.119,2.497-2.498,2.497
			H6.978c-1.38,0-2.499-1.119-2.499-2.497V10.726c0-1.379,1.119-2.498,2.499-2.498h31.219c1.379,0,2.498,1.118,2.498,2.498V31.539z"
			/>
	</g>
	<circle fill="#FFFFFF" cx="22.988" cy="25.873" r="9.554"/>
	<circle fill="#FFFFFF" stroke="#444444" stroke-width="1.5" stroke-miterlimit="10" cx="22.988" cy="25.873" r="7.006"/>
	<line fill="none" stroke="#1586C4" stroke-width="2" stroke-miterlimit="10" x1="17.462" y1="30.25" x2="17.462" y2="30.25"/>
	
		<line fill="none" stroke="#444444" stroke-width="1.5" stroke-linecap="round" stroke-miterlimit="10" x1="19.306" y1="31.906" x2="13.553" y2="38.701"/>
</g>
</svg>
