<?xml version="1.0" encoding="utf-8"?>
<!-- Generator: Adobe Illustrator 16.0.0, SVG Export Plug-In . SVG Version: 6.00 Build 0)  -->
<!DOCTYPE svg PUBLIC "-//W3C//DTD SVG 1.1//EN" "http://www.w3.org/Graphics/SVG/1.1/DTD/svg11.dtd">
<svg version="1.1" id="Layer_1" xmlns="http://www.w3.org/2000/svg" xmlns:xlink="http://www.w3.org/1999/xlink" x="0px" y="0px"
	 width="45px" height="45px" viewBox="0 0 45 45" enable-background="new 0 0 45 45" xml:space="preserve">
<g>
	<path fill="#444444" d="M9.218,37.482c0.637,0.535,1.413,0.798,2.188,0.798c0.965,0,1.924-0.409,2.595-1.203l6.746-7.988
		c0.057-0.066,0.104-0.137,0.146-0.211c1.427,0.61,2.97,0.935,4.541,0.935c3.41,0,6.628-1.492,8.825-4.097
		c1.99-2.356,2.943-5.346,2.685-8.419c-0.26-3.073-1.698-5.861-4.057-7.852c-2.079-1.758-4.725-2.726-7.442-2.726
		c-3.412,0-6.628,1.493-8.827,4.097c-1.99,2.355-2.944,5.346-2.685,8.42c0.162,1.921,0.785,3.73,1.806,5.302
		c-0.063,0.054-0.122,0.109-0.177,0.174l-6.747,7.985C7.608,34.13,7.789,36.275,9.218,37.482z M25.433,27.101
		c-2.079,0-4.103-0.74-5.695-2.083c-1.802-1.523-2.905-3.658-3.104-6.01c-0.197-2.352,0.531-4.64,2.055-6.442
		c1.683-1.992,4.144-3.135,6.755-3.135c2.079,0,4.103,0.741,5.693,2.086c1.805,1.522,2.906,3.656,3.104,6.008
		c0.198,2.351-0.531,4.639-2.054,6.441C30.505,25.96,28.043,27.101,25.433,27.101z M10.886,34.448l6.599-7.814
		c0.162,0.155,0.331,0.308,0.503,0.454c0.177,0.149,0.357,0.29,0.541,0.426l-6.6,7.815c-0.244,0.287-0.675,0.324-0.962,0.08
		C10.679,35.167,10.643,34.735,10.886,34.448z"/>
</g>
</svg>
