<?xml version="1.0" encoding="utf-8"?>
<!-- Generator: Adobe Illustrator 16.0.0, SVG Export Plug-In . SVG Version: 6.00 Build 0)  -->
<!DOCTYPE svg PUBLIC "-//W3C//DTD SVG 1.1//EN" "http://www.w3.org/Graphics/SVG/1.1/DTD/svg11.dtd">
<svg version="1.1" id="Layer_1" xmlns="http://www.w3.org/2000/svg" xmlns:xlink="http://www.w3.org/1999/xlink" x="0px" y="0px"
	 width="64px" height="64px" viewBox="0 0 64 64" enable-background="new 0 0 64 64" xml:space="preserve">
<g>
	<g id="group-2svg">
		<path id="path-1_10_" fill="#444444" d="M61.225,57.969H2.772c-0.519,0-0.997-0.272-1.259-0.718
			c-0.263-0.446-0.271-0.997-0.021-1.449L27.652,8.451c0.02-0.036,0.042-0.072,0.064-0.106c0.972-1.451,2.591-2.318,4.333-2.318
			c1.703,0,3.284,0.842,4.228,2.253c0.025,0.035,0.047,0.07,0.067,0.107l26.159,47.415c0.249,0.452,0.241,1.003-0.021,1.448
			C62.22,57.696,61.741,57.969,61.225,57.969z M5.249,55.046h53.5L33.819,9.861c-0.409-0.581-1.051-0.912-1.77-0.912
			c-0.745,0-1.442,0.365-1.874,0.977L5.249,55.046z"/>
		<path id="path-2_10_" fill="#444444" d="M30.012,40.427c0.084,0.859,0.227,1.499,0.435,1.955c0.292,0.63,0.852,0.977,1.579,0.977
			c0.711,0,1.273-0.348,1.583-0.982c0.234-0.476,0.379-1.109,0.443-1.932l0.534-6.129c0.062-0.591,0.092-1.171,0.092-1.742
			c0-1.048-0.14-1.848-0.433-2.449c-0.253-0.519-0.82-1.138-2.069-1.138c-0.792,0-1.447,0.271-1.943,0.804
			c-0.487,0.519-0.734,1.224-0.734,2.097c0,0.516,0.037,1.366,0.113,2.551L30.012,40.427z"/>
		<path id="path-3_4_" fill="#444444" d="M30.25,44.871c-0.491,0.489-0.751,1.117-0.751,1.815c0,0.79,0.28,1.45,0.812,1.913
			c0.51,0.44,1.112,0.664,1.79,0.664c0.675,0,1.273-0.228,1.779-0.678c0.522-0.464,0.798-1.121,0.798-1.899
			c0-0.702-0.266-1.333-0.766-1.82C32.901,43.875,31.239,43.88,30.25,44.871z"/>
	</g>
</g>
</svg>
