<?xml version="1.0" encoding="utf-8"?>
<!-- Generator: Adobe Illustrator 16.0.0, SVG Export Plug-In . SVG Version: 6.00 Build 0)  -->
<!DOCTYPE svg PUBLIC "-//W3C//DTD SVG 1.1//EN" "http://www.w3.org/Graphics/SVG/1.1/DTD/svg11.dtd">
<svg version="1.1" xmlns="http://www.w3.org/2000/svg" xmlns:xlink="http://www.w3.org/1999/xlink" x="0px" y="0px" width="45px"
	 height="45px" viewBox="0 0 45 45" enable-background="new 0 0 45 45" xml:space="preserve">
<g id="Layer_1">
</g>
<g id="Layer_2">
</g>
<g id="Layer_3">
	<g>
		<path fill="none" stroke="#444444" stroke-width="1.5" stroke-miterlimit="10" d="M7.129,20.165
			C8.244,12.83,14.579,7.209,22.225,7.209"/>
		<path fill="none" stroke="#444444" stroke-width="1.5" stroke-miterlimit="10" d="M19.724,37.547
			c-7.244-1.194-12.77-7.485-12.77-15.067"/>
		<path fill="none" stroke="#444444" stroke-width="1.5" stroke-miterlimit="10" d="M37.359,24.531
			c-1.003,7.464-7.396,13.219-15.134,13.219"/>
		<path fill="none" stroke="#444444" stroke-width="1.5" stroke-miterlimit="10" d="M24.583,7.39
			c7.314,1.133,12.912,7.458,12.912,15.09"/>
		<path fill="none" stroke="#444444" stroke-width="1.5" stroke-miterlimit="10" d="M23.179,11.128
			c0.207-0.044,0.422-0.067,0.642-0.067c1.705,0,3.086,1.382,3.086,3.086c0,1.704-1.381,3.085-3.086,3.085
			c-0.287,0-0.564-0.039-0.828-0.112"/>
		<path fill="none" stroke="#444444" stroke-width="1.5" stroke-miterlimit="10" d="M22.212,6.484c0,0,0,3.204,0,3.616
			c0,0.411,0.091,1.387,1.249,0.959"/>
		<path fill="none" stroke="#444444" stroke-width="1.5" stroke-miterlimit="10" d="M22.212,19.017c0,0,0-0.403,0-0.814
			c0-0.412,0.091-1.387,1.249-0.96"/>
		<path fill="none" stroke="#444444" stroke-width="1.5" stroke-miterlimit="10" d="M21.245,27.364
			c-0.207-0.044-0.422-0.066-0.642-0.066c-1.706,0-3.087,1.381-3.087,3.085c0,1.705,1.381,3.086,3.087,3.086
			c0.287,0,0.564-0.039,0.828-0.112"/>
		<path fill="none" stroke="#444444" stroke-width="1.5" stroke-miterlimit="10" d="M22.212,25.924c0,0,0,0,0,0.412
			c0,0.411-0.092,1.387-1.25,0.96"/>
		<path fill="none" stroke="#444444" stroke-width="1.5" stroke-miterlimit="10" d="M22.212,38.524c0,0,0-3.674,0-4.085
			c0-0.412-0.092-1.387-1.25-0.96"/>
		<path fill="none" stroke="#444444" stroke-width="1.5" stroke-miterlimit="10" d="M33.353,23.236
			c0.044,0.208,0.067,0.423,0.067,0.642c0,1.705-1.381,3.086-3.086,3.086c-1.023,0-1.93-0.498-2.492-1.265"/>
		<path fill="none" stroke="#444444" stroke-width="1.5" stroke-miterlimit="10" d="M38.234,22.269c0,0-3.442,0-3.853,0
			c-0.412,0-1.387,0.092-0.96,1.25"/>
		<path fill="none" stroke="#444444" stroke-width="1.5" stroke-miterlimit="10" d="M16.139,18.345
			c-0.544-0.479-1.258-0.771-2.041-0.771c-1.704,0-3.086,1.382-3.086,3.086c0,0.287,0.04,0.564,0.112,0.828"/>
		<path fill="none" stroke="#444444" stroke-width="1.5" stroke-miterlimit="10" d="M6.219,22.269c0,0,3.413,0,3.824,0
			c0.411,0,1.386-0.092,0.96-1.25"/>
		<g>
			<path fill="#444444" d="M18.858,18.792v5.811h-1.319v-5.811H18.858z"/>
			<path fill="#444444" d="M24.093,22.447c0,1.543-1.095,2.25-2.224,2.25c-1.233,0-2.181-0.81-2.181-2.172s0.896-2.233,2.25-2.233
				C23.23,20.292,24.093,21.18,24.093,22.447z M21.041,22.49c0,0.724,0.302,1.268,0.862,1.268c0.509,0,0.836-0.509,0.836-1.268
				c0-0.629-0.241-1.267-0.836-1.267C21.273,21.223,21.041,21.87,21.041,22.49z"/>
			<path fill="#444444" d="M25.648,19.896h-1.561v-1.104h4.466v1.104h-1.586v4.707h-1.319V19.896z"/>
		</g>
	</g>
</g>
<g id="Layer_4">
</g>
<g id="Layer_5">
</g>
</svg>
