<?xml version="1.0" encoding="utf-8"?>
<!-- Generator: Adobe Illustrator 16.0.0, SVG Export Plug-In . SVG Version: 6.00 Build 0)  -->
<!DOCTYPE svg PUBLIC "-//W3C//DTD SVG 1.1//EN" "http://www.w3.org/Graphics/SVG/1.1/DTD/svg11.dtd">
<svg version="1.1" xmlns="http://www.w3.org/2000/svg" xmlns:xlink="http://www.w3.org/1999/xlink" x="0px" y="0px" width="45px"
	 height="45px" viewBox="0 0 45 45" enable-background="new 0 0 45 45" xml:space="preserve">
<g id="Layer_1">
</g>
<g id="Layer_2">
</g>
<g id="Layer_3">
</g>
<g id="Layer_4">
</g>
<g id="Layer_5">
	<g>
		<path fill="none" stroke="#444444" stroke-width="1.5" stroke-miterlimit="10" d="M30.083,28.476c0,1.657-1.343,3-3,3H16.669
			c-1.656,0-3-1.343-3-3V16.468c0-1.657,1.344-3,3-3h10.414c1.657,0,3,1.343,3,3V28.476z"/>
		<path fill="none" stroke="#444444" stroke-width="1.5" stroke-miterlimit="10" d="M16.536,13.341l1.043-5.85
			c0-0.116,0.094-0.209,0.209-0.209h8.152c0.115,0,0.209,0.093,0.209,0.209l1.043,5.85"/>
		<path fill="none" stroke="#444444" stroke-width="1.5" stroke-miterlimit="10" d="M16.536,31.66l1.043,5.85
			c0,0.116,0.094,0.209,0.209,0.209h8.152c0.115,0,0.209-0.093,0.209-0.209l1.043-5.85"/>
		<circle fill="#444444" cx="21.878" cy="22.53" r="2.167"/>
		<circle fill="#444444" cx="17.563" cy="24.603" r="1.439"/>
		<circle fill="#444444" cx="21.878" cy="27.198" r="1.531"/>
		<circle fill="#444444" cx="26.102" cy="24.886" r="1.439"/>
		<circle fill="#444444" cx="21.878" cy="17.552" r="1.531"/>
		<circle fill="#444444" cx="17.78" cy="20.362" r="1.439"/>
		<circle fill="#444444" cx="25.508" cy="28.29" r="0.846"/>
		<circle fill="#444444" cx="26.165" cy="20.677" r="1.439"/>
		<circle fill="#444444" cx="25.319" cy="17.415" r="0.846"/>
		<circle fill="#444444" cx="18.626" cy="27.883" r="0.846"/>
		<circle fill="#444444" cx="18.409" cy="17.102" r="0.846"/>
		
			<line fill="none" stroke="#444444" stroke-width="1.5" stroke-linecap="round" stroke-miterlimit="10" x1="31.063" y1="18.229" x2="31.063" y2="20.474"/>
		
			<line fill="none" stroke="#444444" stroke-width="1.5" stroke-linecap="round" stroke-miterlimit="10" x1="31.063" y1="22.856" x2="31.063" y2="27.101"/>
		
			<path fill="none" stroke="#444444" stroke-width="1.5" stroke-linecap="round" stroke-linejoin="round" stroke-miterlimit="10" d="
			M36.625,18.238c1.071,0.942,1.747,2.327,1.747,3.87c0,1.545-0.677,2.93-1.75,3.873"/>
		
			<path fill="none" stroke="#444444" stroke-width="1.5" stroke-linecap="round" stroke-linejoin="round" stroke-miterlimit="10" d="
			M34.485,19.713c0.656,0.664,1.046,1.493,1.046,2.393c0,0.89-0.38,1.71-1.023,2.37"/>
		
			<path fill="none" stroke="#444444" stroke-width="1.5" stroke-linecap="round" stroke-linejoin="round" stroke-miterlimit="10" d="
			M8.027,18.238c-1.071,0.942-1.747,2.327-1.747,3.87c0,1.545,0.677,2.93,1.75,3.873"/>
		
			<path fill="none" stroke="#444444" stroke-width="1.5" stroke-linecap="round" stroke-linejoin="round" stroke-miterlimit="10" d="
			M10.167,19.713c-0.656,0.664-1.046,1.493-1.046,2.393c0,0.89,0.38,1.71,1.023,2.37"/>
	</g>
</g>
</svg>
