<?xml version="1.0" encoding="utf-8"?>
<!-- Generator: Adobe Illustrator 16.0.0, SVG Export Plug-In . SVG Version: 6.00 Build 0)  -->
<!DOCTYPE svg PUBLIC "-//W3C//DTD SVG 1.1//EN" "http://www.w3.org/Graphics/SVG/1.1/DTD/svg11.dtd">
<svg version="1.1" xmlns="http://www.w3.org/2000/svg" xmlns:xlink="http://www.w3.org/1999/xlink" x="0px" y="0px" width="45px"
	 height="45px" viewBox="0 0 45 45" enable-background="new 0 0 45 45" xml:space="preserve">
<g id="Layer_1">
</g>
<g id="Layer_2">
</g>
<g id="Layer_3">
</g>
<g id="Layer_4">
</g>
<g id="Layer_5">
</g>
<g id="Layer_6">
</g>
<g id="Layer_7">
</g>
<g id="Layer_8">
	<g>
		<path fill="none" stroke="#444444" stroke-width="1.5" stroke-miterlimit="10" d="M20.321,7.349
			c-7.158,0-12.979,5.823-12.979,12.98c0,7.156,5.822,12.979,12.979,12.979c7.158,0,12.979-5.822,12.979-12.979
			C33.301,13.172,27.479,7.349,20.321,7.349z"/>
		
			<line fill="none" stroke="#444444" stroke-width="1.5" stroke-linecap="round" stroke-miterlimit="10" x1="28.806" y1="30.316" x2="35.931" y2="37.666"/>
		<g>
			<polygon fill="none" stroke="#444444" stroke-width="1.5" stroke-miterlimit="10" points="12.744,24.921 12.744,16.151 
				20.208,12.877 27.535,16.125 27.535,24.921 20.14,28 			"/>
			<polyline fill="none" stroke="#444444" stroke-width="1.5" stroke-miterlimit="10" points="12.656,16.604 20.223,19.917 
				27.598,16.604 			"/>
			
				<line fill="none" stroke="#444444" stroke-width="1.5" stroke-miterlimit="10" x1="20.223" y1="19.917" x2="20.223" y2="27.873"/>
			<polyline fill="none" stroke="#444444" stroke-width="1.5" stroke-miterlimit="10" points="23.981,14.55 16.039,18.124 
				16.039,20.631 			"/>
		</g>
	</g>
</g>
</svg>
