<?xml version="1.0" encoding="utf-8"?>
<!-- Generator: Adobe Illustrator 16.0.0, SVG Export Plug-In . SVG Version: 6.00 Build 0)  -->
<!DOCTYPE svg PUBLIC "-//W3C//DTD SVG 1.1//EN" "http://www.w3.org/Graphics/SVG/1.1/DTD/svg11.dtd">
<svg version="1.1" xmlns="http://www.w3.org/2000/svg" xmlns:xlink="http://www.w3.org/1999/xlink" x="0px" y="0px" width="45px"
	 height="45px" viewBox="0 0 45 45" enable-background="new 0 0 45 45" xml:space="preserve">
<g id="Layer_1">
</g>
<g id="Layer_2">
</g>
<g id="Layer_3">
</g>
<g id="Layer_4">
</g>
<g id="Layer_5">
</g>
<g id="Layer_6">
</g>
<g id="Layer_7">
</g>
<g id="Layer_8">
	<g>
		<g>
			<path fill="#444444" d="M18.407,16.239h8.788c0.371,0,0.669-0.3,0.669-0.671c0-0.371-0.298-0.671-0.669-0.671h-8.788
				c-0.369,0-0.67,0.3-0.67,0.671C17.737,15.938,18.038,16.239,18.407,16.239z"/>
			<path fill="#444444" d="M29.879,16.239h2.269c0.37,0,0.67-0.3,0.67-0.671c0-0.371-0.3-0.671-0.67-0.671h-2.269
				c-0.371,0-0.671,0.3-0.671,0.671C29.208,15.938,29.508,16.239,29.879,16.239z"/>
			<path fill="#444444" d="M18.407,21.149h8.788c0.371,0,0.669-0.301,0.669-0.67c0-0.372-0.298-0.671-0.669-0.671h-8.788
				c-0.369,0-0.67,0.3-0.67,0.671C17.737,20.849,18.038,21.149,18.407,21.149z"/>
			<path fill="#444444" d="M29.879,21.149h2.269c0.37,0,0.67-0.301,0.67-0.67c0-0.372-0.3-0.671-0.67-0.671h-2.269
				c-0.371,0-0.671,0.3-0.671,0.671C29.208,20.849,29.508,21.149,29.879,21.149z"/>
			<path fill="#444444" d="M22.407,26.477h4.788c0.371,0,0.669-0.299,0.669-0.671c0-0.37-0.298-0.67-0.669-0.67h-4.788"/>
			<path fill="#444444" d="M29.879,26.477h2.269c0.37,0,0.67-0.299,0.67-0.671c0-0.37-0.3-0.67-0.67-0.67h-2.269
				c-0.371,0-0.671,0.3-0.671,0.67C29.208,26.178,29.508,26.477,29.879,26.477z"/>
			<path fill="#444444" d="M32.147,31.312c0.37,0,0.67-0.301,0.67-0.672c0-0.37-0.3-0.67-0.67-0.67h-6.391
				c-0.37,0-0.671,0.3-0.671,0.67c0,0.371,0.301,0.672,0.671,0.672H32.147z"/>
		</g>
		<g>
			<polygon fill="none" stroke="#444444" stroke-width="1.5" stroke-miterlimit="10" points="8.756,30.906 8.756,24.077 
				14.567,21.527 20.274,24.056 20.274,30.906 14.515,33.304 			"/>
			<polyline fill="none" stroke="#444444" stroke-width="1.5" stroke-miterlimit="10" points="8.688,24.429 14.58,27.008 
				20.323,24.429 			"/>
			<line fill="none" stroke="#444444" stroke-width="1.5" stroke-miterlimit="10" x1="14.58" y1="27.008" x2="14.58" y2="33.205"/>
			<polyline fill="none" stroke="#444444" stroke-width="1.5" stroke-miterlimit="10" points="17.507,22.829 11.322,25.613 
				11.322,27.565 			"/>
		</g>
		<path fill="none" stroke="#444444" stroke-width="1.5" stroke-miterlimit="10" d="M14.505,35.375v0.482
			c0,1.056,0.856,1.912,1.911,1.912h15.37l4.264-4.113V9.13c0-1.056-0.856-1.912-1.913-1.912H16.416
			c-1.055,0-1.911,0.856-1.911,1.912v10.088"/>
		<path fill="none" stroke="#444444" stroke-width="1.5" stroke-miterlimit="10" d="M31.736,37.058v-2.299
			c0-0.773,0.627-1.4,1.4-1.4h2.277"/>
		<line fill="none" stroke="#444444" stroke-width="1.5" stroke-miterlimit="10" x1="14.505" y1="11.167" x2="36.05" y2="11.167"/>
	</g>
</g>
</svg>
