<?xml version="1.0" encoding="utf-8"?>
<!-- Generator: Adobe Illustrator 16.0.0, SVG Export Plug-In . SVG Version: 6.00 Build 0)  -->
<!DOCTYPE svg PUBLIC "-//W3C//DTD SVG 1.1//EN" "http://www.w3.org/Graphics/SVG/1.1/DTD/svg11.dtd">
<svg version="1.1" id="Layer_1" xmlns="http://www.w3.org/2000/svg" xmlns:xlink="http://www.w3.org/1999/xlink" x="0px" y="0px"
	 width="45px" height="45px" viewBox="0 0 45 45" enable-background="new 0 0 45 45" xml:space="preserve">
<g>
	<g>
		<polygon fill="#F9F9FA" stroke="#444444" stroke-width="1.5" stroke-miterlimit="10" points="19.091,32.021 19.091,21.76 
			27.822,17.929 36.397,21.729 36.397,32.021 27.822,35.475 		"/>
		<polyline fill="#F9F9FA" stroke="#444444" stroke-width="1.5" stroke-miterlimit="10" points="18.988,22.291 27.843,26.165 
			36.47,22.291 		"/>
		
			<line fill="#F9F9FA" stroke="#444444" stroke-width="1.5" stroke-miterlimit="10" x1="27.843" y1="26.165" x2="27.843" y2="35.475"/>
		<polyline fill="#F9F9FA" stroke="#444444" stroke-width="1.5" stroke-miterlimit="10" points="32.239,19.887 22.946,24.068 
			22.946,27.001 		"/>
	</g>
	<g>
		<polygon fill="#F9F9FA" stroke="#444444" stroke-width="1.5" stroke-miterlimit="10" points="10.479,35.546 10.479,25.285 
			19.21,21.454 27.785,25.255 27.785,35.546 19.21,39 		"/>
		<polyline fill="#F9F9FA" stroke="#444444" stroke-width="1.5" stroke-miterlimit="10" points="10.375,25.815 19.229,29.69 
			27.856,25.815 		"/>
		<line fill="#F9F9FA" stroke="#444444" stroke-width="1.5" stroke-miterlimit="10" x1="19.229" y1="29.69" x2="19.229" y2="39"/>
		<polyline fill="none" stroke="#444444" stroke-width="1.5" stroke-miterlimit="10" points="23.627,23.412 14.333,27.594 
			14.333,30.526 		"/>
	</g>
	<g>
		<polygon fill="#F9F9FA" stroke="#444444" stroke-width="1.5" stroke-miterlimit="10" points="13.768,23.646 13.768,12.481 
			23.27,8.313 32.598,12.448 32.598,23.646 23.183,27.565 		"/>
		<polyline fill="none" stroke="#444444" stroke-width="1.5" stroke-miterlimit="10" points="13.656,13.059 23.289,17.274 
			32.677,13.059 		"/>
		<line fill="none" stroke="#444444" stroke-width="1.5" stroke-miterlimit="10" x1="23.289" y1="17.274" x2="23.289" y2="27.404"/>
		<polyline fill="none" stroke="#444444" stroke-width="1.5" stroke-miterlimit="10" points="28.073,10.443 17.962,14.993 
			17.962,18.184 		"/>
	</g>
</g>
</svg>
