<?xml version="1.0" encoding="utf-8"?>
<!-- Generator: Adobe Illustrator 16.0.0, SVG Export Plug-In . SVG Version: 6.00 Build 0)  -->
<!DOCTYPE svg PUBLIC "-//W3C//DTD SVG 1.1//EN" "http://www.w3.org/Graphics/SVG/1.1/DTD/svg11.dtd">
<svg version="1.1" id="Layer_1" xmlns="http://www.w3.org/2000/svg" xmlns:xlink="http://www.w3.org/1999/xlink" x="0px" y="0px"
	 width="45px" height="45px" viewBox="0 0 45 45" enable-background="new 0 0 45 45" xml:space="preserve">
<g>
	<g>
		<polygon fill="none" stroke="#444444" stroke-width="1.5" stroke-miterlimit="10" points="6.024,6.095 38.572,6.092 
			38.413,33.028 5.865,33.031 		"/>
		<line fill="none" stroke="#444444" stroke-width="1.5" stroke-miterlimit="10" x1="38.446" y1="27.363" x2="6.272" y2="27.367"/>
		
			<line fill="none" stroke="#444444" stroke-width="1.5" stroke-linecap="round" stroke-miterlimit="10" x1="33.553" y1="38.301" x2="11.038" y2="38.361"/>
		<line fill="none" stroke="#444444" stroke-width="1.5" stroke-miterlimit="10" x1="22.327" y1="33.128" x2="22.296" y2="38.428"/>
		
			<rect x="34.889" y="30.016" fill="none" stroke="#444444" stroke-width="1.5" stroke-miterlimit="10" width="0.533" height="0.533"/>
	</g>
	<g>
		<path fill="#444444" d="M24.664,19.42c0-0.571-0.187-1.038-0.559-1.401c-0.373-0.363-1.03-0.714-1.972-1.051
			c-1.076-0.342-1.873-0.753-2.391-1.234c-0.518-0.481-0.776-1.159-0.776-2.033c0-0.838,0.259-1.521,0.776-2.049
			s1.221-0.828,2.111-0.9V9.183h0.791v1.567c0.906,0.083,1.607,0.422,2.104,1.017c0.497,0.595,0.74,1.399,0.729,2.414l-0.022,0.039
			h-0.87c0-0.787-0.207-1.426-0.62-1.917c-0.414-0.491-0.994-0.737-1.739-0.737c-0.766,0-1.347,0.201-1.742,0.602
			c-0.396,0.401-0.594,0.907-0.594,1.518c0,0.59,0.176,1.064,0.527,1.424c0.353,0.359,1.027,0.705,2.026,1.036
			c1.071,0.357,1.863,0.772,2.379,1.246c0.515,0.473,0.772,1.142,0.772,2.006c0,0.859-0.27,1.546-0.808,2.061
			c-0.538,0.515-1.263,0.809-2.173,0.881v1.475h-0.784v-1.467c-0.937-0.057-1.714-0.355-2.332-0.896
			c-0.619-0.541-0.918-1.357-0.896-2.449l0.023-0.046h0.869c0,0.921,0.261,1.585,0.783,1.991c0.523,0.406,1.154,0.609,1.895,0.609
			c0.766,0,1.372-0.201,1.819-0.604C24.44,20.548,24.664,20.038,24.664,19.42z"/>
	</g>
</g>
</svg>
