<?xml version="1.0" encoding="utf-8"?>
<!-- Generator: Adobe Illustrator 16.0.0, SVG Export Plug-In . SVG Version: 6.00 Build 0)  -->
<!DOCTYPE svg PUBLIC "-//W3C//DTD SVG 1.1//EN" "http://www.w3.org/Graphics/SVG/1.1/DTD/svg11.dtd">
<svg version="1.1" id="Layer_1" xmlns="http://www.w3.org/2000/svg" xmlns:xlink="http://www.w3.org/1999/xlink" x="0px" y="0px"
	 width="45px" height="45px" viewBox="0 0 45 45" enable-background="new 0 0 45 45" xml:space="preserve">
<g>
	<g>
		<polygon fill="none" stroke="#444444" stroke-width="2" stroke-miterlimit="10" points="37.212,40.622 8.641,40.622 8.693,4.75 
			37.264,4.75 		"/>
	</g>
	<g>
		<g>
			<g>
				<g>
					<g>
						<g>
							<path fill="none" stroke="#444444" stroke-width="2" stroke-linejoin="round" stroke-miterlimit="10" d="M31.99,37.148
								 M31.568,36.145 M27.127,31.805 M26.093,31.388 M34.335,40.143v-0.949c-0.495-0.233-1.796-0.729-2.917-1.126l-0.221-0.079
								l-0.78-1.854l0.093-0.209c0.48-1.083,1.016-2.361,1.187-2.876l-1.451-1.417c-0.468,0.162-1.78,0.724-2.886,1.229
								l-0.204,0.094l-1.875-0.755l-0.083-0.209c-0.444-1.105-0.995-2.389-1.241-2.863h-2.058c-0.238,0.481-0.747,1.758-1.155,2.856
								l-0.082,0.217l-1.869,0.76l-0.202-0.086c-1.12-0.475-2.443-1.002-2.958-1.164l-1.444,1.413c0.18,0.511,0.74,1.758,1.24,2.809
								l0.104,0.213l-0.779,1.852l-0.211,0.08c-1.127,0.434-2.432,0.969-2.919,1.213v0.861"/>
						</g>
					</g>
				</g>
			</g>
		</g>
		<path fill="none" stroke="#444444" stroke-width="2" stroke-linejoin="round" stroke-miterlimit="10" d="M18.65,40.166
			c0-2.32,1.882-4.203,4.203-4.203c2.32,0,4.203,1.883,4.203,4.203"/>
	</g>
	<line fill="none" stroke="#444444" stroke-width="2" stroke-miterlimit="10" x1="12.268" y1="10.449" x2="33.638" y2="10.449"/>
	<line fill="none" stroke="#444444" stroke-width="2" stroke-miterlimit="10" x1="12.268" y1="15.865" x2="33.638" y2="15.865"/>
	<line fill="none" stroke="#444444" stroke-width="2" stroke-miterlimit="10" x1="12.268" y1="20.865" x2="28.638" y2="20.865"/>
</g>
</svg>
