<?xml version="1.0" encoding="utf-8"?>
<!-- Generator: Adobe Illustrator 16.0.0, SVG Export Plug-In . SVG Version: 6.00 Build 0)  -->
<!DOCTYPE svg PUBLIC "-//W3C//DTD SVG 1.1//EN" "http://www.w3.org/Graphics/SVG/1.1/DTD/svg11.dtd">
<svg version="1.1" id="Layer_1" xmlns="http://www.w3.org/2000/svg" xmlns:xlink="http://www.w3.org/1999/xlink" x="0px" y="0px"
	 width="45px" height="45px" viewBox="0 0 45 45" enable-background="new 0 0 45 45" xml:space="preserve">
<g>
	<path fill="none" stroke="#444444" stroke-miterlimit="10" d="M36.136,19.736c0.178-0.664,0.234-1.345,0.234-2.018
		c0-4.862-3.957-8.818-8.82-8.818c-3.833,0-7.178,2.424-8.375,6.051C19.159,15,19.146,15.09,19.048,15.1
		c-0.016,0.002-0.084,0.011-0.1,0.008c-0.09-0.004-0.189-0.01-0.294-0.01c-2.836,0-5.373,1.791-6.413,4.491
		c-0.022,0.059-0.104,0.159-0.354,0.124c-0.347-0.049-0.7-0.082-1.053-0.082C7.064,19.631,4,22.697,4,26.464
		c0,3.768,3.064,6.833,6.833,6.833h23.177c3.767,0,6.833-3.065,6.833-6.833c0-2.906-1.871-5.51-4.594-6.454
		C36.195,19.99,36.082,19.935,36.136,19.736z"/>
</g>
</svg>
