<?xml version="1.0" encoding="utf-8"?>
<!-- Generator: Adobe Illustrator 16.0.0, SVG Export Plug-In . SVG Version: 6.00 Build 0)  -->
<!DOCTYPE svg PUBLIC "-//W3C//DTD SVG 1.1//EN" "http://www.w3.org/Graphics/SVG/1.1/DTD/svg11.dtd">
<svg version="1.1" id="Layer_1" xmlns="http://www.w3.org/2000/svg" xmlns:xlink="http://www.w3.org/1999/xlink" x="0px" y="0px"
	 width="45px" height="45px" viewBox="0 0 45 45" enable-background="new 0 0 45 45" xml:space="preserve">
<g>
	<path fill="none" stroke="#434343" stroke-width="1.5" stroke-miterlimit="10" d="M35.493,13.846
		c0.163-0.609,0.215-1.234,0.215-1.851c0-4.463-3.632-8.095-8.095-8.095c-3.518,0-6.588,2.226-7.687,5.554
		C19.912,9.498,19.9,9.581,19.811,9.59c-0.015,0.001-0.077,0.009-0.092,0.008c-0.083-0.005-0.174-0.01-0.271-0.01
		c-2.603,0-4.931,1.644-5.886,4.122c-0.021,0.053-0.095,0.146-0.324,0.114c-0.318-0.044-0.643-0.076-0.967-0.076
		C8.813,13.748,6,16.562,6,20.02c0,3.458,2.813,6.271,6.271,6.271h21.271c3.457,0,6.271-2.813,6.271-6.271
		c0-2.667-1.717-5.058-4.216-5.925C35.548,14.078,35.443,14.028,35.493,13.846z"/>
	
		<line fill="#106CAD" stroke="#434343" stroke-width="1.5" stroke-miterlimit="10" x1="28.894" y1="19.006" x2="17.984" y2="35.264"/>
	
		<line fill="#106CAD" stroke="#434343" stroke-width="1.5" stroke-miterlimit="10" x1="15.795" y1="21.303" x2="31.168" y2="33.428"/>
	<circle fill="#FFFFFF" stroke="#434343" stroke-width="1.5" stroke-miterlimit="10" cx="23.482" cy="27.295" r="6.112"/>
	<circle fill="#FFFFFF" stroke="#434343" stroke-width="1.5" stroke-miterlimit="10" cx="30.102" cy="16.731" r="2.824"/>
	<circle fill="#FFFFFF" stroke="#434343" stroke-width="1.5" stroke-miterlimit="10" cx="16.408" cy="37.388" r="2.824"/>
	<circle fill="#FFFFFF" stroke="#434343" stroke-width="1.5" stroke-miterlimit="10" cx="14.97" cy="20.632" r="1.619"/>
	<circle fill="#FFFFFF" stroke="#434343" stroke-width="1.5" stroke-miterlimit="10" cx="32.146" cy="34.325" r="1.941"/>
</g>
</svg>
