<?xml version="1.0" encoding="utf-8"?>
<!-- Generator: Adobe Illustrator 16.0.0, SVG Export Plug-In . SVG Version: 6.00 Build 0)  -->
<!DOCTYPE svg PUBLIC "-//W3C//DTD SVG 1.1//EN" "http://www.w3.org/Graphics/SVG/1.1/DTD/svg11.dtd">
<svg version="1.1" id="Layer_1" xmlns="http://www.w3.org/2000/svg" xmlns:xlink="http://www.w3.org/1999/xlink" x="0px" y="0px"
	 width="45px" height="45px" viewBox="0 0 45 45" enable-background="new 0 0 45 45" xml:space="preserve">
<g>
	<g>
		<g>
			
				<rect x="7.08" y="8.239" fill="none" stroke="#444444" stroke-width="1.5" stroke-miterlimit="10" width="30.92" height="29.709"/>
			<line fill="none" stroke="#444444" stroke-width="1.5" stroke-miterlimit="10" x1="7.08" y1="14.487" x2="37.587" y2="14.487"/>
			<line fill="none" stroke="#444444" stroke-width="1.5" stroke-miterlimit="10" x1="34.485" y1="11.34" x2="35.477" y2="11.34"/>
			<line fill="none" stroke="#444444" stroke-width="1.5" stroke-miterlimit="10" x1="32.618" y1="11.34" x2="33.61" y2="11.34"/>
			<line fill="none" stroke="#444444" stroke-width="1.5" stroke-miterlimit="10" x1="30.751" y1="11.34" x2="31.743" y2="11.34"/>
		</g>
		<g>
			<path fill="#444444" d="M18.961,23.951c-0.209,0.104-0.679,0.216-1.291,0.216c-1.738,0-2.634-1.081-2.634-2.514
				c0-1.716,1.224-2.671,2.746-2.671c0.59,0,1.037,0.12,1.239,0.224l-0.231,0.903c-0.231-0.097-0.552-0.187-0.955-0.187
				c-0.903,0-1.604,0.544-1.604,1.664c0,1.007,0.597,1.642,1.612,1.642c0.343,0,0.724-0.075,0.947-0.164L18.961,23.951z"/>
			<path fill="#444444" d="M24.562,22.167c-0.022-0.604-0.045-1.335-0.045-2.066h-0.022c-0.157,0.642-0.365,1.358-0.56,1.947
				l-0.612,1.962h-0.888l-0.538-1.947c-0.164-0.59-0.335-1.306-0.455-1.962h-0.015c-0.03,0.679-0.052,1.455-0.09,2.082l-0.089,1.91
				h-1.052l0.321-5.029h1.515l0.492,1.679c0.157,0.582,0.313,1.208,0.425,1.798h0.022c0.142-0.582,0.313-1.246,0.478-1.806
				l0.537-1.671h1.485l0.276,5.029h-1.112L24.562,22.167z"/>
			<path fill="#444444" d="M27.262,22.921c0.306,0.157,0.776,0.313,1.261,0.313c0.522,0,0.799-0.216,0.799-0.544
				c0-0.314-0.239-0.493-0.843-0.709c-0.836-0.291-1.38-0.753-1.38-1.485c0-0.858,0.716-1.515,1.902-1.515
				c0.567,0,0.985,0.12,1.284,0.254l-0.254,0.918c-0.201-0.097-0.56-0.239-1.052-0.239c-0.493,0-0.731,0.224-0.731,0.485
				c0,0.321,0.284,0.462,0.933,0.709c0.888,0.328,1.306,0.791,1.306,1.5c0,0.843-0.649,1.559-2.029,1.559
				c-0.575,0-1.142-0.148-1.425-0.306L27.262,22.921z"/>
		</g>
	</g>
	<g>
		<g>
			<g>
				<g>
					<g>
						<g>
							<path fill="none" stroke="#444444" stroke-width="1.5" stroke-linejoin="round" stroke-miterlimit="10" d="M30.308,34.819
								 M29.961,33.997 M26.324,30.441 M25.476,30.101 M32.229,37.271v-0.777c-0.405-0.191-1.471-0.598-2.39-0.922l-0.181-0.064
								l-0.639-1.519l0.077-0.172c0.393-0.887,0.832-1.935,0.972-2.356l-1.188-1.16c-0.384,0.133-1.458,0.593-2.364,1.007
								l-0.167,0.077l-1.537-0.619l-0.068-0.171c-0.363-0.905-0.815-1.956-1.017-2.345H22.04c-0.195,0.395-0.612,1.439-0.946,2.339
								l-0.067,0.178l-1.531,0.623l-0.165-0.07c-0.917-0.39-2.001-0.821-2.424-0.954l-1.183,1.157
								c0.147,0.419,0.606,1.44,1.016,2.302l0.084,0.175l-0.638,1.517l-0.173,0.064c-0.923,0.355-1.992,0.794-2.392,0.994v0.705"/>
						</g>
					</g>
				</g>
			</g>
		</g>
		<path fill="none" stroke="#444444" stroke-width="1.5" stroke-linejoin="round" stroke-miterlimit="10" d="M19.379,37.291
			c0-1.9,1.542-3.443,3.443-3.443c1.9,0,3.443,1.543,3.443,3.443"/>
	</g>
</g>
</svg>
