<?xml version="1.0" encoding="utf-8"?>
<!-- Generator: Adobe Illustrator 16.0.0, SVG Export Plug-In . SVG Version: 6.00 Build 0)  -->
<!DOCTYPE svg PUBLIC "-//W3C//DTD SVG 1.1//EN" "http://www.w3.org/Graphics/SVG/1.1/DTD/svg11.dtd">
<svg version="1.1" id="Layer_1" xmlns="http://www.w3.org/2000/svg" xmlns:xlink="http://www.w3.org/1999/xlink" x="0px" y="0px"
	 width="45px" height="45px" viewBox="0 0 45 45" enable-background="new 0 0 45 45" xml:space="preserve">
<g>
	<g>
		<line fill="#FFFFFF" stroke="#444444" stroke-width="1.5" stroke-miterlimit="10" x1="23.748" y1="18.215" x2="1" y2="18.215"/>
		
			<line fill="#FFFFFF" stroke="#444444" stroke-width="1.5" stroke-miterlimit="10" x1="12.374" y1="6.843" x2="12.374" y2="29.59"/>
		
			<line fill="#FFFFFF" stroke="#444444" stroke-width="1.5" stroke-miterlimit="10" x1="19.431" y1="27.137" x2="5.318" y2="9.295"/>
		
			<line fill="#FFFFFF" stroke="#444444" stroke-width="1.5" stroke-miterlimit="10" x1="21.555" y1="11.502" x2="3.194" y2="24.932"/>
		
			<line fill="#FFFFFF" stroke="#444444" stroke-width="1.5" stroke-miterlimit="10" x1="23.212" y1="21.667" x2="1.536" y2="14.767"/>
		
			<line fill="#FFFFFF" stroke="#444444" stroke-width="1.5" stroke-miterlimit="10" x1="16.184" y1="7.499" x2="8.565" y2="28.933"/>
		
			<line fill="#FFFFFF" stroke="#444444" stroke-width="1.5" stroke-miterlimit="10" x1="16.157" y1="28.941" x2="8.591" y2="7.489"/>
		
			<line fill="#FFFFFF" stroke="#444444" stroke-width="1.5" stroke-miterlimit="10" x1="23.146" y1="14.563" x2="1.603" y2="21.869"/>
		
			<line fill="#FFFFFF" stroke="#444444" stroke-width="1.5" stroke-miterlimit="10" x1="19.232" y1="9.143" x2="5.516" y2="27.291"/>
		
			<line fill="#FFFFFF" stroke="#444444" stroke-width="1.5" stroke-miterlimit="10" x1="21.793" y1="24.593" x2="2.955" y2="11.841"/>
		<circle fill="#FFFFFF" stroke="#444444" stroke-width="1.5" stroke-miterlimit="10" cx="12.373" cy="18.291" r="9.059"/>
		<circle fill="none" stroke="#444444" stroke-width="1.5" stroke-miterlimit="10" cx="12.374" cy="18.291" r="2.268"/>
	</g>
	<line fill="none" stroke="#FFFFFF" stroke-width="2" stroke-miterlimit="10" x1="12.422" y1="5.644" x2="12.422" y2="35.269"/>
	<g>
		<g>
			<g>
				
					<rect x="13.558" y="7.607" fill="#FFFFFF" stroke="#444444" stroke-width="1.5" stroke-miterlimit="10" width="30.347" height="25.799"/>
				
					<line fill="#FFFFFF" stroke="#444444" stroke-width="1.5" stroke-miterlimit="10" x1="44.045" y1="27.979" x2="13.237" y2="27.983"/>
				
					<line fill="#FFFFFF" stroke="#444444" stroke-width="1.5" stroke-linecap="round" stroke-miterlimit="10" x1="39.359" y1="38.452" x2="17.8" y2="38.511"/>
				
					<line fill="#FFFFFF" stroke="#444444" stroke-width="1.5" stroke-miterlimit="10" x1="28.61" y1="33.499" x2="28.58" y2="38.574"/>
				
					<rect x="40.639" y="30.52" fill="#FFFFFF" stroke="#444444" stroke-width="1.5" stroke-miterlimit="10" width="0.511" height="0.511"/>
			</g>
		</g>
	</g>
	<g>
		<path fill="#444444" d="M24.02,21.456c-0.348,0.181-1.116,0.36-2.087,0.36c-2.567,0-4.126-1.607-4.126-4.066
			c0-2.662,1.847-4.27,4.318-4.27c0.971,0,1.667,0.204,1.967,0.36l-0.324,1.175c-0.384-0.168-0.912-0.312-1.583-0.312
			c-1.644,0-2.831,1.031-2.831,2.975c0,1.774,1.043,2.914,2.818,2.914c0.6,0,1.223-0.12,1.607-0.3L24.02,21.456z"/>
		<path fill="#444444" d="M32.107,18.398c-0.048-1.044-0.108-2.303-0.096-3.395h-0.036c-0.264,0.983-0.6,2.075-0.959,3.095
			l-1.175,3.502h-1.14l-1.079-3.454c-0.312-1.031-0.6-2.135-0.816-3.143h-0.024c-0.036,1.056-0.084,2.339-0.144,3.442l-0.18,3.25
			h-1.379l0.54-8.084h1.943l1.055,3.251c0.288,0.947,0.54,1.906,0.744,2.806h0.036c0.216-0.875,0.492-1.87,0.804-2.818l1.115-3.238
			h1.919l0.468,8.084h-1.439L32.107,18.398z"/>
		<path fill="#444444" d="M35.17,20.089c0.48,0.276,1.2,0.516,1.955,0.516c0.947,0,1.475-0.443,1.475-1.103
			c0-0.612-0.408-0.972-1.439-1.344c-1.332-0.479-2.183-1.188-2.183-2.351c0-1.319,1.104-2.327,2.854-2.327
			c0.875,0,1.523,0.192,1.943,0.408l-0.36,1.188c-0.288-0.156-0.852-0.384-1.607-0.384c-0.936,0-1.343,0.504-1.343,0.972
			c0,0.623,0.468,0.911,1.547,1.331c1.403,0.527,2.086,1.235,2.086,2.398c0,1.295-0.983,2.423-3.07,2.423
			c-0.852,0-1.739-0.24-2.183-0.504L35.17,20.089z"/>
	</g>
</g>
</svg>
