<?xml version="1.0" encoding="utf-8"?>
<!-- Generator: Adobe Illustrator 16.0.0, SVG Export Plug-In . SVG Version: 6.00 Build 0)  -->
<!DOCTYPE svg PUBLIC "-//W3C//DTD SVG 1.1//EN" "http://www.w3.org/Graphics/SVG/1.1/DTD/svg11.dtd">
<svg version="1.1" id="Layer_1" xmlns="http://www.w3.org/2000/svg" xmlns:xlink="http://www.w3.org/1999/xlink" x="0px" y="0px"
	 width="45px" height="45px" viewBox="0 0 45 45" enable-background="new 0 0 45 45" xml:space="preserve">
<g>
	<path fill="none" stroke="#444444" stroke-width="1.3" stroke-linecap="round" stroke-linejoin="round" stroke-miterlimit="10" d="
		M9.244,18.968c1.511,0,2.74-1.229,2.74-2.74c0-1.51-1.229-2.739-2.74-2.739s-2.739,1.229-2.739,2.739
		C6.505,17.738,7.733,18.968,9.244,18.968z M6.14,40.342h1.508v-7.895H4.934c-0.181,0.003-0.356-0.046-0.501-0.137
		c-0.255-0.16-0.425-0.444-0.425-0.768c0-0.009,0-0.017,0.001-0.026v-6.575 M19.887,40.15h-2.351c-0.01,0-0.019,0-0.028,0
		c-0.354,0-0.681-0.208-0.825-0.536c-0.021-0.046-0.038-0.093-0.051-0.144l-2.311-8.33l-6.088-0.019
		c-0.106,0-0.208-0.019-0.303-0.052c0,0-0.001,0-0.002-0.001l0,0H7.928c0,0,0,0-0.001,0l0,0c-0.131-0.048-0.249-0.124-0.344-0.224
		c-0.001,0-0.001,0-0.001,0l0,0c-0.001-0.001-0.001-0.001-0.002-0.001c0-0.001,0-0.001,0-0.002l0,0c0,0,0,0-0.001,0v-0.001l0,0
		c-0.001,0-0.001,0-0.002,0c0,0,0,0,0-0.001c0,0,0,0,0-0.001H7.576l0,0v-0.001c-0.153-0.162-0.247-0.38-0.247-0.62v-8.537l0,0
		c0-0.5,0.405-0.904,0.904-0.904h1.784c0.293,0,0.567,0.142,0.737,0.382l3.852,7.446h2.478l1.862-5.215 M28.396,11.079
		c0.175,0.191,0.419,0.295,0.669,0.295c0.109,0,0.22-0.02,0.326-0.062c0.349-0.135,0.577-0.47,0.577-0.843V4.98
		c0-1.092-0.888-1.98-1.979-1.98h-4.808c-1.093,0-1.98,0.888-1.98,1.98v2.584c0,1.092,0.888,1.98,1.98,1.98h3.815L28.396,11.079z
		 M23.009,11.502c0,0.5-0.405,0.905-0.905,0.905h-4.36l-1.211,0.679c-0.138,0.077-0.291,0.115-0.443,0.115
		c-0.157,0-0.314-0.042-0.456-0.124c-0.277-0.163-0.447-0.459-0.447-0.781V7.843c0-1.092,0.888-1.98,1.98-1.98h1.916 M7.647,32.447
		h4.145 M7.647,40.342h1.604 M13.395,31.124l2.051,0.02c0.418,0.002,0.783,0.281,0.896,0.683l2.103,7.072h0.963 M38.39,16.228
		c0-1.51-1.229-2.739-2.739-2.739s-2.74,1.229-2.74,2.739c0,1.511,1.229,2.74,2.74,2.74S38.39,17.738,38.39,16.228z M40.886,24.941
		v6.575c0.001,0.01,0.001,0.018,0.001,0.026c0,0.323-0.17,0.607-0.425,0.768c-0.145,0.091-0.32,0.14-0.501,0.137h-2.714v7.895h1.508
		 M25.948,23.391l1.862,5.215h2.478l3.852-7.446c0.17-0.24,0.444-0.382,0.737-0.382h1.784c0.499,0,0.904,0.405,0.904,0.904l0,0
		v8.537c0,0.24-0.094,0.458-0.247,0.62v0.001l0,0h-0.001c0,0.001,0,0.001,0,0.001c0,0.001,0,0.001,0,0.001c-0.001,0-0.001,0-0.002,0
		l0,0v0.001c-0.001,0-0.001,0-0.001,0l0,0c0,0.001,0,0.001,0,0.002c-0.001,0-0.001,0-0.002,0.001l0,0c0,0,0,0-0.001,0
		c-0.095,0.1-0.213,0.176-0.344,0.224l0,0c-0.001,0-0.001,0-0.001,0h-0.001l0,0c-0.001,0.001-0.002,0.001-0.002,0.001
		c-0.095,0.033-0.196,0.052-0.303,0.052l-6.088,0.019l-2.311,8.33c-0.013,0.051-0.03,0.098-0.051,0.144
		c-0.145,0.328-0.472,0.536-0.825,0.536c-0.01,0-0.019,0-0.028,0h-2.351 M33.103,32.447h4.145 M35.644,40.342h1.604 M25.488,38.898
		h0.963l2.103-7.072c0.112-0.401,0.478-0.681,0.896-0.683l2.051-0.02"/>
</g>
</svg>
