<?xml version="1.0" encoding="utf-8"?>
<!-- Generator: Adobe Illustrator 16.0.0, SVG Export Plug-In . SVG Version: 6.00 Build 0)  -->
<!DOCTYPE svg PUBLIC "-//W3C//DTD SVG 1.1//EN" "http://www.w3.org/Graphics/SVG/1.1/DTD/svg11.dtd">
<svg version="1.1" id="Layer_1" xmlns="http://www.w3.org/2000/svg" xmlns:xlink="http://www.w3.org/1999/xlink" x="0px" y="0px"
	 width="45px" height="45px" viewBox="0 0 45 45" enable-background="new 0 0 45 45" xml:space="preserve">
<g>
	
		<line fill="none" stroke="#434343" stroke-width="1.5" stroke-linecap="round" stroke-miterlimit="10" x1="6.689" y1="38.722" x2="38.586" y2="38.722"/>
	
		<line fill="none" stroke="#434343" stroke-width="1.5" stroke-linecap="round" stroke-miterlimit="10" x1="22.638" y1="25.183" x2="22.638" y2="38.525"/>
	<path fill="#FFFFFF" stroke="#434343" stroke-width="1.5" stroke-miterlimit="10" d="M25.473,39.499
		c0,1.049-0.851,1.899-1.899,1.899h-1.899c-1.049,0-1.899-0.851-1.899-1.899v-1.898c0-1.05,0.85-1.9,1.899-1.9h1.899
		c1.049,0,1.899,0.851,1.899,1.9V39.499z"/>
	<path fill="none" stroke="#434343" stroke-width="1.5" stroke-miterlimit="10" d="M33.339,17.961c0,3.958-3.209,7.166-7.166,7.166
		h-7.167c-3.957,0-7.166-3.208-7.166-7.166v-7.166c0-3.957,3.208-7.166,7.166-7.166h7.167c3.957,0,7.166,3.209,7.166,7.166V17.961z"
		/>
	<text transform="matrix(1 0 0 1 17.0698 19.751)" fill="#434343" font-family="'MyriadPro-Regular'" font-size="15.6052">IP</text>
</g>
</svg>
