<?xml version="1.0" encoding="utf-8"?>
<!-- Generator: Adobe Illustrator 16.0.0, SVG Export Plug-In . SVG Version: 6.00 Build 0)  -->
<!DOCTYPE svg PUBLIC "-//W3C//DTD SVG 1.1//EN" "http://www.w3.org/Graphics/SVG/1.1/DTD/svg11.dtd">
<svg version="1.1" id="Layer_1" xmlns="http://www.w3.org/2000/svg" xmlns:xlink="http://www.w3.org/1999/xlink" x="0px" y="0px"
	 width="45px" height="45px" viewBox="0 0 45 45" enable-background="new 0 0 45 45" xml:space="preserve">
<g>
	<g>
		<path fill="#444444" d="M27.47,6.843H12.005c-0.88,0-1.596,0.715-1.596,1.596v23.264c0,0.88,0.716,1.595,1.596,1.595h12.639
			c0.148,0,0.289-0.059,0.394-0.162l3.866-3.867c0.104-0.104,0.162-0.245,0.162-0.393V8.438C29.065,7.558,28.351,6.843,27.47,6.843z
			 M25.198,31.402v-1.486c0-0.269,0.218-0.486,0.485-0.486h1.486L25.198,31.402z M12.005,7.953H27.47
			c0.27,0,0.485,0.218,0.485,0.485v1.716H11.52V8.438C11.52,8.171,11.738,7.953,12.005,7.953z M11.52,31.702V11.265h16.436V28.32
			h-2.271c-0.879,0-1.596,0.715-1.596,1.596v2.271H12.005C11.738,32.187,11.52,31.97,11.52,31.702z"/>
		<path fill="#444444" d="M13.806,15.377h7.273c0.307,0,0.554-0.248,0.554-0.556c0-0.307-0.247-0.555-0.554-0.555h-7.273
			c-0.306,0-0.555,0.248-0.555,0.555C13.251,15.129,13.5,15.377,13.806,15.377z"/>
		<path fill="#444444" d="M23.3,15.377h1.878c0.306,0,0.555-0.248,0.555-0.556c0-0.307-0.249-0.555-0.555-0.555H23.3
			c-0.306,0-0.555,0.248-0.555,0.555C22.745,15.129,22.994,15.377,23.3,15.377z"/>
		<path fill="#444444" d="M13.806,19.786h7.273c0.307,0,0.554-0.249,0.554-0.556s-0.247-0.555-0.554-0.555h-7.273
			c-0.306,0-0.555,0.248-0.555,0.555S13.5,19.786,13.806,19.786z"/>
		<path fill="#444444" d="M23.3,19.786h1.878c0.306,0,0.555-0.249,0.555-0.556s-0.249-0.555-0.555-0.555H23.3
			c-0.306,0-0.555,0.248-0.555,0.555S22.994,19.786,23.3,19.786z"/>
		<path fill="#444444" d="M21.633,23.64c0-0.305-0.247-0.554-0.554-0.554h-7.273c-0.306,0-0.555,0.249-0.555,0.554
			c0,0.308,0.249,0.557,0.555,0.557h7.273C21.386,24.196,21.633,23.947,21.633,23.64z"/>
		<path fill="#444444" d="M23.3,24.196h1.878c0.306,0,0.555-0.249,0.555-0.557c0-0.305-0.249-0.554-0.555-0.554H23.3
			c-0.306,0-0.555,0.249-0.555,0.554C22.745,23.947,22.994,24.196,23.3,24.196z"/>
		<path fill="#444444" d="M25.178,27.369c0.306,0,0.555-0.249,0.555-0.556s-0.249-0.555-0.555-0.555h-5.29
			c-0.306,0-0.555,0.248-0.555,0.555s0.249,0.556,0.555,0.556H25.178z"/>
	</g>
	<path fill="#FFFFFF" d="M35.137,34.741c0,0.514-3.205,3.72-3.719,3.72H18.875c-0.515,0-0.93-0.416-0.93-0.931V13.958
		c0-0.514,0.415-0.93,0.93-0.93h15.332c0.514,0,0.93,0.416,0.93,0.93V34.741z"/>
	<g>
		<path fill="#444444" d="M34.47,12.621H19.005c-0.88,0-1.596,0.715-1.596,1.596V37.48c0,0.88,0.716,1.595,1.596,1.595h12.639
			c0.148,0,0.289-0.059,0.394-0.162l3.866-3.867c0.104-0.104,0.162-0.245,0.162-0.393V14.217
			C36.065,13.336,35.351,12.621,34.47,12.621z M32.198,37.181v-1.486c0-0.269,0.218-0.486,0.485-0.486h1.486L32.198,37.181z
			 M19.005,13.731H34.47c0.27,0,0.485,0.218,0.485,0.485v1.716H18.52v-1.716C18.52,13.949,18.738,13.731,19.005,13.731z
			 M18.52,37.48V17.043h16.436v17.056h-2.271c-0.879,0-1.596,0.715-1.596,1.596v2.271H19.005
			C18.738,37.965,18.52,37.748,18.52,37.48z"/>
		<path fill="#444444" d="M20.806,21.155h7.273c0.307,0,0.554-0.248,0.554-0.556c0-0.307-0.247-0.555-0.554-0.555h-7.273
			c-0.306,0-0.555,0.248-0.555,0.555C20.251,20.907,20.5,21.155,20.806,21.155z"/>
		<path fill="#444444" d="M30.3,21.155h1.878c0.306,0,0.555-0.248,0.555-0.556c0-0.307-0.249-0.555-0.555-0.555H30.3
			c-0.306,0-0.555,0.248-0.555,0.555C29.745,20.907,29.994,21.155,30.3,21.155z"/>
		<path fill="#444444" d="M20.806,25.564h7.273c0.307,0,0.554-0.249,0.554-0.556s-0.247-0.555-0.554-0.555h-7.273
			c-0.306,0-0.555,0.248-0.555,0.555S20.5,25.564,20.806,25.564z"/>
		<path fill="#444444" d="M30.3,25.564h1.878c0.306,0,0.555-0.249,0.555-0.556s-0.249-0.555-0.555-0.555H30.3
			c-0.306,0-0.555,0.248-0.555,0.555S29.994,25.564,30.3,25.564z"/>
		<path fill="#444444" d="M28.633,29.418c0-0.305-0.247-0.554-0.554-0.554h-7.273c-0.306,0-0.555,0.249-0.555,0.554
			c0,0.308,0.249,0.557,0.555,0.557h7.273C28.386,29.975,28.633,29.726,28.633,29.418z"/>
		<path fill="#444444" d="M30.3,29.975h1.878c0.306,0,0.555-0.249,0.555-0.557c0-0.305-0.249-0.554-0.555-0.554H30.3
			c-0.306,0-0.555,0.249-0.555,0.554C29.745,29.726,29.994,29.975,30.3,29.975z"/>
		<path fill="#444444" d="M32.178,33.147c0.306,0,0.555-0.249,0.555-0.556s-0.249-0.555-0.555-0.555h-5.29
			c-0.306,0-0.555,0.248-0.555,0.555s0.249,0.556,0.555,0.556H32.178z"/>
	</g>
</g>
</svg>
