<?xml version="1.0" encoding="utf-8"?>
<!-- Generator: Adobe Illustrator 19.1.1, SVG Export Plug-In . SVG Version: 6.00 Build 0)  -->
<svg version="1.1" id="Layer_1" xmlns="http://www.w3.org/2000/svg" xmlns:xlink="http://www.w3.org/1999/xlink" x="0px" y="0px"
	 viewBox="-283 374 45 45" style="enable-background:new -283 374 45 45;" xml:space="preserve">
<style type="text/css">
	.st0{fill:none;stroke:#505150;stroke-width:2;stroke-linecap:round;stroke-linejoin:round;stroke-miterlimit:10;}
	.st1{fill:none;stroke:#505150;stroke-width:1.5;stroke-linecap:round;stroke-linejoin:round;stroke-miterlimit:10;}
	.st2{fill:#505150;stroke:#505150;stroke-width:0.5;stroke-miterlimit:10;}
</style>
<line class="st0" x1="-280.1" y1="377.9" x2="-280.1" y2="414.7"/>
<line class="st1" x1="-281.8" y1="378.1" x2="-280.1" y2="378.1"/>
<line class="st1" x1="-281.8" y1="382.9" x2="-280.1" y2="382.9"/>
<line class="st1" x1="-281.8" y1="387.7" x2="-280.1" y2="387.7"/>
<line class="st1" x1="-281.8" y1="392.6" x2="-280.1" y2="392.6"/>
<line class="st1" x1="-281.8" y1="397.4" x2="-280.1" y2="397.4"/>
<line class="st1" x1="-281.8" y1="402.2" x2="-280.1" y2="402.2"/>
<line class="st1" x1="-281.8" y1="407" x2="-280.1" y2="407"/>
<line class="st1" x1="-281.8" y1="411.8" x2="-280.1" y2="411.8"/>
<g>
	<line class="st1" x1="-278.1" y1="416.4" x2="-278.1" y2="414.7"/>
	<line class="st1" x1="-273.3" y1="416.4" x2="-273.3" y2="414.7"/>
	<line class="st1" x1="-268.5" y1="416.4" x2="-268.5" y2="414.7"/>
	<line class="st1" x1="-263.7" y1="416.4" x2="-263.7" y2="414.7"/>
	<line class="st1" x1="-258.8" y1="416.4" x2="-258.8" y2="414.7"/>
	<line class="st1" x1="-254" y1="416.4" x2="-254" y2="414.7"/>
	<line class="st1" x1="-249.2" y1="416.4" x2="-249.2" y2="414.7"/>
	<line class="st1" x1="-244.4" y1="416.4" x2="-244.4" y2="414.7"/>
</g>
<line class="st0" x1="-280.1" y1="414.7" x2="-243.2" y2="414.7"/>
<circle class="st0" cx="-273.3" cy="385.7" r="2.6"/>
<circle class="st0" cx="-260" cy="385.7" r="2.6"/>
<circle class="st0" cx="-241.8" cy="388.9" r="2.6"/>
<circle class="st0" cx="-260" cy="408.2" r="2.6"/>
<path class="st0" d="M-272.8,397c1.4,0,2.6,1.2,2.6,2.6c0,1.4-1.2,2.6-2.6,2.6c-1.4,0-2.6-1.2-2.6-2.6
	C-275.4,398.2-274.2,397-272.8,397z"/>
<line class="st1" x1="-275.4" y1="387.6" x2="-280.1" y2="392"/>
<line class="st1" x1="-274.7" y1="401.4" x2="-280.1" y2="406.5"/>
<line class="st1" x1="-270.7" y1="385.7" x2="-262.6" y2="385.7"/>
<line class="st1" x1="-270.9" y1="401.4" x2="-262.4" y2="407"/>
<line class="st1" x1="-245.4" y1="392.8" x2="-243.5" y2="390.8"/>
<line class="st1" x1="-258.4" y1="406.2" x2="-256.1" y2="403.7"/>
<line class="st1" x1="-258.7" y1="387.9" x2="-256.6" y2="391.1"/>
<g>
	<g>
		<path class="st2" d="M-249.8,403.8l-0.7,0.4c0,0-2.2-3.6-2.3-3.7c-0.2-0.3-0.6-0.4-0.9-0.2c-0.3,0.2-0.4,0.6-0.2,0.9
			c0.1,0.1,2.3,3.6,2.3,3.7l-0.7,0.4c-0.9-1.4-2.3-3.7-2.3-3.7c-0.3-0.7-0.1-1.5,0.5-1.9c0.6-0.4,1.5-0.2,1.9,0.4
			C-252.1,400.2-249.8,403.8-249.8,403.8z"/>
		<path class="st2" d="M-251.6,401l-0.7,0.4c-0.6-0.9-3.4-5.5-3.4-5.5c-0.3-0.7-0.1-1.5,0.5-1.9c0.6-0.4,1.5-0.2,1.9,0.4
			c0,0,2.3,3.7,2.3,3.7l-0.7,0.4c0,0-2.3-3.6-2.3-3.7c-0.2-0.3-0.6-0.4-0.9-0.2c-0.3,0.2-0.4,0.6-0.2,0.9
			C-254.9,395.6-251.6,401-251.6,401z"/>
		<path class="st2" d="M-245.9,398.2l-0.7,0.4c0,0-1.8-2.9-1.9-3c-0.2-0.3-0.6-0.4-0.9-0.2c-0.3,0.2-0.4,0.6-0.2,0.9
			c0,0.1,1.4,2.2,1.4,2.2l-0.7,0.4c0,0-1.4-2.2-1.4-2.3c-0.3-0.7-0.1-1.5,0.5-1.9c0.6-0.4,1.5-0.2,1.9,0.4
			C-247.8,395.1-246.6,397-245.9,398.2z"/>
		<path class="st2" d="M-248.2,398.5l-0.7,0.4c0,0-2.2-3.6-2.3-3.7c-0.2-0.3-0.6-0.3-0.9-0.2c-0.3,0.2-0.4,0.6-0.2,0.9
			c0.1,0.1,2.3,3.6,2.3,3.7l-0.7,0.4c-0.2-0.4-2.3-3.7-2.3-3.7c-0.3-0.7-0.1-1.5,0.5-1.9c0.6-0.4,1.5-0.2,1.9,0.4
			C-250.5,394.8-248.2,398.4-248.2,398.5z"/>
	</g>
	<path class="st2" d="M-244.4,407.1c-2.7,1.7-6.2,0.8-7.8-1.8l0.7-0.4c1.4,2.3,4.5,3,6.8,1.6c2-1.2,2.8-3.7,2.1-5.9
		c-0.2-0.4-2.2-3.5-2.3-3.6c-0.2-0.3-0.6-0.4-0.9-0.2c-0.3,0.2-0.4,0.6-0.2,0.9c0.1,0.2,0,0.5-0.2,0.5c-0.2,0.1-0.4,0-0.5-0.2l0,0
		c0,0,0,0,0,0c-0.1-0.1-0.1-0.1-0.1-0.2l0-0.1c-0.1-0.6,0.1-1.2,0.6-1.5c0.7-0.4,1.5-0.2,1.9,0.4c0,0,0,0,2.3,3.7c0,0,0,0,0,0.1
		C-241.1,402.8-242.1,405.7-244.4,407.1z"/>
</g>
</svg>
