<?xml version="1.0" encoding="utf-8"?>
<!-- Generator: Adobe Illustrator 16.0.0, SVG Export Plug-In . SVG Version: 6.00 Build 0)  -->
<!DOCTYPE svg PUBLIC "-//W3C//DTD SVG 1.1//EN" "http://www.w3.org/Graphics/SVG/1.1/DTD/svg11.dtd">
<svg version="1.1" id="Layer_1" xmlns="http://www.w3.org/2000/svg" xmlns:xlink="http://www.w3.org/1999/xlink" x="0px" y="0px"
	 width="45px" height="45px" viewBox="0 0 45 45" enable-background="new 0 0 45 45" xml:space="preserve">
<g>
	<path fill="#444444" d="M33.453,4.692H13.042c-1.162,0-2.105,0.944-2.105,2.105v30.704c0,1.162,0.944,2.105,2.105,2.105h16.68
		c0.196,0,0.382-0.077,0.519-0.215l5.104-5.104c0.137-0.137,0.214-0.323,0.214-0.517V6.798C35.558,5.636,34.615,4.692,33.453,4.692z
		 M30.454,37.105v-1.962c0-0.354,0.288-0.64,0.64-0.64h1.963L30.454,37.105z M13.042,6.158h20.412c0.354,0,0.64,0.288,0.64,0.64
		v2.265H12.401V6.798C12.401,6.445,12.689,6.158,13.042,6.158z M12.401,37.502V10.528h21.691v22.51h-2.999
		c-1.159,0-2.104,0.944-2.104,2.105v2.999H13.042C12.689,38.142,12.401,37.854,12.401,37.502z"/>
	<path fill="#444444" d="M15.418,15.956h9.599c0.404,0,0.73-0.328,0.73-0.733s-0.326-0.732-0.73-0.732h-9.599
		c-0.404,0-0.732,0.328-0.732,0.732S15.015,15.956,15.418,15.956z"/>
	<path fill="#444444" d="M27.948,15.956h2.479c0.404,0,0.732-0.328,0.732-0.733s-0.328-0.732-0.732-0.732h-2.479
		c-0.404,0-0.732,0.328-0.732,0.732S27.544,15.956,27.948,15.956z"/>
	<path fill="#444444" d="M15.418,21.775h9.599c0.404,0,0.73-0.329,0.73-0.732c0-0.406-0.326-0.733-0.73-0.733h-9.599
		c-0.404,0-0.732,0.328-0.732,0.733C14.687,21.446,15.015,21.775,15.418,21.775z"/>
	<path fill="#444444" d="M27.948,21.775h2.479c0.404,0,0.732-0.329,0.732-0.732c0-0.406-0.328-0.733-0.732-0.733h-2.479
		c-0.404,0-0.732,0.328-0.732,0.733C27.216,21.446,27.544,21.775,27.948,21.775z"/>
	<path fill="#444444" d="M25.748,26.861c0-0.404-0.326-0.732-0.73-0.732h-9.599c-0.404,0-0.732,0.328-0.732,0.732
		c0,0.406,0.328,0.733,0.732,0.733h9.599C25.422,27.594,25.748,27.268,25.748,26.861z"/>
	<path fill="#444444" d="M27.948,27.594h2.479c0.404,0,0.732-0.327,0.732-0.733c0-0.404-0.328-0.732-0.732-0.732h-2.479
		c-0.404,0-0.732,0.328-0.732,0.732C27.216,27.268,27.544,27.594,27.948,27.594z"/>
	<path fill="#444444" d="M30.427,31.783c0.404,0,0.732-0.329,0.732-0.734c0-0.404-0.328-0.732-0.732-0.732h-6.981
		c-0.403,0-0.732,0.328-0.732,0.732c0,0.405,0.329,0.734,0.732,0.734H30.427z"/>
</g>
</svg>
