<?xml version="1.0" encoding="utf-8"?>
<!-- Generator: Adobe Illustrator 16.0.0, SVG Export Plug-In . SVG Version: 6.00 Build 0)  -->
<!DOCTYPE svg PUBLIC "-//W3C//DTD SVG 1.1//EN" "http://www.w3.org/Graphics/SVG/1.1/DTD/svg11.dtd">
<svg version="1.1" xmlns="http://www.w3.org/2000/svg" xmlns:xlink="http://www.w3.org/1999/xlink" x="0px" y="0px" width="45px"
	 height="45px" viewBox="0 0 45 45" enable-background="new 0 0 45 45" xml:space="preserve">
<g id="Layer_1">
	<g>
		<polyline fill="none" stroke="#454545" stroke-width="1.5" stroke-miterlimit="10" points="37.529,22.5 37.529,37.75 5.731,37.75 
			5.731,12.465 24.063,12.465 		"/>
		<line fill="none" stroke="#454545" stroke-width="1.5" stroke-miterlimit="10" x1="6.099" y1="13.143" x2="22.121" y2="25.107"/>
		<line fill="none" stroke="#454545" stroke-width="1.5" stroke-miterlimit="10" x1="25.256" y1="22.164" x2="21.313" y2="25.107"/>
		<g id="_x37_7_Essential_Icons_42_">
			<path id="Notification" fill="none" stroke="#454545" stroke-width="1.5" stroke-miterlimit="10" d="M27.105,14.628l1.322,3.618
				l-1.117,2.378c-0.063,0.102-0.082,0.224-0.041,0.346c0.08,0.224,0.324,0.325,0.527,0.244l0,0l4.432-1.585
				c0.529,0.895,1.668,1.321,2.685,0.956c1.017-0.366,1.606-1.403,1.424-2.44l4.392-1.606c0.346-0.122,0.365-0.589,0.041-0.731
				l-2.439-1.119l-1.322-3.619c-0.955-2.561-3.74-3.943-6.361-3.232L30.42,7.269c-0.061-0.203-0.305-0.326-0.508-0.244
				c-0.225,0.061-0.325,0.305-0.244,0.508l0.204,0.589C27.393,9.241,26.15,12.066,27.105,14.628z M32.229,19.629l4.107-1.484"/>
		</g>
	</g>
</g>
<g id="Layer_2">
</g>
<g id="Layer_3">
</g>
</svg>
