<?xml version="1.0" encoding="utf-8"?>
<!-- Generator: Adobe Illustrator 16.0.0, SVG Export Plug-In . SVG Version: 6.00 Build 0)  -->
<!DOCTYPE svg PUBLIC "-//W3C//DTD SVG 1.1//EN" "http://www.w3.org/Graphics/SVG/1.1/DTD/svg11.dtd">
<svg version="1.1" xmlns="http://www.w3.org/2000/svg" xmlns:xlink="http://www.w3.org/1999/xlink" x="0px" y="0px" width="45px"
	 height="45px" viewBox="0 0 45 45" enable-background="new 0 0 45 45" xml:space="preserve">
<g id="Layer_1">
	<path fill="none" stroke="#444444" stroke-width="1.5" stroke-miterlimit="10" d="M26.391,36.835
		c-1.594,0.567-3.311,0.875-5.099,0.875c-8.406,0-15.221-6.814-15.221-15.221c0-8.095,6.318-14.713,14.292-15.193
		c0.307-0.019,0.617-0.028,0.928-0.028c8.406,0,15.221,6.814,15.221,15.221c0,0.917-0.081,1.813-0.236,2.685"/>
	<path fill="none" stroke="#444444" stroke-width="1.5" stroke-miterlimit="10" d="M20.063,7.348c0,0-10.744,12.401,0,30.318"/>
	<path fill="none" stroke="#444444" stroke-width="1.5" stroke-miterlimit="10" d="M22.288,7.348c0,0,10.744,12.401,0,30.318"/>
	<path fill="none" stroke="#444444" stroke-width="1.5" stroke-miterlimit="10" d="M8.396,14.537c0,0,11.667,9.417,26.559,0"/>
	<path fill="none" stroke="#444444" stroke-width="1.5" stroke-miterlimit="10" d="M8.396,30.447c0,0,7.584-6.122,18.329-3.558"/>
	<polygon fill="none" stroke="#444444" stroke-width="1.5" stroke-miterlimit="10" points="37.667,27.687 29.425,36.033 
		29.425,27.705 	"/>
	<line fill="none" stroke="#444444" stroke-width="1.5" stroke-miterlimit="10" x1="33.64" y1="31.921" x2="40.447" y2="38.069"/>
</g>
<g id="Layer_2">
</g>
<g id="Layer_3">
</g>
</svg>
