<?xml version="1.0" encoding="utf-8"?>
<!-- Generator: Adobe Illustrator 16.0.0, SVG Export Plug-In . SVG Version: 6.00 Build 0)  -->
<!DOCTYPE svg PUBLIC "-//W3C//DTD SVG 1.1//EN" "http://www.w3.org/Graphics/SVG/1.1/DTD/svg11.dtd">
<svg version="1.1" id="Layer_1" xmlns="http://www.w3.org/2000/svg" xmlns:xlink="http://www.w3.org/1999/xlink" x="0px" y="0px"
	 width="45px" height="45px" viewBox="0 0 45 45" enable-background="new 0 0 45 45" xml:space="preserve">
<g>
	<path fill="#444444" stroke="#444444" stroke-miterlimit="10" d="M5.729,8.42c0.405,0,0.733-0.328,0.733-0.733
		c0-1.13,0.919-2.05,2.05-2.05h6.555l5.159,5.636c0.139,0.151,0.335,0.238,0.541,0.238h16.722c1.131,0,2.05,0.919,2.05,2.05
		c0,0.405,0.328,1.289,0.733,1.289c0.404,0,0.732-0.884,0.732-1.289c0-1.938-1.577-3.515-3.516-3.515H21.089L15.93,4.41
		c-0.139-0.152-0.335-0.238-0.541-0.238H8.512c-1.938,0-3.516,1.577-3.516,3.516C4.996,8.092,5.325,8.42,5.729,8.42z"/>
	<path fill="#444444" stroke="#444444" stroke-miterlimit="10" d="M37.488,15.489H21.089L15.93,9.853
		c-0.139-0.151-0.335-0.238-0.541-0.238H8.512c-1.938,0-3.516,1.577-3.516,3.515v14.488c0,0.404,0.329,0.732,0.733,0.732
		c0.405,0,0.733-0.328,0.733-0.732V13.13c0-1.13,0.919-2.05,2.05-2.05h6.555l5.159,5.636c0.139,0.151,0.335,0.238,0.541,0.238
		h16.722c1.131,0,2.05,0.92,2.05,2.05v16.753c0,1.13-0.919,2.05-2.05,2.05H8.512c-1.13,0-2.05-0.92-2.05-2.05
		c0-0.405-0.328-0.733-0.733-0.733c-0.404,0-0.733,0.328-0.733,0.733c0,1.938,1.577,3.516,3.516,3.516h28.977
		c1.938,0,3.516-1.577,3.516-3.516V19.004C41.004,17.066,39.427,15.489,37.488,15.489z"/>
</g>
</svg>
