<?xml version="1.0" encoding="utf-8"?>
<!-- Generator: Adobe Illustrator 16.0.0, SVG Export Plug-In . SVG Version: 6.00 Build 0)  -->
<!DOCTYPE svg PUBLIC "-//W3C//DTD SVG 1.1//EN" "http://www.w3.org/Graphics/SVG/1.1/DTD/svg11.dtd">
<svg version="1.1" id="Layer_1" xmlns="http://www.w3.org/2000/svg" xmlns:xlink="http://www.w3.org/1999/xlink" x="0px" y="0px"
	 width="320.687px" height="254.247px" viewBox="0 0 320.687 254.247" enable-background="new 0 0 320.687 254.247"
	 xml:space="preserve">
<g>
	<polygon fill="#E8E8E8" points="0,205.555 155.2,156.456 320.687,205.555 160.343,254.247 	"/>
	
		<line fill="#FFFFFF" stroke="#3B3B3B" stroke-width="6" stroke-miterlimit="10" x1="271.902" y1="158.787" x2="148.152" y2="158.787"/>
	
		<line fill="#FFFFFF" stroke="#3B3B3B" stroke-width="6" stroke-miterlimit="10" x1="210.027" y1="96.912" x2="210.027" y2="220.662"/>
	
		<line fill="#FFFFFF" stroke="#3B3B3B" stroke-width="6" stroke-miterlimit="10" x1="248.412" y1="207.316" x2="171.643" y2="110.257"/>
	
		<line fill="#FFFFFF" stroke="#3B3B3B" stroke-width="6" stroke-miterlimit="10" x1="259.968" y1="122.258" x2="160.086" y2="195.315"/>
	
		<line fill="#FFFFFF" stroke="#3B3B3B" stroke-width="6" stroke-miterlimit="10" x1="268.986" y1="177.557" x2="151.068" y2="140.018"/>
	
		<line fill="#FFFFFF" stroke="#3B3B3B" stroke-width="6" stroke-miterlimit="10" x1="230.751" y1="100.486" x2="189.305" y2="217.089"/>
	
		<line fill="#FFFFFF" stroke="#3B3B3B" stroke-width="6" stroke-miterlimit="10" x1="230.606" y1="217.141" x2="189.448" y2="100.434"/>
	
		<line fill="#FFFFFF" stroke="#3B3B3B" stroke-width="6" stroke-miterlimit="10" x1="268.624" y1="138.913" x2="151.431" y2="178.661"/>
	
		<line fill="#FFFFFF" stroke="#3B3B3B" stroke-width="6" stroke-miterlimit="10" x1="247.332" y1="109.423" x2="172.723" y2="208.152"/>
	
		<line fill="#FFFFFF" stroke="#3B3B3B" stroke-width="6" stroke-miterlimit="10" x1="261.267" y1="193.473" x2="158.79" y2="124.102"/>
	<circle fill="#FFFFFF" stroke="#3B3B3B" stroke-width="6" stroke-miterlimit="10" cx="210.027" cy="159.193" r="49.282"/>
	<circle fill="none" stroke="#3B3B3B" stroke-width="6" stroke-miterlimit="10" cx="210.027" cy="159.194" r="12.343"/>
	<circle fill="none" stroke="#3B3B3B" stroke-width="6" stroke-miterlimit="10" cx="110.027" cy="68.194" r="33.756"/>
	<polyline fill="none" stroke="#3B3B3B" stroke-width="6" stroke-miterlimit="10" points="110.027,34.231 110.027,69.664 
		83.516,86.785 	"/>
	<g>
		<g>
			<g>
				<g>
					<g>
						<path fill="#3B3B3B" d="M118.53,137.183h-14.716c-2.215,0-2.987,0.005-10.531-18.687l-5.827-2.369
							C71.58,123.33,69.7,123.33,69.072,123.33h-1.215l-1.037-0.89L56.39,112.234c-1.586-1.584-2.136-2.134,6.026-20.582
							l-2.375-5.622c-19.167-6.868-19.167-7.665-19.167-9.928V61.676c0-2.261,0-2.974,19.103-10.36l2.375-5.634
							c-8.634-18.167-8.04-18.731-6.337-20.334l11.218-10.998l1.394-0.044c1.694,0,7.978,2.293,18.692,6.816l5.809-2.359
							C100.123-0.003,100.981,0,103.188,0h14.715c2.205,0,2.98,0.002,10.524,18.699l5.837,2.352
							c15.852-7.193,17.756-7.193,18.389-7.193h1.207l1.036,0.875l10.433,10.189c1.586,1.602,2.128,2.149-6.035,20.604l2.383,5.653
							c19.191,6.839,19.191,7.633,19.191,9.901v14.41c0,2.208,0,2.984-19.128,10.375l-2.36,5.638
							c8.59,18.088,8.022,18.655,6.415,20.276l-11.304,11.066l-1.4,0.04c-1.687,0-7.955-2.296-18.655-6.823l-5.845,2.36
							C121.578,137.183,120.78,137.183,118.53,137.183z M105.345,131.227h11.606c1.331-2.716,4.21-9.914,6.516-16.114l0.465-1.234
							l10.568-4.268l1.136,0.482c6.299,2.686,13.742,5.663,16.645,6.577l8.155-7.977c-1.035-2.871-4.177-9.898-7.01-15.825
							l-0.57-1.205l4.372-10.438l1.19-0.46c6.362-2.449,13.733-5.472,16.487-6.851V62.707c-2.786-1.31-10.128-4.103-16.455-6.347
							l-1.239-0.442l-4.401-10.449l0.525-1.178c2.708-6.11,5.719-13.318,6.685-16.222l-8.18-7.994
							c-2.638,0.921-10.029,4.088-16.264,6.933l-1.161,0.533l-10.568-4.26l-0.472-1.176c-2.498-6.234-5.603-13.464-7.002-16.14
							h-11.599c-1.34,2.708-4.209,9.909-6.508,16.106l-0.458,1.228l-10.538,4.282l-1.137-0.487
							c-6.313-2.681-13.772-5.653-16.683-6.567l-8.141,7.982c1.021,2.867,4.171,9.889,6.994,15.816l0.58,1.208l-4.396,10.434
							l-1.182,0.457c-6.352,2.446-13.711,5.467-16.466,6.841v11.221c2.787,1.315,10.121,4.116,16.444,6.369l1.229,0.448
							l4.402,10.414l-0.525,1.175c-2.708,6.105-5.717,13.303-6.685,16.202l8.195,8.018c2.631-0.928,10.013-4.096,16.255-6.944
							l1.168-0.535l10.547,4.287l0.471,1.175C100.849,121.331,103.943,128.548,105.345,131.227z"/>
					</g>
				</g>
			</g>
		</g>
	</g>
	<line fill="none" stroke="#3B3B3B" stroke-width="6" stroke-miterlimit="10" x1="110.488" y1="68.855" x2="138.235" y2="85.811"/>
</g>
</svg>
