<?xml version="1.0" encoding="utf-8"?>
<!-- Generator: Adobe Illustrator 16.0.0, SVG Export Plug-In . SVG Version: 6.00 Build 0)  -->
<!DOCTYPE svg PUBLIC "-//W3C//DTD SVG 1.1//EN" "http://www.w3.org/Graphics/SVG/1.1/DTD/svg11.dtd">
<svg version="1.1" id="Layer_1" xmlns="http://www.w3.org/2000/svg" xmlns:xlink="http://www.w3.org/1999/xlink" x="0px" y="0px"
	 width="320.687px" height="252.976px" viewBox="0 0 320.687 252.976" enable-background="new 0 0 320.687 252.976"
	 xml:space="preserve">
<g>
	<polygon fill="#E8E8E8" points="0,204.284 155.2,155.185 320.687,204.284 160.343,252.976 	"/>
	<circle fill="none" stroke="#3B3B3B" stroke-width="6" stroke-miterlimit="10" cx="140.662" cy="154.246" r="29.917"/>
	
		<line fill="none" stroke="#3B3B3B" stroke-width="6" stroke-linecap="round" stroke-miterlimit="10" x1="88.912" y1="79.976" x2="45.912" y2="122.809"/>
	
		<line fill="none" stroke="#3B3B3B" stroke-width="6" stroke-linecap="round" stroke-miterlimit="10" x1="46.912" y1="79.976" x2="89.912" y2="122.809"/>
	
		<line fill="none" stroke="#3B3B3B" stroke-width="6" stroke-linecap="round" stroke-miterlimit="10" x1="158.912" y1="19.976" x2="115.912" y2="62.809"/>
	
		<line fill="none" stroke="#3B3B3B" stroke-width="6" stroke-linecap="round" stroke-miterlimit="10" x1="116.912" y1="19.976" x2="159.912" y2="62.809"/>
	
		<line fill="none" stroke="#3B3B3B" stroke-width="6" stroke-linecap="round" stroke-miterlimit="10" x1="287.912" y1="111.976" x2="244.912" y2="154.809"/>
	
		<line fill="none" stroke="#3B3B3B" stroke-width="6" stroke-linecap="round" stroke-miterlimit="10" x1="245.912" y1="111.976" x2="288.912" y2="154.809"/>
	<path fill="#FFFFFF" stroke="#3B3B3B" stroke-width="6" stroke-linecap="round" stroke-miterlimit="10" d="M162.245,150.141"/>
	<path fill="none" stroke="#3B3B3B" stroke-width="6" stroke-linecap="round" stroke-miterlimit="10" d="M207.245,9.141
		c0,0,52.5,84.5-38,137.5"/>
	<polyline fill="none" stroke="#3B3B3B" stroke-width="6" stroke-linecap="round" stroke-miterlimit="10" points="190.912,47.642 
		204.578,3.642 248.245,15.308 	"/>
	<polyline fill="none" stroke="#3B3B3B" stroke-width="6" stroke-linecap="round" stroke-miterlimit="10" points="215.745,249.641 
		214.245,236.641 191.245,223.391 193.745,178.891 233.495,203.141 228.745,231.141 238.245,239.391 	"/>
	
		<line fill="none" stroke="#3B3B3B" stroke-width="6" stroke-linecap="round" stroke-miterlimit="10" x1="214.745" y1="219.641" x2="193.745" y2="178.891"/>
	
		<line fill="none" stroke="#3B3B3B" stroke-width="6" stroke-linecap="round" stroke-miterlimit="10" x1="204.245" y1="243.641" x2="239.495" y2="224.641"/>
</g>
</svg>
