<?xml version="1.0" encoding="utf-8"?>
<!-- Generator: Adobe Illustrator 16.0.0, SVG Export Plug-In . SVG Version: 6.00 Build 0)  -->
<!DOCTYPE svg PUBLIC "-//W3C//DTD SVG 1.1//EN" "http://www.w3.org/Graphics/SVG/1.1/DTD/svg11.dtd">
<svg version="1.1" id="Layer_1" xmlns="http://www.w3.org/2000/svg" xmlns:xlink="http://www.w3.org/1999/xlink" x="0px" y="0px"
	 width="45px" height="45px" viewBox="0 0 45 45" enable-background="new 0 0 45 45" xml:space="preserve">
<g>
	<g>
		<path fill="#F9F9FA" stroke="#444444" stroke-width="1.5" stroke-miterlimit="10" d="M10.594,27.577
			c-0.899,0-1.631-0.732-1.631-1.632c0-0.898,0.731-1.631,1.631-1.631s1.63,0.732,1.63,1.631
			C12.224,26.845,11.493,27.577,10.594,27.577z M10.2,28.392h0.394c1.37,0,2.484,1.114,2.484,2.484v2.652
			c0,0.247-0.201,0.446-0.445,0.446c-0.228,0-0.409,0.182-0.409,0.407v4.06c0,0.098-0.08,0.178-0.179,0.178h-1.881 M10.376,38.619
			H9.142c-0.099,0-0.179-0.08-0.179-0.178v-3.203 M8.959,38.441v-4.06c0-0.226-0.182-0.407-0.408-0.407
			c-0.244,0-0.444-0.199-0.444-0.446v-2.652c0-1.37,1.113-2.484,2.483-2.484h0.192 M33.21,22.238c-1.335,0-2.421-1.084-2.421-2.42
			c0-1.334,1.085-2.42,2.421-2.42c1.332,0,2.419,1.086,2.419,2.42C35.629,21.154,34.542,22.238,33.21,22.238z M32.627,23.447h0.583
			c2.03,0,3.683,1.654,3.683,3.685v3.935c0,0.366-0.296,0.661-0.659,0.661c-0.336,0-0.604,0.272-0.604,0.605v6.021
			c0,0.146-0.122,0.266-0.267,0.266h-2.791 M32.886,38.619h-1.831c-0.146,0-0.266-0.12-0.266-0.266v-4.751 M30.783,38.354v-6.021
			c0-0.333-0.27-0.605-0.605-0.605c-0.364,0-0.659-0.295-0.659-0.661v-3.935c0-2.03,1.653-3.685,3.686-3.685h0.283 M21.227,24.987
			c-1.11,0-2.013-0.903-2.013-2.013c0-1.11,0.902-2.014,2.013-2.014c1.109,0,2.014,0.903,2.014,2.014
			C23.24,24.084,22.336,24.987,21.227,24.987z M20.741,25.994h0.485c1.689,0,3.066,1.377,3.066,3.066v3.274
			c0,0.304-0.248,0.551-0.55,0.551c-0.279,0-0.503,0.226-0.503,0.502v5.012c0,0.12-0.102,0.22-0.222,0.22h-2.321 M20.959,38.619
			h-1.525c-0.12,0-0.22-0.1-0.22-0.22v-3.955 M19.209,38.399v-5.012c0-0.276-0.226-0.502-0.504-0.502
			c-0.303,0-0.549-0.247-0.549-0.551v-3.274c0-1.689,1.375-3.066,3.066-3.066h0.236"/>
	</g>
	<line fill="#F9F9FA" stroke="#444444" stroke-width="1.5" stroke-miterlimit="10" x1="7.25" y1="21.063" x2="35.478" y2="10.289"/>
	<polyline fill="none" stroke="#444444" stroke-width="1.5" stroke-miterlimit="10" points="32.796,8.134 36.241,9.876 
		35.316,13.449 	"/>
</g>
</svg>
