<?xml version="1.0" encoding="utf-8"?>
<!-- Generator: Adobe Illustrator 16.0.0, SVG Export Plug-In . SVG Version: 6.00 Build 0)  -->
<!DOCTYPE svg PUBLIC "-//W3C//DTD SVG 1.1//EN" "http://www.w3.org/Graphics/SVG/1.1/DTD/svg11.dtd">
<svg version="1.1" id="Layer_1" xmlns="http://www.w3.org/2000/svg" xmlns:xlink="http://www.w3.org/1999/xlink" x="0px" y="0px"
	 width="45px" height="45px" viewBox="0 0 45 45" enable-background="new 0 0 45 45" xml:space="preserve">
<g>
	<g>
		<g>
			<g>
				
					<path fill="none" stroke="#444444" stroke-width="1.5" stroke-linecap="round" stroke-linejoin="round" stroke-miterlimit="10" d="
					M33.023,37.809l-3.351,2.233c-0.181,0.122-0.425,0.13-0.616,0.003l-3.047-2.03l-3.04,2.027c-0.18,0.122-0.425,0.13-0.618,0.003
					l-3.044-2.03l-3.041,2.027c-0.179,0.122-0.424,0.13-0.616,0.003l-3.046-2.029L9.56,40.045l-0.002-0.002
					c-0.088,0.06-0.193,0.093-0.307,0.093c-0.306,0-0.554-0.249-0.554-0.557L8.703,5.002L8.7,4.943c0-0.309,0.252-0.558,0.56-0.558
					h25.691v0.002c0.307,0,0.556,0.25,0.556,0.556l-0.008,32.4"/>
			</g>
		</g>
	</g>
	
		<line fill="none" stroke="#444444" stroke-width="1.5" stroke-linecap="round" stroke-miterlimit="10" x1="12.539" y1="9" x2="20.056" y2="9"/>
	
		<line fill="none" stroke="#444444" stroke-width="1.5" stroke-linecap="round" stroke-miterlimit="10" x1="12.539" y1="13" x2="24.056" y2="13"/>
	
		<line fill="none" stroke="#444444" stroke-width="1.5" stroke-linecap="round" stroke-miterlimit="10" x1="12.539" y1="17" x2="23.056" y2="17"/>
	
		<line fill="none" stroke="#444444" stroke-width="1.5" stroke-linecap="round" stroke-miterlimit="10" x1="12.539" y1="21" x2="16.056" y2="21"/>
	
		<line fill="none" stroke="#444444" stroke-width="1.5" stroke-linecap="round" stroke-miterlimit="10" x1="12.539" y1="25" x2="19.056" y2="25"/>
	
		<line fill="none" stroke="#444444" stroke-width="1.5" stroke-linecap="round" stroke-miterlimit="10" x1="12.539" y1="29" x2="21.056" y2="29"/>
	
		<line fill="none" stroke="#444444" stroke-width="1.5" stroke-linecap="round" stroke-miterlimit="10" x1="29.074" y1="9" x2="31.591" y2="9"/>
	
		<line fill="none" stroke="#444444" stroke-width="1.5" stroke-linecap="round" stroke-miterlimit="10" x1="29.074" y1="13" x2="31.591" y2="13"/>
	
		<line fill="none" stroke="#444444" stroke-width="1.5" stroke-linecap="round" stroke-miterlimit="10" x1="29.074" y1="17" x2="31.591" y2="17"/>
	
		<line fill="none" stroke="#444444" stroke-width="1.5" stroke-linecap="round" stroke-miterlimit="10" x1="29.074" y1="21" x2="31.591" y2="21"/>
	
		<line fill="none" stroke="#444444" stroke-width="1.5" stroke-linecap="round" stroke-miterlimit="10" x1="29.074" y1="25" x2="31.591" y2="25"/>
	
		<line fill="none" stroke="#444444" stroke-width="1.5" stroke-linecap="round" stroke-miterlimit="10" x1="29.074" y1="29" x2="31.591" y2="29"/>
	
		<line fill="none" stroke="#444444" stroke-width="1.5" stroke-linecap="round" stroke-miterlimit="10" x1="27.074" y1="33" x2="31.591" y2="33"/>
</g>
</svg>
