<?xml version="1.0" encoding="utf-8"?>
<!-- Generator: Adobe Illustrator 16.0.0, SVG Export Plug-In . SVG Version: 6.00 Build 0)  -->
<!DOCTYPE svg PUBLIC "-//W3C//DTD SVG 1.1//EN" "http://www.w3.org/Graphics/SVG/1.1/DTD/svg11.dtd">
<svg version="1.1" id="Layer_1" xmlns="http://www.w3.org/2000/svg" xmlns:xlink="http://www.w3.org/1999/xlink" x="0px" y="0px"
	 width="45px" height="45px" viewBox="0 0 45 45" enable-background="new 0 0 45 45" xml:space="preserve">
<g>
	<path id="XMLID_421_" fill="#444444" d="M36.637,13.116c0-1.443-1.175-2.618-2.619-2.618c-1.442,0-2.617,1.174-2.617,2.618
		c0,1.443,1.175,2.617,2.617,2.617C35.462,15.733,36.637,14.559,36.637,13.116z M32.782,13.116c0-0.682,0.554-1.237,1.235-1.237
		c0.683,0,1.237,0.555,1.237,1.237c0,0.682-0.555,1.236-1.237,1.236C33.336,14.352,32.782,13.797,32.782,13.116z M32.139,22.271
		c0.272,0.57,0.684,1.433,1.879,1.433c1.196,0,1.607-0.862,1.88-1.433c0.035-0.073,0.719-1.423,0.719-1.423
		c1.473-2.892,3.042-6.113,3.042-7.732c0-3.11-2.53-5.64-5.641-5.64c-3.109,0-5.639,2.53-5.639,5.64c0,1.619,1.57,4.84,3.041,7.732
		C31.42,20.848,32.104,22.197,32.139,22.271z M34.018,8.857c2.349,0,4.259,1.91,4.259,4.259c0,1.424-1.951,5.261-2.891,7.106
		c0,0-0.694,1.372-0.734,1.455c-0.276,0.58-0.342,0.646-0.634,0.646c-0.291,0-0.355-0.066-0.632-0.646
		c-0.039-0.083-0.734-1.455-0.734-1.455c-0.938-1.845-2.892-5.682-2.892-7.106C29.76,10.767,31.67,8.857,34.018,8.857z
		 M36.774,23.454c-0.382,0-0.691,0.31-0.691,0.69c0,1.124-0.131,2.218-0.38,3.267c-2.695,0.579-5.471,0.984-8.302,1.211
		c0.108-1.442,0.165-2.945,0.165-4.478c0-1.326-0.043-2.628-0.123-3.888c0.217-0.02,0.435-0.042,0.65-0.063
		c0.38-0.039,0.656-0.377,0.617-0.757s-0.379-0.656-0.757-0.617c-0.206,0.021-0.411,0.041-0.618,0.059
		c-0.293-3.256-0.854-6.167-1.627-8.379c0.271,0.075,0.541,0.158,0.809,0.25c0.361,0.123,0.753-0.069,0.877-0.43
		c0.123-0.361-0.068-0.753-0.43-0.877c-1.617-0.554-3.313-0.835-5.038-0.835c-0.939,0-1.859,0.083-2.753,0.244
		c-0.02,0.003-0.04,0.006-0.06,0.011c-5.106,0.937-9.347,4.379-11.398,9c-0.021,0.039-0.04,0.08-0.054,0.123
		c-0.819,1.889-1.273,3.972-1.273,6.159c0,1.38,0.181,2.718,0.52,3.993c0.005,0.024,0.011,0.047,0.019,0.071
		c1.55,5.718,6.292,10.137,12.185,11.219c0.02,0.005,0.041,0.008,0.061,0.011c0.894,0.16,1.813,0.244,2.753,0.244
		c0.938,0,1.858-0.084,2.752-0.244c0.02-0.003,0.04-0.006,0.059-0.011c5.895-1.082,10.637-5.502,12.188-11.22
		c0.007-0.022,0.013-0.045,0.019-0.069c0.339-1.274,0.521-2.613,0.521-3.994C37.465,23.764,37.155,23.454,36.774,23.454z
		 M26.186,24.144c0,1.572-0.061,3.108-0.176,4.575c-1.35,0.08-2.713,0.121-4.083,0.121c-1.37,0-2.733-0.041-4.083-0.121
		c-0.115-1.467-0.175-3.003-0.175-4.575c0-1.29,0.04-2.556,0.118-3.778c1.361,0.091,2.741,0.137,4.141,0.137
		c1.386,0,2.772-0.046,4.139-0.139C26.145,21.587,26.186,22.854,26.186,24.144z M19.752,10.155c0.709-0.11,1.435-0.167,2.175-0.167
		c0.732,0,1.458,0.055,2.174,0.166c0.896,2.163,1.541,5.274,1.86,8.833c-1.333,0.089-2.684,0.134-4.035,0.134
		c-1.364,0-2.709-0.044-4.035-0.132C18.211,15.43,18.856,12.318,19.752,10.155z M18.145,10.501
		c-0.773,2.211-1.334,5.124-1.627,8.379c-2.488-0.226-4.897-0.61-7.209-1.15C11.094,14.233,14.292,11.571,18.145,10.501z
		 M17.081,33.621c-1.771-0.91-3.256-2.302-4.28-4.001c1.246,0.167,2.505,0.3,3.774,0.397C16.704,31.282,16.874,32.49,17.081,33.621z
		 M7.771,24.144c0-1.808,0.341-3.539,0.962-5.131c2.459,0.588,5.026,1.005,7.679,1.244c-0.082,1.26-0.124,2.563-0.124,3.887
		c0,1.533,0.057,3.036,0.166,4.478c-1.483-0.119-2.952-0.287-4.401-0.502c-0.497-1.229-0.77-2.57-0.77-3.975
		c0-0.38-0.31-0.69-0.69-0.69c-0.381,0-0.69,0.31-0.69,0.69c0,1.299,0.207,2.55,0.589,3.723c-0.786-0.138-1.566-0.29-2.34-0.456
		C7.902,26.362,7.771,25.268,7.771,24.144z M8.597,28.914c0.827,0.167,1.659,0.319,2.5,0.454c1.297,2.679,3.56,4.807,6.333,5.93
		c0.211,0.902,0.451,1.736,0.714,2.49C13.708,36.556,10.141,33.214,8.597,28.914z M24.102,38.134
		c-0.709,0.11-1.436,0.167-2.174,0.167c-0.74,0-1.466-0.057-2.175-0.167c-0.285-0.686-0.543-1.468-0.775-2.33
		c0.944,0.239,1.933,0.366,2.95,0.366c0.381,0,0.69-0.309,0.69-0.69c0-0.381-0.309-0.691-0.69-0.691
		c-1.158,0-2.273-0.185-3.317-0.529c-0.267-1.27-0.482-2.666-0.639-4.15c2.619,0.148,5.292,0.148,7.912,0
		C25.543,33.331,24.929,36.137,24.102,38.134z M25.709,37.788c0.726-2.073,1.264-4.761,1.569-7.771
		c2.714-0.209,5.382-0.578,7.979-1.103C33.714,33.214,30.146,36.556,25.709,37.788z"/>
</g>
</svg>
