<?xml version="1.0" encoding="utf-8"?>
<!-- Generator: Adobe Illustrator 16.0.0, SVG Export Plug-In . SVG Version: 6.00 Build 0)  -->
<!DOCTYPE svg PUBLIC "-//W3C//DTD SVG 1.1//EN" "http://www.w3.org/Graphics/SVG/1.1/DTD/svg11.dtd">
<svg version="1.1" id="Layer_1" xmlns="http://www.w3.org/2000/svg" xmlns:xlink="http://www.w3.org/1999/xlink" x="0px" y="0px"
	 width="45px" height="45px" viewBox="0 0 45 45" enable-background="new 0 0 45 45" xml:space="preserve">
<g>
	<circle fill="none" stroke="#444444" stroke-width="1.5" stroke-miterlimit="10" cx="17.175" cy="18.958" r="6.419"/>
	<path fill="#FFFFFF" stroke="#444444" stroke-width="1.5" stroke-miterlimit="10" d="M34.125,22.524
		c0.152-0.567,0.2-1.15,0.2-1.725c0-4.16-3.385-7.546-7.545-7.546c-3.278,0-6.14,2.075-7.164,5.177
		c-0.014,0.041-0.024,0.119-0.108,0.127c-0.014,0.001-0.072,0.008-0.085,0.008c-0.078-0.005-0.162-0.01-0.252-0.01
		c-2.426,0-4.596,1.532-5.486,3.842c-0.02,0.05-0.088,0.137-0.302,0.105c-0.297-0.04-0.599-0.069-0.901-0.069
		c-3.224,0-5.845,2.622-5.845,5.846c0,3.223,2.622,5.845,5.845,5.845h19.826c3.222,0,5.845-2.622,5.845-5.845
		c0-2.486-1.6-4.715-3.929-5.522C34.175,22.74,34.078,22.694,34.125,22.524z"/>
	
		<line fill="none" stroke="#444444" stroke-width="1.5" stroke-linecap="round" stroke-miterlimit="10" x1="9.218" y1="9.786" x2="11.017" y2="11.93"/>
	
		<line fill="none" stroke="#444444" stroke-width="1.5" stroke-linecap="round" stroke-miterlimit="10" x1="22.764" y1="8.647" x2="21.471" y2="11.13"/>
	
		<line fill="none" stroke="#444444" stroke-width="1.5" stroke-linecap="round" stroke-miterlimit="10" x1="15.863" y1="7.516" x2="16.165" y2="10.296"/>
	
		<line fill="none" stroke="#444444" stroke-width="1.5" stroke-linecap="round" stroke-miterlimit="10" x1="5.724" y1="15.75" x2="8.485" y2="16.204"/>
	
		<line fill="none" stroke="#444444" stroke-width="1.5" stroke-linecap="round" stroke-miterlimit="10" x1="5.867" y1="21.805" x2="8.572" y2="21.094"/>
	
		<line fill="none" stroke="#444444" stroke-width="1.5" stroke-linecap="round" stroke-miterlimit="10" x1="22.394" y1="36.848" x2="22.394" y2="39.181"/>
	
		<line fill="none" stroke="#444444" stroke-width="1.5" stroke-linecap="round" stroke-miterlimit="10" x1="18.394" y1="37.848" x2="18.394" y2="40.181"/>
	
		<line fill="none" stroke="#444444" stroke-width="1.5" stroke-linecap="round" stroke-miterlimit="10" x1="26.394" y1="37.848" x2="26.394" y2="40.181"/>
	
		<line fill="none" stroke="#444444" stroke-width="1.5" stroke-linecap="round" stroke-miterlimit="10" x1="30.394" y1="36.848" x2="30.394" y2="39.181"/>
	
		<line fill="none" stroke="#444444" stroke-width="1.5" stroke-linecap="round" stroke-miterlimit="10" x1="14.394" y1="36.848" x2="14.394" y2="39.181"/>
</g>
</svg>
