<?xml version="1.0" encoding="utf-8"?>
<!-- Generator: Adobe Illustrator 16.0.0, SVG Export Plug-In . SVG Version: 6.00 Build 0)  -->
<!DOCTYPE svg PUBLIC "-//W3C//DTD SVG 1.1//EN" "http://www.w3.org/Graphics/SVG/1.1/DTD/svg11.dtd">
<svg version="1.1" id="Layer_1" xmlns="http://www.w3.org/2000/svg" xmlns:xlink="http://www.w3.org/1999/xlink" x="0px" y="0px"
	 width="111.467px" height="78.262px" viewBox="0 0 111.467 78.262" enable-background="new 0 0 111.467 78.262"
	 xml:space="preserve">
<g>
	<path fill="#fff" d="M111.467,7.462V7.029c0-1.612-0.731-3.507-2.045-4.821l-0.149-0.149c0,0-0.148,0-0.148-0.149
		c-0.298-0.298-0.582-0.433-0.88-0.731c-0.149,0-0.149-0.149-0.298-0.149c-0.299-0.149-0.731-0.298-1.03-0.434
		c-0.148,0-0.148-0.148-0.297-0.148c-0.435-0.149-0.881-0.298-1.313-0.298c-0.149,0-0.149,0-0.299,0
		c-0.434,0-1.029-0.149-1.611-0.149H7.909C7.327,0,6.744,0,6.148,0.149c-0.149,0-0.298,0-0.435,0.149
		C5.281,0.447,4.835,0.447,4.55,0.596c-0.148,0-0.148,0.149-0.297,0.149c-0.299,0.149-0.732,0.298-1.03,0.433L3.074,1.327
		C2.776,1.477,2.491,1.761,2.194,1.91c-0.15,0.149-0.299,0.298-0.434,0.434C0.731,3.508,0.149,4.834,0,6.298
		c0,0.148,0,0.148,0,0.298v65.085c0,0.148,0,0.148,0,0.296c0.298,2.047,1.313,3.807,2.776,4.821c1.313,0.88,2.925,1.464,4.82,1.464
		h96.098c0,0,0,0,0.147,0l0,0c0.434,0,1.029,0,1.464-0.149c0.147,0,0.147,0,0.297,0c0.435-0.149,0.881-0.149,1.165-0.299h0.148
		c3.224-1.164,4.538-3.953,4.538-6.58v-0.435v-0.149v-0.148V7.896c0-0.149,0-0.149,0-0.298
		C111.467,7.611,111.467,7.611,111.467,7.462z M102.109,5.417L56.038,50.311L45.502,40.072l0,0L9.372,5.404h92.737V5.417z
		 M5.431,69.919V9.074l34.072,32.759L5.431,69.919z M54.575,72.979H10.251l33.207-27.206l10.671,10.388
		c0.433,0.432,0.88,0.581,1.313,0.73h0.148c0.149,0,0.149,0,0.299,0l0,0c0.148,0,0.298,0,0.298,0h0.148
		c0.433-0.149,1.03-0.299,1.313-0.73l10.09-9.806L101.08,72.98L54.575,72.979L54.575,72.979z M106.05,70.055l-34.221-27.64
		L106.05,9.074V70.055z"/>
</g>
</svg>
