<?xml version="1.0" encoding="utf-8"?>
<!-- Generator: Adobe Illustrator 16.0.0, SVG Export Plug-In . SVG Version: 6.00 Build 0)  -->
<!DOCTYPE svg PUBLIC "-//W3C//DTD SVG 1.1//EN" "http://www.w3.org/Graphics/SVG/1.1/DTD/svg11.dtd">
<svg version="1.1" id="Layer_1" xmlns="http://www.w3.org/2000/svg" xmlns:xlink="http://www.w3.org/1999/xlink" x="0px" y="0px"
	 width="45px" height="45px" viewBox="0 0 45 45" enable-background="new 0 0 45 45" xml:space="preserve">
<g>
	<g>
		<path fill="none" stroke="#434343" stroke-miterlimit="10" d="M26.673,7.016H16.564c-1.319,0-2.395,1.076-2.395,2.396v25.561
			c0,1.324,1.075,2.396,2.395,2.396h10.108c1.323,0,2.397-1.072,2.397-2.396V9.412C29.07,8.091,27.996,7.016,26.673,7.016z"/>
		<line fill="none" stroke="#434343" stroke-miterlimit="10" x1="13.998" y1="11.897" x2="29.064" y2="11.897"/>
		<line fill="none" stroke="#434343" stroke-miterlimit="10" x1="13.738" y1="31.877" x2="28.803" y2="31.877"/>
		<path fill="none" stroke="#434343" stroke-miterlimit="10" d="M21.627,33.601c-0.536,0-0.971,0.435-0.971,0.97
			c0,0.534,0.435,0.97,0.971,0.97c0.533,0,0.97-0.437,0.97-0.97C22.597,34.036,22.16,33.601,21.627,33.601z"/>
		
			<line fill="none" stroke="#434343" stroke-linecap="round" stroke-miterlimit="10" x1="20.646" y1="9.556" x2="22.367" y2="9.556"/>
	</g>
	<g>
		<path fill="none" stroke="#434343" stroke-miterlimit="10" d="M18.59,15.69c0,0.352-0.285,0.637-0.637,0.637h-0.635
			c-0.353,0-0.639-0.285-0.639-0.637v-0.636c0-0.352,0.286-0.637,0.639-0.637h0.635c0.352,0,0.637,0.285,0.637,0.637V15.69z"/>
		<path fill="none" stroke="#434343" stroke-miterlimit="10" d="M22.59,15.69c0,0.352-0.285,0.637-0.637,0.637h-0.637
			c-0.35,0-0.638-0.285-0.638-0.637v-0.636c0-0.352,0.288-0.637,0.638-0.637h0.637c0.352,0,0.637,0.285,0.637,0.637V15.69z"/>
		<path fill="none" stroke="#434343" stroke-miterlimit="10" d="M26.59,15.69c0,0.352-0.285,0.637-0.636,0.637h-0.638
			c-0.352,0-0.637-0.285-0.637-0.637v-0.636c0-0.352,0.285-0.637,0.637-0.637h0.638c0.351,0,0.636,0.285,0.636,0.637V15.69z"/>
		<path fill="none" stroke="#434343" stroke-miterlimit="10" d="M18.59,20.114c0,0.352-0.285,0.638-0.637,0.638h-0.635
			c-0.353,0-0.639-0.286-0.639-0.638v-0.636c0-0.352,0.286-0.637,0.639-0.637h0.635c0.352,0,0.637,0.286,0.637,0.637V20.114z"/>
		<path fill="none" stroke="#434343" stroke-miterlimit="10" d="M22.59,20.114c0,0.352-0.285,0.638-0.637,0.638h-0.637
			c-0.35,0-0.638-0.286-0.638-0.638v-0.636c0-0.352,0.288-0.637,0.638-0.637h0.637c0.352,0,0.637,0.286,0.637,0.637V20.114z"/>
		<path fill="none" stroke="#434343" stroke-miterlimit="10" d="M26.59,20.114c0,0.352-0.285,0.638-0.636,0.638h-0.638
			c-0.352,0-0.637-0.286-0.637-0.638v-0.636c0-0.352,0.285-0.637,0.637-0.637h0.638c0.351,0,0.636,0.286,0.636,0.637V20.114z"/>
		<path fill="none" stroke="#434343" stroke-miterlimit="10" d="M18.59,24.539c0,0.353-0.285,0.637-0.637,0.637h-0.635
			c-0.353,0-0.639-0.284-0.639-0.637v-0.635c0-0.353,0.286-0.638,0.639-0.638h0.635c0.352,0,0.637,0.285,0.637,0.638V24.539z"/>
		<path fill="none" stroke="#434343" stroke-miterlimit="10" d="M22.59,24.539c0,0.353-0.285,0.637-0.637,0.637h-0.637
			c-0.35,0-0.638-0.284-0.638-0.637v-0.635c0-0.353,0.288-0.638,0.638-0.638h0.637c0.352,0,0.637,0.285,0.637,0.638V24.539z"/>
		<path fill="none" stroke="#434343" stroke-miterlimit="10" d="M26.59,24.539c0,0.353-0.285,0.637-0.636,0.637h-0.638
			c-0.352,0-0.637-0.284-0.637-0.637v-0.635c0-0.353,0.285-0.638,0.637-0.638h0.638c0.351,0,0.636,0.285,0.636,0.638V24.539z"/>
		<path fill="none" stroke="#434343" stroke-miterlimit="10" d="M18.59,28.893c0,0.352-0.285,0.637-0.637,0.637h-0.635
			c-0.353,0-0.639-0.285-0.639-0.637v-0.636c0-0.354,0.286-0.638,0.639-0.638h0.635c0.352,0,0.637,0.285,0.637,0.638V28.893z"/>
		<path fill="none" stroke="#434343" stroke-miterlimit="10" d="M22.59,28.893c0,0.352-0.285,0.637-0.637,0.637h-0.637
			c-0.35,0-0.638-0.285-0.638-0.637v-0.636c0-0.354,0.288-0.638,0.638-0.638h0.637c0.352,0,0.637,0.285,0.637,0.638V28.893z"/>
		<path fill="none" stroke="#434343" stroke-miterlimit="10" d="M26.59,28.893c0,0.352-0.285,0.637-0.636,0.637h-0.638
			c-0.352,0-0.637-0.285-0.637-0.637v-0.636c0-0.354,0.285-0.638,0.637-0.638h0.638c0.351,0,0.636,0.285,0.636,0.638V28.893z"/>
	</g>
	<path fill="#FFFFFF" d="M26.814,31.478c0,0-1.125,0.108-0.477,1.018c0.647,0.909,1.803,2.683,3.223,2.528
		c1.418-0.154,2.357-1.187,2.404-2.621c0.047-1.435-0.754-1.465-1.34-2.698c0,0-0.633-0.367-0.957,0.402l-0.971-1.112
		c0,0-0.633-0.091-0.664,0.525c0,0-0.66-0.972-1.048-0.432l-0.31,0.302l-0.539-0.575l-0.586,0.165l-0.107,0.41L26.814,31.478z"/>
	<g>
		<g>
			<path fill="#444444" d="M28.402,33.262L28.1,33.481c-0.006-0.006-1.18-1.635-1.209-1.671c-0.098-0.123-0.287-0.149-0.422-0.051
				c-0.133,0.096-0.171,0.281-0.085,0.421c0.032,0.043,1.196,1.661,1.205,1.669l-0.303,0.219c-0.452-0.625-1.21-1.676-1.222-1.696
				c-0.185-0.302-0.105-0.705,0.187-0.915c0.296-0.213,0.707-0.159,0.937,0.126C27.197,31.595,28.389,33.247,28.402,33.262z"/>
			<path fill="#444444" d="M27.463,31.969l-0.302,0.217c-0.3-0.417-1.8-2.495-1.813-2.516c-0.188-0.304-0.106-0.708,0.185-0.917
				c0.295-0.214,0.707-0.158,0.937,0.126c0.011,0.012,1.207,1.672,1.214,1.68l-0.303,0.218c-0.006-0.007-1.186-1.642-1.206-1.67
				c-0.099-0.125-0.288-0.149-0.423-0.051c-0.134,0.095-0.172,0.281-0.086,0.422C25.701,29.524,27.456,31.959,27.463,31.969z"/>
			<path fill="#444444" d="M30.072,30.448l-0.302,0.218c-0.003-0.007-0.959-1.329-0.985-1.367c-0.102-0.125-0.291-0.15-0.427-0.053
				c-0.132,0.096-0.169,0.281-0.083,0.42c0.025,0.037,0.717,0.997,0.725,1.008l-0.303,0.217c-0.008-0.01-0.728-1.009-0.742-1.031
				c-0.187-0.304-0.104-0.707,0.186-0.915c0.295-0.215,0.707-0.161,0.938,0.124C29.088,29.082,29.705,29.938,30.072,30.448z"/>
			<path fill="#444444" d="M29,30.673l-0.303,0.218c-0.006-0.007-1.181-1.634-1.205-1.672c-0.1-0.122-0.289-0.148-0.424-0.049
				c-0.133,0.095-0.171,0.28-0.085,0.419c0.028,0.042,1.195,1.66,1.204,1.671l-0.303,0.218c-0.125-0.171-1.207-1.674-1.221-1.693
				c-0.186-0.306-0.107-0.709,0.186-0.918c0.296-0.214,0.71-0.158,0.937,0.125C27.798,29.006,28.987,30.656,29,30.673z"/>
		</g>
		<path fill="#444444" d="M31.055,34.674c-1.21,0.874-2.904,0.599-3.777-0.61l0.303-0.218c0.75,1.043,2.215,1.281,3.256,0.527
			c0.902-0.65,1.233-1.844,0.792-2.846c-0.12-0.166-1.164-1.614-1.194-1.653c-0.101-0.124-0.289-0.15-0.424-0.053
			c-0.133,0.097-0.172,0.281-0.084,0.42c0.053,0.085,0.027,0.212-0.055,0.253c-0.11,0.074-0.186,0.029-0.262-0.059l-0.002,0.001
			c-0.002-0.004-0.004-0.008-0.008-0.011c-0.025-0.032-0.048-0.065-0.075-0.102l0.007-0.059c-0.074-0.271,0.021-0.574,0.262-0.745
			c0.297-0.214,0.705-0.159,0.938,0.125c0.002,0.004,0.008,0.01,1.209,1.68c0.009,0.01,0.016,0.022,0.02,0.034
			C32.483,32.521,32.104,33.917,31.055,34.674z"/>
	</g>
</g>
</svg>
