<?xml version="1.0" encoding="utf-8"?>
<!-- Generator: Adobe Illustrator 16.0.0, SVG Export Plug-In . SVG Version: 6.00 Build 0)  -->
<!DOCTYPE svg PUBLIC "-//W3C//DTD SVG 1.1//EN" "http://www.w3.org/Graphics/SVG/1.1/DTD/svg11.dtd">
<svg version="1.1" id="Layer_1" xmlns="http://www.w3.org/2000/svg" xmlns:xlink="http://www.w3.org/1999/xlink" x="0px" y="0px"
	 width="64px" height="64px" viewBox="0 0 64 64" enable-background="new 0 0 64 64" xml:space="preserve">
<g>
	<g>
		<path fill="#444444" d="M21.01,21.019c-0.796,0.655-1.251,1.629-1.251,2.652v3.095c0,0.694,0.556,1.251,1.251,1.251
			s1.25-0.557,1.25-1.251v-3.095c0-0.278,0.127-0.544,0.342-0.721c2.703-2.211,5.621-3.688,6.189-3.967
			c0.493-0.239,0.821-0.758,0.821-1.301v-4.358c0-0.417-0.215-0.809-0.556-1.036c-0.215-0.151-0.354-0.392-0.354-0.656V7.11
			c0-1.554,1.264-2.817,2.817-2.817h0.974c1.553,0,2.816,1.264,2.816,2.817v4.522c0,0.265-0.126,0.505-0.354,0.656
			c-0.353,0.228-0.555,0.619-0.555,1.036v4.358c0,0.556,0.315,1.062,0.809,1.301c0.556,0.278,3.485,1.756,6.189,3.967
			c0.215,0.177,0.341,0.442,0.341,0.721v3.095c0,0.694,0.557,1.251,1.251,1.251s1.251-0.557,1.251-1.251v-3.095
			c0-1.036-0.455-2.009-1.251-2.652c-2.375-1.946-4.901-3.361-6.089-3.98v-3.146c0.581-0.606,0.909-1.414,0.909-2.273V7.11
			c0-2.931-2.387-5.318-5.317-5.318H31.52c-2.931,0-5.318,2.388-5.318,5.318v4.522c0,0.859,0.328,1.667,0.91,2.273v3.133
			C25.911,17.658,23.385,19.073,21.01,21.019z"/>
		<path fill="#444444" d="M61.712,59.374c0.694,0,1.25-0.555,1.25-1.25v-3.096c0-1.035-0.453-2.007-1.25-2.651
			c-2.375-1.946-4.901-3.361-6.089-3.979v-3.145c0.581-0.606,0.91-1.415,0.91-2.275v-4.521c0-2.932-2.388-5.319-5.319-5.319h-0.972
			c-2.931,0-5.319,2.388-5.319,5.319v4.521c0,0.86,0.329,1.669,0.909,2.275v3.145c-1.187,0.618-3.714,2.033-6.088,3.979
			c-0.796,0.656-1.25,1.616-1.25,2.651v3.096c0,0.695,0.555,1.25,1.25,1.25c0.694,0,1.25-0.555,1.25-1.25v-3.096
			c0-0.277,0.126-0.543,0.342-0.718c2.703-2.225,5.621-3.702,6.189-3.968c0.492-0.24,0.809-0.758,0.809-1.302v-4.357
			c0-0.417-0.215-0.809-0.556-1.035c-0.215-0.153-0.354-0.392-0.354-0.657v-4.522c0-1.554,1.264-2.818,2.817-2.818h0.972
			c1.555,0,2.817,1.265,2.817,2.818v4.522c0,0.266-0.126,0.504-0.354,0.657c-0.354,0.227-0.556,0.618-0.556,1.035v4.357
			c0,0.558,0.315,1.062,0.809,1.302c0.555,0.277,3.486,1.755,6.189,3.968c0.215,0.175,0.341,0.44,0.341,0.718v3.096
			C60.461,58.819,61.03,59.374,61.712,59.374z"/>
		<path fill="#444444" d="M24.256,52.377c-2.375-1.946-4.9-3.361-6.089-3.979v-3.145c0.581-0.606,0.91-1.415,0.91-2.275v-4.521
			c0-2.932-2.388-5.319-5.319-5.319h-0.973c-2.93,0-5.317,2.388-5.317,5.319v4.521c0,0.86,0.328,1.669,0.909,2.275v3.145
			c-1.188,0.618-3.714,2.033-6.089,3.979c-0.796,0.656-1.251,1.616-1.251,2.651v3.096c0,0.695,0.557,1.25,1.251,1.25
			s1.251-0.555,1.251-1.25v-3.096c0-0.277,0.126-0.543,0.341-0.719c2.703-2.224,5.622-3.701,6.19-3.967
			c0.492-0.24,0.808-0.758,0.808-1.302v-4.357c0-0.417-0.214-0.809-0.556-1.035c-0.215-0.153-0.354-0.392-0.354-0.657v-4.522
			c0-1.554,1.264-2.818,2.816-2.818h0.973c1.555,0,2.818,1.265,2.818,2.818v4.522c0,0.266-0.127,0.504-0.354,0.657
			c-0.354,0.227-0.557,0.618-0.557,1.035v4.357c0,0.558,0.315,1.062,0.809,1.302c0.557,0.277,3.486,1.743,6.189,3.968
			c0.215,0.175,0.342,0.44,0.342,0.718v3.096c0,0.695,0.556,1.25,1.25,1.25c0.695,0,1.251-0.555,1.251-1.25v-3.096
			C25.507,53.993,25.052,53.021,24.256,52.377z"/>
		<path fill="#444444" d="M39.112,42.075c0.202,0.114,0.417,0.165,0.619,0.165c0.43,0,0.858-0.228,1.086-0.632
			c0.341-0.594,0.139-1.363-0.455-1.704l-7.011-4.045v-8.095c0-0.695-0.556-1.251-1.25-1.251c-0.695,0-1.251,0.556-1.251,1.251
			v8.095l-7.011,4.057c-0.594,0.341-0.809,1.112-0.455,1.705c0.228,0.405,0.656,0.631,1.086,0.631c0.215,0,0.43-0.049,0.619-0.163
			l7.012-4.055L39.112,42.075z"/>
	</g>
</g>
</svg>
