<?xml version="1.0" encoding="utf-8"?>
<!-- Generator: Adobe Illustrator 16.0.0, SVG Export Plug-In . SVG Version: 6.00 Build 0)  -->
<!DOCTYPE svg PUBLIC "-//W3C//DTD SVG 1.1//EN" "http://www.w3.org/Graphics/SVG/1.1/DTD/svg11.dtd">
<svg version="1.1" id="Layer_1" xmlns="http://www.w3.org/2000/svg" xmlns:xlink="http://www.w3.org/1999/xlink" x="0px" y="0px"
	 width="64px" height="64px" viewBox="0 0 64 64" enable-background="new 0 0 64 64" xml:space="preserve">
<g>
	<g>
		<path fill="#444444" d="M51.957,26.166l-3.322-10.357c-0.139-0.437-0.441-0.793-0.85-1.003c-0.408-0.209-0.872-0.247-1.311-0.108
			l-16.891,5.418c-0.902,0.29-1.399,1.26-1.11,2.162l0.676,2.106h-7.375c-0.947,0-1.718,0.771-1.718,1.719v10.877
			c0,0.95,0.771,1.721,1.718,1.721h18.915c0.948,0,1.718-0.771,1.718-1.721v-5.946l8.439-2.704
			C51.751,28.039,52.247,27.068,51.957,26.166L51.957,26.166z M40.689,37.131H21.774c-0.082,0-0.149-0.067-0.149-0.151V26.104
			c0-0.083,0.067-0.151,0.149-0.151h18.915c0.083,0,0.149,0.068,0.149,0.151v10.875C40.839,37.063,40.772,37.131,40.689,37.131z
			 M47.068,16.2c0.024,0.013,0.058,0.039,0.073,0.088l0.665,2.067l-17.178,5.51l-0.662-2.066c-0.025-0.079,0.018-0.164,0.098-0.189
			l16.888-5.418c0.019-0.006,0.033-0.007,0.049-0.007C47.028,16.185,47.052,16.192,47.068,16.2z M40.689,24.384h-6.545l14.139-4.534
			l2.182,6.796c0.024,0.079-0.019,0.165-0.099,0.19l-7.959,2.551v-3.284C42.407,25.155,41.638,24.384,40.689,24.384z"/>
		<path fill="#444444" d="M27.446,28.273h-3.354c-0.433,0-0.783,0.352-0.783,0.785c0,0.433,0.351,0.783,0.783,0.783h3.354
			c0.435,0,0.785-0.351,0.785-0.783C28.231,28.625,27.881,28.273,27.446,28.273z"/>
		<path fill="#444444" d="M31.194,29.842c0.433,0,0.783-0.351,0.783-0.783c0-0.434-0.351-0.785-0.783-0.785h-1.221
			c-0.433,0-0.783,0.352-0.783,0.785c0,0.433,0.351,0.783,0.783,0.783H31.194z"/>
		<path fill="#444444" d="M39.56,31.673c0-0.435-0.351-0.785-0.782-0.785h-3.836c-0.433,0-0.783,0.351-0.783,0.785v3.396
			c0,0.436,0.351,0.785,0.783,0.785h3.836c0.432,0,0.782-0.35,0.782-0.785V31.673z M37.991,32.455v1.832h-2.264v-1.832H37.991z"/>
	</g>
	<g>
		<g>
			<g>
				<path fill="#444444" d="M53.99,48.204c3.83,0,6.946-3.114,6.946-6.942V7.691c0-3.828-3.116-6.942-6.946-6.942H10.01
					c-3.83,0-6.946,3.114-6.946,6.942v33.57c0,3.828,3.116,6.942,6.946,6.942h16.203v2.315H3.063v6.366
					c0,3.51,2.853,6.365,6.359,6.365h45.155c3.506,0,6.358-2.855,6.358-6.365V50.52H38.945v-2.315H53.99z M58.621,52.835v4.051
					c0,2.233-1.814,4.051-4.043,4.051H9.423c-2.229,0-4.044-1.817-4.044-4.051v-4.051h20.834h12.732H58.621z M28.528,50.52v-2.315
					h8.103v2.315H28.528z M26.213,45.89H10.01c-2.553,0-4.631-2.077-4.631-4.628V7.691c0-2.551,2.078-4.627,4.631-4.627h43.98
					c2.555,0,4.631,2.076,4.631,4.627v33.57c0,2.551-2.076,4.628-4.631,4.628H38.945H26.213z"/>
				<path fill="#444444" d="M33.157,59.779h21.992v-5.788H33.157V59.779z M35.473,56.308h17.361v1.157H35.473V56.308z"/>
				<path fill="#444444" d="M10.009,54.57c-0.64,0-1.157,0.519-1.157,1.159v2.313c0,0.64,0.518,1.158,1.157,1.158
					s1.157-0.519,1.157-1.158v-2.313C11.166,55.089,10.648,54.57,10.009,54.57z"/>
				<path fill="#444444" d="M21.344,8.611l-9.854,9.855c-0.452,0.452-0.452,1.185,0,1.636c0.226,0.228,0.521,0.34,0.817,0.34
					s0.593-0.112,0.818-0.34l9.855-9.854c0.451-0.452,0.451-1.185,0-1.637C22.528,8.159,21.795,8.159,21.344,8.611z"/>
			</g>
		</g>
	</g>
</g>
</svg>
