<?xml version="1.0" encoding="utf-8"?>
<!-- Generator: Adobe Illustrator 16.0.0, SVG Export Plug-In . SVG Version: 6.00 Build 0)  -->
<!DOCTYPE svg PUBLIC "-//W3C//DTD SVG 1.1//EN" "http://www.w3.org/Graphics/SVG/1.1/DTD/svg11.dtd">
<svg version="1.1" id="Layer_1" xmlns="http://www.w3.org/2000/svg" xmlns:xlink="http://www.w3.org/1999/xlink" x="0px" y="0px"
	 width="45px" height="45px" viewBox="0 0 45 45" enable-background="new 0 0 45 45" xml:space="preserve">
<g>
	<g>
		<path fill="none" stroke="#444444" stroke-width="1.5" stroke-miterlimit="10" d="M13.267,15.571c0-1.897,1.543-3.442,3.441-3.442
			c1.898,0,3.442,1.545,3.442,3.442c0,1.897-1.544,3.442-3.442,3.442S13.267,17.468,13.267,15.571z M11.466,30.284V25.44
			c0-2.435,1.116-4.261,4.415-5.032l9.761-3.817c-0.08,0,0.762-0.109,0.886,0.322c0,0,0.411,0.786-1.103,1.583
			c0,0-4.65,3.106-4.65,5.336l0.005,2.061v4.669"/>
	</g>
	<g>
		<g>
			
				<rect x="7.08" y="8.239" fill="none" stroke="#444444" stroke-width="1.5" stroke-miterlimit="10" width="30.92" height="29.709"/>
			<line fill="none" stroke="#444444" stroke-width="1.5" stroke-miterlimit="10" x1="7.08" y1="30.486" x2="37.587" y2="30.486"/>
			
				<line fill="none" stroke="#444444" stroke-width="1.5" stroke-linecap="round" stroke-miterlimit="10" x1="10.792" y1="34.172" x2="34.587" y2="34.172"/>
			
				<line fill="none" stroke="#444444" stroke-width="1.5" stroke-linecap="round" stroke-miterlimit="10" x1="14.458" y1="33.281" x2="14.458" y2="35.188"/>
		</g>
	</g>
	
		<line fill="none" stroke="#444444" stroke-width="1.5" stroke-linecap="round" stroke-miterlimit="10" x1="33.016" y1="13.625" x2="26.7" y2="16.848"/>
</g>
</svg>
