<?xml version="1.0" encoding="utf-8"?>
<!-- Generator: Adobe Illustrator 16.0.0, SVG Export Plug-In . SVG Version: 6.00 Build 0)  -->
<!DOCTYPE svg PUBLIC "-//W3C//DTD SVG 1.1//EN" "http://www.w3.org/Graphics/SVG/1.1/DTD/svg11.dtd">
<svg version="1.1" id="Layer_1" xmlns="http://www.w3.org/2000/svg" xmlns:xlink="http://www.w3.org/1999/xlink" x="0px" y="0px"
	 width="75.895px" height="76.325px" viewBox="0 0 75.895 76.325" enable-background="new 0 0 75.895 76.325" xml:space="preserve">
<g>
	<g>
		<path fill="none" stroke="#585B5F" stroke-width="4" stroke-miterlimit="10" d="M6.527,9.68
			c-5.439,8.166-5.112,23.889,4.903,35.049c9.296,10.355,23.163,21.852,23.279,21.943c0.297,0.271,7.396,6.621,17.879,6.621
			c1.016,0,2.043-0.062,3.061-0.186c11.371-1.374,15.539-8.663,17.012-12.885c0.761-2.172-0.52-4.867-2.798-5.885l-13.346-5.932
			c-0.641-0.285-1.406-0.436-2.217-0.436c-1.648,0-3.305,0.611-4.317,1.594l-4.207,4.078c-0.624,0.605-1.734,1.014-2.764,1.014
			c-0.441,0-0.827-0.078-1.12-0.226c-2.84-1.425-7.301-4.267-12.442-9.718c-4.563-4.842-6.729-8.16-7.745-10.092
			c-0.567-1.081,0.025-2.952,0.916-3.839l3.74-3.741c1.557-1.555,2.257-4.417,1.595-6.515l-4.207-13.36
			c-0.64-2.032-2.8-4.135-5.318-4.135C14.943,3.147,10.045,4.398,6.527,9.68z"/>
	</g>
</g>
</svg>
