<?xml version="1.0" encoding="utf-8"?>
<!-- Generator: Adobe Illustrator 16.0.0, SVG Export Plug-In . SVG Version: 6.00 Build 0)  -->
<!DOCTYPE svg PUBLIC "-//W3C//DTD SVG 1.1//EN" "http://www.w3.org/Graphics/SVG/1.1/DTD/svg11.dtd">
<svg version="1.1" id="Layer_1" xmlns="http://www.w3.org/2000/svg" xmlns:xlink="http://www.w3.org/1999/xlink" x="0px" y="0px"
	 width="45px" height="45px" viewBox="0 0 45 45" enable-background="new 0 0 45 45" xml:space="preserve">
<g>
	<g>
		<g>
			<g>
				<path fill="#434343" d="M11.482,32.452c0.338,0,0.612,0.272,0.612,0.609c0,0.339-0.274,0.611-0.612,0.611H9.51
					c-1.035,0-1.979-0.424-2.66-1.106c-0.682-0.681-1.105-1.621-1.105-2.66v-6.309v-6.309c0-1.039,0.423-1.979,1.105-2.661
					c0.682-0.681,1.624-1.106,2.66-1.106h15.775h11.909c1.034,0,1.979,0.424,2.66,1.106c0.682,0.682,1.107,1.626,1.107,2.661v6.309
					v6.311c0,1.037-0.425,1.979-1.107,2.661c-0.681,0.681-1.625,1.104-2.66,1.104h-1.973c-0.337,0-0.61-0.272-0.61-0.61
					c0-0.335,0.273-0.61,0.61-0.61h1.973c0.698,0,1.334-0.288,1.794-0.748c0.461-0.461,0.75-1.098,0.75-1.794V23.6v-6.311
					c0-0.698-0.288-1.336-0.75-1.796c-0.46-0.461-1.097-0.748-1.794-0.748H25.285H9.51c-0.698,0-1.334,0.287-1.795,0.748
					c-0.461,0.46-0.748,1.096-0.748,1.796v6.309v6.311c0,0.699,0.286,1.336,0.748,1.795c0.461,0.462,1.098,0.749,1.795,0.749H11.482
					L11.482,32.452z"/>
				<g>
					<path fill="#434343" d="M32.678,26.753v0.015v9.45c0,0.6-0.247,1.149-0.643,1.546l-0.041,0.038
						c-0.394,0.372-0.924,0.604-1.505,0.604h-9.071h-5.204c-0.602,0-1.15-0.247-1.546-0.643l-0.041-0.044
						c-0.373-0.393-0.602-0.925-0.602-1.502v-9.465c0-0.337,0.273-0.61,0.61-0.61h0.018h17.415
						C32.404,26.141,32.678,26.416,32.678,26.753L32.678,26.753z M31.457,36.218v-8.855H15.249v8.855
						c0,0.253,0.097,0.483,0.257,0.655l0.027,0.025c0.176,0.174,0.417,0.283,0.68,0.283h5.205h9.07c0.254,0,0.488-0.099,0.66-0.261
						l0.022-0.022C31.347,36.723,31.457,36.482,31.457,36.218L31.457,36.218z M14.628,37.72l0.041-0.82
						C16.855,38.564,14.433,37.479,14.628,37.72z"/>
				</g>
				<g>
					<path fill="#434343" d="M11.088,17.072c0.496,0,0.946,0.201,1.268,0.525l0.042,0.046c0.299,0.321,0.484,0.751,0.484,1.221
						c0,0.499-0.202,0.946-0.525,1.27c-0.325,0.324-0.775,0.525-1.269,0.525c-0.495,0-0.944-0.203-1.268-0.525l-0.041-0.045
						c-0.3-0.319-0.486-0.751-0.486-1.223c0-0.494,0.203-0.942,0.527-1.266l0.002-0.004C10.146,17.273,10.596,17.072,11.088,17.072
						L11.088,17.072z M11.492,18.462c-0.103-0.104-0.248-0.169-0.404-0.169c-0.159,0-0.302,0.064-0.404,0.165l-0.003,0.003
						c-0.103,0.103-0.164,0.246-0.164,0.403c0,0.149,0.055,0.285,0.146,0.385l0.021,0.021c0.104,0.104,0.247,0.167,0.404,0.167
						c0.157,0,0.301-0.063,0.405-0.167c0.103-0.103,0.167-0.246,0.167-0.404c0-0.148-0.055-0.283-0.144-0.381L11.492,18.462
						L11.492,18.462z M10.151,20.131L9.82,19.27C11.47,20.212,9.954,19.892,10.151,20.131z"/>
				</g>
				<path fill="#434343" d="M19.37,33.674c-0.337,0-0.61-0.272-0.61-0.61c0-0.336,0.272-0.611,0.61-0.611h4.627
					c0.337,0,0.61,0.275,0.61,0.611c0,0.338-0.273,0.61-0.61,0.61H19.37L19.37,33.674z M19.37,30.516
					c-0.337,0-0.61-0.273-0.61-0.609s0.272-0.609,0.61-0.609h7.965c0.337,0,0.61,0.273,0.61,0.609c0,0.338-0.273,0.609-0.61,0.609
					H19.37z"/>
				<path fill="#434343" d="M32.678,10.978c0,0.337-0.274,0.61-0.611,0.61c-0.338,0-0.61-0.273-0.61-0.61V7.823
					c0-0.263-0.109-0.506-0.282-0.681l-0.002-0.003c-0.176-0.174-0.418-0.281-0.683-0.281h-5.205h-9.07
					c-0.264,0-0.506,0.107-0.681,0.285l-0.029,0.024c-0.16,0.172-0.257,0.404-0.257,0.656v3.155c0,0.337-0.275,0.61-0.612,0.61
					s-0.61-0.273-0.61-0.61V7.823c0-0.578,0.229-1.108,0.602-1.499l0.041-0.045c0.396-0.396,0.946-0.644,1.546-0.644h9.07h5.205
					c0.597,0,1.146,0.247,1.543,0.644l0.002,0.001c0.394,0.397,0.643,0.944,0.643,1.543V10.978L32.678,10.978z"/>
				<path fill="#434343" d="M15.821,19.477c-0.338,0-0.612-0.272-0.612-0.609c0-0.337,0.273-0.611,0.612-0.611h19.797
					c0.336,0,0.611,0.274,0.611,0.611c0,0.336-0.273,0.609-0.611,0.609H15.821z"/>
			</g>
		</g>
	</g>
</g>
</svg>
