<?xml version="1.0" encoding="utf-8"?>
<!-- Generator: Adobe Illustrator 16.0.0, SVG Export Plug-In . SVG Version: 6.00 Build 0)  -->
<!DOCTYPE svg PUBLIC "-//W3C//DTD SVG 1.1//EN" "http://www.w3.org/Graphics/SVG/1.1/DTD/svg11.dtd">
<svg version="1.1" id="Layer_1" xmlns="http://www.w3.org/2000/svg" xmlns:xlink="http://www.w3.org/1999/xlink" x="0px" y="0px"
	 width="45px" height="45px" viewBox="0 0 45 45" enable-background="new 0 0 45 45" xml:space="preserve">
<g>
	<g>
		<path fill="#444444" d="M11.031,10.88v0.218v27.645v0.943h22.416h0.521v-28.15h-3.649v-4.06L11.031,10.88z M12.595,13.1h19.81
			v25.022h-19.81V13.1L12.595,13.1z M28.821,11.406H16.505c0,0,11.99-2.183,12.316-2.183V11.406z"/>
		<path fill="#444444" d="M20.353,14.619c-0.123-0.289-0.406-0.476-0.72-0.476H14.42c-0.432,0-0.783,0.35-0.783,0.782v5.409
			c0,0.319,0.193,0.606,0.489,0.725c0.096,0.038,0.194,0.057,0.293,0.057c0.208,0,0.412-0.083,0.563-0.239l5.213-5.408
			C20.413,15.242,20.475,14.907,20.353,14.619z M15.202,18.395v-2.688h2.591L15.202,18.395z"/>
		<path fill="#444444" d="M30.879,30.363c-0.292-0.122-0.628-0.055-0.853,0.168l-5.213,5.213c-0.224,0.224-0.292,0.561-0.17,0.853
			c0.122,0.292,0.408,0.483,0.723,0.483h5.213c0.432,0,0.782-0.35,0.782-0.782v-5.213C31.362,30.769,31.171,30.483,30.879,30.363z
			 M29.798,35.516h-2.544l2.544-2.542V35.516L29.798,35.516z"/>
		<path fill="#444444" d="M29.603,23.584c0-0.432-0.35-0.782-0.782-0.782h-12.12c-0.432,0-0.783,0.35-0.783,0.782
			c0,0.432,0.351,0.782,0.783,0.782h12.12C29.252,24.367,29.603,24.016,29.603,23.584z"/>
	</g>
</g>
</svg>
