<?xml version="1.0" encoding="utf-8"?>
<!-- Generator: Adobe Illustrator 16.0.0, SVG Export Plug-In . SVG Version: 6.00 Build 0)  -->
<!DOCTYPE svg PUBLIC "-//W3C//DTD SVG 1.1//EN" "http://www.w3.org/Graphics/SVG/1.1/DTD/svg11.dtd">
<svg version="1.1" id="Layer_1" xmlns="http://www.w3.org/2000/svg" xmlns:xlink="http://www.w3.org/1999/xlink" x="0px" y="0px"
	 width="45px" height="45px" viewBox="0 0 45 45" enable-background="new 0 0 45 45" xml:space="preserve">
<g>
	<g>
		<polygon fill="#F9F9FA" stroke="#444444" stroke-width="1.5" stroke-miterlimit="10" points="8.482,35.621 8.482,27.416 
			15.465,24.354 22.319,27.393 22.319,35.621 15.401,38.5 		"/>
		<polyline fill="none" stroke="#444444" stroke-width="1.5" stroke-miterlimit="10" points="8.4,27.84 15.479,30.939 22.378,27.84 
					"/>
		<line fill="none" stroke="#444444" stroke-width="1.5" stroke-miterlimit="10" x1="15.479" y1="30.939" x2="15.479" y2="38.383"/>
		<polyline fill="none" stroke="#444444" stroke-width="1.5" stroke-miterlimit="10" points="18.995,25.918 11.564,29.262 
			11.564,31.607 		"/>
	</g>
	<g>
		<polygon fill="#F9F9FA" stroke="#444444" stroke-width="1.5" stroke-miterlimit="10" points="8.482,27.621 8.482,19.416 
			15.465,16.353 22.319,19.393 22.319,27.621 15.401,30.5 		"/>
		<polyline fill="none" stroke="#444444" stroke-width="1.5" stroke-miterlimit="10" points="8.4,19.84 15.479,22.939 22.378,19.84 
					"/>
		<line fill="none" stroke="#444444" stroke-width="1.5" stroke-miterlimit="10" x1="15.479" y1="22.939" x2="15.479" y2="30.383"/>
		<polyline fill="none" stroke="#444444" stroke-width="1.5" stroke-miterlimit="10" points="18.995,17.918 11.564,21.262 
			11.564,23.607 		"/>
	</g>
	<g>
		<polygon fill="#F9F9FA" stroke="#444444" stroke-width="1.5" stroke-miterlimit="10" points="8.482,19.62 8.482,11.416 
			15.465,8.353 22.319,11.393 22.319,19.62 15.401,22.5 		"/>
		<polyline fill="none" stroke="#444444" stroke-width="1.5" stroke-miterlimit="10" points="8.4,11.84 15.479,14.938 22.378,11.84 
					"/>
		<line fill="none" stroke="#444444" stroke-width="1.5" stroke-miterlimit="10" x1="15.479" y1="14.938" x2="15.479" y2="22.383"/>
		<polyline fill="none" stroke="#444444" stroke-width="1.5" stroke-miterlimit="10" points="18.995,9.918 11.564,13.262 
			11.564,15.606 		"/>
	</g>
	<g>
		<path fill="#F9F9FA" stroke="#444444" stroke-width="1.5" stroke-miterlimit="10" d="M32.321,15.146
			c-1.911,0-3.468-1.556-3.468-3.468c0-1.911,1.556-3.467,3.468-3.467s3.468,1.556,3.468,3.467
			C35.789,13.589,34.233,15.146,32.321,15.146z M33.646,38.625h-4.411c-0.21,0-0.381-0.171-0.381-0.381V21.418
			c0-1.333-1.085-2.418-2.419-2.418h-5.789c-0.584,0-1.06-0.476-1.06-1.06s0.476-1.059,1.06-1.059h11.676
			c2.912,0,5.281,2.37,5.281,5.281v5.639c0,0.522-0.424,0.947-0.945,0.947c-0.48,0-0.868,0.389-0.868,0.867v8.628
			c0,0.21-0.172,0.381-0.381,0.381h-2.219"/>
	</g>
	
		<line fill="none" stroke="#444444" stroke-width="1.5" stroke-linecap="round" stroke-miterlimit="10" x1="32.339" y1="29.936" x2="32.339" y2="38.451"/>
</g>
</svg>
