<?xml version="1.0" encoding="utf-8"?>
<!-- Generator: Adobe Illustrator 16.0.0, SVG Export Plug-In . SVG Version: 6.00 Build 0)  -->
<!DOCTYPE svg PUBLIC "-//W3C//DTD SVG 1.1//EN" "http://www.w3.org/Graphics/SVG/1.1/DTD/svg11.dtd">
<svg version="1.1" id="Layer_1" xmlns="http://www.w3.org/2000/svg" xmlns:xlink="http://www.w3.org/1999/xlink" x="0px" y="0px"
	 width="45px" height="45px" viewBox="0 0 45 45" enable-background="new 0 0 45 45" xml:space="preserve">
<g>
	
		<rect x="1.125" y="13.153" fill="none" stroke="#444444" stroke-width="1.5" stroke-miterlimit="10" width="36.5" height="25.781"/>
	<line fill="none" stroke="#444444" stroke-width="1.5" stroke-miterlimit="10" x1="1.5" y1="13.844" x2="19.875" y2="26.043"/>
	<line fill="none" stroke="#444444" stroke-width="1.5" stroke-miterlimit="10" x1="37.427" y1="13.844" x2="19.052" y2="26.043"/>
	<path fill="#FFFFFF" d="M26.792,10.67c0,0-1.25,2.292,0,5.542l1.042,2.833c0,0-1,2.917-1.125,3.583s0.582,1.458,1.791,1.5
		s5.834-4.458,5.834-4.458l-0.792-7.542L26.792,10.67z"/>
	<ellipse fill="#FFFFFF" cx="36.302" cy="20.141" rx="4.15" ry="3.862"/>
	<g id="_x37_7_Essential_Icons_42_">
		<path id="Notification" fill="#FFFFFF" stroke="#444444" stroke-width="1.5" stroke-miterlimit="10" d="M29.106,15.628
			l1.322,3.618l-1.118,2.378c-0.062,0.102-0.082,0.224-0.041,0.346c0.081,0.224,0.325,0.325,0.528,0.244l0,0l4.432-1.585
			c0.529,0.895,1.668,1.321,2.684,0.956c1.017-0.366,1.606-1.403,1.424-2.44l4.391-1.606c0.346-0.122,0.366-0.589,0.041-0.731
			l-2.439-1.119l-1.322-3.619c-0.955-2.561-3.74-3.943-6.362-3.232L32.42,8.269c-0.061-0.203-0.305-0.326-0.508-0.244
			c-0.224,0.061-0.325,0.305-0.244,0.508l0.204,0.589C29.392,10.241,28.151,13.066,29.106,15.628z M34.229,20.629l4.107-1.484"/>
	</g>
</g>
</svg>
