<?xml version="1.0" encoding="utf-8"?>
<!-- Generator: Adobe Illustrator 16.0.0, SVG Export Plug-In . SVG Version: 6.00 Build 0)  -->
<!DOCTYPE svg PUBLIC "-//W3C//DTD SVG 1.1//EN" "http://www.w3.org/Graphics/SVG/1.1/DTD/svg11.dtd">
<svg version="1.1" id="Layer_1" xmlns="http://www.w3.org/2000/svg" xmlns:xlink="http://www.w3.org/1999/xlink" x="0px" y="0px"
	 width="45px" height="45px" viewBox="0 0 45 45" enable-background="new 0 0 45 45" xml:space="preserve">
<g>
	<g>
		<line fill="#FFFFFF" stroke="#444444" stroke-width="1.5" stroke-miterlimit="10" x1="28.536" y1="23.266" x2="0" y2="23.266"/>
		<line fill="#FFFFFF" stroke="#444444" stroke-width="1.5" stroke-miterlimit="10" x1="14.268" y1="9" x2="14.268" y2="37.536"/>
		
			<line fill="#FFFFFF" stroke="#444444" stroke-width="1.5" stroke-miterlimit="10" x1="23.12" y1="34.458" x2="5.417" y2="12.077"/>
		
			<line fill="#FFFFFF" stroke="#444444" stroke-width="1.5" stroke-miterlimit="10" x1="25.785" y1="14.844" x2="2.752" y2="31.691"/>
		
			<line fill="#FFFFFF" stroke="#444444" stroke-width="1.5" stroke-miterlimit="10" x1="27.865" y1="27.595" x2="0.672" y2="18.939"/>
		<line fill="#FFFFFF" stroke="#444444" stroke-width="1.5" stroke-miterlimit="10" x1="19.047" y1="9.823" x2="9.49" y2="36.711"/>
		
			<line fill="#FFFFFF" stroke="#444444" stroke-width="1.5" stroke-miterlimit="10" x1="19.014" y1="36.723" x2="9.522" y2="9.811"/>
		
			<line fill="#FFFFFF" stroke="#444444" stroke-width="1.5" stroke-miterlimit="10" x1="27.78" y1="18.685" x2="0.756" y2="27.849"/>
		
			<line fill="#FFFFFF" stroke="#444444" stroke-width="1.5" stroke-miterlimit="10" x1="22.871" y1="11.885" x2="5.666" y2="34.65"/>
		
			<line fill="#FFFFFF" stroke="#444444" stroke-width="1.5" stroke-miterlimit="10" x1="26.084" y1="31.266" x2="2.452" y2="15.27"/>
		<circle fill="#FFFFFF" stroke="#444444" stroke-width="1.5" stroke-miterlimit="10" cx="14.267" cy="23.362" r="11.364"/>
		<circle fill="none" stroke="#444444" stroke-width="1.5" stroke-miterlimit="10" cx="14.268" cy="23.362" r="2.846"/>
	</g>
	<line fill="none" stroke="#FFFFFF" stroke-width="2" stroke-miterlimit="10" x1="14.422" y1="8.313" x2="14.422" y2="37.938"/>
	<g>
		
			<rect x="15.938" y="8.25" fill="#FFFFFF" stroke="#444444" stroke-width="1.5" stroke-miterlimit="10" width="28.063" height="30.75"/>
		<line fill="none" stroke="#444444" stroke-width="1.5" stroke-miterlimit="10" x1="15.467" y1="17.887" x2="43.672" y2="17.887"/>
		<line fill="none" stroke="#444444" stroke-width="1.5" stroke-miterlimit="10" x1="15.467" y1="25.142" x2="44" y2="25.142"/>
		<line fill="none" stroke="#444444" stroke-width="1.5" stroke-miterlimit="10" x1="15.467" y1="32.147" x2="44" y2="32.147"/>
		<line fill="none" stroke="#444444" stroke-width="1.5" stroke-miterlimit="10" x1="36.576" y1="17.64" x2="36.576" y2="38.995"/>
		<polyline fill="none" stroke="#444444" stroke-miterlimit="10" points="38.27,21.559 39.535,22.922 42.503,19.97 		"/>
		<polyline fill="none" stroke="#444444" stroke-miterlimit="10" points="38.27,28.564 39.535,29.928 42.503,26.977 		"/>
		<polyline fill="none" stroke="#444444" stroke-miterlimit="10" points="38.27,35.571 39.535,36.934 42.503,33.983 		"/>
	</g>
</g>
</svg>
