<?xml version="1.0" encoding="utf-8"?>
<!-- Generator: Adobe Illustrator 16.0.0, SVG Export Plug-In . SVG Version: 6.00 Build 0)  -->
<!DOCTYPE svg PUBLIC "-//W3C//DTD SVG 1.1//EN" "http://www.w3.org/Graphics/SVG/1.1/DTD/svg11.dtd">
<svg version="1.1" id="Layer_1" xmlns="http://www.w3.org/2000/svg" xmlns:xlink="http://www.w3.org/1999/xlink" x="0px" y="0px"
	 width="45px" height="45px" viewBox="0 0 45 45" enable-background="new 0 0 45 45" xml:space="preserve">
<g>
	<polygon fill="none" stroke="#444444" stroke-width="1.5" stroke-miterlimit="10" points="2.991,8.243 34.746,8.243 30.706,25.042 
		2.991,25.042 	"/>
	<polyline fill="none" stroke="#444444" stroke-width="1.5" stroke-miterlimit="10" points="12.415,12.366 7.406,12.366 
		7.406,16.539 11.419,16.539 11.419,20.257 6.796,20.257 	"/>
	<polyline fill="none" stroke="#444444" stroke-width="1.5" stroke-miterlimit="10" points="15.817,20.874 15.817,12.366 
		19.795,12.366 19.795,20.874 	"/>
	<polyline fill="none" stroke="#444444" stroke-width="1.5" stroke-miterlimit="10" points="23.756,20.874 23.756,12.366 
		27.734,12.366 28.466,12.366 28.466,16.619 24.229,16.619 	"/>
	<line fill="none" stroke="#444444" stroke-width="1.5" stroke-miterlimit="10" x1="16.299" y1="16.619" x2="19.67" y2="16.619"/>
	<g>
		<g>
			<g>
				<g>
					<g>
						<g>
							<path fill="#F9F9FA" stroke="#3C3C3B" stroke-width="1.5" stroke-miterlimit="10" d="M36.017,38.274l-2.019,0.458
								c-0.303,0.069-0.408,0.094-2.027-2.235l-0.873-0.144c-1.954,1.483-2.211,1.542-2.298,1.561l-0.166,0.038l-0.169-0.089
								l-1.75-1.075c-0.267-0.167-0.36-0.226,0.185-3.011l-0.501-0.697c-2.843-0.345-2.869-0.455-2.939-0.765l-0.449-1.979
								c-0.071-0.311-0.093-0.409,2.297-2.018l0.15-0.847c-1.75-2.222-1.687-2.319-1.503-2.591l1.196-1.858l0.191-0.05
								c0.231-0.052,1.166,0.066,2.776,0.352l0.724-0.504c0.374-2.792,0.492-2.819,0.795-2.887l2.018-0.458
								c0.303-0.069,0.409-0.094,2.027,2.236l0.875,0.141c1.95-1.48,2.212-1.54,2.298-1.559l0.167-0.038l0.169,0.088l1.749,1.072
								c0.268,0.17,0.358,0.229-0.186,3.014l0.503,0.702c2.845,0.34,2.87,0.449,2.941,0.76l0.449,1.977
								c0.069,0.303,0.094,0.41-2.299,2.02l-0.148,0.847c1.742,2.213,1.682,2.309,1.511,2.581l-1.205,1.871l-0.191,0.049
								c-0.231,0.053-1.164-0.067-2.772-0.355l-0.729,0.506C36.436,38.179,36.326,38.204,36.017,38.274z"/>
						</g>
					</g>
				</g>
			</g>
		</g>
		
			<line fill="none" stroke="#444444" stroke-width="1.5" stroke-linecap="round" stroke-miterlimit="10" x1="29.88" y1="31.053" x2="35.184" y2="25.486"/>
		<polyline fill="none" stroke="#444444" stroke-width="1.5" stroke-linecap="round" stroke-miterlimit="10" points="35.151,25.454 
			30.09,26.06 29.847,31.021 		"/>
		
			<line fill="none" stroke="#444444" stroke-width="1.5" stroke-linecap="round" stroke-miterlimit="10" x1="32.525" y1="28.44" x2="36.805" y2="32.5"/>
	</g>
</g>
</svg>
