<?xml version="1.0" encoding="utf-8"?>
<!-- Generator: Adobe Illustrator 16.0.0, SVG Export Plug-In . SVG Version: 6.00 Build 0)  -->
<!DOCTYPE svg PUBLIC "-//W3C//DTD SVG 1.1//EN" "http://www.w3.org/Graphics/SVG/1.1/DTD/svg11.dtd">
<svg version="1.1" id="Layer_1" xmlns="http://www.w3.org/2000/svg" xmlns:xlink="http://www.w3.org/1999/xlink" x="0px" y="0px"
	 width="208.049px" height="214.43px" viewBox="0 0 208.049 214.43" enable-background="new 0 0 208.049 214.43"
	 xml:space="preserve">
<g>
	<path d="M144.505,139.978c13.708-14.841,22.262-34.711,22.262-56.595C166.767,37.478,129.414,0,83.383,0
		C37.352,0,0,37.478,0,83.382c0,45.905,37.353,83.382,83.383,83.382c18.739,0,35.97-6.161,49.929-16.601l62.004,62.003
		c1.509,1.509,3.395,2.263,5.281,2.263c1.885,0,3.898-0.754,5.282-2.263c2.894-2.895,2.894-7.673,0-10.69L144.505,139.978z
		 M15.092,83.382c0-37.604,30.562-68.291,68.292-68.291c37.604,0,68.291,30.562,68.291,68.291s-30.563,68.292-68.291,68.292
		C45.653,151.674,15.092,120.987,15.092,83.382z"/>
</g>
</svg>
