<?xml version="1.0" encoding="utf-8"?>
<!-- Generator: Adobe Illustrator 16.0.0, SVG Export Plug-In . SVG Version: 6.00 Build 0)  -->
<!DOCTYPE svg PUBLIC "-//W3C//DTD SVG 1.1//EN" "http://www.w3.org/Graphics/SVG/1.1/DTD/svg11.dtd">
<svg version="1.1" id="Layer_1" xmlns="http://www.w3.org/2000/svg" xmlns:xlink="http://www.w3.org/1999/xlink" x="0px" y="0px"
	 width="45px" height="45px" viewBox="0 0 45 45" enable-background="new 0 0 45 45" xml:space="preserve">
<g>
	<g>
		<rect x="1.917" y="5" fill="none" stroke="#444444" stroke-width="2" stroke-miterlimit="10" width="41.336" height="35.75"/>
		<line fill="none" stroke="#444444" stroke-width="2" stroke-miterlimit="10" x1="1.917" y1="12.027" x2="42.778" y2="12.027"/>
		<rect x="16.841" y="7.963" fill="#444444" width="4.833" height="1.166"/>
		<rect x="24.013" y="7.963" fill="#444444" width="4.83" height="1.166"/>
		<rect x="31.181" y="7.963" fill="#444444" width="4.833" height="1.166"/>
		<line fill="none" stroke="#444444" stroke-width="2" stroke-miterlimit="10" x1="12.348" y1="11.597" x2="12.347" y2="40.75"/>
		<rect x="17.875" y="29.25" fill="none" stroke="#444444" stroke-width="2" stroke-miterlimit="10" width="19.689" height="6.5"/>
		<line fill="none" stroke="#444444" stroke-width="2" stroke-miterlimit="10" x1="16.919" y1="17.699" x2="38.289" y2="17.699"/>
		<line fill="none" stroke="#444444" stroke-width="2" stroke-miterlimit="10" x1="16.919" y1="23.115" x2="33.289" y2="23.115"/>
		<rect x="4.976" y="7.38" fill="#444444" width="8.544" height="2.332"/>
	</g>
	<polygon fill="none" stroke="#FFFFFF" stroke-width="4" stroke-miterlimit="10" points="34.582,33.876 33.726,37.571 
		36.125,36.223 38.796,34.721 	"/>
	<line fill="none" stroke="#FFFFFF" stroke-width="4" stroke-miterlimit="10" x1="39.568" y1="42.046" x2="35.985" y2="36.437"/>
	<polygon fill="none" stroke="#444444" stroke-miterlimit="10" points="34.582,33.876 33.726,37.571 36.125,36.223 38.796,34.721 	
		"/>
	<line fill="none" stroke="#444444" stroke-miterlimit="10" x1="38.507" y1="40.517" x2="35.985" y2="36.437"/>
</g>
</svg>
