<?xml version="1.0" encoding="utf-8"?>
<!-- Generator: Adobe Illustrator 16.0.0, SVG Export Plug-In . SVG Version: 6.00 Build 0)  -->
<!DOCTYPE svg PUBLIC "-//W3C//DTD SVG 1.1//EN" "http://www.w3.org/Graphics/SVG/1.1/DTD/svg11.dtd">
<svg version="1.1" id="Layer_1" xmlns="http://www.w3.org/2000/svg" xmlns:xlink="http://www.w3.org/1999/xlink" x="0px" y="0px"
	 width="45px" height="45px" viewBox="0 0 45 45" enable-background="new 0 0 45 45" xml:space="preserve">
<g>
	<g>
		<g>
			<polygon fill="none" stroke="#454545" stroke-width="1.5" stroke-miterlimit="10" points="6.82,8.181 38.585,8.179 
				38.431,34.467 6.665,34.471 			"/>
			<line fill="none" stroke="#454545" stroke-width="1.5" stroke-miterlimit="10" x1="38.462" y1="28.939" x2="7.062" y2="28.943"/>
			
				<line fill="none" stroke="#454545" stroke-width="1.5" stroke-linecap="round" stroke-miterlimit="10" x1="33.687" y1="39.613" x2="11.713" y2="39.672"/>
			<line fill="none" stroke="#454545" stroke-width="1.5" stroke-miterlimit="10" x1="22.73" y1="34.564" x2="22.701" y2="39.736"/>
			
				<rect x="34.991" y="31.527" fill="none" stroke="#454545" stroke-width="1.5" stroke-miterlimit="10" width="0.519" height="0.521"/>
		</g>
	</g>
	<g>
		
			<line fill="none" stroke="#454545" stroke-linecap="round" stroke-miterlimit="10" x1="23.869" y1="16.44" x2="33.412" y2="16.44"/>
		<g>
			<polygon fill="#F9F9FA" stroke="#444444" stroke-miterlimit="10" points="11.896,20.911 11.896,16.622 15.547,15.02 
				19.132,16.609 19.132,20.911 15.514,22.417 			"/>
			<polyline fill="none" stroke="#444444" stroke-miterlimit="10" points="11.854,16.844 15.555,18.463 19.162,16.844 			"/>
			<line fill="none" stroke="#444444" stroke-miterlimit="10" x1="15.555" y1="18.463" x2="15.555" y2="22.355"/>
			<polyline fill="none" stroke="#444444" stroke-miterlimit="10" points="17.392,15.839 13.508,17.587 13.508,18.813 			"/>
		</g>
		
			<line fill="none" stroke="#454545" stroke-linecap="round" stroke-miterlimit="10" x1="23.869" y1="18.44" x2="32.412" y2="18.44"/>
		
			<line fill="none" stroke="#454545" stroke-linecap="round" stroke-miterlimit="10" x1="23.869" y1="20.44" x2="30.412" y2="20.44"/>
		
			<line fill="none" stroke="#454545" stroke-linecap="round" stroke-miterlimit="10" x1="16.478" y1="11.469" x2="19.021" y2="11.469"/>
		<rect x="9.079" y="10.375" fill="#454545" width="4.142" height="2.188"/>
		
			<line fill="none" stroke="#454545" stroke-linecap="round" stroke-miterlimit="10" x1="21.478" y1="11.469" x2="24.021" y2="11.469"/>
		
			<line fill="none" stroke="#454545" stroke-linecap="round" stroke-miterlimit="10" x1="26.478" y1="11.469" x2="29.021" y2="11.469"/>
		<rect x="9.079" y="25.03" fill="#454545" width="3.99" height="1.564"/>
		<rect x="14.859" y="25.03" fill="#454545" width="3.99" height="1.564"/>
		<rect x="20.638" y="25.03" fill="#454545" width="3.99" height="1.564"/>
		<rect x="26.418" y="25.03" fill="#454545" width="3.99" height="1.564"/>
		<rect x="32.198" y="25.03" fill="#454545" width="3.99" height="1.564"/>
		
			<line fill="none" stroke="#454545" stroke-linecap="round" stroke-miterlimit="10" x1="31.478" y1="11.469" x2="34.021" y2="11.469"/>
	</g>
</g>
</svg>
