<?xml version="1.0" encoding="utf-8"?>
<!-- Generator: Adobe Illustrator 16.0.0, SVG Export Plug-In . SVG Version: 6.00 Build 0)  -->
<!DOCTYPE svg PUBLIC "-//W3C//DTD SVG 1.1//EN" "http://www.w3.org/Graphics/SVG/1.1/DTD/svg11.dtd">
<svg version="1.1" id="Layer_1" xmlns="http://www.w3.org/2000/svg" xmlns:xlink="http://www.w3.org/1999/xlink" x="0px" y="0px"
	 width="45px" height="45px" viewBox="0 0 45 45" enable-background="new 0 0 45 45" xml:space="preserve">
<g>
	<polygon fill="none" stroke="#454545" stroke-width="1.5" stroke-miterlimit="10" points="3.173,8.243 34.111,8.243 30.175,24.61 
		3.173,24.61 	"/>
	<g>
		<g>
			<g>
				<g>
					<g>
						<g>
							<path fill="#F8FAFB" stroke="#3D3D3C" stroke-width="1.5" stroke-miterlimit="10" d="M35.35,37.501l-1.968,0.447
								c-0.295,0.066-0.397,0.091-1.975-2.178l-0.851-0.14c-1.903,1.444-2.154,1.501-2.239,1.521l-0.161,0.037l-0.165-0.087
								l-1.705-1.048c-0.26-0.162-0.35-0.22,0.181-2.934l-0.489-0.679c-2.769-0.337-2.795-0.443-2.862-0.746l-0.437-1.928
								c-0.07-0.303-0.092-0.398,2.237-1.966l0.146-0.825c-1.705-2.165-1.643-2.259-1.464-2.524l1.164-1.811l0.187-0.048
								c0.226-0.052,1.137,0.063,2.705,0.343l0.705-0.491c0.364-2.721,0.479-2.747,0.774-2.813l1.966-0.447
								c0.296-0.066,0.399-0.091,1.976,2.179l0.853,0.138c1.899-1.441,2.155-1.5,2.239-1.519l0.162-0.037l0.165,0.085l1.703,1.045
								c0.262,0.166,0.35,0.224-0.181,2.938l0.49,0.683c2.771,0.331,2.796,0.438,2.865,0.74l0.438,1.927
								c0.067,0.295,0.092,0.398-2.24,1.969l-0.144,0.824c1.696,2.156,1.639,2.25,1.472,2.516l-1.174,1.822l-0.187,0.048
								c-0.225,0.052-1.134-0.065-2.7-0.347l-0.71,0.493C35.757,37.41,35.65,37.434,35.35,37.501z"/>
						</g>
					</g>
				</g>
			</g>
		</g>
		
			<line fill="none" stroke="#454545" stroke-width="1.5" stroke-linecap="round" stroke-miterlimit="10" x1="29.37" y1="30.466" x2="34.537" y2="25.043"/>
		<polyline fill="none" stroke="#454545" stroke-width="1.5" stroke-linecap="round" stroke-miterlimit="10" points="34.505,25.012 
			29.574,25.603 29.339,30.436 		"/>
		
			<line fill="none" stroke="#454545" stroke-width="1.5" stroke-linecap="round" stroke-miterlimit="10" x1="31.947" y1="27.92" x2="36.116" y2="31.876"/>
	</g>
	<g>
		<path fill="#444444" d="M12.613,19.521c-0.253,0.127-0.822,0.262-1.563,0.262c-2.104,0-3.188-1.31-3.188-3.044
			c0-2.077,1.481-3.233,3.324-3.233c0.714,0,1.255,0.145,1.499,0.271l-0.279,1.093c-0.28-0.117-0.669-0.226-1.156-0.226
			c-1.094,0-1.942,0.659-1.942,2.015c0,1.22,0.723,1.987,1.951,1.987c0.415,0,0.876-0.091,1.147-0.198L12.613,19.521z"/>
		<path fill="#444444" d="M14.242,13.687c0.442-0.072,1.102-0.127,1.833-0.127c0.903,0,1.536,0.136,1.97,0.479
			c0.361,0.289,0.56,0.713,0.56,1.273c0,0.776-0.551,1.31-1.075,1.499v0.027c0.425,0.172,0.66,0.578,0.813,1.138
			c0.189,0.688,0.38,1.482,0.497,1.717h-1.409c-0.1-0.172-0.244-0.668-0.425-1.418c-0.162-0.759-0.425-0.967-0.984-0.976h-0.416
			v2.394h-1.363V13.687z M15.605,16.306h0.542c0.687,0,1.093-0.343,1.093-0.876c0-0.561-0.379-0.84-1.012-0.85
			c-0.334,0-0.523,0.027-0.623,0.046V16.306z"/>
		<path fill="#444444" d="M25.472,17.363c-0.027-0.732-0.054-1.617-0.054-2.503h-0.027c-0.189,0.777-0.443,1.645-0.678,2.358
			l-0.74,2.375h-1.075l-0.65-2.357c-0.199-0.714-0.407-1.581-0.552-2.376h-0.018c-0.036,0.822-0.063,1.762-0.108,2.521l-0.108,2.313
			h-1.273l0.389-6.088h1.833l0.597,2.032c0.189,0.704,0.379,1.463,0.515,2.177h0.027c0.171-0.705,0.379-1.509,0.578-2.186
			l0.65-2.023h1.798l0.334,6.088h-1.346L25.472,17.363z"/>
	</g>
</g>
</svg>
