<?xml version="1.0" encoding="utf-8"?>
<!-- Generator: Adobe Illustrator 16.0.0, SVG Export Plug-In . SVG Version: 6.00 Build 0)  -->
<!DOCTYPE svg PUBLIC "-//W3C//DTD SVG 1.1//EN" "http://www.w3.org/Graphics/SVG/1.1/DTD/svg11.dtd">
<svg version="1.1" id="Layer_1" xmlns="http://www.w3.org/2000/svg" xmlns:xlink="http://www.w3.org/1999/xlink" x="0px" y="0px"
	 width="45px" height="45px" viewBox="0 0 45 45" enable-background="new 0 0 45 45" xml:space="preserve">
<g>
	<g>
		<g>
			<path fill="#444444" d="M4.488,16.416c0.132-0.049,0.237-0.119,0.404-0.584c0.075-0.207,0.169-0.533,0.199-0.927l0.014-0.171
				c0.109-1.476,0.365-4.927,2.975-6.424c2.184-1.188,4.672-0.562,7.197,1.809c0.086,0.081,0.14,0.13,0.184,0.164
				c0.406,0.394,0.957,0.853,1.342,0.873c0.095,0.007,0.186-0.02,0.261-0.067c0.112-0.073,0.192-0.198,0.2-0.345
				c0.013-0.232-0.158-0.433-0.389-0.459c-0.132-0.046-0.521-0.353-0.828-0.653c-0.018-0.018-0.038-0.034-0.06-0.046
				c-0.022-0.021-0.069-0.064-0.11-0.104c-0.401-0.376-1.464-1.375-2.909-2.027c-1.867-0.845-3.652-0.814-5.311,0.09
				C7.654,7.545,7.651,7.547,7.648,7.547c-3.016,1.728-3.297,5.509-3.417,7.122l-0.013,0.169c-0.034,0.44-0.18,0.794-0.237,0.906
				c-0.024,0.031-0.042,0.069-0.057,0.107c-0.059,0.159-0.02,0.344,0.102,0.464C4.147,16.436,4.328,16.476,4.488,16.416z"/>
			<path fill="#444444" d="M14.615,11.909c-0.169-0.873-0.62-1.595-1.245-1.979c-0.556-0.344-1.229-0.419-1.946-0.217
				c-1.053,0.295-1.807,1.469-2.065,3.216c-0.004,0.021-0.456,2.38-1.343,4.213c-0.006,0.013-0.665,1.342-1.586,2.364
				c-0.163,0.178-0.148,0.455,0.031,0.617c0.179,0.161,0.457,0.148,0.618-0.031c1.003-1.111,1.693-2.506,1.723-2.566
				c0.962-1.989,1.419-4.441,1.421-4.465c0.158-1.061,0.618-2.275,1.437-2.507c0.483-0.136,0.904-0.095,1.251,0.12
				c0.415,0.257,0.724,0.768,0.846,1.4c0.226,1.179-0.215,3.061-1.244,5.299c-0.516,1.122-1.836,3.914-2.966,5.58
				c-0.135,0.2-0.083,0.47,0.117,0.606c0.149,0.103,0.339,0.098,0.481,0.005c0.049-0.03,0.092-0.071,0.126-0.12
				c1.167-1.72,2.512-4.563,3.037-5.706C14.088,16.037,14.949,13.646,14.615,11.909z"/>
			<path fill="#444444" d="M6.921,12.966c-0.049,0.292-0.072,0.586-0.112,0.879c-0.053,0.383-0.135,0.763-0.236,1.134
				c-0.105,0.385-0.203,0.673-0.388,1.028c-0.196,0.379-0.397,0.763-0.618,1.126c-0.076,0.125-0.149,0.221-0.249,0.338
				c-0.155,0.181-0.147,0.455,0.034,0.617c0.173,0.157,0.462,0.149,0.617-0.033c0.305-0.355,0.521-0.768,0.736-1.179
				c0.183-0.348,0.374-0.678,0.508-1.048c0.263-0.722,0.413-1.462,0.499-2.223c0.036-0.308,0.088-0.613,0.153-0.916
				c0.037-0.166,0.077-0.33,0.122-0.494c0.024-0.084,0.049-0.17,0.075-0.252c0.013-0.045,0.027-0.086,0.041-0.129
				c0.004-0.012,0.032-0.092,0.039-0.115c0.131-0.36,0.292-0.71,0.484-1.041c0.182-0.314,0.392-0.587,0.678-0.869
				C9.398,9.696,9.421,9.68,9.497,9.618c0.186-0.149,0.271-0.389,0.131-0.604c-0.119-0.185-0.417-0.28-0.604-0.132
				C7.782,9.875,7.178,11.438,6.921,12.966z"/>
			<path fill="#444444" d="M8.582,21.854c0.624-0.787,3.745-4.957,3.976-9.656c0.012-0.242-0.174-0.447-0.416-0.458
				c-0.242-0.013-0.447,0.173-0.458,0.415c-0.217,4.433-3.193,8.407-3.788,9.157c-0.012,0.016-0.021,0.026-0.023,0.029
				c-0.145,0.194-0.104,0.468,0.09,0.611c0.151,0.112,0.349,0.113,0.498,0.017c0.041-0.026,0.079-0.061,0.111-0.102L8.582,21.854z"
				/>
			<path fill="#444444" d="M20.007,17.615c-0.62,0.157-1.53,0.114-2.409,0.071c-1.275-0.062-2.375-0.114-2.923,0.386
				c-0.411,0.377-0.887,1.412-1.623,3.071c-0.53,1.195-1.131,2.551-1.506,2.964c-0.162,0.18-0.149,0.456,0.029,0.617
				c0.151,0.138,0.369,0.151,0.531,0.046c0.032-0.021,0.062-0.046,0.087-0.074c0.47-0.519,1.047-1.82,1.658-3.198
				c0.494-1.114,1.108-2.5,1.414-2.78c0.278-0.254,1.393-0.2,2.288-0.158c0.945,0.046,1.92,0.094,2.668-0.097
				c0.233-0.059,0.375-0.298,0.316-0.531C20.479,17.697,20.239,17.556,20.007,17.615z"/>
			<path fill="#444444" d="M20.242,20.01c-0.366,0.084-1.039,0.097-1.69,0.107c-1.376,0.024-2.24,0.056-2.64,0.423
				c-0.405,0.371-0.943,1.635-1.796,3.836c-0.105,0.271-0.195,0.502-0.26,0.66c-0.09,0.226,0.018,0.479,0.242,0.57
				c0.137,0.055,0.286,0.037,0.401-0.037c0.073-0.047,0.133-0.117,0.169-0.203c0.066-0.166,0.158-0.402,0.264-0.675
				c0.339-0.876,1.241-3.203,1.568-3.504c0.22-0.163,1.377-0.184,2.068-0.196c0.729-0.012,1.416-0.022,1.87-0.128
				c0.237-0.054,0.382-0.287,0.33-0.522C20.712,20.105,20.478,19.956,20.242,20.01z"/>
			<path fill="#444444" d="M20.174,22.64c-0.294-0.003-0.571-0.018-0.84-0.028c-0.879-0.045-1.641-0.082-2.149,0.385
				c-0.573,0.525-0.936,2.215-1.003,2.547c-0.047,0.237,0.105,0.469,0.343,0.517c0.115,0.022,0.23-0.002,0.322-0.061
				c0.097-0.063,0.169-0.161,0.193-0.282c0.167-0.826,0.495-1.854,0.736-2.074c0.24-0.221,0.832-0.192,1.516-0.157
				c0.265,0.013,0.564,0.026,0.877,0.028c0.241,0.003,0.438-0.191,0.44-0.434C20.609,22.839,20.415,22.641,20.174,22.64z"/>
			<path fill="#444444" d="M18.535,12.961c-0.391,0.065-0.798,0.136-1.195,0.087c-0.437-0.053-0.767-0.279-1.057-0.599
				c-0.378-0.419-0.96,0.234-0.584,0.648c0.77,0.856,1.805,0.921,2.873,0.736c0.235-0.04,0.429-0.194,0.417-0.454
				C18.981,13.164,18.77,12.92,18.535,12.961z"/>
			<path fill="#444444" d="M19.054,15.34c-0.332,0.093-0.611,0.118-1.014,0.133c-0.739,0.028-1.521-0.116-2.137-0.55
				c-0.194-0.138-0.444-0.16-0.618,0.034c-0.145,0.161-0.161,0.479,0.034,0.618c1.134,0.799,2.666,0.97,3.995,0.601
				C19.858,16.023,19.596,15.189,19.054,15.34z"/>
		</g>
	</g>
	<g>
		<g>
			<path fill="#FFFFFF" d="M24.211,35.309c-1.533-2.121-4.103-5.691-4.142-5.756c-0.618-1.034-0.098-3.181,1.056-4.013
				c1.174-0.851,3.043-0.334,3.83,0.624c0.041,0.046,4.078,5.653,4.122,5.703l-1.201,0.866"/>
			<path fill="#FFFFFF" d="M25.892,27.476L24.11,29.08c-1.021-1.414-6.115-8.473-6.153-8.54c-0.622-1.045-0.125-3.242,1.028-4.08
				c1.174-0.846,3.211-0.768,4.001,0.191c0.034,0.039,4.1,5.675,4.119,5.703l-1.197,0.864"/>
			<path fill="#FFFFFF" d="M32.041,22.407l-1.197,0.861c-0.026-0.031-2.471-3.425-2.519-3.502c-0.622-1.036-0.202-2.51,0.948-3.339
				c1.174-0.849,2.716-0.766,3.499,0.194c0.528,0.575,1.273,1.751,3.382,4.679l-1.201,0.867"/>
			<path fill="#FFFFFF" d="M32.368,28.775l-6.115,4.792c-2.727,5.869-2.73-13.649-2.774-13.718
				c-0.621-1.045-0.211-2.514,0.944-3.345c1.177-0.853,2.716-0.766,3.499,0.195c0.043,0.044,6.006,6.286,6.04,6.343l-0.165,2.181"/>
		</g>
		<path fill="#FFFFFF" d="M31.346,20.042c1.184-0.848,2.718-0.764,3.507,0.196c0.012,0.015,0.024,0.035,4.109,5.702
			c0.029,0.034,0.05,0.073,0.064,0.114c1.664,4.038,3.843,7.151-0.323,10.158c-4.803,3.468-11.122,2.947-14.087-1.162"/>
		<path fill="#FFFFFF" d="M34.117,21.003"/>
		<path fill="#FFFFFF" d="M34.41,21.382l-0.008,0.005"/>
	</g>
	<g>
		<g>
			<path fill="#454545" d="M30.064,32.498l-0.98,0.707c-0.018-0.021-3.824-5.299-3.911-5.416c-0.325-0.4-0.938-0.481-1.375-0.167
				c-0.434,0.314-0.553,0.91-0.273,1.364c0.103,0.145,3.878,5.385,3.903,5.412l-0.98,0.709c-1.464-2.025-3.92-5.435-3.957-5.496
				c-0.602-0.979-0.34-2.288,0.602-2.968c0.958-0.694,2.293-0.514,3.036,0.407C26.166,27.095,30.022,32.449,30.064,32.498z"/>
			<path fill="#454545" d="M27.023,28.302l-0.979,0.707c-0.976-1.351-5.839-8.091-5.876-8.155c-0.606-0.989-0.345-2.294,0.596-2.978
				c0.958-0.69,2.294-0.511,3.039,0.411c0.031,0.038,3.914,5.421,3.933,5.447l-0.977,0.706c-0.021-0.024-3.843-5.324-3.912-5.419
				c-0.324-0.399-0.936-0.482-1.377-0.161c-0.431,0.309-0.55,0.91-0.271,1.362C21.308,20.377,27,28.27,27.023,28.302z"/>
			<path fill="#454545" d="M35.484,23.373l-0.981,0.708c-0.013-0.024-3.109-4.311-3.197-4.435c-0.328-0.405-0.939-0.486-1.381-0.17
				c-0.432,0.312-0.551,0.911-0.273,1.36c0.082,0.121,2.33,3.234,2.351,3.27l-0.978,0.703c-0.024-0.03-2.359-3.271-2.405-3.344
				c-0.605-0.981-0.34-2.291,0.6-2.968c0.958-0.693,2.295-0.517,3.036,0.405C32.287,18.94,34.291,21.717,35.484,23.373z"/>
			<path fill="#454545" d="M32.002,24.103l-0.978,0.707c-0.017-0.025-3.823-5.3-3.907-5.419c-0.323-0.398-0.938-0.479-1.377-0.163
				c-0.431,0.311-0.552,0.909-0.274,1.362c0.096,0.131,3.879,5.381,3.904,5.414l-0.981,0.707c-0.398-0.556-3.909-5.424-3.951-5.488
				c-0.605-0.989-0.348-2.295,0.597-2.974c0.96-0.696,2.295-0.516,3.036,0.407C28.109,18.699,31.968,24.049,32.002,24.103z"/>
		</g>
		<path fill="#454545" d="M38.665,37.074c-3.921,2.832-9.415,1.944-12.245-1.98l0.982-0.705c2.436,3.38,7.175,4.147,10.557,1.706
			c2.919-2.109,3.995-5.978,2.566-9.223c-0.389-0.541-3.775-5.235-3.871-5.363c-0.326-0.401-0.936-0.483-1.379-0.169
			c-0.428,0.311-0.549,0.909-0.271,1.361c0.17,0.278,0.09,0.689-0.176,0.821c-0.356,0.237-0.603,0.093-0.847-0.19l-0.006,0.004
			c-0.009-0.013-0.017-0.026-0.024-0.038c-0.081-0.098-0.161-0.209-0.248-0.33l0.025-0.191c-0.243-0.88,0.069-1.858,0.842-2.415
			c0.966-0.69,2.297-0.515,3.041,0.409c0.012,0.014,0.024,0.034,3.926,5.445c0.027,0.033,0.048,0.069,0.063,0.108
			C43.304,30.098,42.067,34.619,38.665,37.074z"/>
	</g>
</g>
</svg>
