<?xml version="1.0" encoding="utf-8"?>
<!-- Generator: Adobe Illustrator 19.1.0, SVG Export Plug-In . SVG Version: 6.00 Build 0)  -->
<svg version="1.1" id="Layer_1" xmlns="http://www.w3.org/2000/svg" xmlns:xlink="http://www.w3.org/1999/xlink" x="0px" y="0px"
	 viewBox="88 241 787.1 312" style="enable-background:new 88 241 787.1 312;" xml:space="preserve">
<style type="text/css">
	.st0{fill:none;stroke:#383938;stroke-width:2;stroke-linecap:round;stroke-linejoin:round;stroke-miterlimit:10;}
	.st1{fill:none;stroke:#D1D2D2;stroke-width:2;stroke-linecap:round;stroke-linejoin:round;stroke-miterlimit:10;}
	.st2{fill:none;stroke:#8EBDDE;stroke-width:2;stroke-linecap:round;stroke-linejoin:round;stroke-miterlimit:10;}
	
		.st3{fill:none;stroke:#8EBDDE;stroke-width:2;stroke-linecap:round;stroke-linejoin:round;stroke-miterlimit:10;stroke-dasharray:1,6;}
	.st4{fill:none;stroke:#4E84A1;stroke-linecap:round;stroke-linejoin:round;stroke-miterlimit:10;}
	.st5{enable-background:new    ;}
	.st6{fill:#24BDC3;}
	.st7{fill:#0E1022;}
</style>
<path class="st0" d="M608.7,301.6c-14.6,21.8-29.6,63.6-29.6,63.6l-226.4-4.7c0,0,23.5-21.4,41.5-35.2s36-24,36-24H608"/>
<path class="st1" d="M621.8,288.9c-3.7,0.9-8,5.2-12.3,11.4"/>
<path class="st1" d="M493.9,286.8c0,0-52.6,2.9-78.1,19.8c-25.5,16.9-69.4,52.6-69.4,52.6s-63.2,15.4-75.2,20.6
	c-12,5.2-17.7,8.3-17.7,8.3s-21.4,8.3-27.1,11.5c-5.7,3.1-8.9,13.5-8.9,13.5l10.4,13l3.1-4.2l132.8,4.2l6.3,5.2l53.8-6.8
	c0,0,20.7-18.8,54.1-26c33.3-7.3,92.2-19.8,92.2-19.8"/>
<path class="st1" d="M602.8,358l7.3-3.3c0,0,0.5-4.9,3.6-8.5c3.1-3.5,25.5-5.6,35.9-4s14.6,7.3,14.6,11.5s0.8,10.7-12.2,12.5
	c-13,1.8-33.6,0-33.6,0l-3.3,4"/>
<path class="st1" d="M225.1,422.6l-16.6,20.6c0,0-3.8-9.4,0-17.7c3.8-8.3,9-12.3,9-12.3"/>
<path class="st1" d="M386.4,429.3l17,25.3c0,0,65.6-5.9,82.3-12.7c16.7-6.8,22.9-13.7,23.6-16.5c0.7-2.8,0-12.3,0-12.3l-85.3,11.5"
	/>
<path class="st1" d="M663.5,360l13.4-3l-19.3-57.1c0,0-23.3-5-36.5,15.8s-23.6,58.3-23.6,58.3"/>
<line class="st1" x1="597.5" y1="374.8" x2="632.2" y2="367"/>
<path class="st1" d="M206.8,433.9l-10.1,15.7v42.7l5.1,5.2v25c0,0,18.4,22.9,163.2,21.9s144.6-7.8,144.6-7.8s2.3-57.3,26.3-85.4
	c24-28.1,45.3-25,59.7-1.6"/>
<path class="st1" d="M232.6,428.2l-11.5,14l8.3,31.4c0,0,110.3,8.9,110.6,7.3s37.9-29.2,37.9-29.2l-14.6-20.3L232.6,428.2z"/>
<polygon class="st1" points="246.7,484 301.9,487.7 301.9,518.9 246.7,514.2 "/>
<polyline class="st1" points="246.7,501.6 210.2,498.6 206.8,517.3 237.3,526.2 241,530.3 326.4,536.1 329,533.5 396.1,536.1 
	369.1,511.6 301.4,506 "/>
<path class="st2" d="M593.9,275.1c0,0-57.6-3.6-95.6-3.6s-79.7,3.6-79.7,3.6c-0.3,0-0.6,0.1-0.9,0.3c0,0-12.1,5.6-34,22.9
	c-21.9,17.3-42.9,33.9-42.9,33.9c-1.3,0.9-0.6,2.9,0.9,2.9l224.8,2.5c0.7,0,1.2-0.4,1.5-1l27.4-59.3
	C595.8,276.2,595,275.1,593.9,275.1z"/>
<line class="st3" x1="417.7" y1="275.4" x2="430.2" y2="301.4"/>
<line class="st3" x1="340.1" y1="334.2" x2="352.6" y2="360.5"/>
<line class="st3" x1="566.5" y1="337.6" x2="579" y2="365.2"/>
<polyline class="st4" points="414.6,293.1 330.3,301.2 190.1,301.2 "/>
<polyline class="st4" points="414.6,293.1 330.3,387.4 163.7,387.4 "/>
<polyline class="st4" points="528.5,306.3 590.8,431 747.1,431 "/>
<line class="st3" x1="595.5" y1="275.4" x2="608" y2="302.4"/>
<g class="st5">
	<path class="st6" d="M97.1,242.6c2.1,0,3.7,0.5,5,1.5s1.8,2.3,1.8,4c0,1.1-0.3,2.2-1,3.1c-0.7,0.9-1.8,1.8-3.3,2.5
		c1.9,0.9,3.2,1.8,4,2.8c0.8,1,1.2,2.1,1.2,3.4c0,1.9-0.7,3.4-2,4.5c-1.3,1.1-3.1,1.7-5.4,1.7c-2.4,0-4.3-0.5-5.6-1.6
		c-1.3-1.1-2-2.6-2-4.5c0-2.6,1.6-4.7,4.8-6.1c-1.4-0.8-2.5-1.7-3.1-2.6c-0.6-0.9-0.9-2-0.9-3.2c0-1.7,0.6-3,1.8-4
		C93.4,243.1,95.1,242.6,97.1,242.6z M92.2,260c0,1.2,0.4,2.2,1.3,2.9c0.9,0.7,2.1,1,3.7,1c1.6,0,2.8-0.4,3.6-1.1
		c0.9-0.7,1.3-1.7,1.3-3c0-1-0.4-1.9-1.2-2.7c-0.8-0.8-2.2-1.5-4.2-2.3c-1.6,0.7-2.7,1.4-3.4,2.2C92.5,257.9,92.2,258.9,92.2,260z
		 M97.1,244.7c-1.3,0-2.3,0.3-3.1,0.9c-0.7,0.6-1.1,1.5-1.1,2.5c0,1,0.3,1.8,0.9,2.5c0.6,0.7,1.8,1.4,3.4,2.1c1.5-0.6,2.5-1.3,3.2-2
		c0.6-0.7,0.9-1.6,0.9-2.5c0-1.1-0.4-1.9-1.1-2.5C99.5,245.1,98.4,244.7,97.1,244.7z"/>
	<path class="st6" d="M115.4,242.6c2.1,0,3.7,0.5,5,1.5s1.8,2.3,1.8,4c0,1.1-0.3,2.2-1,3.1c-0.7,0.9-1.8,1.8-3.3,2.5
		c1.9,0.9,3.2,1.8,4,2.8c0.8,1,1.2,2.1,1.2,3.4c0,1.9-0.7,3.4-2,4.5c-1.3,1.1-3.1,1.7-5.4,1.7c-2.4,0-4.3-0.5-5.6-1.6
		c-1.3-1.1-2-2.6-2-4.5c0-2.6,1.6-4.7,4.8-6.1c-1.4-0.8-2.5-1.7-3.1-2.6c-0.6-0.9-0.9-2-0.9-3.2c0-1.7,0.6-3,1.8-4
		C111.7,243.1,113.4,242.6,115.4,242.6z M110.5,260c0,1.2,0.4,2.2,1.3,2.9c0.9,0.7,2.1,1,3.7,1c1.6,0,2.8-0.4,3.6-1.1
		c0.9-0.7,1.3-1.7,1.3-3c0-1-0.4-1.9-1.2-2.7c-0.8-0.8-2.2-1.5-4.2-2.3c-1.6,0.7-2.7,1.4-3.4,2.2C110.8,257.9,110.5,258.9,110.5,260
		z M115.4,244.7c-1.3,0-2.3,0.3-3.1,0.9c-0.7,0.6-1.1,1.5-1.1,2.5c0,1,0.3,1.8,0.9,2.5c0.6,0.7,1.8,1.4,3.4,2.1
		c1.5-0.6,2.5-1.3,3.2-2c0.6-0.7,0.9-1.6,0.9-2.5c0-1.1-0.4-1.9-1.1-2.5C117.8,245.1,116.7,244.7,115.4,244.7z"/>
</g>
<g class="st5">
	<path class="st6" d="M134.2,251.8c0,2.1-0.3,3.6-1,4.7s-1.7,1.6-3.1,1.6c-1.3,0-2.3-0.5-3-1.6c-0.7-1.1-1.1-2.6-1.1-4.7
		c0-2.1,0.3-3.6,1-4.7c0.7-1,1.7-1.6,3-1.6c1.3,0,2.3,0.5,3,1.6S134.2,249.8,134.2,251.8z M127.9,251.8c0,1.5,0.2,2.7,0.5,3.5
		c0.3,0.8,0.9,1.2,1.6,1.2c1.5,0,2.2-1.5,2.2-4.6c0-3.1-0.7-4.6-2.2-4.6c-0.8,0-1.3,0.4-1.6,1.1
		C128.1,249.1,127.9,250.2,127.9,251.8z M142.7,245.8l-11.1,20h-2l11.1-20H142.7z M146.2,259.8c0,2.1-0.3,3.6-1,4.7
		s-1.7,1.6-3.1,1.6c-1.3,0-2.3-0.5-3-1.6s-1-2.6-1-4.7c0-2.1,0.3-3.6,1-4.7c0.7-1,1.7-1.6,3-1.6c1.3,0,2.3,0.5,3,1.6
		S146.2,257.8,146.2,259.8z M139.9,259.8c0,1.6,0.2,2.7,0.5,3.5c0.3,0.8,0.9,1.2,1.7,1.2s1.3-0.4,1.7-1.1c0.4-0.8,0.5-1.9,0.5-3.5
		c0-1.6-0.2-2.7-0.5-3.5c-0.4-0.8-0.9-1.1-1.7-1.1s-1.3,0.4-1.7,1.1C140.1,257.1,139.9,258.2,139.9,259.8z"/>
</g>
<g class="st5">
	<path class="st7" d="M91.2,283.8l-3.2-8.6h1.4l1.8,5.1c0.4,1.2,0.7,2,0.7,2.3H92c0.1-0.3,0.2-0.8,0.5-1.7s1-2.8,2.1-5.7H96
		l-3.2,8.6H91.2z"/>
	<path class="st7" d="M97.3,272.9c0-0.3,0.1-0.5,0.2-0.7c0.1-0.1,0.3-0.2,0.5-0.2c0.2,0,0.4,0.1,0.5,0.2c0.2,0.1,0.2,0.4,0.2,0.6
		s-0.1,0.5-0.2,0.7c-0.2,0.1-0.3,0.2-0.5,0.2c-0.2,0-0.4-0.1-0.5-0.2C97.4,273.4,97.3,273.2,97.3,272.9z M98.7,283.8h-1.3v-8.6h1.3
		V283.8z"/>
	<path class="st7" d="M107,281.5c0,0.8-0.3,1.4-0.9,1.8s-1.4,0.6-2.5,0.6c-1.1,0-2-0.2-2.7-0.5v-1.2c0.4,0.2,0.9,0.4,1.3,0.5
		c0.5,0.1,0.9,0.2,1.4,0.2c0.7,0,1.2-0.1,1.6-0.3c0.4-0.2,0.5-0.5,0.5-1c0-0.3-0.1-0.6-0.4-0.9s-0.9-0.5-1.7-0.8
		c-0.8-0.3-1.4-0.6-1.7-0.8s-0.6-0.5-0.8-0.8s-0.2-0.6-0.2-1c0-0.7,0.3-1.2,0.9-1.7c0.6-0.4,1.3-0.6,2.3-0.6c0.9,0,1.8,0.2,2.7,0.6
		l-0.5,1.1c-0.9-0.4-1.6-0.5-2.3-0.5c-0.6,0-1.1,0.1-1.4,0.3s-0.5,0.5-0.5,0.8c0,0.2,0.1,0.4,0.2,0.6s0.3,0.3,0.6,0.5
		c0.3,0.1,0.8,0.4,1.5,0.6c1,0.4,1.7,0.7,2.1,1.1C106.8,280.4,107,280.9,107,281.5z"/>
	<path class="st7" d="M109,272.9c0-0.3,0.1-0.5,0.2-0.7c0.1-0.1,0.3-0.2,0.5-0.2c0.2,0,0.4,0.1,0.5,0.2c0.2,0.1,0.2,0.4,0.2,0.6
		s-0.1,0.5-0.2,0.7c-0.2,0.1-0.3,0.2-0.5,0.2c-0.2,0-0.4-0.1-0.5-0.2C109,273.4,109,273.2,109,272.9z M110.4,283.8h-1.3v-8.6h1.3
		V283.8z"/>
	<path class="st7" d="M117.1,275.1c1.1,0,2,0.4,2.6,1.2c0.6,0.8,0.9,1.9,0.9,3.3s-0.3,2.5-0.9,3.3c-0.6,0.8-1.5,1.2-2.6,1.2
		c-0.6,0-1.1-0.1-1.5-0.3s-0.8-0.5-1.2-0.9h-0.1l-0.3,1.1h-0.9v-12.2h1.3v3c0,0.7,0,1.3-0.1,1.8h0.1
		C115,275.5,115.9,275.1,117.1,275.1z M116.9,276.2c-0.9,0-1.5,0.3-1.9,0.8s-0.6,1.4-0.6,2.6s0.2,2.1,0.6,2.6c0.4,0.5,1,0.8,1.9,0.8
		c0.8,0,1.4-0.3,1.8-0.9s0.6-1.4,0.6-2.5c0-1.1-0.2-1.9-0.6-2.5S117.7,276.2,116.9,276.2z"/>
	<path class="st7" d="M124.2,283.8h-1.3v-12.2h1.3V283.8z"/>
	<path class="st7" d="M130.6,284c-1.3,0-2.3-0.4-3-1.2c-0.7-0.8-1.1-1.8-1.1-3.2c0-1.4,0.3-2.5,1-3.3s1.6-1.2,2.7-1.2
		c1.1,0,1.9,0.4,2.5,1.1s0.9,1.6,0.9,2.8v0.8h-5.9c0,1,0.3,1.8,0.8,2.3c0.5,0.5,1.2,0.8,2,0.8c0.9,0,1.8-0.2,2.7-0.6v1.2
		c-0.5,0.2-0.9,0.3-1.3,0.4C131.7,283.9,131.2,284,130.6,284z M130.2,276.2c-0.7,0-1.2,0.2-1.6,0.7c-0.4,0.4-0.6,1.1-0.7,1.9h4.5
		c0-0.8-0.2-1.4-0.5-1.9C131.4,276.4,130.9,276.2,130.2,276.2z"/>
	<path class="st7" d="M141.4,283.8h-1.3v-12.2h1.3V283.8z"/>
	<path class="st7" d="M144,272.9c0-0.3,0.1-0.5,0.2-0.7c0.1-0.1,0.3-0.2,0.5-0.2c0.2,0,0.4,0.1,0.5,0.2c0.2,0.1,0.2,0.4,0.2,0.6
		s-0.1,0.5-0.2,0.7c-0.2,0.1-0.3,0.2-0.5,0.2c-0.2,0-0.4-0.1-0.5-0.2C144.1,273.4,144,273.2,144,272.9z M145.4,283.8h-1.3v-8.6h1.3
		V283.8z"/>
	<path class="st7" d="M155.2,275.2v0.8l-1.6,0.2c0.1,0.2,0.3,0.4,0.4,0.7c0.1,0.3,0.2,0.6,0.2,1c0,0.8-0.3,1.5-0.9,2
		c-0.6,0.5-1.4,0.8-2.4,0.8c-0.3,0-0.5,0-0.7-0.1c-0.6,0.3-0.8,0.7-0.8,1.1c0,0.2,0.1,0.4,0.3,0.5c0.2,0.1,0.5,0.2,1,0.2h1.5
		c0.9,0,1.6,0.2,2.1,0.6c0.5,0.4,0.7,1,0.7,1.7c0,0.9-0.4,1.7-1.1,2.2c-0.8,0.5-1.9,0.7-3.3,0.7c-1.1,0-2-0.2-2.6-0.6
		c-0.6-0.4-0.9-1-0.9-1.8c0-0.5,0.2-1,0.5-1.4c0.3-0.4,0.8-0.6,1.4-0.8c-0.2-0.1-0.4-0.3-0.6-0.5s-0.2-0.5-0.2-0.7
		c0-0.3,0.1-0.6,0.2-0.8c0.2-0.2,0.4-0.5,0.8-0.7c-0.4-0.2-0.8-0.5-1.1-0.9c-0.3-0.4-0.4-0.9-0.4-1.5c0-0.9,0.3-1.7,0.8-2.2
		s1.4-0.8,2.4-0.8c0.4,0,0.9,0.1,1.2,0.2H155.2z M148.4,285.2c0,0.5,0.2,0.8,0.6,1.1s1,0.4,1.7,0.4c1.1,0,1.9-0.2,2.4-0.5
		s0.8-0.8,0.8-1.3c0-0.5-0.1-0.8-0.4-1c-0.3-0.2-0.8-0.3-1.6-0.3h-1.6c-0.6,0-1,0.1-1.4,0.4S148.4,284.7,148.4,285.2z M149.1,278
		c0,0.6,0.2,1.1,0.5,1.4c0.3,0.3,0.8,0.5,1.4,0.5c1.3,0,1.9-0.6,1.9-1.8c0-1.3-0.6-1.9-1.9-1.9c-0.6,0-1.1,0.2-1.4,0.5
		S149.1,277.3,149.1,278z"/>
	<path class="st7" d="M162.8,283.8v-5.5c0-0.7-0.2-1.2-0.5-1.6c-0.3-0.3-0.8-0.5-1.5-0.5c-0.9,0-1.6,0.2-2,0.7s-0.6,1.3-0.6,2.4v4.5
		H157v-12.2h1.3v3.7c0,0.4,0,0.8-0.1,1.1h0.1c0.3-0.4,0.6-0.7,1.1-1c0.5-0.2,1-0.4,1.6-0.4c1,0,1.8,0.2,2.4,0.7s0.8,1.3,0.8,2.4v5.6
		H162.8z"/>
	<path class="st7" d="M169.5,282.9c0.2,0,0.5,0,0.7-0.1c0.2,0,0.4-0.1,0.5-0.1v1c-0.1,0.1-0.3,0.1-0.6,0.2s-0.5,0.1-0.7,0.1
		c-1.7,0-2.5-0.9-2.5-2.6v-5.1h-1.2v-0.6l1.2-0.5l0.5-1.8h0.8v2h2.5v1h-2.5v5c0,0.5,0.1,0.9,0.4,1.2
		C168.8,282.8,169.1,282.9,169.5,282.9z"/>
</g>
<g class="st5">
	<path class="st7" d="M92.1,300.9c0.2,0,0.5,0,0.7-0.1c0.2,0,0.4-0.1,0.5-0.1v1c-0.1,0.1-0.3,0.1-0.6,0.2S92.2,302,92,302
		c-1.7,0-2.5-0.9-2.5-2.6v-5.1h-1.2v-0.6l1.2-0.5l0.5-1.8h0.8v2h2.5v1h-2.5v5c0,0.5,0.1,0.9,0.4,1.2
		C91.4,300.8,91.7,300.9,92.1,300.9z"/>
	<path class="st7" d="M98.9,293.1c0.4,0,0.7,0,1,0.1l-0.2,1.2c-0.4-0.1-0.7-0.1-0.9-0.1c-0.7,0-1.3,0.3-1.8,0.8s-0.7,1.3-0.7,2.1
		v4.6H95v-8.6h1.1l0.1,1.6h0.1c0.3-0.6,0.7-1,1.1-1.3C97.9,293.2,98.4,293.1,98.9,293.1z"/>
	<path class="st7" d="M106.8,301.8l-0.3-1.2h-0.1c-0.4,0.5-0.9,0.9-1.3,1.1c-0.4,0.2-1,0.3-1.6,0.3c-0.8,0-1.5-0.2-2-0.7
		c-0.5-0.4-0.7-1.1-0.7-1.9c0-1.7,1.4-2.6,4.1-2.7l1.5,0v-0.5c0-0.7-0.1-1.2-0.4-1.5s-0.8-0.5-1.4-0.5c-0.7,0-1.5,0.2-2.4,0.7
		l-0.4-1c0.4-0.2,0.9-0.4,1.4-0.5c0.5-0.1,1-0.2,1.5-0.2c1,0,1.8,0.2,2.3,0.7s0.7,1.2,0.7,2.2v5.8H106.8z M103.9,300.9
		c0.8,0,1.4-0.2,1.9-0.7s0.7-1.1,0.7-1.9v-0.8l-1.3,0.1c-1,0-1.8,0.2-2.2,0.5c-0.5,0.3-0.7,0.7-0.7,1.3c0,0.5,0.1,0.8,0.4,1.1
		C103,300.8,103.4,300.9,103.9,300.9z"/>
	<path class="st7" d="M116.3,301.8v-5.5c0-0.7-0.2-1.2-0.5-1.6c-0.3-0.3-0.8-0.5-1.5-0.5c-0.9,0-1.6,0.2-2,0.7
		c-0.4,0.5-0.6,1.3-0.6,2.4v4.5h-1.3v-8.6h1.1l0.2,1.2h0.1c0.3-0.4,0.6-0.7,1.1-1c0.5-0.2,1-0.3,1.6-0.3c1,0,1.8,0.2,2.3,0.7
		c0.5,0.5,0.8,1.3,0.8,2.4v5.6H116.3z"/>
	<path class="st7" d="M125.8,299.5c0,0.8-0.3,1.4-0.9,1.8s-1.4,0.6-2.5,0.6c-1.1,0-2-0.2-2.7-0.5v-1.2c0.4,0.2,0.9,0.4,1.3,0.5
		c0.5,0.1,0.9,0.2,1.4,0.2c0.7,0,1.2-0.1,1.6-0.3c0.4-0.2,0.5-0.5,0.5-1c0-0.3-0.1-0.6-0.4-0.9s-0.9-0.5-1.7-0.8
		c-0.8-0.3-1.4-0.6-1.7-0.8s-0.6-0.5-0.8-0.8s-0.2-0.6-0.2-1c0-0.7,0.3-1.2,0.9-1.7c0.6-0.4,1.3-0.6,2.3-0.6c0.9,0,1.8,0.2,2.7,0.6
		l-0.5,1.1c-0.9-0.4-1.6-0.5-2.3-0.5c-0.6,0-1.1,0.1-1.4,0.3s-0.5,0.5-0.5,0.8c0,0.2,0.1,0.4,0.2,0.6s0.3,0.3,0.6,0.5
		c0.3,0.1,0.8,0.4,1.5,0.6c1,0.4,1.7,0.7,2.1,1.1C125.6,298.4,125.8,298.9,125.8,299.5z"/>
	<path class="st7" d="M138.8,301.8v-5.6c0-0.7-0.1-1.2-0.4-1.5c-0.3-0.3-0.7-0.5-1.4-0.5c-0.8,0-1.4,0.2-1.8,0.7
		c-0.4,0.5-0.6,1.2-0.6,2.1v4.8h-1.3v-5.6c0-0.7-0.1-1.2-0.4-1.5c-0.3-0.3-0.7-0.5-1.4-0.5c-0.8,0-1.4,0.2-1.8,0.7
		c-0.4,0.5-0.6,1.3-0.6,2.4v4.5h-1.3v-8.6h1.1l0.2,1.2h0.1c0.2-0.4,0.6-0.7,1-1s0.9-0.4,1.5-0.4c1.3,0,2.2,0.5,2.6,1.5h0.1
		c0.3-0.4,0.6-0.8,1.1-1.1s1-0.4,1.7-0.4c1,0,1.7,0.2,2.2,0.7c0.5,0.5,0.7,1.3,0.7,2.4v5.6H138.8z"/>
	<path class="st7" d="M142.7,290.9c0-0.3,0.1-0.5,0.2-0.7c0.1-0.1,0.3-0.2,0.5-0.2c0.2,0,0.4,0.1,0.5,0.2c0.2,0.1,0.2,0.4,0.2,0.6
		s-0.1,0.5-0.2,0.7c-0.2,0.1-0.3,0.2-0.5,0.2c-0.2,0-0.4-0.1-0.5-0.2C142.8,291.4,142.7,291.2,142.7,290.9z M144.1,301.8h-1.3v-8.6
		h1.3V301.8z"/>
	<path class="st7" d="M152.4,299.5c0,0.8-0.3,1.4-0.9,1.8S150,302,149,302c-1.1,0-2-0.2-2.7-0.5v-1.2c0.4,0.2,0.9,0.4,1.3,0.5
		c0.5,0.1,0.9,0.2,1.4,0.2c0.7,0,1.2-0.1,1.6-0.3c0.4-0.2,0.5-0.5,0.5-1c0-0.3-0.1-0.6-0.4-0.9s-0.9-0.5-1.7-0.8
		c-0.8-0.3-1.4-0.6-1.7-0.8s-0.6-0.5-0.8-0.8s-0.2-0.6-0.2-1c0-0.7,0.3-1.2,0.9-1.7c0.6-0.4,1.3-0.6,2.3-0.6c0.9,0,1.8,0.2,2.7,0.6
		l-0.5,1.1c-0.9-0.4-1.6-0.5-2.3-0.5c-0.6,0-1.1,0.1-1.4,0.3s-0.5,0.5-0.5,0.8c0,0.2,0.1,0.4,0.2,0.6s0.3,0.3,0.6,0.5
		c0.3,0.1,0.8,0.4,1.5,0.6c1,0.4,1.7,0.7,2.1,1.1C152.2,298.4,152.4,298.9,152.4,299.5z"/>
	<path class="st7" d="M160,299.5c0,0.8-0.3,1.4-0.9,1.8s-1.4,0.6-2.5,0.6c-1.1,0-2-0.2-2.7-0.5v-1.2c0.4,0.2,0.9,0.4,1.3,0.5
		c0.5,0.1,0.9,0.2,1.4,0.2c0.7,0,1.2-0.1,1.6-0.3c0.4-0.2,0.5-0.5,0.5-1c0-0.3-0.1-0.6-0.4-0.9s-0.9-0.5-1.7-0.8
		c-0.8-0.3-1.4-0.6-1.7-0.8s-0.6-0.5-0.8-0.8s-0.2-0.6-0.2-1c0-0.7,0.3-1.2,0.9-1.7c0.6-0.4,1.3-0.6,2.3-0.6c0.9,0,1.8,0.2,2.7,0.6
		l-0.5,1.1c-0.9-0.4-1.6-0.5-2.3-0.5c-0.6,0-1.1,0.1-1.4,0.3s-0.5,0.5-0.5,0.8c0,0.2,0.1,0.4,0.2,0.6s0.3,0.3,0.6,0.5
		c0.3,0.1,0.8,0.4,1.5,0.6c1,0.4,1.7,0.7,2.1,1.1C159.8,298.4,160,298.9,160,299.5z"/>
	<path class="st7" d="M162,290.9c0-0.3,0.1-0.5,0.2-0.7c0.1-0.1,0.3-0.2,0.5-0.2c0.2,0,0.4,0.1,0.5,0.2c0.2,0.1,0.2,0.4,0.2,0.6
		s-0.1,0.5-0.2,0.7c-0.2,0.1-0.3,0.2-0.5,0.2c-0.2,0-0.4-0.1-0.5-0.2C162.1,291.4,162,291.2,162,290.9z M163.4,301.8h-1.3v-8.6h1.3
		V301.8z"/>
	<path class="st7" d="M173.5,297.5c0,1.4-0.4,2.5-1.1,3.3s-1.7,1.2-2.9,1.2c-0.8,0-1.4-0.2-2-0.5s-1.1-0.9-1.4-1.5
		c-0.3-0.7-0.5-1.5-0.5-2.4c0-1.4,0.3-2.5,1-3.3c0.7-0.8,1.7-1.2,2.9-1.2c1.2,0,2.1,0.4,2.9,1.2
		C173.2,295.1,173.5,296.2,173.5,297.5z M167,297.5c0,1.1,0.2,1.9,0.7,2.5s1.1,0.9,1.9,0.9c0.8,0,1.5-0.3,1.9-0.9
		c0.4-0.6,0.7-1.4,0.7-2.5c0-1.1-0.2-1.9-0.7-2.5c-0.4-0.6-1.1-0.8-1.9-0.8c-0.8,0-1.5,0.3-1.9,0.8C167.2,295.6,167,296.4,167,297.5
		z"/>
	<path class="st7" d="M181.7,301.8v-5.5c0-0.7-0.2-1.2-0.5-1.6c-0.3-0.3-0.8-0.5-1.5-0.5c-0.9,0-1.6,0.2-2,0.7
		c-0.4,0.5-0.6,1.3-0.6,2.4v4.5h-1.3v-8.6h1.1l0.2,1.2h0.1c0.3-0.4,0.6-0.7,1.1-1c0.5-0.2,1-0.3,1.6-0.3c1,0,1.8,0.2,2.3,0.7
		c0.5,0.5,0.8,1.3,0.8,2.4v5.6H181.7z"/>
</g>
<g class="st5">
	<path class="st6" d="M753.3,384.5c0-4.5,0.9-7.8,2.6-10.1c1.7-2.2,4.3-3.3,7.7-3.3c1.2,0,2.1,0.1,2.8,0.3v2.2
		c-0.8-0.3-1.7-0.4-2.8-0.4c-2.4,0-4.3,0.8-5.6,2.3c-1.3,1.5-2,3.9-2.1,7.2h0.2c1.1-1.8,3-2.7,5.4-2.7c2.1,0,3.7,0.6,4.9,1.9
		c1.2,1.2,1.8,2.9,1.8,5c0,2.4-0.6,4.2-1.9,5.6s-3,2-5.3,2c-2.4,0-4.2-0.9-5.6-2.7C754,390.2,753.3,387.7,753.3,384.5z M761,392.4
		c1.5,0,2.6-0.5,3.4-1.4c0.8-0.9,1.2-2.3,1.2-4c0-1.5-0.4-2.7-1.1-3.6c-0.8-0.9-1.9-1.3-3.4-1.3c-0.9,0-1.8,0.2-2.6,0.6
		c-0.8,0.4-1.4,0.9-1.9,1.6c-0.5,0.7-0.7,1.4-0.7,2.1c0,1.1,0.2,2.1,0.6,3c0.4,0.9,1,1.7,1.8,2.2C759.1,392.1,760,392.4,761,392.4z"
		/>
</g>
<g class="st5">
	<path class="st6" d="M775.8,386.6l-5.2-7.3h2.6l4,5.7l3.9-5.7h2.6l-5.2,7.3l5.5,7.7h-2.6l-4.2-6.1l-4.2,6.1h-2.6L775.8,386.6z"/>
</g>
<g class="st5">
	<path class="st7" d="M758.4,410c0,0.8-0.3,1.4-0.9,1.8s-1.4,0.6-2.5,0.6c-1.1,0-2-0.2-2.7-0.5v-1.2c0.4,0.2,0.9,0.4,1.3,0.5
		c0.5,0.1,0.9,0.2,1.4,0.2c0.7,0,1.2-0.1,1.6-0.3c0.4-0.2,0.5-0.5,0.5-1c0-0.3-0.1-0.6-0.4-0.9s-0.9-0.5-1.7-0.8
		c-0.8-0.3-1.4-0.6-1.7-0.8s-0.6-0.5-0.8-0.8s-0.2-0.6-0.2-1c0-0.7,0.3-1.2,0.9-1.7c0.6-0.4,1.3-0.6,2.3-0.6c0.9,0,1.8,0.2,2.7,0.6
		l-0.5,1.1c-0.9-0.4-1.6-0.5-2.3-0.5c-0.6,0-1.1,0.1-1.4,0.3s-0.5,0.5-0.5,0.8c0,0.2,0.1,0.4,0.2,0.6s0.3,0.3,0.6,0.5
		c0.3,0.1,0.8,0.4,1.5,0.6c1,0.4,1.7,0.7,2.1,1.1C758.2,408.9,758.4,409.4,758.4,410z"/>
	<path class="st7" d="M763.3,411.4c0.2,0,0.5,0,0.7-0.1c0.2,0,0.4-0.1,0.5-0.1v1c-0.1,0.1-0.3,0.1-0.6,0.2s-0.5,0.1-0.7,0.1
		c-1.7,0-2.5-0.9-2.5-2.6v-5.1h-1.2v-0.6l1.2-0.5l0.5-1.8h0.8v2h2.5v1h-2.5v5c0,0.5,0.1,0.9,0.4,1.2
		C762.5,411.3,762.8,411.4,763.3,411.4z"/>
	<path class="st7" d="M773.5,408c0,1.4-0.4,2.5-1.1,3.3s-1.7,1.2-2.9,1.2c-0.8,0-1.4-0.2-2-0.5s-1.1-0.9-1.4-1.5
		c-0.3-0.7-0.5-1.5-0.5-2.4c0-1.4,0.3-2.5,1-3.3c0.7-0.8,1.7-1.2,2.9-1.2c1.2,0,2.1,0.4,2.9,1.2C773.2,405.6,773.5,406.7,773.5,408z
		 M767,408c0,1.1,0.2,1.9,0.7,2.5s1.1,0.9,1.9,0.9c0.8,0,1.5-0.3,1.9-0.9c0.4-0.6,0.7-1.4,0.7-2.5c0-1.1-0.2-1.9-0.7-2.5
		c-0.4-0.6-1.1-0.8-1.9-0.8c-0.8,0-1.5,0.3-1.9,0.8C767.2,406.1,767,406.9,767,408z"/>
	<path class="st7" d="M781.7,412.3v-5.5c0-0.7-0.2-1.2-0.5-1.6c-0.3-0.3-0.8-0.5-1.5-0.5c-0.9,0-1.6,0.2-2,0.7
		c-0.4,0.5-0.6,1.3-0.6,2.4v4.5h-1.3v-8.6h1.1l0.2,1.2h0.1c0.3-0.4,0.6-0.7,1.1-1c0.5-0.2,1-0.3,1.6-0.3c1,0,1.8,0.2,2.3,0.7
		c0.5,0.5,0.8,1.3,0.8,2.4v5.6H781.7z"/>
	<path class="st7" d="M789.3,412.5c-1.3,0-2.3-0.4-3-1.2c-0.7-0.8-1.1-1.8-1.1-3.2c0-1.4,0.3-2.5,1-3.3s1.6-1.2,2.7-1.2
		c1.1,0,1.9,0.4,2.5,1.1s0.9,1.6,0.9,2.8v0.8h-5.9c0,1,0.3,1.8,0.8,2.3c0.5,0.5,1.2,0.8,2,0.8c0.9,0,1.8-0.2,2.7-0.6v1.2
		c-0.5,0.2-0.9,0.3-1.3,0.4C790.3,412.4,789.8,412.5,789.3,412.5z M788.9,404.7c-0.7,0-1.2,0.2-1.6,0.7c-0.4,0.4-0.7,1.1-0.7,1.9
		h4.5c0-0.8-0.2-1.4-0.5-1.9C790.1,404.9,789.6,404.7,788.9,404.7z"/>
	<path class="st7" d="M802.2,412.5c-1.2,0-2.2-0.4-2.9-1.1s-1-1.8-1-3.2c0-1.4,0.3-2.5,1-3.3c0.7-0.8,1.7-1.2,2.9-1.2
		c0.4,0,0.8,0,1.2,0.1c0.4,0.1,0.7,0.2,1,0.3l-0.4,1.1c-0.3-0.1-0.6-0.2-0.9-0.3c-0.3-0.1-0.6-0.1-0.9-0.1c-1.7,0-2.6,1.1-2.6,3.3
		c0,1.1,0.2,1.9,0.6,2.4c0.4,0.6,1.1,0.8,1.9,0.8c0.7,0,1.4-0.2,2.2-0.5v1.1C803.8,412.3,803.1,412.5,802.2,412.5z"/>
	<path class="st7" d="M812.2,412.3v-5.5c0-0.7-0.2-1.2-0.5-1.6c-0.3-0.3-0.8-0.5-1.5-0.5c-0.9,0-1.6,0.2-2,0.7s-0.6,1.3-0.6,2.4v4.5
		h-1.3v-12.2h1.3v3.7c0,0.4,0,0.8-0.1,1.1h0.1c0.3-0.4,0.6-0.7,1.1-1c0.5-0.2,1-0.4,1.6-0.4c1,0,1.8,0.2,2.4,0.7s0.8,1.3,0.8,2.4
		v5.6H812.2z"/>
	<path class="st7" d="M816.1,401.4c0-0.3,0.1-0.5,0.2-0.7c0.1-0.1,0.3-0.2,0.5-0.2c0.2,0,0.4,0.1,0.5,0.2c0.2,0.1,0.2,0.4,0.2,0.6
		s-0.1,0.5-0.2,0.7c-0.2,0.1-0.3,0.2-0.5,0.2c-0.2,0-0.4-0.1-0.5-0.2C816.2,401.9,816.1,401.7,816.1,401.4z M817.5,412.3h-1.3v-8.6
		h1.3V412.3z"/>
	<path class="st7" d="M824.2,412.5c-0.6,0-1.1-0.1-1.5-0.3s-0.8-0.5-1.2-0.9h-0.1c0.1,0.5,0.1,1,0.1,1.4v3.5h-1.3v-12.4h1.1l0.2,1.2
		h0.1c0.3-0.5,0.7-0.8,1.2-1c0.4-0.2,1-0.3,1.5-0.3c1.1,0,2,0.4,2.6,1.2s0.9,1.9,0.9,3.3c0,1.4-0.3,2.5-0.9,3.3
		C826.2,412.1,825.4,412.5,824.2,412.5z M824.1,404.7c-0.9,0-1.5,0.2-1.9,0.7s-0.6,1.3-0.6,2.3v0.3c0,1.2,0.2,2.1,0.6,2.6
		c0.4,0.5,1,0.8,1.9,0.8c0.7,0,1.3-0.3,1.7-0.9c0.4-0.6,0.6-1.4,0.6-2.5c0-1.1-0.2-1.9-0.6-2.5C825.4,405,824.8,404.7,824.1,404.7z"
		/>
</g>
<g class="st5">
	<path class="st7" d="M756.8,421.6c0.4,0,0.7,0,1,0.1l-0.2,1.2c-0.4-0.1-0.7-0.1-0.9-0.1c-0.7,0-1.3,0.3-1.8,0.8s-0.7,1.3-0.7,2.1
		v4.6h-1.3v-8.6h1.1l0.1,1.6h0.1c0.3-0.6,0.7-1,1.1-1.3C755.8,421.7,756.2,421.6,756.8,421.6z"/>
	<path class="st7" d="M763,430.5c-1.3,0-2.3-0.4-3-1.2c-0.7-0.8-1.1-1.8-1.1-3.2c0-1.4,0.3-2.5,1-3.3s1.6-1.2,2.7-1.2
		c1.1,0,1.9,0.4,2.5,1.1s0.9,1.6,0.9,2.8v0.8h-5.9c0,1,0.3,1.8,0.8,2.3c0.5,0.5,1.2,0.8,2,0.8c0.9,0,1.8-0.2,2.7-0.6v1.2
		c-0.5,0.2-0.9,0.3-1.3,0.4C764.1,430.4,763.6,430.5,763,430.5z M762.7,422.7c-0.7,0-1.2,0.2-1.6,0.7c-0.4,0.4-0.7,1.1-0.7,1.9h4.5
		c0-0.8-0.2-1.4-0.5-1.9C763.9,422.9,763.3,422.7,762.7,422.7z"/>
	<path class="st7" d="M773.9,428c0,0.8-0.3,1.4-0.9,1.8s-1.4,0.6-2.5,0.6c-1.1,0-2-0.2-2.7-0.5v-1.2c0.4,0.2,0.9,0.4,1.3,0.5
		c0.5,0.1,0.9,0.2,1.4,0.2c0.7,0,1.2-0.1,1.6-0.3c0.4-0.2,0.5-0.5,0.5-1c0-0.3-0.1-0.6-0.4-0.9s-0.9-0.5-1.7-0.8
		c-0.8-0.3-1.4-0.6-1.7-0.8s-0.6-0.5-0.8-0.8s-0.2-0.6-0.2-1c0-0.7,0.3-1.2,0.9-1.7c0.6-0.4,1.3-0.6,2.3-0.6c0.9,0,1.8,0.2,2.7,0.6
		l-0.5,1.1c-0.9-0.4-1.6-0.5-2.3-0.5c-0.6,0-1.1,0.1-1.4,0.3s-0.5,0.5-0.5,0.8c0,0.2,0.1,0.4,0.2,0.6s0.3,0.3,0.6,0.5
		c0.3,0.1,0.8,0.4,1.5,0.6c1,0.4,1.7,0.7,2.1,1.1C773.7,426.9,773.9,427.4,773.9,428z"/>
	<path class="st7" d="M775.9,419.4c0-0.3,0.1-0.5,0.2-0.7c0.1-0.1,0.3-0.2,0.5-0.2c0.2,0,0.4,0.1,0.5,0.2c0.2,0.1,0.2,0.4,0.2,0.6
		s-0.1,0.5-0.2,0.7c-0.2,0.1-0.3,0.2-0.5,0.2c-0.2,0-0.4-0.1-0.5-0.2C776,419.9,775.9,419.7,775.9,419.4z M777.3,430.3H776v-8.6h1.3
		V430.3z"/>
	<path class="st7" d="M785.6,428c0,0.8-0.3,1.4-0.9,1.8s-1.4,0.6-2.5,0.6c-1.1,0-2-0.2-2.7-0.5v-1.2c0.4,0.2,0.9,0.4,1.3,0.5
		c0.5,0.1,0.9,0.2,1.4,0.2c0.7,0,1.2-0.1,1.6-0.3c0.4-0.2,0.5-0.5,0.5-1c0-0.3-0.1-0.6-0.4-0.9s-0.9-0.5-1.7-0.8
		c-0.8-0.3-1.4-0.6-1.7-0.8s-0.6-0.5-0.8-0.8s-0.2-0.6-0.2-1c0-0.7,0.3-1.2,0.9-1.7c0.6-0.4,1.3-0.6,2.3-0.6c0.9,0,1.8,0.2,2.7,0.6
		l-0.5,1.1c-0.9-0.4-1.6-0.5-2.3-0.5c-0.6,0-1.1,0.1-1.4,0.3s-0.5,0.5-0.5,0.8c0,0.2,0.1,0.4,0.2,0.6s0.3,0.3,0.6,0.5
		c0.3,0.1,0.8,0.4,1.5,0.6c1,0.4,1.7,0.7,2.1,1.1C785.4,426.9,785.6,427.4,785.6,428z"/>
	<path class="st7" d="M790.5,429.4c0.2,0,0.5,0,0.7-0.1c0.2,0,0.4-0.1,0.5-0.1v1c-0.1,0.1-0.3,0.1-0.6,0.2s-0.5,0.1-0.7,0.1
		c-1.7,0-2.5-0.9-2.5-2.6v-5.1h-1.2v-0.6l1.2-0.5l0.5-1.8h0.8v2h2.5v1h-2.5v5c0,0.5,0.1,0.9,0.4,1.2
		C789.7,429.3,790,429.4,790.5,429.4z"/>
	<path class="st7" d="M798.6,430.3l-0.3-1.2h-0.1c-0.4,0.5-0.9,0.9-1.3,1.1c-0.4,0.2-1,0.3-1.6,0.3c-0.8,0-1.5-0.2-2-0.7
		c-0.5-0.4-0.7-1.1-0.7-1.9c0-1.7,1.4-2.6,4.1-2.7l1.5,0v-0.5c0-0.7-0.1-1.2-0.4-1.5s-0.8-0.5-1.4-0.5c-0.7,0-1.5,0.2-2.4,0.7
		l-0.4-1c0.4-0.2,0.9-0.4,1.4-0.5c0.5-0.1,1-0.2,1.5-0.2c1,0,1.8,0.2,2.3,0.7s0.7,1.2,0.7,2.2v5.8H798.6z M795.7,429.4
		c0.8,0,1.4-0.2,1.9-0.7s0.7-1.1,0.7-1.9v-0.8l-1.3,0.1c-1,0-1.8,0.2-2.2,0.5c-0.5,0.3-0.7,0.7-0.7,1.3c0,0.5,0.1,0.8,0.4,1.1
		C794.8,429.3,795.2,429.4,795.7,429.4z"/>
	<path class="st7" d="M808.1,430.3v-5.5c0-0.7-0.2-1.2-0.5-1.6c-0.3-0.3-0.8-0.5-1.5-0.5c-0.9,0-1.6,0.2-2,0.7
		c-0.4,0.5-0.6,1.3-0.6,2.4v4.5h-1.3v-8.6h1.1l0.2,1.2h0.1c0.3-0.4,0.6-0.7,1.1-1c0.5-0.2,1-0.3,1.6-0.3c1,0,1.8,0.2,2.3,0.7
		c0.5,0.5,0.8,1.3,0.8,2.4v5.6H808.1z"/>
	<path class="st7" d="M815.5,430.5c-1.2,0-2.2-0.4-2.9-1.1s-1-1.8-1-3.2c0-1.4,0.3-2.5,1-3.3c0.7-0.8,1.7-1.2,2.9-1.2
		c0.4,0,0.8,0,1.2,0.1c0.4,0.1,0.7,0.2,1,0.3l-0.4,1.1c-0.3-0.1-0.6-0.2-0.9-0.3c-0.3-0.1-0.6-0.1-0.9-0.1c-1.7,0-2.6,1.1-2.6,3.3
		c0,1.1,0.2,1.9,0.6,2.4c0.4,0.6,1.1,0.8,1.9,0.8c0.7,0,1.4-0.2,2.2-0.5v1.1C817.1,430.3,816.4,430.5,815.5,430.5z"/>
	<path class="st7" d="M823.3,430.5c-1.3,0-2.3-0.4-3-1.2c-0.7-0.8-1.1-1.8-1.1-3.2c0-1.4,0.3-2.5,1-3.3s1.6-1.2,2.7-1.2
		c1.1,0,1.9,0.4,2.5,1.1s0.9,1.6,0.9,2.8v0.8h-5.9c0,1,0.3,1.8,0.8,2.3c0.5,0.5,1.2,0.8,2,0.8c0.9,0,1.8-0.2,2.7-0.6v1.2
		c-0.5,0.2-0.9,0.3-1.3,0.4C824.4,430.4,823.9,430.5,823.3,430.5z M822.9,422.7c-0.7,0-1.2,0.2-1.6,0.7c-0.4,0.4-0.7,1.1-0.7,1.9
		h4.5c0-0.8-0.2-1.4-0.5-1.9C824.1,422.9,823.6,422.7,822.9,422.7z"/>
</g>
<g class="st5">
	<path class="st6" d="M104.6,337.4c0,8.9-3.5,13.4-10.4,13.4c-1.2,0-2.2-0.1-2.9-0.3v-2.2c0.8,0.3,1.8,0.4,2.8,0.4
		c2.5,0,4.4-0.8,5.7-2.3c1.3-1.5,2-3.9,2.1-7.1h-0.2c-0.6,0.9-1.3,1.5-2.3,2c-0.9,0.5-2,0.7-3.2,0.7c-2,0-3.6-0.6-4.8-1.8
		c-1.2-1.2-1.8-2.9-1.8-5.1c0-2.4,0.7-4.2,2-5.6s3.1-2.1,5.2-2.1c1.6,0,2.9,0.4,4.1,1.2c1.2,0.8,2.1,2,2.7,3.5
		C104.3,333.5,104.6,335.3,104.6,337.4z M96.9,329.5c-1.5,0-2.6,0.5-3.5,1.4c-0.8,1-1.2,2.3-1.2,4c0,1.5,0.4,2.7,1.1,3.5
		s1.9,1.3,3.4,1.3c0.9,0,1.8-0.2,2.6-0.6c0.8-0.4,1.4-0.9,1.9-1.6c0.5-0.7,0.7-1.4,0.7-2.1c0-1.1-0.2-2.1-0.6-3
		c-0.4-0.9-1-1.7-1.8-2.2S97.9,329.5,96.9,329.5z"/>
	<path class="st6" d="M122.9,337.4c0,8.9-3.5,13.4-10.4,13.4c-1.2,0-2.2-0.1-2.9-0.3v-2.2c0.8,0.3,1.8,0.4,2.8,0.4
		c2.5,0,4.4-0.8,5.7-2.3c1.3-1.5,2-3.9,2.1-7.1H120c-0.6,0.9-1.3,1.5-2.3,2c-0.9,0.5-2,0.7-3.2,0.7c-2,0-3.6-0.6-4.8-1.8
		c-1.2-1.2-1.8-2.9-1.8-5.1c0-2.4,0.7-4.2,2-5.6s3.1-2.1,5.2-2.1c1.6,0,2.9,0.4,4.1,1.2c1.2,0.8,2.1,2,2.7,3.5
		C122.6,333.5,122.9,335.3,122.9,337.4z M115.2,329.5c-1.5,0-2.6,0.5-3.5,1.4c-0.8,1-1.2,2.3-1.2,4c0,1.5,0.4,2.7,1.1,3.5
		s1.9,1.3,3.4,1.3c0.9,0,1.8-0.2,2.6-0.6c0.8-0.4,1.4-0.9,1.9-1.6c0.5-0.7,0.7-1.4,0.7-2.1c0-1.1-0.2-2.1-0.6-3
		c-0.4-0.9-1-1.7-1.8-2.2S116.2,329.5,115.2,329.5z"/>
</g>
<g class="st5">
	<path class="st6" d="M134.2,336.4c0,2.1-0.3,3.6-1,4.7s-1.7,1.6-3.1,1.6c-1.3,0-2.3-0.5-3-1.6c-0.7-1.1-1.1-2.6-1.1-4.7
		c0-2.1,0.3-3.6,1-4.7c0.7-1,1.7-1.6,3-1.6c1.3,0,2.3,0.5,3,1.6S134.2,334.4,134.2,336.4z M127.9,336.4c0,1.5,0.2,2.7,0.5,3.5
		c0.3,0.8,0.9,1.2,1.6,1.2c1.5,0,2.2-1.5,2.2-4.6c0-3.1-0.7-4.6-2.2-4.6c-0.8,0-1.3,0.4-1.6,1.1
		C128.1,333.7,127.9,334.9,127.9,336.4z M142.7,330.5l-11.1,20h-2l11.1-20H142.7z M146.2,344.4c0,2.1-0.3,3.6-1,4.7
		s-1.7,1.6-3.1,1.6c-1.3,0-2.3-0.5-3-1.6s-1-2.6-1-4.7c0-2.1,0.3-3.6,1-4.7c0.7-1,1.7-1.6,3-1.6c1.3,0,2.3,0.5,3,1.6
		S146.2,342.4,146.2,344.4z M139.9,344.4c0,1.6,0.2,2.7,0.5,3.5c0.3,0.8,0.9,1.2,1.7,1.2s1.3-0.4,1.7-1.1c0.4-0.8,0.5-1.9,0.5-3.5
		c0-1.6-0.2-2.7-0.5-3.5c-0.4-0.8-0.9-1.1-1.7-1.1s-1.3,0.4-1.7,1.1C140.1,341.7,139.9,342.9,139.9,344.4z"/>
</g>
<g class="st5">
	<path class="st7" d="M98.2,357v7.4c0,1.3-0.4,2.3-1.2,3.1c-0.8,0.7-1.9,1.1-3.2,1.1s-2.4-0.4-3.2-1.1c-0.8-0.8-1.1-1.8-1.1-3.1V357
		h1.3v7.5c0,1,0.3,1.7,0.8,2.2c0.5,0.5,1.3,0.8,2.3,0.8c1,0,1.7-0.3,2.2-0.8c0.5-0.5,0.8-1.2,0.8-2.2V357H98.2z"/>
	<path class="st7" d="M107.7,357h1.4l-4.1,11.4h-1.3L99.6,357h1.4l2.6,7.4c0.3,0.8,0.5,1.7,0.7,2.5c0.2-0.8,0.4-1.7,0.7-2.5
		L107.7,357z"/>
	<path class="st7" d="M117.9,368.5l-1.4-3.6h-4.6l-1.4,3.6h-1.3l4.5-11.5h1.1l4.5,11.5H117.9z M116.1,363.6l-1.3-3.5
		c-0.2-0.4-0.3-1-0.5-1.6c-0.1,0.5-0.3,1-0.5,1.6l-1.3,3.5H116.1z"/>
	<path class="st7" d="M125,357l-4.3,11.4h-1.3l4.3-11.4H125z"/>
	<path class="st7" d="M135.4,357v7.4c0,1.3-0.4,2.3-1.2,3.1c-0.8,0.7-1.9,1.1-3.2,1.1s-2.4-0.4-3.2-1.1c-0.8-0.8-1.1-1.8-1.1-3.1
		V357h1.3v7.5c0,1,0.3,1.7,0.8,2.2c0.5,0.5,1.3,0.8,2.3,0.8c1,0,1.7-0.3,2.2-0.8c0.5-0.5,0.8-1.2,0.8-2.2V357H135.4z"/>
	<path class="st7" d="M144.9,357h1.4l-4.1,11.4h-1.3l-4.1-11.4h1.4l2.6,7.4c0.3,0.8,0.5,1.7,0.7,2.5c0.2-0.8,0.4-1.7,0.7-2.5
		L144.9,357z"/>
	<path class="st7" d="M147.9,357h3.2c1.5,0,2.6,0.2,3.3,0.7c0.7,0.5,1,1.2,1,2.1c0,0.7-0.2,1.2-0.6,1.7c-0.4,0.4-0.9,0.7-1.7,0.9
		v0.1c1.7,0.3,2.6,1.2,2.6,2.7c0,1-0.3,1.8-1,2.4c-0.7,0.6-1.7,0.9-2.9,0.9h-4V357z M149.2,361.9h2.2c0.9,0,1.6-0.1,2-0.4
		c0.4-0.3,0.6-0.8,0.6-1.5c0-0.6-0.2-1.1-0.7-1.4c-0.5-0.3-1.2-0.4-2.2-0.4h-2V361.9z M149.2,363v4.3h2.4c0.9,0,1.6-0.2,2.1-0.5
		c0.5-0.4,0.7-0.9,0.7-1.7c0-0.7-0.2-1.2-0.7-1.6s-1.2-0.5-2.2-0.5H149.2z"/>
</g>
<g class="st5">
	<path class="st7" d="M93.4,386.6c-0.6,0-1.1-0.1-1.5-0.3s-0.8-0.5-1.2-0.9h-0.1c0.1,0.5,0.1,1,0.1,1.4v3.5h-1.3v-12.4h1.1l0.2,1.2
		h0.1c0.3-0.5,0.7-0.8,1.2-1c0.4-0.2,1-0.3,1.5-0.3c1.1,0,2,0.4,2.6,1.2s0.9,1.9,0.9,3.3c0,1.4-0.3,2.5-0.9,3.3
		C95.3,386.2,94.5,386.6,93.4,386.6z M93.2,378.8c-0.9,0-1.5,0.2-1.9,0.7s-0.6,1.3-0.6,2.3v0.3c0,1.2,0.2,2.1,0.6,2.6
		c0.4,0.5,1,0.8,1.9,0.8c0.7,0,1.3-0.3,1.7-0.9c0.4-0.6,0.6-1.4,0.6-2.5c0-1.1-0.2-1.9-0.6-2.5C94.5,379.1,93.9,378.8,93.2,378.8z"
		/>
	<path class="st7" d="M103.1,377.7c0.4,0,0.7,0,1,0.1l-0.2,1.2c-0.4-0.1-0.7-0.1-0.9-0.1c-0.7,0-1.3,0.3-1.8,0.8s-0.7,1.3-0.7,2.1
		v4.6h-1.3v-8.6h1.1l0.1,1.6h0.1c0.3-0.6,0.7-1,1.1-1.3C102.1,377.9,102.5,377.7,103.1,377.7z"/>
	<path class="st7" d="M113.1,382.2c0,1.4-0.4,2.5-1.1,3.3s-1.7,1.2-2.9,1.2c-0.8,0-1.4-0.2-2-0.5s-1.1-0.9-1.4-1.5
		c-0.3-0.7-0.5-1.5-0.5-2.4c0-1.4,0.3-2.5,1-3.3c0.7-0.8,1.7-1.2,2.9-1.2c1.2,0,2.1,0.4,2.9,1.2
		C112.7,379.7,113.1,380.8,113.1,382.2z M106.6,382.2c0,1.1,0.2,1.9,0.7,2.5s1.1,0.9,1.9,0.9c0.8,0,1.5-0.3,1.9-0.9
		c0.4-0.6,0.7-1.4,0.7-2.5c0-1.1-0.2-1.9-0.7-2.5c-0.4-0.6-1.1-0.8-1.9-0.8c-0.8,0-1.5,0.3-1.9,0.8
		C106.8,380.2,106.6,381.1,106.6,382.2z"/>
	<path class="st7" d="M118.1,385.5c0.2,0,0.5,0,0.7-0.1c0.2,0,0.4-0.1,0.5-0.1v1c-0.1,0.1-0.3,0.1-0.6,0.2s-0.5,0.1-0.7,0.1
		c-1.7,0-2.5-0.9-2.5-2.6v-5.1h-1.2v-0.6l1.2-0.5l0.5-1.8h0.8v2h2.5v1h-2.5v5c0,0.5,0.1,0.9,0.4,1.2
		C117.4,385.4,117.7,385.5,118.1,385.5z"/>
	<path class="st7" d="M124.6,386.6c-1.3,0-2.3-0.4-3-1.2c-0.7-0.8-1.1-1.8-1.1-3.2c0-1.4,0.3-2.5,1-3.3s1.6-1.2,2.7-1.2
		c1.1,0,1.9,0.4,2.5,1.1s0.9,1.6,0.9,2.8v0.8h-5.9c0,1,0.3,1.8,0.8,2.3c0.5,0.5,1.2,0.8,2,0.8c0.9,0,1.8-0.2,2.7-0.6v1.2
		c-0.5,0.2-0.9,0.3-1.3,0.4C125.7,386.6,125.2,386.6,124.6,386.6z M124.3,378.8c-0.7,0-1.2,0.2-1.6,0.7c-0.4,0.4-0.6,1.1-0.7,1.9
		h4.5c0-0.8-0.2-1.4-0.5-1.9C125.5,379,125,378.8,124.3,378.8z"/>
	<path class="st7" d="M133.4,386.6c-1.2,0-2.2-0.4-2.9-1.1s-1-1.8-1-3.2c0-1.4,0.3-2.5,1-3.3c0.7-0.8,1.7-1.2,2.9-1.2
		c0.4,0,0.8,0,1.2,0.1c0.4,0.1,0.7,0.2,1,0.3l-0.4,1.1c-0.3-0.1-0.6-0.2-0.9-0.3c-0.3-0.1-0.6-0.1-0.9-0.1c-1.7,0-2.6,1.1-2.6,3.3
		c0,1.1,0.2,1.9,0.6,2.4c0.4,0.6,1.1,0.8,1.9,0.8c0.7,0,1.4-0.2,2.2-0.5v1.1C135,386.5,134.3,386.6,133.4,386.6z"/>
	<path class="st7" d="M140.4,385.5c0.2,0,0.5,0,0.7-0.1c0.2,0,0.4-0.1,0.5-0.1v1c-0.1,0.1-0.3,0.1-0.6,0.2s-0.5,0.1-0.7,0.1
		c-1.7,0-2.5-0.9-2.5-2.6v-5.1h-1.2v-0.6l1.2-0.5l0.5-1.8h0.8v2h2.5v1H139v5c0,0.5,0.1,0.9,0.4,1.2
		C139.6,385.4,140,385.5,140.4,385.5z"/>
	<path class="st7" d="M143.2,375.6c0-0.3,0.1-0.5,0.2-0.7c0.1-0.1,0.3-0.2,0.5-0.2c0.2,0,0.4,0.1,0.5,0.2c0.2,0.1,0.2,0.4,0.2,0.6
		s-0.1,0.5-0.2,0.7c-0.2,0.1-0.3,0.2-0.5,0.2c-0.2,0-0.4-0.1-0.5-0.2C143.2,376.1,143.2,375.9,143.2,375.6z M144.6,386.5h-1.3v-8.6
		h1.3V386.5z"/>
	<path class="st7" d="M154.7,382.2c0,1.4-0.4,2.5-1.1,3.3s-1.7,1.2-2.9,1.2c-0.8,0-1.4-0.2-2-0.5s-1.1-0.9-1.4-1.5
		c-0.3-0.7-0.5-1.5-0.5-2.4c0-1.4,0.3-2.5,1-3.3c0.7-0.8,1.7-1.2,2.9-1.2c1.2,0,2.1,0.4,2.9,1.2
		C154.4,379.7,154.7,380.8,154.7,382.2z M148.2,382.2c0,1.1,0.2,1.9,0.7,2.5s1.1,0.9,1.9,0.9c0.8,0,1.5-0.3,1.9-0.9
		c0.4-0.6,0.7-1.4,0.7-2.5c0-1.1-0.2-1.9-0.7-2.5c-0.4-0.6-1.1-0.8-1.9-0.8c-0.8,0-1.5,0.3-1.9,0.8
		C148.4,380.2,148.2,381.1,148.2,382.2z"/>
	<path class="st7" d="M162.8,386.5v-5.5c0-0.7-0.2-1.2-0.5-1.6c-0.3-0.3-0.8-0.5-1.5-0.5c-0.9,0-1.6,0.2-2,0.7
		c-0.4,0.5-0.6,1.3-0.6,2.4v4.5H157v-8.6h1.1l0.2,1.2h0.1c0.3-0.4,0.6-0.7,1.1-1c0.5-0.2,1-0.3,1.6-0.3c1,0,1.8,0.2,2.3,0.7
		c0.5,0.5,0.8,1.3,0.8,2.4v5.6H162.8z"/>
</g>
</svg>
