<?xml version="1.0" encoding="UTF-8" standalone="no"?>
<svg width="803" xmlns="http://www.w3.org/2000/svg" height="985">
 <g stroke-width=".5" fill-rule="evenodd">
  <path d="m776.2 333.8l0.3 0.2v2l-0.3 0.2-0.2 0.3-17.8 13.3q-17.7 13.2-31.2 27.2t-24 30.5-17 33-10 33.5-3.5 47 4 49 11.5 37 18 34 22 28 23.8 22.2q12.2 10.3 28.2 19.8t17.5 10l1.5 0.5 1 0.5 1 0.5 1 0.3 1 0.2v2l-13.2 33q-13.3 33-27.6 59.2-14.2 26.3-33.2 53.8t-34.2 45.8q-15.3 18.2-28 30-12.8 11.7-26.3 19.7t-27 12-17.5 4.5l-4 0.5-1 0.3-1 0.2-8-0.2q-8-0.3-24-3.3t-48.5-14.5-51-15.5-38-4-35 3-45 13.5-48 15.5l-18.5 5-4 0.5-4 0.5v0.5h-20v-0.5l-3.5-0.5-3.5-0.5-2-0.5q-2-0.5-7-2t-17.5-7.5-27-17.5-27-25-33.3-41.2q-20.7-27.8-35.4-51.6-14.8-23.7-28.6-52.4-13.7-28.8-25.2-60.8t-19.5-65-12.3-68l-4.2-35v-45h0.5l3-26q3-26 9-49t14.5-42.5 19.5-37.5 22.3-31.2q11.2-13.3 23.7-24.8t31.5-23.5 38.5-20 39-12 42.5-4 47 6 60.5 19 43 14.5 15.5 1 60.5-18 71.5-21.5 42.5-4 47.5 5 43 12 33.8 16.3q15.7 9.2 29.2 20.7t24.5 24.5 12.3 14.8q1.2 1.7 1.4 2z" stroke="#221e20" fill="#221e20"/>
  <g stroke="#fff" fill="#fff">
   <path d="m0 256v-256h591v0.2q0 0.3-11.5 2.3t-30 8.5-35 15.5-31 20-26 24-21.5 27.5-17.8 30.8q-7.7 16.2-12.2 34.2t-5.2 41l-0.8 23 16.5-0.2q16.5-0.3 34.5-4.8t32.8-12.2q14.7-7.8 29.4-19.6 14.8-11.7 27-25.4 12.3-13.8 23.3-31.3t18-34 11-33 5-36 0.7-25l-0.2-5.5h205v723l-1-0.2-1-0.3-1-0.5-1-0.5-1.5-0.5q-1.5-0.5-17.5-10t-28.2-19.8q-12.3-10.2-23.8-22.2t-22-28-18-34-11.5-37-4-49 3.5-47 10-33.5 17-33 24-30.5 31.2-27.2l17.8-13.3 0.2-0.3 0.3-0.2v-2l-0.3-0.2q-0.2-0.3-1.4-2-1.3-1.8-12.3-14.8t-24.5-24.5-29.2-20.7q-15.8-9.3-33.8-16.3t-43-12-47.5-5-42.5 4-71.5 21.5-60.5 18-15.5-1-43-14.5-60.5-19-47-6-42.5 4-39 12-38.5 20-31.5 23.5-23.7 24.8q-11.3 13.2-22.3 31.2t-19.5 37.5-14.5 42.5-9 49l-3 26h-0.5v-256z"/>
   <path d="m0 771v-214l4.2 35q4.3 35 12.3 68t19.5 65 25.2 60.8q13.8 28.7 28.6 52.4 14.7 23.8 35.4 51.6 20.8 27.7 33.3 41.2t27 25 27 17.5 17.5 7.5 7 2l2 0.5 3.5 0.5 3.5 0.5v0.5h-246v-214z"/>
  </g>
  <path d="m591 0.2v-0.2h7l0.2 5.5q0.3 5.5-0.7 25t-5 36-11 33-18 34-23.3 31.3q-12.2 13.7-27 25.4-14.7 11.8-29.4 19.6-14.8 7.7-32.8 12.2t-34.5 4.8l-16.5 0.2 0.8-23q0.7-23 5.2-41t12.2-34.2q7.8-16.3 17.8-30.8t21.5-27.5 26-24 31-20 35-15.5 30-8.5 11.5-2.3z" stroke="#221e20" fill="#221e20"/>
  <path d="m789.8 758l13.2-33v260h-213v-1l1-0.2 1-0.3 4-0.5q4-0.5 17.5-4.5t27-12 26.3-19.7q12.7-11.8 28-30 15.2-18.3 34.2-45.8t33.2-53.8q14.3-26.2 27.6-59.2z" stroke="#fff" fill="#fff"/>
  <path d="m582 983.8l8 0.2v1h-324v-0.5l4-0.5 4-0.5 18.5-5q18.5-5 48-15.5t45-13.5 35-3 38 4 51 15.5 48.5 14.5 24 3.3z" stroke="#fefefe" fill="#fefefe"/>
 </g>
</svg>
