<?xml version="1.0" encoding="iso-8859-1"?>
<!-- Generator: Adobe Illustrator 19.1.0, SVG Export Plug-In . SVG Version: 6.00 Build 0)  -->
<svg version="1.1" id="Layer_1" xmlns="http://www.w3.org/2000/svg" xmlns:xlink="http://www.w3.org/1999/xlink" x="0px" y="0px"
	 viewBox="-61 293.321 489 278.679" style="enable-background:new -61 293.321 489 278.679;" xml:space="preserve">
<path style="fill:none;stroke:#383938;stroke-width:2;stroke-linecap:round;stroke-linejoin:round;stroke-miterlimit:10;" d="
	M355.589,323.485c-14.554,21.785-29.631,63.625-29.631,63.625l-226.399-4.689c0,0,23.532-21.359,41.504-35.164
	s36.048-23.988,36.048-23.988h177.803"/>
<path style="fill:none;stroke:#939293;stroke-width:2;stroke-linecap:round;stroke-linejoin:round;stroke-miterlimit:10;" d="
	M368.717,310.798c-3.744,0.879-7.963,5.213-12.255,11.405"/>
<path style="fill:none;stroke:#939293;stroke-width:2;stroke-linecap:round;stroke-linejoin:round;stroke-miterlimit:10;" d="
	M240.825,308.708c0,0-52.615,2.865-78.142,19.796c-25.527,16.931-69.375,52.615-69.375,52.615s-63.206,15.368-75.188,20.577
	s-17.712,8.335-17.712,8.335s-21.359,8.335-27.089,11.461c-5.73,3.126-8.856,13.545-8.856,13.545l10.419,13.024l3.126-4.168
	l132.841,4.168l6.251,5.209l53.76-6.772c0,0,20.735-18.754,54.075-26.047c33.341-7.293,92.207-19.796,92.207-19.796"/>
<path style="fill:none;stroke:#939293;stroke-width:2;stroke-linecap:round;stroke-linejoin:round;stroke-miterlimit:10;" d="
	M349.706,379.947l7.293-3.256c0,0,0.521-4.949,3.647-8.465c3.126-3.516,25.526-5.6,35.945-4.037s14.586,7.293,14.586,11.461
	s0.781,10.679-12.242,12.503c-13.024,1.823-33.601,0-33.601,0l-3.281,3.959"/>
<path style="fill:none;stroke:#939293;stroke-width:2;stroke-linecap:round;stroke-linejoin:round;stroke-miterlimit:10;" d="
	M-27.998,444.46l-16.569,20.618c0,0-3.82-9.377,0-17.712c3.82-8.335,9.03-12.329,9.03-12.329"/>
<path style="fill:none;stroke:#939293;stroke-width:2;stroke-linecap:round;stroke-linejoin:round;stroke-miterlimit:10;" d="
	M133.299,451.229l16.968,25.309c0,0,65.639-5.861,82.309-12.655c16.67-6.794,22.922-13.74,23.616-16.518
	c0.695-2.778,0-12.329,0-12.329l-85.332,11.461"/>
<path style="fill:none;stroke:#939293;stroke-width:2;stroke-linecap:round;stroke-linejoin:round;stroke-miterlimit:10;" d="
	M410.385,381.918l13.379-2.989l-19.275-57.11c0,0-23.269-5.036-36.466,15.802c-13.197,20.838-23.616,58.346-23.616,58.346"/>
<line style="fill:none;stroke:#939293;stroke-width:2;stroke-linecap:round;stroke-linejoin:round;stroke-miterlimit:10;" x1="344.406" y1="396.661" x2="379.175" y2="388.892"/>
<path style="fill:none;stroke:#939293;stroke-width:2;stroke-linecap:round;stroke-linejoin:round;stroke-miterlimit:10;" d="
	M-46.264,455.788l-10.11,15.715v42.718l5.055,5.209v25.005c0,0,18.387,22.922,163.21,21.88s144.611-7.814,144.611-7.814
	s2.296-57.304,26.26-85.435c23.964-28.131,45.329-25.005,59.652-1.563"/>
<path style="fill:none;stroke:#939293;stroke-width:2;stroke-linecap:round;stroke-linejoin:round;stroke-miterlimit:10;" d="
	M-20.429,450.057l-11.461,13.979l8.335,31.43c0,0,110.263,8.856,110.612,7.293s37.857-29.173,37.857-29.173l-14.586-20.317
	L-20.429,450.057z"/>
<polygon style="fill:none;stroke:#939293;stroke-width:2;stroke-linecap:round;stroke-linejoin:round;stroke-miterlimit:10;" points="
	-6.364,505.885 48.856,509.645 48.856,540.789 -6.364,536.1 "/>
<polyline style="fill:none;stroke:#939293;stroke-width:2;stroke-linecap:round;stroke-linejoin:round;stroke-miterlimit:10;" points="
	-6.374,523.46 -42.83,520.472 -46.264,539.226 -15.741,548.082 -12.094,552.25 73.341,557.98 75.946,555.375 143.019,557.98 
	116.058,533.496 48.377,527.948 "/>
<path style="fill:none;stroke:#8EBDDE;stroke-width:2;stroke-linecap:round;stroke-linejoin:round;stroke-miterlimit:10;" d="
	M340.827,296.968c0,0-57.552-3.647-95.581-3.647s-79.721,3.647-79.721,3.647c-0.328,0-0.649,0.102-0.917,0.292
	c0,0-12.071,5.586-33.971,22.89c-21.9,17.304-42.912,33.906-42.912,33.906c-1.251,0.888-0.635,2.858,0.899,2.875l224.83,2.538
	c0.65,0.007,1.238-0.383,1.484-0.985l27.354-59.334C342.719,298.108,341.953,296.968,340.827,296.968z"/>
<line style="fill:none;stroke:#8EBDDE;stroke-width:2;stroke-linecap:round;stroke-linejoin:round;stroke-miterlimit:10;stroke-dasharray:1,6;" x1="164.609" y1="297.26" x2="177.112" y2="323.27"/>
<line style="fill:none;stroke:#8EBDDE;stroke-width:2;stroke-linecap:round;stroke-linejoin:round;stroke-miterlimit:10;stroke-dasharray:1,6;" x1="87.057" y1="356.114" x2="99.56" y2="382.421"/>
<line style="fill:none;stroke:#8EBDDE;stroke-width:2;stroke-linecap:round;stroke-linejoin:round;stroke-miterlimit:10;stroke-dasharray:1,6;" x1="313.456" y1="359.469" x2="325.959" y2="387.11"/>
<line style="fill:none;stroke:#8EBDDE;stroke-width:2;stroke-linecap:round;stroke-linejoin:round;stroke-miterlimit:10;stroke-dasharray:1,6;" x1="342.413" y1="297.26" x2="354.915" y2="324.336"/>
<path style="fill:none;stroke:#4E84A1;stroke-width:2;stroke-linecap:round;stroke-linejoin:round;stroke-miterlimit:10;stroke-dasharray:1,6;" d="
	M128.603,295.755"/>
</svg>
