<?xml version="1.0" encoding="iso-8859-1"?>
<!-- Generator: Adobe Illustrator 19.1.0, SVG Export Plug-In . SVG Version: 6.00 Build 0)  -->
<svg version="1.1" id="Layer_1" xmlns="http://www.w3.org/2000/svg" xmlns:xlink="http://www.w3.org/1999/xlink" x="0px" y="0px"
	 viewBox="0 0 80.378 80.389" style="enable-background:new 0 0 80.378 80.389;" xml:space="preserve">
<g>
	<path style="fill:none;stroke:#344356;stroke-width:2;stroke-linecap:round;stroke-miterlimit:10;" d="M5.977,29.45
		c3.985,5,10.127,8.204,17.018,8.204c3.257,0,6.348-0.716,9.122-1.999"/>
	<path style="fill:none;stroke:#344356;stroke-width:2;stroke-linecap:round;stroke-miterlimit:10;" d="M43.323,8.153
		C42.36,5.629,40.94,3.33,39.165,1.358"/>
	<path style="fill:none;stroke:#344356;stroke-width:2;stroke-linecap:round;stroke-miterlimit:10;" d="M37.725,31.906
		c4.316-3.975,7.019-9.673,7.019-16.002c0-1.539-0.16-3.041-0.464-4.49"/>
	<path style="fill:none;stroke:#344356;stroke-width:2;stroke-linecap:round;stroke-miterlimit:10;" d="M7.383,19.426
		c1.604,7.142,7.985,12.478,15.611,12.478c8.837,0,16-7.163,16-16c0-5.864-3.155-10.991-7.859-13.777"/>
	<path style="fill:none;stroke:#344356;stroke-width:2;stroke-linecap:round;stroke-miterlimit:10;" d="M50.775,30.047
		c2.165-4.245,3.386-9.051,3.386-14.143c0-2.438-0.28-4.811-0.81-7.088"/>
	<path style="fill:none;stroke:#344356;stroke-width:2;stroke-linecap:round;stroke-miterlimit:10;" d="M28.54,46.579
		c8.707-1.564,16.159-6.744,20.746-13.93"/>
	<path style="fill:none;stroke:#344356;stroke-width:2;stroke-linecap:round;stroke-miterlimit:10;" d="M18.211,46.706
		c0.398,0.061,0.799,0.115,1.202,0.161"/>
	<path style="fill:none;stroke:#344356;stroke-width:2;stroke-linecap:round;stroke-miterlimit:10;" d="M5.137,41.45
		c1.993,1.396,4.156,2.564,6.453,3.467"/>
	<path style="fill:none;stroke:#344356;stroke-width:2;stroke-linecap:round;stroke-miterlimit:10;" d="M1.217,38.199
		c0.606,0.592,1.237,1.16,1.89,1.702"/>
	<path style="fill:none;stroke:#344356;stroke-width:2;stroke-linecap:round;stroke-miterlimit:10;" d="M52.701,6.447
		c-0.392-1.232-0.858-2.43-1.393-3.59"/>
	<path style="fill:none;stroke:#344356;stroke-width:2;stroke-linecap:round;stroke-miterlimit:10;" d="M78.393,51.791"/>
	<path style="fill:none;stroke:#344356;stroke-width:2;stroke-linecap:round;stroke-miterlimit:10;" d="M32.104,79.086"/>
	<path style="fill:none;stroke:#344356;stroke-width:2;stroke-linecap:round;stroke-miterlimit:10;" d="M37.454-0.343"/>
</g>
<g>
	<path style="fill:#344356;" d="M40.189,1.904c20.953,0,38,17.047,38,38s-17.047,38-38,38s-38-17.047-38-38
		S19.236,1.904,40.189,1.904 M40.189-0.096c-22.091,0-40,17.909-40,40c0,22.091,17.909,40,40,40c22.091,0,40-17.909,40-40
		C80.189,17.812,62.28-0.096,40.189-0.096L40.189-0.096z"/>
</g>
<line style="fill:none;stroke:#344356;stroke-width:2;stroke-linecap:round;stroke-miterlimit:10;" x1="18.812" y1="72.279" x2="61.411" y2="72.279"/>
<g>
	
		<polyline style="fill:none;stroke:#344356;stroke-width:2;stroke-linecap:round;stroke-linejoin:round;stroke-miterlimit:10;" points="
		53.106,61.449 53.106,57.196 48.853,57.196 	"/>
	
		<line style="fill:none;stroke:#344356;stroke-width:2;stroke-linecap:round;stroke-linejoin:round;stroke-miterlimit:10;" x1="31.791" y1="60.887" x2="22.978" y2="52.074"/>
	
		<polyline style="fill:none;stroke:#344356;stroke-width:2;stroke-linecap:round;stroke-linejoin:round;stroke-miterlimit:10;" points="
		53.106,57.196 40.603,69.699 39.005,68.101 	"/>
</g>
<g>
	
		<polyline style="fill:none;stroke:#344356;stroke-width:2;stroke-linecap:round;stroke-linejoin:round;stroke-miterlimit:10;" points="
		39.18,65.449 39.18,61.196 34.927,61.196 	"/>
	
		<polyline style="fill:none;stroke:#344356;stroke-width:2;stroke-linecap:round;stroke-linejoin:round;stroke-miterlimit:10;" points="
		13.053,52.074 30.677,69.699 39.18,61.196 	"/>
</g>
<g>
	
		<polyline style="fill:none;stroke:#344356;stroke-width:2;stroke-linecap:round;stroke-linejoin:round;stroke-miterlimit:10;" points="
		67.531,57.449 67.531,53.196 63.279,53.196 	"/>
	
		<line style="fill:none;stroke:#344356;stroke-width:2;stroke-linecap:round;stroke-linejoin:round;stroke-miterlimit:10;" x1="43.277" y1="61.947" x2="33.404" y2="52.074"/>
	
		<polyline style="fill:none;stroke:#344356;stroke-width:2;stroke-linecap:round;stroke-linejoin:round;stroke-miterlimit:10;" points="
		67.531,53.196 51.029,69.699 47.822,66.492 	"/>
</g>
<path style="fill:none;stroke:#344356;stroke-width:2;stroke-linecap:round;stroke-linejoin:round;stroke-miterlimit:10;" d="
	M51.291,65.961"/>
<path style="fill:none;stroke:#344356;stroke-width:2;stroke-linecap:round;stroke-linejoin:round;stroke-miterlimit:10;" d="
	M47.635,62.305"/>
</svg>
