<?xml version="1.0" encoding="iso-8859-1"?>
<!-- Generator: Adobe Illustrator 19.1.0, SVG Export Plug-In . SVG Version: 6.00 Build 0)  -->
<svg version="1.1" id="Layer_1" xmlns="http://www.w3.org/2000/svg" xmlns:xlink="http://www.w3.org/1999/xlink" x="0px" y="0px"
	 viewBox="-268 384 26 26" style="enable-background:new -268 384 26 26;" xml:space="preserve">
<path style="fill:#C2C2C4;" d="M-243.9,384h-22.2c-1.1,0-1.9,0.8-1.9,1.9v22.2c0,1,0.9,1.9,1.9,1.9h22.2c1.1,0,1.9-0.8,1.9-1.9
	v-22.2C-242,384.8-242.9,384-243.9,384z M-260,406h-4v-12h4V406z M-262,392.4c-1.3,0-2.4-1.1-2.4-2.4s1.1-2.4,2.4-2.4
	s2.4,1.1,2.4,2.4S-260.7,392.4-262,392.4z M-246,406h-4v-6c0-1.6-0.4-3.2-2-3.2s-2,1.6-2,3.2v6h-4v-12h4v1.4h0.2
	c0.5-1,1.8-1.8,3.3-1.8c3.7,0,4.5,2.4,4.5,5.4V406z"/>
</svg>
