<?xml version="1.0" encoding="utf-8"?>
<!-- Generator: Adobe Illustrator 19.1.0, SVG Export Plug-In . SVG Version: 6.00 Build 0)  -->
<svg version="1.1" xmlns="http://www.w3.org/2000/svg" xmlns:xlink="http://www.w3.org/1999/xlink" x="0px" y="0px"
	 viewBox="0 0 219.5 35.7" style="enable-background:new 0 0 219.5 35.7;" xml:space="preserve">
<style type="text/css">
	.st0{display:none;}
	.st1{display:inline;fill:#C4151C;}
	.st2{display:inline;}
	.st3{fill:#F2F2F2;}
	.st4{display:inline;fill:#232020;}
	.st5{fill:#232020;}
	.st6{fill:#C4151C;}
	.st7{font-family:'MyriadPro-Regular';}
	.st8{font-size:12px;}
</style>
<g id="Secondary_-_Red_Inverse" class="st0">
	<rect x="-40.2" y="-56.3" class="st1" width="300" height="150"/>
	<g class="st2">
		<path class="st3" d="M37.5,3.7h3.1v28.2h12v3H37.5V3.7z"/>
		<path class="st3" d="M89.3,9.5l-2.5,1.9c-1.4-1.8-3-3.1-4.9-4C80,6.4,78,6,75.7,6c-2.5,0-4.8,0.6-6.9,1.8
			c-2.1,1.2-3.8,2.8-4.9,4.8c-1.2,2-1.8,4.3-1.8,6.8c0,3.8,1.3,7,3.9,9.5c2.6,2.5,5.9,3.8,9.9,3.8c4.4,0,8-1.7,11-5.1l2.5,1.9
			c-1.6,2-3.5,3.5-5.8,4.6c-2.3,1.1-4.9,1.6-7.8,1.6c-5.5,0-9.8-1.8-12.9-5.5c-2.6-3.1-4-6.8-4-11.1c0-4.6,1.6-8.4,4.8-11.5
			c3.2-3.1,7.2-4.7,12-4.7c2.9,0,5.5,0.6,7.9,1.7C85.9,5.8,87.8,7.4,89.3,9.5z"/>
		<path class="st3" d="M98.1,3.7h3.1v13.1h15.9V3.7h3.1v31.2h-3.1V19.8h-15.9v15.1h-3.1V3.7z"/>
		<path class="st3" d="M130.5,3.7h17.9v3.1h-14.8v9.8h14.6v3.1h-14.6v12.3h14.6v3.1h-17.8V3.7z"/>
		<path class="st3" d="M155,34.9l4.5-31.2h0.5l12.7,25.6l12.6-25.6h0.5l4.5,31.2h-3.1l-3.1-22.3l-11,22.3h-0.8L161,12.4L158,34.9
			H155z"/>
		<path class="st3" d="M196.5,3.7h3.6l8,12.9l7.9-12.9h3.6L209.6,20v14.9h-3.1V20L196.5,3.7z"/>
		<polygon class="st3" points="14.2,11.9 24,34.9 28.4,34.9 14.2,1.8 0,34.9 4.4,34.9 		"/>
	</g>
</g>
<g id="Secondary_-_Black_Inverse" class="st0">
	<rect x="-40.2" y="-56.3" class="st4" width="300" height="150"/>
	<g class="st2">
		<path class="st3" d="M37.5,3.7h3.1v28.2h12v3H37.5V3.7z"/>
		<path class="st3" d="M89.3,9.5l-2.5,1.9c-1.4-1.8-3-3.1-4.9-4C80,6.4,78,6,75.7,6c-2.5,0-4.8,0.6-6.9,1.8
			c-2.1,1.2-3.8,2.8-4.9,4.8c-1.2,2-1.8,4.3-1.8,6.8c0,3.8,1.3,7,3.9,9.5c2.6,2.5,5.9,3.8,9.9,3.8c4.4,0,8-1.7,11-5.1l2.5,1.9
			c-1.6,2-3.5,3.5-5.8,4.6c-2.3,1.1-4.9,1.6-7.8,1.6c-5.5,0-9.8-1.8-12.9-5.5c-2.6-3.1-4-6.8-4-11.1c0-4.6,1.6-8.4,4.8-11.5
			c3.2-3.1,7.2-4.7,12-4.7c2.9,0,5.5,0.6,7.9,1.7C85.9,5.8,87.8,7.4,89.3,9.5z"/>
		<path class="st3" d="M98.1,3.7h3.1v13.1h15.9V3.7h3.1v31.2h-3.1V19.8h-15.9v15.1h-3.1V3.7z"/>
		<path class="st3" d="M130.5,3.7h17.9v3.1h-14.8v9.8h14.6v3.1h-14.6v12.3h14.6v3.1h-17.8V3.7z"/>
		<path class="st3" d="M155,34.9l4.5-31.2h0.5l12.7,25.6l12.6-25.6h0.5l4.5,31.2h-3.1l-3.1-22.3l-11,22.3h-0.8L161,12.4L158,34.9
			H155z"/>
		<path class="st3" d="M196.5,3.7h3.6l8,12.9l7.9-12.9h3.6L209.6,20v14.9h-3.1V20L196.5,3.7z"/>
		<polygon class="st3" points="14.2,11.9 24,34.9 28.4,34.9 14.2,1.8 0,34.9 4.4,34.9 		"/>
	</g>
</g>
<g id="Secondary_-_White" class="st0">
	<g class="st2">
		<path class="st3" d="M37.5,3.7h3.1v28.2h12v3H37.5V3.7z"/>
		<path class="st3" d="M89.3,9.5l-2.5,1.9c-1.4-1.8-3-3.1-4.9-4C80,6.4,78,6,75.7,6c-2.5,0-4.8,0.6-6.9,1.8
			c-2.1,1.2-3.8,2.8-4.9,4.8c-1.2,2-1.8,4.3-1.8,6.8c0,3.8,1.3,7,3.9,9.5c2.6,2.5,5.9,3.8,9.9,3.8c4.4,0,8-1.7,11-5.1l2.5,1.9
			c-1.6,2-3.5,3.5-5.8,4.6c-2.3,1.1-4.9,1.6-7.8,1.6c-5.5,0-9.8-1.8-12.9-5.5c-2.6-3.1-4-6.8-4-11.1c0-4.6,1.6-8.4,4.8-11.5
			c3.2-3.1,7.2-4.7,12-4.7c2.9,0,5.5,0.6,7.9,1.7C85.9,5.8,87.8,7.4,89.3,9.5z"/>
		<path class="st3" d="M98.1,3.7h3.1v13.1h15.9V3.7h3.1v31.2h-3.1V19.8h-15.9v15.1h-3.1V3.7z"/>
		<path class="st3" d="M130.5,3.7h17.9v3.1h-14.8v9.8h14.6v3.1h-14.6v12.3h14.6v3.1h-17.8V3.7z"/>
		<path class="st3" d="M155,34.9l4.5-31.2h0.5l12.7,25.6l12.6-25.6h0.5l4.5,31.2h-3.1l-3.1-22.3l-11,22.3h-0.8L161,12.4L158,34.9
			H155z"/>
		<path class="st3" d="M196.5,3.7h3.6l8,12.9l7.9-12.9h3.6L209.6,20v14.9h-3.1V20L196.5,3.7z"/>
		<polygon class="st3" points="14.2,11.9 24,34.9 28.4,34.9 14.2,1.8 0,34.9 4.4,34.9 		"/>
	</g>
</g>
<g id="Secondary_-_Black" class="st0">
	<g class="st2">
		<path class="st5" d="M37.5,3.7h3.1v28.2h12v3H37.5V3.7z"/>
		<path class="st5" d="M89.3,9.5l-2.5,1.9c-1.4-1.8-3-3.1-4.9-4C80,6.4,78,6,75.7,6c-2.5,0-4.8,0.6-6.9,1.8
			c-2.1,1.2-3.8,2.8-4.9,4.8c-1.2,2-1.8,4.3-1.8,6.8c0,3.8,1.3,7,3.9,9.5c2.6,2.5,5.9,3.8,9.9,3.8c4.4,0,8-1.7,11-5.1l2.5,1.9
			c-1.6,2-3.5,3.5-5.8,4.6c-2.3,1.1-4.9,1.6-7.8,1.6c-5.5,0-9.8-1.8-12.9-5.5c-2.6-3.1-4-6.8-4-11.1c0-4.6,1.6-8.4,4.8-11.5
			c3.2-3.1,7.2-4.7,12-4.7c2.9,0,5.5,0.6,7.9,1.7C85.9,5.8,87.8,7.4,89.3,9.5z"/>
		<path class="st5" d="M98.1,3.7h3.1v13.1h15.9V3.7h3.1v31.2h-3.1V19.8h-15.9v15.1h-3.1V3.7z"/>
		<path class="st5" d="M130.5,3.7h17.9v3.1h-14.8v9.8h14.6v3.1h-14.6v12.3h14.6v3.1h-17.8V3.7z"/>
		<path class="st5" d="M155,34.9l4.5-31.2h0.5l12.7,25.6l12.6-25.6h0.5l4.5,31.2h-3.1l-3.1-22.3l-11,22.3h-0.8L161,12.4L158,34.9
			H155z"/>
		<path class="st5" d="M196.5,3.7h3.6l8,12.9l7.9-12.9h3.6L209.6,20v14.9h-3.1V20L196.5,3.7z"/>
		<polygon class="st5" points="14.2,11.9 24,34.9 28.4,34.9 14.2,1.8 0,34.9 4.4,34.9 		"/>
	</g>
</g>
<g id="Secondary_-_Red">
	<g>
		<path class="st6" d="M37.5,3.7h3.1v28.2h12v3H37.5V3.7z"/>
		<path class="st6" d="M89.3,9.5l-2.5,1.9c-1.4-1.8-3-3.1-4.9-4C80,6.4,78,6,75.7,6c-2.5,0-4.8,0.6-6.9,1.8
			c-2.1,1.2-3.8,2.8-4.9,4.8c-1.2,2-1.8,4.3-1.8,6.8c0,3.8,1.3,7,3.9,9.5c2.6,2.5,5.9,3.8,9.9,3.8c4.4,0,8-1.7,11-5.1l2.5,1.9
			c-1.6,2-3.5,3.5-5.8,4.6c-2.3,1.1-4.9,1.6-7.8,1.6c-5.5,0-9.8-1.8-12.9-5.5c-2.6-3.1-4-6.8-4-11.1c0-4.6,1.6-8.4,4.8-11.5
			c3.2-3.1,7.2-4.7,12-4.7c2.9,0,5.5,0.6,7.9,1.7C85.9,5.8,87.8,7.4,89.3,9.5z"/>
		<path class="st6" d="M98.1,3.7h3.1v13.1h15.9V3.7h3.1v31.2h-3.1V19.8h-15.9v15.1h-3.1V3.7z"/>
		<path class="st6" d="M130.5,3.7h17.9v3.1h-14.8v9.8h14.6v3.1h-14.6v12.3h14.6v3.1h-17.8V3.7z"/>
		<path class="st6" d="M155,34.9l4.5-31.2h0.5l12.7,25.6l12.6-25.6h0.5l4.5,31.2h-3.1l-3.1-22.3l-11,22.3h-0.8L161,12.4L158,34.9
			H155z"/>
		<path class="st6" d="M196.5,3.7h3.6l8,12.9l7.9-12.9h3.6L209.6,20v14.9h-3.1V20L196.5,3.7z"/>
		<polygon class="st6" points="14.2,11.9 24,34.9 28.4,34.9 14.2,1.8 0,34.9 4.4,34.9 		"/>
	</g>
</g>
<g id="nyt_x5F_exporter_x5F_info" class="st0">
	<text transform="matrix(1 0 0 1 -40.2368 -56.2693)" class="st2"><tspan x="0" y="0" class="st7 st8">&lt;nyt_prefs&gt;</tspan><tspan x="0" y="14.4" class="st7 st8">  &lt;nyt_prefix&gt;&lt;/nyt_prefix&gt;</tspan><tspan x="0" y="28.8" class="st7 st8">  &lt;nyt_suffix&gt;&lt;/nyt_suffix&gt;</tspan><tspan x="0" y="43.2" class="st7 st8">  &lt;nyt_base_path&gt;~/Google%20Drive/Marketing%20&amp;amp;%20PR/Design/Alchemy/Logos/Alchemy&lt;/nyt_base_path&gt;</tspan><tspan x="0" y="57.6" class="st7 st8">  &lt;nyt_scaling&gt;100&lt;/nyt_scaling&gt;</tspan><tspan x="0" y="72" class="st7 st8">  &lt;nyt_transparency&gt;true&lt;/nyt_transparency&gt;</tspan><tspan x="0" y="86.4" class="st7 st8">  &lt;nyt_embedImage&gt;true&lt;/nyt_embedImage&gt;</tspan><tspan x="0" y="100.8" class="st7 st8">  &lt;nyt_embedFont&gt;true&lt;/nyt_embedFont&gt;</tspan><tspan x="0" y="115.2" class="st7 st8">  &lt;nyt_trimEdges&gt;true&lt;/nyt_trimEdges&gt;</tspan><tspan x="0" y="129.6" class="st7 st8">  &lt;nyt_innerPadding&gt;false&lt;/nyt_innerPadding&gt;</tspan><tspan x="0" y="144" class="st7 st8">  &lt;nyt_format&gt;SVG&lt;/nyt_format&gt;</tspan><tspan x="0" y="158.4" class="st7 st8">  &lt;nyt_artboards&gt;current&lt;/nyt_artboards&gt;</tspan><tspan x="0" y="172.8" class="st7 st8">  &lt;nyt_layers&gt;all&lt;/nyt_layers&gt;</tspan><tspan x="0" y="187.2" class="st7 st8">  &lt;nyt_exportArtboards&gt;false&lt;/nyt_exportArtboards&gt;</tspan><tspan x="0" y="201.6" class="st7 st8">  &lt;nyt_ignoreWarnings&gt;false&lt;/nyt_ignoreWarnings&gt;</tspan><tspan x="0" y="216" class="st7 st8">&lt;/nyt_prefs&gt;</tspan></text>
</g>
</svg>
