<svg width="463" height="532" xmlns="http://www.w3.org/2000/svg">

 <g>
  <title>Layer 1</title>
  <g transform="translate(-4.5437 4.611)" id="imagebot_1" fill="#000000">
   <path id="imagebot_2" transform="matrix(0.45437 0 0 -0.45437 0 532)" fill="#ffffff" d="M473,1158C461,1152 449,1135 446,1115C442,1095 430,1078 415,1070C388,1055 366,1001 372,965C375,950 372,939 362,935C351,931 349,917 354,862C364,767 368,758 395,762C408,764 420,761 422,756C426,746 416,740 333,704C256,671 248,662 239,596C235,568 224,493 215,430S201,308 203,300C206,289 187,270 145,241C49,177 10,135 10,96C10,56 39,23 82,15C100,12 305,10 537,12C947,15 959,16 987,36C1020,61 1028,105 1006,148C998,164 956,200 910,230C843,274 830,287 834,304S822,449 793,628C787,667 765,683 673,715C636,728 604,744 601,751C599,758 605,760 618,756C647,746 659,773 667,865C671,918 670,940 661,940C655,940 650,958 650,985C650,1024 645,1036 615,1066C596,1085 580,1109 580,1120C580,1159 520,1181 473,1158zM552,1100C562,1081 583,1050 601,1032C626,1005 630,993 625,972C616,937 615,936 590,950C570,961 456,960 420,950C409,946 404,954 402,977C399,1008 405,1018 454,1058C463,1065 470,1082 470,1095C470,1120 495,1141 520,1137C528,1136 543,1119 552,1100zM590,910C613,887 626,885 633,903C641,921 641,868 634,832C630,811 623,803 614,807C591,815 570,790 570,755C570,729 575,720 598,712C711,670 743,654 756,635C764,623 775,577 780,534C785,490 794,429 800,397C813,330 808,307 777,288C750,271 656,234 616,225C589,219 588,220 600,235C611,248 611,256 602,271C589,292 597,295 633,281C654,273 663,278 704,319L750,366L724,443C707,494 693,520 683,520S670,515 675,503C679,493 688,463 695,436C703,410 711,385 715,382C718,379 706,362 689,344C660,314 654,312 609,317C567,322 559,320 536,297C522,283 510,275 510,280S499,297 484,306C464,320 452,321 426,313C396,304 389,306 356,334L319,365L340,424C363,493 365,510 347,510C336,510 324,478 294,370C292,361 309,335 335,310C377,268 382,266 410,277C441,289 449,283 428,262C420,254 420,247 430,235C457,203 393,220 272,277C225,299 219,318 235,381C243,411 250,452 250,472C250,493 254,529 260,552C265,576 272,606 274,620C278,639 294,652 335,673C365,688 397,700 405,700C427,700 450,729 450,759C450,791 428,815 405,806C393,802 390,808 390,834C390,853 387,876 384,884C380,895 382,899 392,895C400,892 415,898 425,910C451,939 561,939 590,910zM320,221C363,201 389,196 440,197C476,197 541,198 586,198C657,199 675,203 733,231L798,264L878,211C977,147 992,130 988,94C982,41 972,40 515,40C63,40 47,42 43,90C40,121 52,137 113,181C139,199 175,225 192,238C227,263 234,262 320,221z"/>
  </g>
 </g>
 <metadata>image/svg+xmlOpenclipartBuddha outline2006-12-26T00:00:00https://openclipart.org/detail/24924/-by--24924Anonymous</metadata>
</svg>