<?xml version="1.0" encoding="UTF-8"?>
<!DOCTYPE svg PUBLIC "-//W3C//DTD SVG 1.1//EN" "http://www.w3.org/Graphics/SVG/1.1/DTD/svg11.dtd">
<svg enable-background="new 0 0 1728.173 2038.439" id="Icon" viewBox="0 0 1728.173 2038.439" xml:space="preserve" xmlns="http://www.w3.org/2000/svg">
<path d="m1583.65,876.051a723.073,723.073 0 1,0 -1446.146,0 723.073,723.073 0 1,0 1446.146,0" fill="none" stroke="#000" stroke-miterlimit="10" stroke-width="72"></path>
<path d="m804.081,117.011c10.379-22.263-17.424-70.454 17.99-81.308 2.498,4.124 9.831,7.478 12.013,11.015 6.255-10.546 10.052-19.413 20.238-25.263 4.196,9.429 10.529,17.571 18.776,23.918 16.141-14.933 23.248,9.148 24.04,20.563 .424,6.122-2.797,46.666-3.727,48.742-12.498,27.892-60.362,6.089-89.331,5.333" stroke="#000" stroke-miterlimit="10" stroke-width="4"></path>
<path d="m592.241,159.857c6.996-23.547-27.584-67.13 5.851-83.069 3.077,3.711 10.823,5.953 13.5,9.13 4.638-11.351 7.091-20.679 16.308-27.961 5.536,8.71 12.996,15.833 22.086,20.9 13.771-17.142 24.339,5.634 26.8,16.809 1.318,5.993 4.088,46.571 3.474,48.76-8.265,29.426-58.813,14.89-87.578,18.398" stroke="#000" stroke-miterlimit="10" stroke-width="4"></path>
<path d="m439.657,247.061c-.655-24.555-47.052-55.258-20.212-80.785 4.077,2.574 12.136,2.301 15.667,4.491 .887-12.229.325-21.858 6.827-31.641 7.965,6.562 17.268,11.02 27.481,13.016 7.773-20.569 24.887-2.196 30.693,7.664 3.113,5.288 18.336,43.003 18.432,45.276 1.273,30.538-51.29,32.403-77.547,44.664" stroke="#000" stroke-miterlimit="10" stroke-width="4"></path>
<path d="m296.508,365.462c-3.479-24.316-53.105-49.469-29.385-77.918 4.346,2.087 12.32.888 16.081,2.656-.528-12.25-2.196-21.75 3.136-32.217 8.668,5.601 18.422,8.957 28.798,9.763 5.352-21.328 24.468-5.049 31.371,4.077 3.702,4.894 23.169,40.604 23.525,42.851 4.783,30.188-47.215,38.097-71.885,53.301" stroke="#000" stroke-miterlimit="10" stroke-width="4"></path>
<path d="m188.628,541.836c-14.782-19.618-70.384-17.701-63.337-54.065 4.813-.27 11.219-5.168 15.366-5.434-6.374-10.475-12.418-17.991-12.8-29.731 10.295.723 20.458-1.044 29.934-5.345-5.604-21.263 18.995-16.229 29.444-11.568 5.604,2.5 39.887,24.383 41.283,26.179 18.756,24.132-22.97,56.152-37.241,81.373" stroke="#000" stroke-miterlimit="10" stroke-width="4"></path>
<path d="m999.691,133.57c13.673-20.407-6.406-72.293 30.256-77.584 1.835,4.458 8.566,8.898 10.18,12.728 7.799-9.461 12.912-17.64 23.875-21.857 2.7,9.961 7.708,18.979 14.884,26.516 18.241-12.279 21.568,12.608 20.6,24.009-.521,6.114-9.926,45.684-11.163,47.592-16.631,25.644-60.582-3.247-89.092-8.439" stroke="#000" stroke-miterlimit="10" stroke-width="4"></path>
<path d="m1196.113,199.999c17.676-17.057 9.015-72.014 45.966-69.439 .852,4.745 6.494,10.508 7.262,14.591 9.621-7.6 16.347-14.514 27.954-16.319 .533,10.306 3.524,20.179 8.944,29.062 20.424-8.148 18.417,16.88 15.062,27.82-1.801,5.866-19.354,42.556-20.967,44.159-21.674,21.551-58.528-15.975-85.298-27.074" stroke="#000" stroke-miterlimit="10" stroke-width="4"></path>
<path d="m1363.053,342.764c18.075-16.633 10.72-71.78 47.599-68.331 .74,4.764 6.243,10.659 6.913,14.759 9.8-7.369 16.688-14.122 28.334-15.652 .289,10.316 3.045,20.257 8.253,29.266 20.611-7.661 18.013,17.312 14.397,28.169-1.939,5.822-20.357,42.085-22.008,43.65-22.178,21.031-58.133-17.357-84.631-29.087" stroke="#000" stroke-miterlimit="10" stroke-width="4"></path>
<path d="m1472.583,501.378c20.441-13.621 21.747-69.241 57.643-60.1-.01,4.821 4.51,11.5 4.534,15.655 10.826-5.756 18.68-11.356 30.423-11.057-1.317,10.236-.142,20.484 3.603,30.193 21.552-4.364 15.103,19.902 9.844,30.065-2.821,5.449-26.653,38.408-28.526,39.697-25.178,17.328-54.728-26.184-79.08-41.891" stroke="#000" stroke-miterlimit="10" stroke-width="4"></path>
<path d="m1566.66,666.125c24.091-4.794 46.514-55.712 76.208-33.57-1.848,4.453-.217,12.35-1.779,16.201 12.203-1.191 21.599-3.373 32.34,1.383-5.122,8.959-7.944,18.881-8.186,29.285 21.586,4.187 6.369,24.158-2.369,31.546-4.686,3.961-39.287,25.338-41.511,25.816-29.884,6.414-40.603-45.079-57.123-68.887" stroke="#000" stroke-miterlimit="10" stroke-width="4"></path>
<path d="m1600.66,862.968c24.344,3.283 62.076-37.602 82.979-7.021-3.193,3.612-4.214,11.611-6.941,14.746 11.93,2.833 21.524,3.819 30.142,11.804-7.753,6.812-13.643,15.281-17.247,25.043 19.06,10.965-1.815,24.917-12.478,29.07-5.719,2.226-45.385,11.217-47.643,10.947-30.348-3.631-23.776-55.816-31.676-83.697" stroke="#000" stroke-miterlimit="10" stroke-width="4"></path>
<path d="m118.181,717.027c-15.178-19.313-70.73-16.267-64.423-52.767 4.808-.367 11.112-5.395 15.252-5.745-6.585-10.343-12.782-17.734-13.402-29.465 10.308.514 20.432-1.46 29.819-5.953-6.036-21.145 18.661-16.612 29.203-12.164 5.653,2.386 40.375,23.567 41.807,25.334 19.243,23.746-21.824,56.607-35.579,82.113" stroke="#000" stroke-miterlimit="10" stroke-width="4"></path>
<path d="m97.21,926.999c-19.429-15.03-72.562,1.471-75.345-35.465 4.573-1.528 9.46-7.942 13.391-9.291-8.909-8.425-16.721-14.082-20.182-25.308 10.122-2.015 19.459-6.398 27.467-13.044-11.009-19.035 14.047-20.661 25.355-18.918 6.064.936 44.903,13.011 46.723,14.375 24.452,18.337-7.362,60.22-14.482,88.311" stroke="#000" stroke-miterlimit="10" stroke-width="4"></path>
<path d="m1548.544,1065.564c23.559,6.953 67.08-27.705 83.079,5.702-3.706,3.083-5.934,10.834-9.106,13.517 11.358,4.618 20.691,7.055 27.99,16.258-8.699,5.552-15.811,13.024-20.86,22.124 17.167,13.741-5.591,24.35-16.761,26.829-5.991,1.33-46.563,4.172-48.754,3.562-29.44-8.213-14.996-58.786-18.555-87.546" stroke="#000" stroke-miterlimit="10" stroke-width="4"></path>
<path d="m1483.686,1265.617c19.798,14.538 72.501-3.287 76.208,33.567-4.533,1.643-9.258,8.176-13.153,9.622 9.116,8.2 17.066,13.66 20.809,24.795-10.068,2.269-19.293,6.883-27.133,13.729 11.482,18.753-13.524,21.006-24.874,19.545-6.085-.783-45.214-11.883-47.067-13.201-24.903-17.72 5.854-60.385 12.268-88.645" stroke="#000" stroke-miterlimit="10" stroke-width="4"></path>
<path d="m1375.502,1415.517c12.916,20.894 68.459,24.097 58.099,59.659-4.819-.175-11.646,4.115-15.801,3.998 5.384,11.016 10.712,19.056 10.013,30.782-10.186-1.667-20.468-.841-30.299,2.57 3.625,21.688-20.406,14.414-30.383,8.812-5.35-3.005-37.477-27.947-38.702-29.863-16.458-25.755 28.036-53.803 44.565-77.604" stroke="#000" stroke-miterlimit="10" stroke-width="4"></path>
<path d="m133.231,1111.147c-22.43-10.013-70.158,18.578-81.592-16.653 4.082-2.565 7.315-9.953 10.816-12.192-10.647-6.081-19.575-9.731-25.591-19.821 9.358-4.35 17.396-10.815 23.606-19.166-15.196-15.893 8.766-23.395 20.166-24.374 6.113-.524 46.706,2.03 48.797,2.926 28.093,12.039 7.078,60.255 6.798,89.231" stroke="#000" stroke-miterlimit="10" stroke-width="4"></path>
<path d="m231.519,1298.61c-24.564-.139-56.75,45.24-81.396,17.59 2.705-3.991 2.692-12.056 4.996-15.515-12.195-1.281-21.837-1.031-31.405-7.846 6.817-7.749 11.574-16.903 13.898-27.046-20.307-8.435-1.39-24.944 8.653-30.429 5.386-2.94 43.574-16.938 45.848-16.958 30.562-.285 30.728,52.312 42.132,78.952" stroke="#000" stroke-miterlimit="10" stroke-width="4"></path>
<path d="m406.124,1486.127c-22.936,8.793-36.44,62.765-69.446,45.954 1.07-4.701-1.871-12.209-.981-16.269-11.827,3.235-20.719,6.971-32.109,4.097 3.537-9.695 4.643-19.951 3.125-30.246-21.983-.482-10.356-22.736-2.992-31.494 3.95-4.695 34.445-31.607 36.557-32.454 28.372-11.366 47.63,37.577 67.934,58.255" stroke="#000" stroke-miterlimit="10" stroke-width="4"></path>
<path d="m631.86,1519.847c-37.452-43.171 22.684-79.654 62.954-62.954 22.52,9.339 24.518,28.451 39.412,46.161 14.518,17.264 43.224,15.055 64.459,13.87 51.76-2.885 106.696-4.411 157.527,2.923 9.595,1.385 57.301,16.406 47.325,34.193-4.341,7.74-29.833,2.098-37.194,1.805-14.55-.579-20.279,18.351-33.975,21.075-60.547,12.047-142.485,10.468-204.479-4.125-24.743-5.824-48.667-12.985-67.902-30.078-9.598-8.528-25.061-15.542-31.127-27.37"></path>

<path d="m763.854,1512.347c-9.93-19.783 50.379-15.821 59.663-18.333 26.112-7.063 26.86-36.003 20.999-57.829-5.407-20.139-11.963-46.026-21.754-65.242-9.312-18.276-30.643-33.004-34.987-53.509-3.239-15.289-1.683-21.059-12.333-34.61-8.185-10.414-15.39-21.469-21.676-32.963-11.52-21.062-21.416-44.629-10.911-68.997 8.741-20.275 26.477-43.668 44.998-56.997 23.391-16.835 31.663-26.614 56.998-10.833 16.158,10.065 44.038,19.796 53.586,36.666 14.218,25.12-20.41,40.045-36.676,51.034-19.985,13.503-22.015,39.954-4.874,57.827 13.603,14.183 47.779,31.538 18.224,45.559-3.11,19.902 10.357,38.549 17.369,55.604 7.23,17.587 10.207,36.681 18.362,53.552 8.854,18.319 24.033,25.659 30.004,45.075 5.718,18.594 15.241,43.321 13.488,64.6-32.646-1.465-66.934-4.894-100.78-4.901-17.479-.004-35.795-1.265-53.701-1.201-8.704.03-33.302,7.078-37.648.005"></path>
<path d="m817.851,1096.868c-22.398-13.607 15.786-31.172 24.333-37.164 8.44-5.918 11.65-11.159 22.165-11.999 8.715-.696 22.539,3.411 31.498,5.298 21.104,4.443 40.42,10.748 62.997,14.201 22.866,3.497 43.781.104 65.811-1.567-6.573,19.915-29.889,31.673-44.807,45.065-8.36,7.506-14.149,16.535-20.627,25.498-7.464,10.325-12.238,10.945-22.542,18-11.417,7.816-13.197,14.324-28.827,10.493-10.861-2.661-19.022-9.223-28.427-15.661-18.584-12.724-49.838-31.299-61.945-50.287-1.345-2.108-1.733-2.643-2.629-4.876"></path>
<path d="m541.865,1186.864c-7.734,7.213-21.928,20.463-34.237,25.761-4.181,12.438-27.986,24.202-39.67,18.148-8.109-4.201-7.782-13.87-13.016-18.405-6.038-5.23-16.334-5.091-22.417-10.206 2.808-.229 4.849-1.679 6.814-2.138-6.944-6.216-14.813-8.901-23.353-10.488 2.854-.512 5.756-3.942 8.281-5.344-8.354-5.884-32.062-4.453-33.628-19.571 35.234-23.943 78.073-42.839 118.305-58.748 24.755-9.789 49.025-18.943 73.05-31.498 26.468-13.83 52.585-35.4 76.752-53.965 18.245-14.016 39.102-19.817 58.566-30.413 16.472-8.966 30.446-22.758 46.135-32.921 15.567-10.084 30.513-15.986 48.403-20.743 25.234-6.709 71.015-1.682 88.937-20.801-4.126,18.737 25.498,46.482 33.759,62.832 9.707,19.214 9.635,44.816 6.037,65.746-12.715,5.032-22.31-1.985-34.231-4.32-14.79-2.898-31.489-2.901-46.498-4.417-29.297-2.96-48.327,8.112-70.173,25.494-42.309,33.664-98.849,37.866-145.856,59.668-24.941,11.568-17.475,38.391-40.463,51.409-15.764,8.929-46.898,22.013-64.497,16.422"></path>
<path d="m892.847,925.877c5.577-5.067 21.355-2.421 31.499-3.333 12.407-1.117 24.1-6.019 35.998-8.709 25.173-5.692 49.351-5.554 74.996-2.957 26.658,2.7 34.907,10.554 46.497,34.576 4.271,8.853 9.55,18.13 10.166,28.421 .788,13.139 3.587,22.819 4.869,35.998 1.435,14.759-4.727,48.748-13.129,60.403-16.116,22.352-31.49-15.86-51.398-9.072-11.038,3.763-13.601,11.069-27.004,11.666-12.143.54-22.002-2.78-33.079,1.103-19.213,6.734-48.113-22.17-58.421-9.958-8.038-6.585-38.086-7.19-34.271-23.844 .832-3.633 12.889-8.505 15.111-10.43 7.003-6.063 9.796-8.341 11.666-18.667 3.084-17.03-1.704-41.406-7.166-56.733-3.321-9.318-16.157-25.708-7.834-32.964"></path>
<path d="m892.847,931.876c-8.62-8.486-7.445-27.769-12.405-38.993-4.088-9.252-9.956-16.69-18.004-23.666-7.415-6.426-16.021-12.678-25.171-15.255-10.904-3.072-27.155,2.212-37.45-3.005-8.758-4.439-13.839-20.101-11.708-30.154 2.763-13.035 11.5-14.369 23.742-14.921 27.609-1.247 46.702.285 73.497-7.873 25.527-7.772 50.408-12.024 75.079-1.543 11.366,4.83 20.068,9.218 31.492,12.338 9.534,2.604 23.776,5.906 30.293,14.706 2.036,2.749 5.045,10.399 4.197,13.836-2.747,11.139-6.99,4.583-13.568,9.034-13.504,9.137-5.29,7.09 5.704,17.961 15.432,15.26 37.503,31.37 51.253,48.075 7.09,8.614 24.535,31.363 17.777,41.619-7.533,11.433-45.433,7.838-57.074,7.838-28.471,0-52.017-7.883-79.496-13.873-14.281-3.113-44.924-4.201-52.414-17.369-3.554-.244-4.403-1.701-7.244-3.256"></path>
<path d="m679.858,897.378c-20.653,15.588-37.264,38.786-52.874,59.925-7.19,9.737-15.181,22.11-24.004,29.654-4.604,3.938-7.403,10.044-14.695,7.989-7.992-2.253-6.547-9.418-.454-12.149-16.995.816-71.125-5.94-70.115-29.838 .409-9.682 19.413-23.943 25.272-31.993 6.936-9.529 14.096-23.836 25.614-28.349 3.232-13.945-17.187-8.553-9.11-24.108 4.438-8.547 20.943-13.385 28.87-16.128 20.552-7.111 41.989-10.102 60.035-23.628 43.017-32.243 94.083-52.404 132.254-88.794 27.882-26.581 80.79-79.718 122.66-58.98 24.686,12.226 28.068,39.68 31.61,63.408 3.6,24.113 6.991,51.148-19.464,64.115-25.852,12.671-59.015,6.457-87.107,7.882-22.974,1.165-43.176,5.475-62.586,18.375-20.869,13.872-34.443,33.396-54.369,47.25-17.073,11.871-33.521,20.878-49.538,33.37"></path>
<path d="m1018.841,849.38c-.479,1.662 16.151-5.682 31.159-1.126 9.819,2.981 19.877,7.927 28.833,12.797 22.853,12.428 46.367,26.928 70.506,37.493 28.19,12.338 58.976,19.529 87.146,31.91 23.838,10.477 48.949,14.216 72.252,25.79 37.756,18.751 76.364,39.042 113.249,60.045 18.909,10.767 35.41,24.222 54.326,35.248 14.737,8.592 38.117,12.511 49.498,25.229 9.085-18.188 28.512-39.42 25.503-60.894-3.344-23.865-34.979-34.179-55.497-42.075-26.208-10.086-52.643-17.434-79.495-25.726-49.557-15.302-104.681-19.344-143.873-54.842-22.021-19.945-15.098-26.732-30.688-30.945-25.271-6.831-98.441-30.699-85.833-30.667 13.174.034 50.977-7.156 62.737-10.284 13.031-3.466 23.121-1.874 37.164-.486 23.34,2.307 48.582,1.837 72.001,6.368 28.272,5.471 57.729.941 85.491,7.166 28.128,6.307 55.107,12.093 83.995,13.499 18.279.89 53.55,4.775 64.796-11.772 14.379,4.52 13.457,35.353 17.289,47.736 4.617,14.918 20.551,28.647 18.148,44.771-7.812,6.867-16.572,3.633-25.236.673-29.483-10.073-60.652-12.497-91.496-17.321-26.731-4.182-52.09-11.7-77.996-17.887-44.791-10.697-90.152-28.956-136.943-24.703-41.354,3.759-155.811-60.593-181.113-72.112-21.23-9.666-46.318-13.978-68.929-19.542-15.735-3.872-70.91-19.023-58.898,15.071 4.645,13.183 24.696,27.963 34.904,37.082"></path>
<path d="m214.881,852.38c26.309-3.593 42.355,13.52 61.497,28.493 24.235,18.957 42.993,32.84 74.996,34.504 28.469,1.48 52.975-3.501 79.574-10.868 24.448-6.771 46.587-21.393 70.752-29.301 19.271-6.308 42.55-17.83 59.664-29.161 28.546-18.901 7.202-42.776-14.994-57.785-18.525-12.526-52.825-24.312-59.997,2.621-7.352,27.608-22.166,35.179-46.836,49.204-21.873,12.434-46.8,24.262-73.497,24.328-31.413.077-60.636-24.912-82.162-44.955-25.343-23.598-96.814-91.447-118.868-33.449-15.043,39.56 20.408,79.446 60.371,67.87"></path>
<path d="m630.36,808.882c-15.243,14.66-40.793,24.069-60.325,28.17-22.363,4.696-40.436-14.289-58.537-26.337-20.09-13.372-27.265-25.842-11.255-44.955 11.748-14.024 26.465-33.212 29.657-51.339 3.479-19.763-5.502-43.227-4.273-64.339 1.342,1.062 8.33-17.097 11.738-30.19 3.593-13.805 5.399-28.697 25.242-16.243 2.947,25.642 26.374,18.285 35.011,38.476 16.811-5.341 45.743,11.578 47.998,31.498 8.167-.376 14.422-12.449 20.67-18.031 10.352-9.248 19.478-11.078 31.57-16.166 20.616-8.674 40.542-24.91 61.866-29.665 28.737-6.409 48.486,14.68 58.54,40.124 5.188,13.13 9.092,26.02 15.711,39.003 5.78,11.337 15.88,28.928 13.953,41.998-4.412,29.932-35.301,16.188-52.574,13.5-18.876-2.937-43.595,3.148-60.04,13.128-20.583,12.491-36.705,23.75-59.581,32.243-16.046,5.958-33.314,16.215-49.871,20.625"></path>
<path d="m625.861,1584.342c-8.891,19.294-10.033,51.023.333,70.198 6.868,12.703 11.578,16.492 2.701,29.963-5.138,7.798-15.044,16.643-22.828,22.462-17.651,13.198-38.83,15.902-51.83,35.243-11.94,17.763-13.732,39.646-20.201,59.289-4.62,14.03-9.946,9.902-18.872,18.221-7,6.523-8.915,19.119-12.298,27.111-7.541,17.812-10.094,35.812-14.67,53.997-9.68,38.462-23.992,83.775-13.94,123.938 20.247.358 43.211,10.751 64.687,9.598 34.068-1.829 764.393,6.414 771.398,3.411 3.857-24.782 2.255-50.137-.479-76.95-1.742-17.084-6.593-33.758-10.612-50.698-3.458-14.571-2.346-31.438-7.427-45.297-10.148-27.677-38.236-21.864-50.659-43.503-6.209-10.815-9.201-23.597-16.462-34.53-9.917-14.935-19.294-18.109-33.03-27.296-16.699-11.167-45.461-37.659-51.336-55.163-3.252-9.688-3.597-25.854-2.666-35.998 .496-5.417 5.176-12.057 5.361-16.833 .226-5.821-5.363-13.333-4.303-19.165 4.671-25.685 39.807-21.103 39.105-50.998-.612-26.098-40.362-21.74-57.325-26.587-31.371-8.964-55.889,10.068-86.967,11.588-34.091,1.666-67.213,8.624-101.173,10.577-24.917,1.434-44.488-3.189-66.752-7.5-32.826-6.354-69.713,3.107-103.001,4.423-20.234.8-38.519,2.32-58.758,1.5-15.146-.613-33.554-11.463-48.064-6.406-10.597,3.693-17.196,12.501-29.753,14.239 1.427,2.018-.165.71-1.679,1.166"></path>
<path d="m389.956,701.114c-13.793,6.668-16.58-11.912-22.083-19.726-6.54-9.286-16.331-16.071-22.87-25.461-13.638-19.585-27.004-40.33-39.753-60.408-22.201-34.967-22.604-94.662 28.16-103.121 22.412-3.735 45.328,8.333 57.339,28.456 5.349,8.961 9.823,20.297 14.289,30.119 5.803,12.764 3.169,16.14-.827,28.76-17.214,54.356 32.963,84.086 74.663,104.693 21.004,10.38 48.156,18.32 63.325,37.127 9.968,12.358 2.748,22.183-5.129,36.41-5.917,10.687-11.773,20.347-22.12,25.503-25.451,12.687-35.344-14.13-53.741-28.992-19.072-15.408-42.84-25.988-60.709-41.547-2.223-1.936-3.793-3.711-5.626-6.04"></path>
<path d="m763.478,576.017c4.062-4.842 19.616-11.576 21.41-16.421 7.925-21.41-42.468-29.824-54.032-30.871-26.784-2.425-48.447-4.232-73.497,1.089-12.73,2.704-29.032,3.129-41.998,3.083-16.855-.061-18.292,4.056-31.461,10.238-15.891,7.46-36.378,7.55-52.903,5.13-15.289-2.24-39.378-.31-48.791-15.741-8.895-14.583-2.302-32.752 13.204-37.082 16.469-4.599 30.307,5.402 44.693,10.265 .166-5.867 4.568-14.083 3.286-19.312-1.649-6.723-8.908-10.083-12.023-16.417-6.602-13.42-1.068-27.674 11.593-33.516 16.237-7.493 23.111,3.387 35.238,12.439 18.389,13.727 17.395,1.023 27.938-10.088-12.625-13.498-42.372-38.968-10.233-51.446 22.859-8.875 33.72,22.569 55.195,14.815 5.992-17.551-21.365-25.552-12.106-40.693 7.228-11.819 36.224-14.096 46.64-8.81-4.376-9.643-11.92-19.186-1.642-27.14 7.204-5.576 24.646-3.422 31.91.331 11.271,5.823 12.004,14.848 24.034,19.537 10.812,4.213 22.568,1.973 32.771,8.768-9.691-22.125-19.915-33.126-11.933-58.271 6.002-18.907 18.958-38.037 16.916-58.492-.779-7.804-8.479-25.059-6.029-31.827 2.411-6.66 17.65-13.654 25.16-16.21 29.726-10.118 71.636-11.975 103.303-10.232-2.181,15.169 14.478,27.299 22.686,36.145 14.493,15.62 15.195,23.307 19.462,43.202 2.964,13.821 12.881,27.037 12.071,41.92-.922,16.944-13.125,31.237-10.189,49.349 12.408-1.975 15.904-36.046 23.282-46.76 10.192-14.801 33.344-22.276 46.532-7.123 8.619,9.902 1.595,14.962 16.911,16.568 8.755.918 16.718-7.416 25.087.264 14.408,13.222-.542,39.694 15.787,53.509 9.017-5.976 6.402-20.215 17.922-24.976 8.458-3.496 23.002,1.837 28.571,9.832 7.851,11.269.028,15.736-4.572,26.131-2.874,6.493-9.292,24.8 4.129,25.307 8.618.325 14.723-20.822 22.536-25.312 11.814-6.79 18.889-1.954 28.832,3.872 31.465,18.437-1.985,25.797-12.376,46.754-15.378,31.017 30.977,39.808 45.075,21.076 7.706-10.24 4.359-21.717 20.964-22.499 10.664-.502 20.331,5.873 23.999,14.964 7.87,19.508-21.994,44.167-37.503,49.861-23.769,8.725-50.668,4.636-74.991,7.093-28.617,2.891-58.725-2.023-85.824,5.667-12.271,3.482-21.958,11.719-32.67,18.071-11.284,6.691-20.271,5.674-32.998,7.838-31.761,5.402 4.666,37.606 18.076,49.159 10.873,9.367 22.329,16.377 26.51,30.337 4.054,13.536 2.36,28.911 3.745,43.169 2.041,21.017 8.653,58.597.838,79.49-3.086,8.248-13.283,15.816-18.837,24.368-7.725,11.894-19.812,28.383-33.581,33.807-29.728,11.709-38.172,4.12-65.333-3.449-5.419-1.51-10.354-37.548-15.414-39.32-7.997-2.8-12.067-10.05-19.804-13.644-10.282-4.777-21.698-2.464-31.179-9.261-7.405-5.31-13.471-14.771-20.25-21.074-31.73-29.497-63.354-87.861-81.02-104.499"></path>
<path d="m1113.336,651.39c17.632,11.264 24.829,32.472 37.498,48.075 13.722,16.899 25.614,36.315 47.96,26.55 24.453-10.687 39.57-33.1 59.957-49.455 18.502-14.842 32.225-29.875 46.909-47.258 9.167-10.852 6.122-24.728 10.209-37.909 4.037-13.022 11.219-22.069 21.29-31.13 9.68-8.709 21.87-15.141 30.035-25.496 8.153-10.34 8.968-23.812 16.499-34.904 12.677-18.671 35.422-40.509 55.46-21.37 21.892,20.909 35.515,55.459 45.787,82.945 7.131,19.077 21.723,48.429 7.842,65.954-6.243,7.883-15.393,10.483-23.596,15.373-8.829,5.264-15.077,13.201-24.367,17.292-20.722,9.125-46.039,1.321-67.83,7.5-12.307,3.489-11.153,3.403-17.661,12.338-4.624,6.35-4.854,11.599-13.461,16.865-7.116,4.354-15.055,4.268-21.376,8.188-9.281,5.757-15.799,17.881-24.831,24.886-25.142,19.497-53.907,57.233-62.086,87.793-15.828,6.836-57.424-17.631-71.746-26.705-11.168-7.075-22.221-19.45-34.827-23.663-13.038-4.357-18.67,2.818-29.587,2.548-12.843-.317-18.141-11.781-28.653-17.545-9.463-5.188-21.141-7.937-31.421-12.37-25.351-10.933-28.651-22.809-29.999-52.169-.672-14.624-.933-28.791-1.465-43.42-.396-10.872-6.151-29.417-3.03-39.404 6.671-21.341 41.353,3.798 53.993,11.994"></path>
<path d="m1151.488,831.981c1.118.297 2.932-.287 4.318-.18 3.4.263 6.607.167 10.117-.196 7.481-.776 14.707-1.94 22.258-2.016 7.129-.071 14.074.275 21.183,1.018 6.089.637 12.289,2.353 17.797,5.009 4.445,2.144 7.373,5.057 10.817,8.514 6.389,6.411 17.168,15.577 14.516,25.833-2.453,9.491-14.923,12.167-23.477,12.153-9.517-.016-19.496-1.911-28.267-5.596-10.106-4.246-19.868-8.521-27.885-16.131-5.104-4.846-9.735-9.754-15.796-13.447-2.448-1.492-5.049-2.754-6.574-5.208-1.027-1.654-1.87-3.57-2.326-5.471-.481-2.008-.703-2.667 1.422-3.217 .812-.21 2.201-.849 2.93-.723"></path>
</svg>
