<?xml version="1.0" encoding="UTF-8" standalone="no"?>
<svg viewBox="0 0 360.07935 432.87042" xmlns="http://www.w3.org/2000/svg">
<g transform="translate(-333.63024,-72.07869)">
<path d="m343.01587,495.29573c-11.29611-1.44318-10.54415-15.57069-7.26325-28.8488 .13014-.52664.30841-2.10655.39619-3.51091 .18233-2.91732 8.11774-11.24442 13.2845-13.94021l12.40899-2.43803c9.12383-2.46475 17.21264-7.67433 26.23838-10.33437 3.47455-.66472 9.56272-2.64931 13.52926-4.4102s10.4298-4.13704 14.36282-5.28041c10.47568-.92892 13.43528-7.16753 8.10212-14.87533-6.104-10.41606-4.15915-15.8633-11.59932-23.96756-3.91685-5.91876-4.30641-12.48052-2.06208-34.73362 1.39021-13.78425 1.59264-15.06563 3.70202-23.43496 .7079-2.80873 1.34119-8.55386 1.40729-12.76696 2.43362-13.79806 1.34847-40.17695 13.71937-43.37425 19.72394-5.09772 39.83139-18.63748 56.91509-24.17646 11.66448-7.0057 3.30509-22.67304-3.68129-39.03998l-1.46938-1.47105c2.01824,30.67765-.76496,33.17001-2.53076,30.19401-.61422-1.03518-2.87791-1.71064-2.26177-11.82014 .67525-11.07919.40813-13.50054-2.42957-22.02299-3.72784-11.19582-3.38475-14.43674-4.5842-17.87374l-1.6602-4.75723c-1.57904-3.27152.44517-6.7341 3.93518-6.73146 1.82101.00138 2.02398-1.7531 1.64183-14.19176-.34645-11.27677.02817-15.40886 1.82306-20.10872 3.07568-8.20954 9.11641-10.91502 14.83442-14.07271 1.65512-.62928 4.27534-3.74332 5.91914-7.03471l4.472-10.6223c2.64933-11.17912 7.1106-24.67566 9.87608-36.10702 .98383-4.2757 1.74978,2.01801 2.3949,3.52824 1.36841,2.48456 6.49418,21.16516 9.01578,32.85759 2.13215,9.88659 5.58612,15.60097 10.72847,17.74959 6.51617,2.72262 13.15456,9.33338 15.47574,15.41128 1.75412,4.59307 1.98478,8.12424 1.29034,19.75237-.46509,7.78769-.38359,14.08101.18113,13.98517 3.96126-.67232 4.49284.23197 3.60737,6.1367-.49557,3.30473-2.36909,10.91703-4.16338,16.91622-2.49315,8.33582-3.3518,14.36381-3.64182,25.56612-.20872,8.06217-.89951,14.83182-1.5351,15.04369-2.40873.80291-4.52038-3.91597-4.89199-10.93209-.21206-4.00391-.42913-7.56709-.48238-7.91819s-.98274.99663-2.06559,2.99491c-5.57856,10.29473-2.76069,22.394 4.62256,26.36909 25.15405,9.63812 38.25466,5.99341 50.6112,16.92621 4.56502,4.00815 8.39957,10.43923 9.86727,16.54876 1.13048,4.7059 5.19704,35.94129 8.52346,65.46895 3.0722,27.2711 2.73487,34.37894-2.17633,45.85801-1.82677,4.26976-3.26434,9.41184-3.19459,11.42683 3.3156,17.18246 10.20029,21.36874 28.07625,23.80139 5.14717.70427 10.43956,1.85905 11.76085,2.56617s7.89416,2.41569 14.60637,3.79678c24.80219,5.10324 33.79036,13.31192 34.8629,31.83949 .50086,8.65208.18224,10.54998-2.73908,16.31493-101.93396,21.89605-225.11501,25.41278-347.76024,9.74367zm122.9154-107.59362c4.18519-21.36782 4.0437-25.28783-1.38578-38.392-2.47296-5.96855-4.71544-11.79021-4.98329-12.93702-.67565-2.89287-5.87702-12.94344-6.41799-12.40145-.24314.2436-1.606,6.47536-3.02861,13.84835s-3.7689,18.71354-5.214,25.20121-2.62747,13.22011-2.62747,14.96096 2.21132,6.48666 4.91404,10.54626 6.82928,10.46751 9.17012,14.23982c5.13084,8.26844 4.94543,8.56026 9.57298-15.06613z"/>
</g>
</svg>
