<?xml version="1.0" encoding="utf-8"?>
<!-- Generator: Adobe Illustrator 16.0.0, SVG Export Plug-In . SVG Version: 6.00 Build 0)  -->
<!DOCTYPE svg PUBLIC "-//W3C//DTD SVG 1.1//EN" "http://www.w3.org/Graphics/SVG/1.1/DTD/svg11.dtd">
<svg version="1.1" xmlns="http://www.w3.org/2000/svg" xmlns:xlink="http://www.w3.org/1999/xlink" x="0px" y="0px" width="596px"
	 height="183px" viewBox="0 0 596 183" enable-background="new 0 0 596 183" xml:space="preserve">
<g id="Layer_1" display="none">
	<image display="inline" overflow="visible" width="596" height="183" xlink:href="solution-icon.png" >
	</image>
</g>
<g id="Layer_2">
	<path fill="none" stroke="#3B3B3B" stroke-width="1.5" stroke-miterlimit="10" d="M141.833,54.167c0,0-7.083,3.75-12.5,0.417
		c0,0-7.333-2.833-2.75-12.083c0,0,8-8.917-3.5-9.167c0,0-12-1.667-4.333-14.5c0,0,4.75-6.5,16.583-6.417
		c0,0,10.333-0.833,18.333,11.417c0,0,4.083,10.165,1.083,19.082C154.75,42.915,151.333,49.833,141.833,54.167z"/>
	<path fill="none" stroke="#3B3B3B" stroke-width="1.5" stroke-miterlimit="10" d="M128,22.5c0,1.519-1.231,2.75-2.75,2.75l0,0
		c-1.519,0-2.75-1.231-2.75-2.75l0,0c0-1.519,1.231-2.75,2.75-2.75l0,0C126.769,19.75,128,20.981,128,22.5L128,22.5z"/>
	<path fill="none" stroke="#3B3B3B" stroke-width="1.5" stroke-miterlimit="10" d="M138,19.5c0,1.519-1.231,2.75-2.75,2.75l0,0
		c-1.519,0-2.75-1.231-2.75-2.75l0,0c0-1.519,1.231-2.75,2.75-2.75l0,0C136.769,16.75,138,17.981,138,19.5L138,19.5z"/>
	<path fill="none" stroke="#3B3B3B" stroke-width="1.5" stroke-miterlimit="10" d="M148,22.5c0,1.519-1.231,2.75-2.75,2.75l0,0
		c-1.519,0-2.75-1.231-2.75-2.75l0,0c0-1.519,1.231-2.75,2.75-2.75l0,0C146.769,19.75,148,20.981,148,22.5L148,22.5z"/>
	<path fill="none" stroke="#3B3B3B" stroke-width="1.5" stroke-miterlimit="10" d="M151,32.5c0,1.519-1.231,2.75-2.75,2.75l0,0
		c-1.519,0-2.75-1.231-2.75-2.75l0,0c0-1.519,1.231-2.75,2.75-2.75l0,0C149.769,29.75,151,30.981,151,32.5L151,32.5z"/>
	<path fill="none" stroke="#3B3B3B" stroke-width="1.5" stroke-miterlimit="10" d="M148,42.5c0,1.519-1.231,2.75-2.75,2.75l0,0
		c-1.519,0-2.75-1.231-2.75-2.75l0,0c0-1.519,1.231-2.75,2.75-2.75l0,0C146.769,39.75,148,40.981,148,42.5L148,42.5z"/>
	<path fill="none" stroke="#3B3B3B" stroke-width="1.5" stroke-miterlimit="10" d="M135,47.5c0,1.519-1.231,2.75-2.75,2.75l0,0
		c-1.519,0-2.75-1.231-2.75-2.75l0,0c0-1.519,1.231-2.75,2.75-2.75l0,0C133.769,44.75,135,45.981,135,47.5L135,47.5z"/>
	<path fill="none" stroke="#3B3B3B" stroke-width="1.5" stroke-miterlimit="10" d="M145.5,61.875l0.625,4.625
		c0,0-0.75,4-8.125,3.625c0,0-0.75-6.5,2.375-8.25l4.875,0.5l2.75-0.5l7.453-6.763l19.422-19.862l1.5-3.375L172.5,32.5
		l-19.869,19.504l-7.381,7.246L145.5,61.875z"/>
	
		<line fill="none" stroke="#3B3B3B" stroke-width="1.5" stroke-miterlimit="10" x1="152.631" y1="52.004" x2="155.851" y2="54.705"/>
	<path fill="none" stroke="#3B3B3B" stroke-width="1.5" stroke-miterlimit="10" d="M207.833,67.417v-8.5c0,0,1.5-3.166,4.75-2.583
		c0,0,3.083,0.833,3.333,2.417v8.667c0,0-1.083,3-4.042,2.833C211.875,70.25,209,70.25,207.833,67.417z"/>
	
		<line fill="none" stroke="#3B3B3B" stroke-width="1.5" stroke-miterlimit="10" x1="211.875" y1="60.417" x2="215.917" y2="60.417"/>
	
		<line fill="none" stroke="#3B3B3B" stroke-width="1.5" stroke-miterlimit="10" x1="211.875" y1="63.417" x2="215.917" y2="63.417"/>
	
		<line fill="none" stroke="#3B3B3B" stroke-width="1.5" stroke-miterlimit="10" x1="211.875" y1="66.417" x2="215.917" y2="66.417"/>
	<path fill="none" stroke="#3B3B3B" stroke-width="1.5" stroke-miterlimit="10" d="M268.917,67.417v-8.5c0,0-1.5-3.166-4.75-2.583
		c0,0-3.083,0.833-3.333,2.417v8.667c0,0,1.083,3,4.042,2.833C264.875,70.25,267.75,70.25,268.917,67.417z"/>
	
		<line fill="none" stroke="#3B3B3B" stroke-width="1.5" stroke-miterlimit="10" x1="264.875" y1="60.417" x2="260.833" y2="60.417"/>
	
		<line fill="none" stroke="#3B3B3B" stroke-width="1.5" stroke-miterlimit="10" x1="264.875" y1="63.417" x2="260.833" y2="63.417"/>
	
		<line fill="none" stroke="#3B3B3B" stroke-width="1.5" stroke-miterlimit="10" x1="264.875" y1="66.417" x2="260.833" y2="66.417"/>
	<line fill="none" stroke="#3B3B3B" stroke-width="1.5" stroke-miterlimit="10" x1="218" y1="63.417" x2="258.75" y2="63.417"/>
	
		<rect x="221.167" y="63.417" fill="none" stroke="#3B3B3B" stroke-width="1.5" stroke-miterlimit="10" width="34.083" height="6.84"/>
	
		<line fill="none" stroke="#3B3B3B" stroke-width="1.5" stroke-miterlimit="10" x1="237.917" y1="63.417" x2="237.917" y2="70.257"/>
	<polyline fill="none" stroke="#3B3B3B" stroke-width="1.5" stroke-miterlimit="10" points="218.625,61.625 218.625,55.125 
		257.875,55.125 257.875,61.625 	"/>
	<path fill="none" stroke="#3B3B3B" stroke-width="1.5" stroke-miterlimit="10" d="M244.708,59.104c0,0.564-0.457,1.021-1.021,1.021
		h-10.334c-0.563,0-1.021-0.457-1.021-1.021l0,0c0-0.563,0.457-1.021,1.021-1.021h10.334
		C244.251,58.083,244.708,58.541,244.708,59.104L244.708,59.104z"/>
	<path fill="none" stroke="#3B3B3B" stroke-width="1.5" stroke-miterlimit="10" d="M226.75,59.292c0,1.127-0.914,2.042-2.042,2.042
		l0,0c-1.127,0-2.042-0.914-2.042-2.042l0,0c0-1.127,0.914-2.042,2.042-2.042l0,0C225.835,57.25,226.75,58.165,226.75,59.292
		L226.75,59.292z"/>
	<path fill="none" stroke="#3B3B3B" stroke-width="1.5" stroke-miterlimit="10" d="M253.75,59.292c0,1.127-0.914,2.042-2.042,2.042
		l0,0c-1.127,0-2.042-0.914-2.042-2.042l0,0c0-1.127,0.914-2.042,2.042-2.042l0,0C252.835,57.25,253.75,58.165,253.75,59.292
		L253.75,59.292z"/>
	<path fill="none" stroke="#3B3B3B" stroke-width="1.5" stroke-miterlimit="10" d="M216.75,53.375c0,0,5-9.125,11.875-11.125v3.125
		l1.75-0.75l2.875-0.375"/>
	<path fill="none" stroke="#3B3B3B" stroke-width="1.5" stroke-miterlimit="10" d="M260.25,53.375c0,0-5-9.125-11.875-11.125v3.125
		l-1.75-0.75l-2.875-0.375"/>
	<line fill="none" stroke="#3B3B3B" stroke-width="1.5" stroke-miterlimit="10" x1="238.208" y1="47" x2="238.208" y2="52.5"/>
	<polyline fill="none" stroke="#3B3B3B" stroke-width="1.5" stroke-miterlimit="10" points="236.125,35.625 238.688,35.625 
		238.688,30.625 	"/>
	<path fill="none" stroke="#3B3B3B" stroke-width="1.5" stroke-miterlimit="10" d="M242.125,42.25c0,0-3.5,3-7.75,0
		c0,0-2.75-1.75-5.125-7.75c0,0-0.875-1.375-3.125-3.25c0,0-1.479-3.17,1.391-3.681c0.252-0.044,0.537-0.069,0.859-0.069l-0.25-2.75
		L225.744,24c0,0,1.715-8.585,11.381-10c0,0,5.167-1.003,8.5,1.375c0,0,4.958,3.663,5.792,9l-2.5,1.125l0.917,2.792H247.5h4.375
		c0,0,0.875,2.583-4.125,5.583C247.75,33.875,246.875,38.875,242.125,42.25z"/>
	
		<line fill="none" stroke="#3B3B3B" stroke-width="1.5" stroke-miterlimit="10" x1="228.417" y1="25.706" x2="249.068" y2="25.432"/>
	<path fill="none" stroke="#3B3B3B" stroke-width="1.5" stroke-miterlimit="10" d="M233.25,21.248c0,0,4.542,3.458,10.042,0"/>
	<line fill="none" stroke="#3B3B3B" stroke-width="1.5" stroke-miterlimit="10" x1="235.917" y1="16.788" x2="235.917" y2="11.08"/>
	<line fill="none" stroke="#3B3B3B" stroke-width="1.5" stroke-miterlimit="10" x1="240.917" y1="16.788" x2="240.917" y2="11.08"/>
	<path fill="none" stroke="#3B3B3B" stroke-width="1.5" stroke-miterlimit="10" d="M333.167,60.5h-19.333V17
		c0,0-0.168-4.833,3.666-5.167h23c0,0,3.667,0,3.667,4.667v33.833"/>
	
		<line fill="none" stroke="#3B3B3B" stroke-width="1.5" stroke-miterlimit="10" x1="313.834" y1="17.667" x2="344.167" y2="17.667"/>
	<rect x="318.5" y="22.333" fill="none" stroke="#3B3B3B" stroke-width="1.5" stroke-miterlimit="10" width="8.5" height="9.167"/>
	
		<line fill="none" stroke="#3B3B3B" stroke-width="1.5" stroke-miterlimit="10" x1="317.834" y1="36.167" x2="339.167" y2="36.167"/>
	
		<line fill="none" stroke="#3B3B3B" stroke-width="1.5" stroke-miterlimit="10" x1="317.834" y1="42.167" x2="339.167" y2="42.167"/>
	
		<line fill="none" stroke="#3B3B3B" stroke-width="1.5" stroke-miterlimit="10" x1="317.834" y1="48.167" x2="332.167" y2="48.167"/>
	<path fill="none" stroke="#3B3B3B" stroke-width="1.5" stroke-miterlimit="10" d="M313.834,60.5v4.333c0,0-0.053,3.838,4.666,3.833
		h22.834"/>
	<path fill="none" stroke="#3B3B3B" stroke-width="1.5" stroke-miterlimit="10" d="M355.938,59.563
		c-0.938-4.313-5.25-5.938-5.25-5.938c-4.75-1.438-7.313,1.313-7.313,1.313l-5.438-8.438c-3.75-1.938-2.313,2.063-2.313,2.063
		l7.313,12.75c0.771,2.896-1.938,1.354-1.938,1.354l-1.833-1.75C334,57,335.354,60.5,335.354,60.5s2.313,2.5,5.979,6.25
		s10.333,4.917,10.333,4.917l5.896-5.854C357.563,65.813,355.906,61.969,355.938,59.563z"/>
	<line fill="none" stroke="#3B3B3B" stroke-width="1.5" stroke-miterlimit="10" x1="424" y1="33.125" x2="419" y2="28.687"/>
	<circle fill="none" stroke="#3B3B3B" stroke-width="1.5" stroke-miterlimit="10" cx="415.686" cy="25.071" r="4.814"/>
	
		<line fill="none" stroke="#3B3B3B" stroke-width="1.5" stroke-miterlimit="10" x1="449.633" y1="44.751" x2="456.318" y2="44.705"/>
	<circle fill="none" stroke="#3B3B3B" stroke-width="1.5" stroke-miterlimit="10" cx="461.2" cy="45.176" r="4.814"/>
	<line fill="none" stroke="#3B3B3B" stroke-width="1.5" stroke-miterlimit="10" x1="438.14" y1="57.976" x2="438.961" y2="64.611"/>
	<circle fill="none" stroke="#3B3B3B" stroke-width="1.5" stroke-miterlimit="10" cx="439.06" cy="69.514" r="4.815"/>
	<line fill="none" stroke="#3B3B3B" stroke-width="1.5" stroke-miterlimit="10" x1="420.5" y1="47.833" x2="410.686" y2="50.708"/>
	<circle fill="none" stroke="#3B3B3B" stroke-width="1.5" stroke-miterlimit="10" cx="405.869" cy="51.629" r="4.815"/>
	
		<line fill="none" stroke="#3B3B3B" stroke-width="1.5" stroke-miterlimit="10" x1="441.833" y1="30.906" x2="447.759" y2="20.593"/>
	<circle fill="none" stroke="#3B3B3B" stroke-width="1.5" stroke-miterlimit="10" cx="450.709" cy="16.676" r="4.814"/>
	<path fill="none" stroke="#3B3B3B" stroke-width="1.5" stroke-miterlimit="10" d="M445.234,43c0,5.799-4.701,10.5-10.5,10.5l0,0
		c-5.799,0-10.5-4.701-10.5-10.5l0,0c0-5.799,4.701-10.5,10.5-10.5l0,0C440.533,32.5,445.234,37.201,445.234,43L445.234,43z"/>
	<g>
		<g id="Profile_2_">
			<g>
				<path fill="#3B3B3B" stroke="#3B3B3B" stroke-width="0.5" stroke-miterlimit="10" d="M434.873,43.849
					c2.065,0,3.48-1.496,3.48-3.48v-1.988c0-1.984-1.415-3.48-3.48-3.48s-3.48,1.496-3.48,3.48v1.988
					C431.393,42.353,432.808,43.849,434.873,43.849z M432.388,38.381c0-1.397,1.032-2.486,2.485-2.486s2.485,1.089,2.485,2.486
					v1.988c0,1.397-1.032,2.486-2.485,2.486s-2.485-1.088-2.485-2.486V38.381z M438.403,42.352l-0.123-0.041l-0.061,0.111
					c-0.126,0.229-0.278,0.45-0.451,0.659l-0.143,0.171l0.219,0.06c1.606,0.442,2.893,2.936,2.959,4.518h-11.862
					c0.067-1.583,1.206-4.075,2.813-4.518l0.219-0.06l-0.142-0.171c-0.174-0.21-0.326-0.432-0.451-0.661l-0.062-0.11l-0.122,0.042
					c-2.013,0.667-3.283,3.439-3.283,5.477v0.991h13.92v-0.991C441.833,45.791,440.415,43.019,438.403,42.352z"/>
			</g>
		</g>
	</g>
	<path fill="none" stroke="#3B3B3B" stroke-width="1.5" stroke-miterlimit="10" d="M526.334,56.333l8.667-1
		c0,0,3.666,7.5,4.333,11.5l-5.5,2.833c0,0,0.291-6.917-5.334-11.354L526.334,56.333z"/>
	<path fill="none" stroke="#3B3B3B" stroke-width="1.5" stroke-miterlimit="10" d="M517.418,50.792l-2.229-6.208
		c0,0-1.229,0.208-2.729,1.813c0,0-1.063,2.833,1.625,4.667C514.085,51.063,515.418,51.896,517.418,50.792z"/>
	<path fill="none" stroke="#3B3B3B" stroke-width="1.5" stroke-miterlimit="10" d="M521.438,52.938L518.063,41.5
		c0,0,1.979-0.617,12.188-5.563l2.584,8.646l-9.521,2.292l0.188,2.375c0,0,8.313-1.864,10.188-1.276v2.776
		C533.688,50.75,526.625,51.25,521.438,52.938z"/>
	<path fill="none" stroke="#3B3B3B" stroke-width="1.5" stroke-miterlimit="10" d="M533.25,34.917c0,0,13.75-7.916,18.583-12.333
		c0,0,0.917,12.75,7.833,28.781c0,0-10.916-1.781-22.333-1.448l-0.5-3l18.25,0.167l-0.5-3.646c0,0-14.669,0.674-18.583,1
		l-2.75-9.188V34.917z"/>
	<path fill="none" stroke="#3B3B3B" stroke-width="1.5" stroke-miterlimit="10" d="M553.619,33.05c0,0,5.151-1.863,6.714,2.283
		c0,0,1.688,5.292-4.448,5.923"/>
	<line fill="none" stroke="#3B3B3B" stroke-width="1.5" stroke-miterlimit="10" x1="558.25" y1="19.438" x2="565.125" y2="12.938"/>
	
		<line fill="none" stroke="#3B3B3B" stroke-width="1.5" stroke-miterlimit="10" x1="563.438" y1="26.563" x2="571.813" y2="21.375"/>
	
		<line fill="none" stroke="#3B3B3B" stroke-width="1.5" stroke-miterlimit="10" x1="566.438" y1="34.188" x2="576.063" y2="31.625"/>
	
		<line fill="none" stroke="#3B3B3B" stroke-width="1.5" stroke-miterlimit="10" x1="567.063" y1="42.563" x2="577.875" y2="42.563"/>
	
		<line fill="none" stroke="#3B3B3B" stroke-width="1.5" stroke-miterlimit="10" x1="566.125" y1="50.875" x2="576.063" y2="53.938"/>
	
		<line fill="none" stroke="#3B3B3B" stroke-width="1.5" stroke-miterlimit="10" x1="319.875" y1="64.583" x2="336.125" y2="64.583"/>
	
		<line fill="none" stroke="#3B3B3B" stroke-width="1.5" stroke-miterlimit="10" x1="320.625" y1="14.744" x2="333.167" y2="14.744"/>
	<line fill="none" stroke="#3B3B3B" stroke-width="1.5" stroke-miterlimit="10" x1="337" y1="14.744" x2="339.167" y2="14.744"/>
	<g>
		<g>
			<path fill="#444444" d="M76.436,14.475H49.253v-1.809h-1.644v1.809H20.426v5.152h1.755v27.194h12.343l-4.427,17.39l1.592,0.404
				l2.968-11.656h12.952v7.947h1.644v-7.947h12.95l2.968,11.656l1.594-0.404l-4.427-17.39h12.342V19.627h1.755V14.475z
				 M35.078,51.314l1.142-4.493h11.39v4.493H35.078z M61.785,51.314H49.253v-4.493h11.388L61.785,51.314z M73.037,45.177H23.825
				v-25.55h49.211V45.177z M74.789,17.983H22.071v-1.864h52.718V17.983z"/>
			<polygon fill="#444444" points="34.106,42.196 40.977,35.324 44.923,39.271 63.479,20.713 62.318,19.551 44.923,36.946 
				40.977,33 32.943,41.034 			"/>
		</g>
		<g>
			<path fill="#FFFFFF" stroke="#444444" stroke-width="1.6892" stroke-miterlimit="10" d="M70.373,33.635
				c-2.769,0-5.023-2.252-5.023-5.022c0-2.768,2.254-5.021,5.023-5.021c2.768,0,5.021,2.253,5.021,5.021
				C75.394,31.383,73.14,33.635,70.373,33.635z M61.845,39.218h-8.384c-0.848,0-1.534-0.689-1.534-1.533
				c0-0.846,0.686-1.534,1.534-1.534h16.912c4.217,0,7.649,3.433,7.649,7.648v8.167c0,0.755-0.616,1.371-1.37,1.371
				c-0.697,0-1.258,0.564-1.258,1.258v11.187c0,0.304-0.247,0.551-0.553,0.551h-3.212v-9.974c0-0.695-0.564-1.258-1.257-1.258
				c-0.695,0-1.259,0.563-1.259,1.258v9.974h-3.213c-0.302,0-0.552-0.247-0.552-0.551v-23.06
				C65.349,40.79,63.778,39.218,61.845,39.218z"/>
		</g>
	</g>
	<path fill="none" stroke="#0282C3" stroke-width="1.5" stroke-miterlimit="10" d="M141.833,149.166c0,0-7.083,3.751-12.5,0.418
		c0,0-7.333-2.834-2.75-12.084c0,0,8-8.916-3.5-9.166c0,0-12-1.667-4.333-14.5c0,0,4.75-6.501,16.583-6.418
		c0,0,10.333-0.833,18.333,11.417c0,0,4.083,10.165,1.083,19.081C154.75,137.914,151.333,144.833,141.833,149.166z"/>
	<path fill="none" stroke="#0282C3" stroke-width="1.5" stroke-miterlimit="10" d="M128,117.5c0,1.519-1.231,2.75-2.75,2.75l0,0
		c-1.519,0-2.75-1.231-2.75-2.75l0,0c0-1.519,1.231-2.75,2.75-2.75l0,0C126.769,114.75,128,115.981,128,117.5L128,117.5z"/>
	<path fill="none" stroke="#0282C3" stroke-width="1.5" stroke-miterlimit="10" d="M138,114.5c0,1.519-1.231,2.75-2.75,2.75l0,0
		c-1.519,0-2.75-1.231-2.75-2.75l0,0c0-1.519,1.231-2.75,2.75-2.75l0,0C136.769,111.75,138,112.981,138,114.5L138,114.5z"/>
	<path fill="none" stroke="#0282C3" stroke-width="1.5" stroke-miterlimit="10" d="M148,117.5c0,1.519-1.231,2.75-2.75,2.75l0,0
		c-1.519,0-2.75-1.231-2.75-2.75l0,0c0-1.519,1.231-2.75,2.75-2.75l0,0C146.769,114.75,148,115.981,148,117.5L148,117.5z"/>
	<path fill="none" stroke="#0282C3" stroke-width="1.5" stroke-miterlimit="10" d="M151,127.5c0,1.519-1.231,2.75-2.75,2.75l0,0
		c-1.519,0-2.75-1.231-2.75-2.75l0,0c0-1.519,1.231-2.75,2.75-2.75l0,0C149.769,124.75,151,125.981,151,127.5L151,127.5z"/>
	<path fill="none" stroke="#0282C3" stroke-width="1.5" stroke-miterlimit="10" d="M148,137.5c0,1.519-1.231,2.75-2.75,2.75l0,0
		c-1.519,0-2.75-1.231-2.75-2.75l0,0c0-1.519,1.231-2.75,2.75-2.75l0,0C146.769,134.75,148,135.981,148,137.5L148,137.5z"/>
	<path fill="none" stroke="#0282C3" stroke-width="1.5" stroke-miterlimit="10" d="M135,142.5c0,1.519-1.231,2.75-2.75,2.75l0,0
		c-1.519,0-2.75-1.231-2.75-2.75l0,0c0-1.519,1.231-2.75,2.75-2.75l0,0C133.769,139.75,135,140.981,135,142.5L135,142.5z"/>
	<path fill="none" stroke="#0282C3" stroke-width="1.5" stroke-miterlimit="10" d="M145.5,156.875l0.625,4.625
		c0,0-0.75,4-8.125,3.625c0,0-0.75-6.5,2.375-8.25l4.875,0.5l2.75-0.5l7.453-6.764l19.422-19.861l1.5-3.375L172.5,127.5
		l-19.869,19.504l-7.381,7.246L145.5,156.875z"/>
	
		<line fill="none" stroke="#0282C3" stroke-width="1.5" stroke-miterlimit="10" x1="152.631" y1="147.004" x2="155.851" y2="149.705"/>
	<path fill="none" stroke="#0282C3" stroke-width="1.5" stroke-miterlimit="10" d="M207.833,162.416v-8.5c0,0,1.5-3.166,4.75-2.582
		c0,0,3.083,0.832,3.333,2.416v8.666c0,0-1.083,3-4.042,2.834C211.875,165.25,209,165.25,207.833,162.416z"/>
	
		<line fill="none" stroke="#0282C3" stroke-width="1.5" stroke-miterlimit="10" x1="211.875" y1="155.416" x2="215.917" y2="155.416"/>
	
		<line fill="none" stroke="#0282C3" stroke-width="1.5" stroke-miterlimit="10" x1="211.875" y1="158.416" x2="215.917" y2="158.416"/>
	
		<line fill="none" stroke="#0282C3" stroke-width="1.5" stroke-miterlimit="10" x1="211.875" y1="161.416" x2="215.917" y2="161.416"/>
	<path fill="none" stroke="#0282C3" stroke-width="1.5" stroke-miterlimit="10" d="M268.917,162.416v-8.5c0,0-1.5-3.166-4.75-2.582
		c0,0-3.083,0.832-3.333,2.416v8.666c0,0,1.083,3,4.042,2.834C264.875,165.25,267.75,165.25,268.917,162.416z"/>
	
		<line fill="none" stroke="#0282C3" stroke-width="1.5" stroke-miterlimit="10" x1="264.875" y1="155.416" x2="260.833" y2="155.416"/>
	
		<line fill="none" stroke="#0282C3" stroke-width="1.5" stroke-miterlimit="10" x1="264.875" y1="158.416" x2="260.833" y2="158.416"/>
	
		<line fill="none" stroke="#0282C3" stroke-width="1.5" stroke-miterlimit="10" x1="264.875" y1="161.416" x2="260.833" y2="161.416"/>
	<line fill="none" stroke="#0282C3" stroke-width="1.5" stroke-miterlimit="10" x1="218" y1="158.416" x2="258.75" y2="158.416"/>
	
		<rect x="221.167" y="158.416" fill="none" stroke="#0282C3" stroke-width="1.5" stroke-miterlimit="10" width="34.083" height="6.841"/>
	
		<line fill="none" stroke="#0282C3" stroke-width="1.5" stroke-miterlimit="10" x1="237.917" y1="158.416" x2="237.917" y2="165.257"/>
	<polyline fill="none" stroke="#0282C3" stroke-width="1.5" stroke-miterlimit="10" points="218.625,156.625 218.625,150.125 
		257.875,150.125 257.875,156.625 	"/>
	<path fill="none" stroke="#0282C3" stroke-width="1.5" stroke-miterlimit="10" d="M244.708,154.104
		c0,0.564-0.457,1.021-1.021,1.021h-10.334c-0.563,0-1.021-0.457-1.021-1.021l0,0c0-0.563,0.457-1.02,1.021-1.02h10.334
		C244.251,153.084,244.708,153.541,244.708,154.104L244.708,154.104z"/>
	<path fill="none" stroke="#0282C3" stroke-width="1.5" stroke-miterlimit="10" d="M226.75,154.292c0,1.128-0.914,2.042-2.042,2.042
		l0,0c-1.127,0-2.042-0.914-2.042-2.042l0,0c0-1.128,0.914-2.042,2.042-2.042l0,0C225.835,152.25,226.75,153.164,226.75,154.292
		L226.75,154.292z"/>
	<path fill="none" stroke="#0282C3" stroke-width="1.5" stroke-miterlimit="10" d="M253.75,154.292c0,1.128-0.914,2.042-2.042,2.042
		l0,0c-1.127,0-2.042-0.914-2.042-2.042l0,0c0-1.128,0.914-2.042,2.042-2.042l0,0C252.835,152.25,253.75,153.164,253.75,154.292
		L253.75,154.292z"/>
	<path fill="none" stroke="#0282C3" stroke-width="1.5" stroke-miterlimit="10" d="M216.75,148.375c0,0,5-9.125,11.875-11.125v3.125
		l1.75-0.75l2.875-0.375"/>
	<path fill="none" stroke="#0282C3" stroke-width="1.5" stroke-miterlimit="10" d="M260.25,148.375c0,0-5-9.125-11.875-11.125v3.125
		l-1.75-0.75l-2.875-0.375"/>
	<line fill="none" stroke="#0282C3" stroke-width="1.5" stroke-miterlimit="10" x1="238.208" y1="142" x2="238.208" y2="147.5"/>
	<polyline fill="none" stroke="#0282C3" stroke-width="1.5" stroke-miterlimit="10" points="236.125,130.625 238.688,130.625 
		238.688,125.625 	"/>
	<path fill="none" stroke="#0282C3" stroke-width="1.5" stroke-miterlimit="10" d="M242.125,137.25c0,0-3.5,3-7.75,0
		c0,0-2.75-1.75-5.125-7.75c0,0-0.875-1.375-3.125-3.25c0,0-1.479-3.17,1.391-3.682c0.252-0.044,0.537-0.068,0.859-0.068l-0.25-2.75
		l-2.381-0.75c0,0,1.715-8.586,11.381-10c0,0,5.167-1.004,8.5,1.375c0,0,4.958,3.663,5.792,9l-2.5,1.125l0.917,2.791H247.5h4.375
		c0,0,0.875,2.584-4.125,5.584C247.75,128.875,246.875,133.875,242.125,137.25z"/>
	
		<line fill="none" stroke="#0282C3" stroke-width="1.5" stroke-miterlimit="10" x1="228.417" y1="120.706" x2="249.068" y2="120.432"/>
	<path fill="none" stroke="#0282C3" stroke-width="1.5" stroke-miterlimit="10" d="M233.25,116.248c0,0,4.542,3.459,10.042,0"/>
	
		<line fill="none" stroke="#0282C3" stroke-width="1.5" stroke-miterlimit="10" x1="235.917" y1="111.788" x2="235.917" y2="106.08"/>
	
		<line fill="none" stroke="#0282C3" stroke-width="1.5" stroke-miterlimit="10" x1="240.917" y1="111.788" x2="240.917" y2="106.08"/>
	<path fill="none" stroke="#0282C3" stroke-width="1.5" stroke-miterlimit="10" d="M333.167,155.5h-19.333V112
		c0,0-0.168-4.833,3.666-5.166h23c0,0,3.667,0,3.667,4.666v33.834"/>
	
		<line fill="none" stroke="#0282C3" stroke-width="1.5" stroke-miterlimit="10" x1="313.834" y1="112.667" x2="344.167" y2="112.667"/>
	<rect x="318.5" y="117.334" fill="none" stroke="#0282C3" stroke-width="1.5" stroke-miterlimit="10" width="8.5" height="9.166"/>
	
		<line fill="none" stroke="#0282C3" stroke-width="1.5" stroke-miterlimit="10" x1="317.834" y1="131.167" x2="339.167" y2="131.167"/>
	
		<line fill="none" stroke="#0282C3" stroke-width="1.5" stroke-miterlimit="10" x1="317.834" y1="137.167" x2="339.167" y2="137.167"/>
	
		<line fill="none" stroke="#0282C3" stroke-width="1.5" stroke-miterlimit="10" x1="317.834" y1="143.167" x2="332.167" y2="143.167"/>
	<path fill="none" stroke="#0282C3" stroke-width="1.5" stroke-miterlimit="10" d="M313.834,155.5v4.334
		c0,0-0.053,3.838,4.666,3.833h22.834"/>
	<path fill="none" stroke="#0282C3" stroke-width="1.5" stroke-miterlimit="10" d="M355.938,154.563
		c-0.938-4.313-5.25-5.938-5.25-5.938c-4.75-1.438-7.313,1.313-7.313,1.313l-5.438-8.438c-3.75-1.938-2.313,2.063-2.313,2.063
		l7.313,12.75c0.771,2.896-1.938,1.354-1.938,1.354l-1.833-1.75C334,152,335.354,155.5,335.354,155.5s2.313,2.5,5.979,6.25
		s10.333,4.917,10.333,4.917l5.896-5.854C357.563,160.813,355.906,156.969,355.938,154.563z"/>
	<line fill="none" stroke="#0282C3" stroke-width="1.5" stroke-miterlimit="10" x1="424" y1="128.125" x2="419" y2="123.687"/>
	<circle fill="none" stroke="#0282C3" stroke-width="1.5" stroke-miterlimit="10" cx="415.686" cy="120.071" r="4.814"/>
	
		<line fill="none" stroke="#0282C3" stroke-width="1.5" stroke-miterlimit="10" x1="449.633" y1="139.752" x2="456.318" y2="139.705"/>
	<circle fill="none" stroke="#0282C3" stroke-width="1.5" stroke-miterlimit="10" cx="461.2" cy="140.176" r="4.814"/>
	
		<line fill="none" stroke="#0282C3" stroke-width="1.5" stroke-miterlimit="10" x1="438.14" y1="152.977" x2="438.961" y2="159.611"/>
	<circle fill="none" stroke="#0282C3" stroke-width="1.5" stroke-miterlimit="10" cx="439.06" cy="164.514" r="4.815"/>
	
		<line fill="none" stroke="#0282C3" stroke-width="1.5" stroke-miterlimit="10" x1="420.5" y1="142.834" x2="410.686" y2="145.708"/>
	<circle fill="none" stroke="#0282C3" stroke-width="1.5" stroke-miterlimit="10" cx="405.869" cy="146.629" r="4.815"/>
	
		<line fill="none" stroke="#0282C3" stroke-width="1.5" stroke-miterlimit="10" x1="441.833" y1="125.906" x2="447.759" y2="115.593"/>
	<circle fill="none" stroke="#0282C3" stroke-width="1.5" stroke-miterlimit="10" cx="450.709" cy="111.676" r="4.814"/>
	<path fill="none" stroke="#0282C3" stroke-width="1.5" stroke-miterlimit="10" d="M445.234,138c0,5.799-4.701,10.5-10.5,10.5l0,0
		c-5.799,0-10.5-4.701-10.5-10.5l0,0c0-5.799,4.701-10.5,10.5-10.5l0,0C440.533,127.5,445.234,132.201,445.234,138L445.234,138z"/>
	<g>
		<g id="Profile_1_">
			<g>
				<path fill="#0282C3" stroke="#0282C3" stroke-width="0.5" stroke-miterlimit="10" d="M434.873,138.85
					c2.065,0,3.48-1.496,3.48-3.48v-1.988c0-1.983-1.415-3.479-3.48-3.479s-3.48,1.496-3.48,3.479v1.988
					C431.393,137.354,432.808,138.85,434.873,138.85z M432.388,133.381c0-1.396,1.032-2.485,2.485-2.485s2.485,1.089,2.485,2.485
					v1.988c0,1.397-1.032,2.486-2.485,2.486s-2.485-1.089-2.485-2.486V133.381z M438.403,137.352l-0.123-0.041l-0.061,0.111
					c-0.126,0.229-0.278,0.45-0.451,0.659l-0.143,0.171l0.219,0.06c1.606,0.442,2.893,2.937,2.959,4.518h-11.862
					c0.067-1.583,1.206-4.075,2.813-4.518l0.219-0.06l-0.142-0.171c-0.174-0.21-0.326-0.432-0.451-0.661l-0.062-0.109l-0.122,0.041
					c-2.013,0.668-3.283,3.439-3.283,5.478v0.991h13.92v-0.991C441.833,140.791,440.415,138.02,438.403,137.352z"/>
			</g>
		</g>
	</g>
	<path fill="none" stroke="#0282C3" stroke-width="1.5" stroke-miterlimit="10" d="M526.334,151.334l8.667-1
		c0,0,3.666,7.5,4.333,11.5l-5.5,2.833c0,0,0.291-6.917-5.334-11.354L526.334,151.334z"/>
	<path fill="none" stroke="#0282C3" stroke-width="1.5" stroke-miterlimit="10" d="M517.418,145.792l-2.229-6.208
		c0,0-1.229,0.208-2.729,1.813c0,0-1.063,2.832,1.625,4.666C514.085,146.063,515.418,146.896,517.418,145.792z"/>
	<path fill="none" stroke="#0282C3" stroke-width="1.5" stroke-miterlimit="10" d="M521.438,147.938l-3.375-11.438
		c0,0,1.979-0.617,12.188-5.563l2.584,8.646l-9.521,2.291l0.188,2.375c0,0,8.313-1.864,10.188-1.275v2.775
		C533.688,145.75,526.625,146.25,521.438,147.938z"/>
	<path fill="none" stroke="#0282C3" stroke-width="1.5" stroke-miterlimit="10" d="M533.25,129.916c0,0,13.75-7.916,18.583-12.332
		c0,0,0.917,12.75,7.833,28.78c0,0-10.916-1.781-22.333-1.448l-0.5-3l18.25,0.168l-0.5-3.646c0,0-14.669,0.674-18.583,1l-2.75-9.188
		V129.916z"/>
	<path fill="none" stroke="#0282C3" stroke-width="1.5" stroke-miterlimit="10" d="M553.619,128.051c0,0,5.151-1.863,6.714,2.283
		c0,0,1.688,5.291-4.448,5.922"/>
	
		<line fill="none" stroke="#0282C3" stroke-width="1.5" stroke-miterlimit="10" x1="558.25" y1="114.438" x2="565.125" y2="107.938"/>
	
		<line fill="none" stroke="#0282C3" stroke-width="1.5" stroke-miterlimit="10" x1="563.438" y1="121.563" x2="571.813" y2="116.375"/>
	
		<line fill="none" stroke="#0282C3" stroke-width="1.5" stroke-miterlimit="10" x1="566.438" y1="129.188" x2="576.063" y2="126.625"/>
	
		<line fill="none" stroke="#0282C3" stroke-width="1.5" stroke-miterlimit="10" x1="567.063" y1="137.563" x2="577.875" y2="137.563"/>
	
		<line fill="none" stroke="#0282C3" stroke-width="1.5" stroke-miterlimit="10" x1="566.125" y1="145.875" x2="576.063" y2="148.938"/>
	
		<line fill="none" stroke="#0282C3" stroke-width="1.5" stroke-miterlimit="10" x1="319.875" y1="159.584" x2="336.125" y2="159.584"/>
	
		<line fill="none" stroke="#0282C3" stroke-width="1.5" stroke-miterlimit="10" x1="320.625" y1="109.744" x2="333.167" y2="109.744"/>
	<line fill="none" stroke="#0282C3" stroke-width="1.5" stroke-miterlimit="10" x1="337" y1="109.744" x2="339.167" y2="109.744"/>
	<g>
		<g>
			<path fill="#0282C3" d="M76.436,109.475H49.253v-1.809h-1.644v1.809H20.426v5.152h1.755v27.193h12.343l-4.427,17.391l1.592,0.403
				l2.968-11.656h12.952v7.947h1.644v-7.947h12.95l2.968,11.656l1.594-0.403l-4.427-17.391h12.342v-27.193h1.755V109.475z
				 M35.078,146.314l1.142-4.494h11.39v4.494H35.078z M61.785,146.314H49.253v-4.494h11.388L61.785,146.314z M73.037,140.177H23.825
				v-25.55h49.211V140.177z M74.789,112.982H22.071v-1.863h52.718V112.982z"/>
			<polygon fill="#0282C3" points="34.106,137.196 40.977,130.324 44.923,134.271 63.479,115.713 62.318,114.551 44.923,131.945 
				40.977,128 32.943,136.034 			"/>
		</g>
		<g>
			<path fill="#FFFFFF" stroke="#0282C3" stroke-width="1.6892" stroke-miterlimit="10" d="M70.373,128.635
				c-2.769,0-5.023-2.252-5.023-5.021c0-2.768,2.254-5.021,5.023-5.021c2.768,0,5.021,2.254,5.021,5.021
				C75.394,126.383,73.14,128.635,70.373,128.635z M61.845,134.218h-8.384c-0.848,0-1.534-0.688-1.534-1.532
				c0-0.847,0.686-1.535,1.534-1.535h16.912c4.217,0,7.649,3.434,7.649,7.648v8.168c0,0.755-0.616,1.371-1.37,1.371
				c-0.697,0-1.258,0.563-1.258,1.258v11.186c0,0.305-0.247,0.551-0.553,0.551h-3.212v-9.973c0-0.695-0.564-1.258-1.257-1.258
				c-0.695,0-1.259,0.563-1.259,1.258v9.973h-3.213c-0.302,0-0.552-0.246-0.552-0.551v-23.06
				C65.349,135.79,63.778,134.218,61.845,134.218z"/>
		</g>
	</g>
</g>
</svg>
