<?xml version="1.0" encoding="iso-8859-1"?>
<!-- Generator: Adobe Illustrator 19.1.0, SVG Export Plug-In . SVG Version: 6.00 Build 0)  -->
<svg version="1.1" id="Layer_1" xmlns="http://www.w3.org/2000/svg" xmlns:xlink="http://www.w3.org/1999/xlink" x="0px" y="0px"
	 viewBox="0 0 80.378 80.389" style="enable-background:new 0 0 80.378 80.389;" xml:space="preserve">
<g>
	<path style="fill:#344356;" d="M40.189,2c21.061,0,38.194,17.134,38.194,38.194c0,21.061-17.134,38.195-38.194,38.195
		S1.994,61.255,1.994,40.194C1.994,19.134,19.128,2,40.189,2 M40.189,0C17.99,0-0.006,17.996-0.006,40.194
		c0,22.199,17.996,40.195,40.194,40.195c22.199,0,40.194-17.996,40.194-40.195C80.383,17.996,62.388,0,40.189,0L40.189,0z"/>
</g>
<g>
	<g>
		<path style="fill:none;stroke:#344356;stroke-width:2;stroke-linecap:round;stroke-miterlimit:10;" d="M25.134,24.213
			c-0.242,0.229-0.48,0.463-0.712,0.702"/>
		
			<path style="fill:none;stroke:#344356;stroke-width:2;stroke-linecap:round;stroke-miterlimit:10;stroke-dasharray:1.9951,4.9877;" d="
			M21.383,28.856c-2,3.31-3.15,7.19-3.15,11.338c0,12.126,9.83,21.956,21.956,21.956s21.956-9.83,21.956-21.956
			c0-5.043-1.701-9.69-4.559-13.397"/>
		<path style="fill:none;stroke:#344356;stroke-width:2;stroke-linecap:round;stroke-miterlimit:10;" d="M55.955,24.914
			c-0.232-0.239-0.469-0.473-0.712-0.702"/>
	</g>
</g>
<g>
	
		<circle style="fill:none;stroke:#344356;stroke-width:2;stroke-linecap:round;stroke-miterlimit:10;stroke-dasharray:2.0269,5.0673;" cx="40.189" cy="40.194" r="31.622"/>
</g>
<path style="fill:none;stroke:#344356;stroke-width:2;stroke-linecap:round;stroke-miterlimit:10;" d="M25.136,19.045v20.161
	c0,9.018,6.49,16.515,15.052,18.088c8.563-1.574,15.052-9.071,15.052-18.088V19.045l-15.052-3.679L25.136,19.045z"/>
<polyline style="fill:none;stroke:#344356;stroke-width:2;stroke-linecap:round;stroke-linejoin:round;stroke-miterlimit:10;" points="
	42.965,33.364 39.303,37.025 37.413,35.135 "/>
<circle style="fill:none;stroke:#344356;stroke-width:2;stroke-linecap:round;stroke-linejoin:round;stroke-miterlimit:10;" cx="40.189" cy="35.194" r="8.289"/>
</svg>
