<?xml version="1.0" encoding="iso-8859-1"?>
<!-- Generator: Adobe Illustrator 19.1.0, SVG Export Plug-In . SVG Version: 6.00 Build 0)  -->
<svg version="1.1" id="Layer_1" xmlns="http://www.w3.org/2000/svg" xmlns:xlink="http://www.w3.org/1999/xlink" x="0px" y="0px"
	 viewBox="0 0 80.378 80.389" style="enable-background:new 0 0 80.378 80.389;" xml:space="preserve">
<g>
	<path style="fill:#344356;" d="M40.189,2c21.061,0,38.194,17.134,38.194,38.194c0,21.061-17.134,38.195-38.194,38.195
		S1.994,61.255,1.994,40.194C1.994,19.134,19.128,2,40.189,2 M40.189,0C17.99,0-0.006,17.996-0.006,40.194
		c0,22.199,17.996,40.195,40.194,40.195c22.199,0,40.194-17.996,40.194-40.195C80.383,17.996,62.388,0,40.189,0L40.189,0z"/>
</g>
<path style="fill:none;stroke:#344356;stroke-width:2;stroke-linecap:round;stroke-miterlimit:10;" d="M36.814,49.186l-0.545-15.09
	H18.946l2.067,18.776c0.064,0.752,0.693,1.33,1.448,1.33h6.194"/>
<path style="fill:none;stroke:#344356;stroke-width:2;stroke-linecap:round;stroke-miterlimit:10;" d="M36.6,27.192H17.827
	c-1.105,0-2,0.895-2,2v2.905c0,1.105,0.895,2,2,2H36.6c1.105,0,2-0.895,2-2v-2.905C38.6,28.087,37.705,27.192,36.6,27.192z"/>
<path style="fill:none;stroke:#344356;stroke-width:2;stroke-linecap:round;stroke-miterlimit:10;" d="M44.699,49.478l0.572-15.382
	h17.322l-2.067,18.776c-0.064,0.752-0.693,1.33-1.448,1.33h-7.145"/>
<path style="fill:none;stroke:#344356;stroke-width:2;stroke-linecap:round;stroke-miterlimit:10;" d="M44.94,27.192h18.774
	c1.105,0,2,0.895,2,2v2.905c0,1.105-0.895,2-2,2H44.94c-1.105,0-2-0.895-2-2v-2.905C42.94,28.087,43.835,27.192,44.94,27.192z"/>
<path style="fill:none;stroke:#344356;stroke-width:2;stroke-linecap:round;stroke-miterlimit:10;" d="M51.934,54.202h4.099v8.781
	c0,1.105-0.895,2-2,2H27.507c-1.105,0-2-0.895-2-2v-8.781h2.802"/>
<path style="fill:none;stroke:#344356;stroke-width:2;stroke-linecap:round;stroke-miterlimit:10;" d="M44.898,64.984h8.64v3.454
	c0,1.105-0.895,2-2,2h-4.64c-1.105,0-2-0.895-2-2V64.984z"/>
<path style="fill:none;stroke:#344356;stroke-width:2;stroke-linecap:round;stroke-miterlimit:10;" d="M46.715,70.437h5.006v0.922
	c0,0.897-0.728,1.625-1.625,1.625H48.34c-0.897,0-1.625-0.728-1.625-1.625V70.437z"/>
<path style="fill:none;stroke:#344356;stroke-width:2;stroke-linecap:round;stroke-miterlimit:10;" d="M29.848,70.437h5.006v0.922
	c0,0.897-0.728,1.625-1.625,1.625h-1.756c-0.897,0-1.625-0.728-1.625-1.625V70.437z"/>
<path style="fill:none;stroke:#344356;stroke-width:2;stroke-linecap:round;stroke-miterlimit:10;" d="M28.031,64.984h8.64v3.454
	c0,1.105-0.895,2-2,2h-4.64c-1.105,0-2-0.895-2-2V64.984z"/>
<path style="fill:none;stroke:#344356;stroke-width:2;stroke-linecap:round;stroke-miterlimit:10;" d="M31.762,49.478h16.853
	c1.716,0,3.106,1.391,3.106,3.106v3.357c0,1.716-1.391,3.106-3.106,3.106H31.762c-1.716,0-3.106-1.391-3.106-3.106v-3.357
	C28.656,50.869,30.047,49.478,31.762,49.478z"/>
<line style="fill:none;stroke:#344356;stroke-width:2;stroke-linecap:round;stroke-miterlimit:10;stroke-dasharray:1,4;" x1="62.835" y1="26.257" x2="69.372" y2="14.066"/>
<line style="fill:none;stroke:#344356;stroke-width:2;stroke-linecap:round;stroke-miterlimit:10;stroke-dasharray:1,4;" x1="44.885" y1="27.192" x2="36.072" y2="2.358"/>
<line style="fill:none;stroke:#344356;stroke-width:2;stroke-linecap:round;stroke-miterlimit:10;stroke-dasharray:1,4;" x1="17.543" y1="26.257" x2="11.006" y2="14.066"/>
<line style="fill:none;stroke:#344356;stroke-width:2;stroke-linecap:round;stroke-miterlimit:10;stroke-dasharray:1,4;" x1="35.492" y1="27.192" x2="44.306" y2="2.358"/>
</svg>
