<?xml version="1.0" encoding="UTF-8" standalone="no"?>
<svg id="svg2" xmlns:rdf="http://www.w3.org/1999/02/22-rdf-syntax-ns#" xmlns="http://www.w3.org/2000/svg" height="1300" width="1300" version="1.1" xmlns:cc="http://creativecommons.org/ns#" xmlns:dc="http://purl.org/dc/elements/1.1/" viewBox="0 0 1300 1300">
 <defs id="defs4">
  <filter id="filter4260" style="color-interpolation-filters:sRGB" height="1.1543" width="1.135" y="-.077173" x="-.067477">
   <feGaussianBlur id="feGaussianBlur4262" stdDeviation="19.715625"/>
  </filter>
  <filter id="filter4384" style="color-interpolation-filters:sRGB" height="1.1081" width="1.0864" y="-.054035" x="-.043178">
   <feGaussianBlur id="feGaussianBlur4386" stdDeviation="22.230215"/>
  </filter>
 </defs>
 <g id="layer1" transform="translate(0 247.64)">
  <path id="path4362" d="m-1526.8 199.17c-9.972 0-18 8.028-18 18v815.37c0 9.972 8.028 18 18 18h464.28c-0.1519 3.3904-0.3786 8.0187-0.6894 13.328-0.01 0.1133-0.011 0.2025-0.018 0.3164-1.2911 21.925-4.092 55.606-9.5605 64.555-8.257 13.511-72.061 48.791-72.061 48.791v9.0078h119.73 196.29 119.73v-9.0078s-63.804-35.28-72.061-48.791c-5.4686-8.9486-8.2695-42.63-9.5606-64.555-0.32099-5.4512-0.55188-10.182-0.70703-13.644h464.28c9.972 0 18-8.028 18-18v-815.37c0-9.972-8.028-18-18-18h-1199.7zm21.033 45.512h1157.6v760.35h-1157.6v-760.35z" fill-rule="evenodd" transform="matrix(.93444 0 0 .93444 1495.1 -245.07)" filter="url(#filter4384)"/>
  <rect id="rect4158" rx="20" height="746.92" width="1121" y="-31.638" x="72" fill="#fff"/>
  <path id="path4173" d="m504.49 719.89-2.1043 11.222s-2.1051 65.935-9.8208 78.561-67.337 45.593-67.337 45.593v8.4173h111.88 183.42 111.88v-8.4173s-59.621-32.967-67.337-45.593c-7.7157-12.626-9.8207-78.561-9.8207-78.561l-2.1044-11.222-124.33 2.4219-124.33-2.4219z" fill-rule="evenodd" fill="#b6b6b6"/>
  <path id="rect4171" d="m504.49 719.89-2.1043 11.222s-0.27183 7.7915-0.88706 18.238h254.64c-0.61514-10.447-0.88697-18.238-0.88697-18.238l-2.1044-11.222-124.33 2.4219-124.33-2.4219z" fill="#8f8f8f"/>
  <path id="rect4140" d="m68.315-58.957c-9.3183 0-16.82 7.5017-16.82 16.82v761.92c0 9.3183 7.5017 16.82 16.82 16.82h1121c9.3183 0 16.82-7.5017 16.82-16.82v-761.92c0-9.3183-7.5017-16.82-16.82-16.82h-1121zm19.654 42.528h1081.7v710.5h-1081.7v-710.5z" fill="#474e5e"/>
  <g id="g4264" transform="matrix(.47228 0 0 .47228 321.84 148.79)">
   <path id="path4224" d="m299.38 343.43 106.25 184.03 247.74 429.11 66.562-192.58 7.6602-22.162 197.45 189.99 75.58-78.551-206.51-198.7 20.334-13.75l168.82-114.15-478.6-128.23-205.26-55.01z" transform="translate(0 -247.64)" filter="url(#filter4260)"/>
   <g id="g4215" transform="translate(-.44531 -25.387)">
    <path id="rect4179" d="m299.82 368.82 353.99 613.13 74.23-214.74 197.45 189.99 75.61-78.56-206.54-198.69 189.12-127.89-683.86-183.24z" transform="translate(0 -247.64)" fill="#7a5a5a"/>
    <path id="path4193" d="m299.82 368.82 353.99 613.13 66.57-192.58-420.56-420.55z" fill-rule="evenodd" transform="translate(0 -247.64)" fill="#d07449"/>
    <path id="path4191" d="m299.82 368.82 420.55 420.55 7.6602-22.162 197.45 189.99 75.58-78.551-206.51-198.7 20.334-13.75-515.07-297.38z" fill-rule="evenodd" transform="translate(0 -247.64)" fill="#8c4c36"/>
    <path id="path4187" d="m299.82 368.82 515.07 297.38 168.79-114.14-683.86-183.24z" fill-rule="evenodd" transform="translate(0 -247.64)" fill="#693b29"/>
    <path id="path4184" d="m299.82 368.82 106.25 184.03a212.76 212.76 0 0 0 99.02 -129.03l-205.27-55z" transform="translate(0 -247.64)" fill="#292927"/>
   </g>
  </g>
 </g>
</svg>
