<?xml version="1.0" encoding="iso-8859-1"?>
<!-- Generator: Adobe Illustrator 19.1.0, SVG Export Plug-In . SVG Version: 6.00 Build 0)  -->
<svg version="1.1" id="Layer_1" xmlns="http://www.w3.org/2000/svg" xmlns:xlink="http://www.w3.org/1999/xlink" x="0px" y="0px"
	 viewBox="0 0 140.2 79.052" style="enable-background:new 0 0 140.2 79.052;" xml:space="preserve">
<g>
	<g>
		<path style="fill:none;stroke:#344356;stroke-width:2;stroke-linecap:round;stroke-miterlimit:10;" d="M77.208,17.901
			c-0.308-0.129-0.617-0.255-0.926-0.377"/>
		
			<path style="fill:none;stroke:#344356;stroke-width:2;stroke-linecap:round;stroke-miterlimit:10;stroke-dasharray:2.048,5.1199;" d="
			M71.43,15.883c-22.947-6.482-47.565,4.203-58.386,25.713"/>
		<path style="fill:none;stroke:#344356;stroke-width:2;stroke-linecap:round;stroke-miterlimit:10;" d="M11.95,43.914
			c-0.134,0.304-0.266,0.611-0.395,0.919"/>
	</g>
</g>
<g>
	<g>
		<path style="fill:none;stroke:#344356;stroke-width:2;stroke-linecap:round;stroke-miterlimit:10;" d="M121.004,14.663
			c-0.329-0.054-0.659-0.105-0.988-0.152"/>
		
			<path style="fill:none;stroke:#344356;stroke-width:2;stroke-linecap:round;stroke-miterlimit:10;stroke-dasharray:1.9139,4.7847;" d="
			M115.252,14.057c-19.393-0.909-38.195,9.575-47.233,27.689"/>
		<path style="fill:none;stroke:#344356;stroke-width:2;stroke-linecap:round;stroke-miterlimit:10;" d="M67.001,43.914
			c-0.134,0.304-0.266,0.611-0.395,0.919"/>
	</g>
</g>
<g>
	<g>
		<path style="fill:none;stroke:#344356;stroke-width:2;stroke-linecap:round;stroke-miterlimit:10;" d="M133.287,47.581
			c-0.315,0.108-0.629,0.219-0.942,0.334"/>
		
			<path style="fill:none;stroke:#344356;stroke-width:2;stroke-linecap:round;stroke-miterlimit:10;stroke-dasharray:2.0233,5.0582;" d="
			M127.69,49.888c-3.433,1.666-6.719,3.748-9.785,6.25"/>
		<path style="fill:none;stroke:#344356;stroke-width:2;stroke-linecap:round;stroke-miterlimit:10;" d="M115.984,57.787
			c-0.247,0.223-0.492,0.449-0.736,0.677"/>
	</g>
</g>
<g>
	<g>
		<path style="fill:none;stroke:#344356;stroke-width:2;stroke-linecap:round;stroke-miterlimit:10;" d="M67.834,54.642
			c-0.214,0.254-0.427,0.511-0.637,0.771"/>
		<path style="fill:none;stroke:#344356;stroke-width:2;stroke-linecap:round;stroke-miterlimit:10;" d="M63.917,59.964
			c-0.179,0.28-0.356,0.563-0.531,0.848"/>
	</g>
</g>
<g>
	<path style="fill:#344356;" d="M119.179,2c0.839,0,1.562,0.569,1.76,1.385c0.007,0.028,0.014,0.056,0.022,0.084l17.195,59.649
		c0.118,0.532-0.007,1.081-0.345,1.511c-0.345,0.439-0.864,0.691-1.423,0.691H3.812c-0.559,0-1.077-0.252-1.423-0.691
		c-0.338-0.43-0.463-0.978-0.345-1.511L19.239,3.468c0.008-0.028,0.015-0.056,0.022-0.084C19.459,2.569,20.182,2,21.021,2H119.179
		 M119.179,0H21.021c-1.759,0-3.29,1.204-3.704,2.914L0.109,62.613c-0.58,2.398,1.237,4.707,3.704,4.707h132.575
		c2.467,0,4.284-2.309,3.704-4.707L122.882,2.914C122.469,1.204,120.938,0,119.179,0L119.179,0z"/>
</g>
<polyline style="fill:none;stroke:#344356;stroke-width:2;stroke-linecap:round;stroke-linejoin:round;stroke-miterlimit:10;" points="
	10.719,51.602 30.469,55.225 60.925,60.811 "/>
<line style="fill:none;stroke:#344356;stroke-width:2;stroke-linecap:round;stroke-linejoin:round;stroke-miterlimit:10;" x1="70.1" y1="75.734" x2="44.382" y2="57.777"/>
<g>
	<path style="fill:#344356;" d="M70.1,74.417c0.727,0,1.318,0.591,1.318,1.318s-0.591,1.318-1.318,1.318s-1.318-0.591-1.318-1.318
		S69.373,74.417,70.1,74.417 M70.1,72.417c-1.832,0-3.318,1.485-3.318,3.318c0,1.832,1.485,3.318,3.318,3.318
		c1.832,0,3.318-1.485,3.318-3.318C73.418,73.902,71.932,72.417,70.1,72.417L70.1,72.417z"/>
</g>
<g>
	<path style="fill:#344356;" d="M125.151,74.417c0.727,0,1.318,0.591,1.318,1.318s-0.591,1.318-1.318,1.318
		s-1.318-0.591-1.318-1.318S124.424,74.417,125.151,74.417 M125.151,72.417c-1.832,0-3.318,1.485-3.318,3.318
		c0,1.832,1.485,3.318,3.318,3.318c1.832,0,3.318-1.485,3.318-3.318C128.469,73.902,126.983,72.417,125.151,72.417L125.151,72.417z"
		/>
</g>
<polyline style="fill:none;stroke:#344356;stroke-width:2;stroke-linecap:round;stroke-linejoin:round;stroke-miterlimit:10;" points="
	65.77,51.602 85.52,55.225 115.976,60.811 "/>
<line style="fill:none;stroke:#344356;stroke-width:2;stroke-linecap:round;stroke-linejoin:round;stroke-miterlimit:10;" x1="125.151" y1="75.734" x2="99.433" y2="57.777"/>
</svg>
