<?xml version="1.0" encoding="utf-8"?>
<!-- Generator: Adobe Illustrator 16.0.0, SVG Export Plug-In . SVG Version: 6.00 Build 0)  -->
<!DOCTYPE svg PUBLIC "-//W3C//DTD SVG 1.1//EN" "http://www.w3.org/Graphics/SVG/1.1/DTD/svg11.dtd">
<svg version="1.1" id="Layer_1" xmlns="http://www.w3.org/2000/svg" xmlns:xlink="http://www.w3.org/1999/xlink" x="0px" y="0px"
	 width="45px" height="45px" viewBox="0 0 45 45" enable-background="new 0 0 45 45" xml:space="preserve">
<g>
	<g>
		
			<path fill="none" stroke="#444444" stroke-width="1.5" stroke-linecap="round" stroke-miterlimit="10" stroke-dasharray="5,0,0" d="
			M18.302,39.05c9.161,2.321,18.501-3.244,20.825-12.4c2.321-9.161-3.24-18.504-12.402-20.826"/>
		<g>
			<g id="Watch">
				<g>
					
						<path fill="none" stroke="#444444" stroke-width="1.5" stroke-linecap="round" stroke-miterlimit="10" stroke-dasharray="222,0,0" d="
						M26.627,5.808C17.445,3.584,8.165,9.245,5.941,18.427c-2.225,9.182,3.436,18.462,12.617,20.687"/>
				</g>
			</g>
		</g>
		<polyline fill="none" stroke="#444444" stroke-width="1.5" stroke-linecap="round" stroke-miterlimit="10" points="30.495,5.203 
			31.295,7.747 28.801,8.572 		"/>
		
			<line fill="none" stroke="#444444" stroke-width="1.5" stroke-linecap="round" stroke-miterlimit="10" stroke-dasharray="222,0,0" x1="22.581" y1="10.422" x2="22.581" y2="20.399"/>
		
			<line fill="none" stroke="#444444" stroke-width="1.5" stroke-linecap="round" stroke-miterlimit="10" stroke-dasharray="222,0,0" x1="24.212" y1="24.333" x2="29.86" y2="28.785"/>
	</g>
	
		<path fill="none" stroke="#444444" stroke-width="1.5" stroke-linecap="round" stroke-miterlimit="10" stroke-dasharray="222,0,0" d="
		M24.414,22.902c-0.243,1.005-1.258,1.622-2.261,1.38c-1.005-0.242-1.625-1.258-1.38-2.261c0.243-1.006,1.257-1.623,2.259-1.38
		C24.04,20.883,24.657,21.897,24.414,22.902z"/>
</g>
</svg>
