<?xml version="1.0" encoding="utf-8"?>
<!-- Generator: Adobe Illustrator 16.0.0, SVG Export Plug-In . SVG Version: 6.00 Build 0)  -->
<!DOCTYPE svg PUBLIC "-//W3C//DTD SVG 1.1//EN" "http://www.w3.org/Graphics/SVG/1.1/DTD/svg11.dtd">
<svg version="1.1" id="Layer_1" xmlns="http://www.w3.org/2000/svg" xmlns:xlink="http://www.w3.org/1999/xlink" x="0px" y="0px"
	 width="45px" height="45px" viewBox="0 0 45 45" enable-background="new 0 0 45 45" xml:space="preserve">
<g>
	<g>
		<path fill="none" stroke="#444444" stroke-width="1.5" stroke-linecap="round" stroke-miterlimit="10" d="M35.312,32.243
			c5.356-0.476,7.082-4.427,7.082-8.598c0-3.402-3.025-7.609-7.245-8.428c-1.569-4.185-5.709-6.975-10.425-6.975
			c-4.444,0-8.443,2.537-10.173,6.381c-0.813-0.358-1.699-0.545-2.599-0.545c-3.429,0-6.219,2.644-6.225,5.894
			c-1.783,1.293-2.838,3.3-2.838,5.439c0,3.767,3.239,6.832,7.328,6.833"/>
	</g>
	<g>
		<g>
			<g>
				<path fill="none" stroke="#444444" stroke-width="1.5" stroke-linecap="round" stroke-miterlimit="10" d="M29.812,29.417
					c0-4.263-3.467-7.731-7.73-7.731c-3.524,0-6.687,2.496-7.517,5.933l-0.236,0.968"/>
				
					<polyline fill="none" stroke="#444444" stroke-width="1.5" stroke-linecap="round" stroke-miterlimit="10" stroke-dasharray="225,192,0" points="
					12.317,26.878 13.98,29.503 16.548,27.874 				"/>
				<g>
					<path fill="none" stroke="#444444" stroke-width="1.5" stroke-linecap="round" stroke-miterlimit="10" d="M15.082,31.088
						c0,4.263,3.468,7.732,7.73,7.732c3.526,0,6.688-2.497,7.52-5.933l0.233-0.968"/>
					
						<polyline fill="none" stroke="#444444" stroke-width="1.5" stroke-linecap="round" stroke-miterlimit="10" stroke-dasharray="225,192,0" points="
						32.156,34.015 30.618,31.587 28.24,33.095 					"/>
				</g>
			</g>
		</g>
	</g>
</g>
</svg>
