<?xml version="1.0" encoding="utf-8"?>
<!-- Generator: Adobe Illustrator 16.0.0, SVG Export Plug-In . SVG Version: 6.00 Build 0)  -->
<!DOCTYPE svg PUBLIC "-//W3C//DTD SVG 1.1//EN" "http://www.w3.org/Graphics/SVG/1.1/DTD/svg11.dtd">
<svg version="1.1" id="Layer_1" xmlns="http://www.w3.org/2000/svg" xmlns:xlink="http://www.w3.org/1999/xlink" x="0px" y="0px"
	 width="45px" height="45px" viewBox="0 0 45 45" enable-background="new 0 0 45 45" xml:space="preserve">
<g>
	<g>
		<g id="Watch_1_">
			<g>
				
					<path fill="none" stroke="#444444" stroke-width="1.5" stroke-linecap="round" stroke-miterlimit="10" stroke-dasharray="47,320,0" d="
					M35.382,34.572c-6.473,6.913-17.325,7.27-24.238,0.798c-6.913-6.474-7.271-17.324-0.798-24.237
					c6.474-6.914,17.326-7.271,24.24-0.799C41.498,16.808,41.854,27.659,35.382,34.572z"/>
			</g>
		</g>
	</g>
	<polyline fill="none" stroke="#444444" stroke-width="1.5" stroke-linecap="round" stroke-miterlimit="10" points="7.28,8.935 
		7.802,13.483 12.258,13.723 	"/>
	
		<line fill="none" stroke="#444444" stroke-width="1.5" stroke-linecap="round" stroke-miterlimit="10" x1="12.282" y1="13.697" x2="7.351" y2="8.951"/>
	<g>
		<g id="Watch_2_">
			<g>
				
					<path fill="none" stroke="#444444" stroke-width="1.5" stroke-linecap="round" stroke-miterlimit="10" stroke-dasharray="47,320,0" d="
					M9.786,11.063c6.424-6.959,17.271-7.396,24.232-0.972c6.96,6.422,7.396,17.271,0.974,24.23
					c-6.424,6.961-17.273,7.396-24.233,0.974C3.8,28.872,3.362,18.023,9.786,11.063z"/>
			</g>
		</g>
	</g>
	<polyline fill="none" stroke="#444444" stroke-width="1.5" stroke-linecap="round" stroke-miterlimit="10" points="38.056,36.483 
		37.505,31.966 33.075,31.762 	"/>
	
		<line fill="none" stroke="#444444" stroke-width="1.5" stroke-linecap="round" stroke-miterlimit="10" x1="33.051" y1="31.788" x2="37.986" y2="36.465"/>
</g>
</svg>
