<?xml version="1.0" encoding="utf-8"?>
<!-- Generator: Adobe Illustrator 16.0.0, SVG Export Plug-In . SVG Version: 6.00 Build 0)  -->
<!DOCTYPE svg PUBLIC "-//W3C//DTD SVG 1.1//EN" "http://www.w3.org/Graphics/SVG/1.1/DTD/svg11.dtd">
<svg version="1.1" xmlns="http://www.w3.org/2000/svg" xmlns:xlink="http://www.w3.org/1999/xlink" x="0px" y="0px" width="45px"
	 height="45px" viewBox="0 0 45 45" enable-background="new 0 0 45 45" xml:space="preserve">
<g id="Layer_1">
	<g>
		<path fill="none" stroke="#454545" stroke-width="1.5" stroke-linejoin="round" stroke-miterlimit="10" d="M27.827,17.225v-6.134
			c0.001-1.555-1.264-2.82-2.817-2.82H13.112c-1.553,0-2.818,1.264-2.818,2.819v25c0,1.554,1.265,2.819,2.818,2.819H25.01
			c1.553,0,2.817-1.265,2.817-2.819v-2.153 M10.288,13.25h17.632 M10.802,33.503h17.761"/>
		<path fill="#454545" d="M19.425,35.311c-0.479,0-0.871,0.39-0.871,0.871s0.392,0.871,0.871,0.871c0.48,0,0.871-0.391,0.871-0.871
			S19.906,35.311,19.425,35.311z"/>
		
			<line fill="none" stroke="#454545" stroke-width="1.5" stroke-linecap="round" stroke-miterlimit="10" x1="17.94" y1="10.799" x2="21.024" y2="10.799"/>
		<path fill="#454545" d="M15.887,29.345c0,0.457-0.372,0.829-0.831,0.829h-0.831c-0.457,0-0.829-0.372-0.829-0.829v-0.831
			c0-0.458,0.371-0.829,0.829-0.829h0.831c0.458,0,0.831,0.371,0.831,0.829V29.345z"/>
		<path fill="#454545" d="M19.845,29.345c0,0.457-0.372,0.829-0.829,0.829h-0.832c-0.457,0-0.83-0.372-0.83-0.829v-0.831
			c0-0.458,0.372-0.829,0.83-0.829h0.832c0.456,0,0.829,0.371,0.829,0.829V29.345z"/>
		
			<line fill="none" stroke="#454545" stroke-width="1.5" stroke-linecap="round" stroke-miterlimit="10" x1="13.952" y1="17.435" x2="22.474" y2="17.435"/>
		
			<line fill="none" stroke="#454545" stroke-width="1.5" stroke-linecap="round" stroke-miterlimit="10" x1="13.952" y1="21.041" x2="21.029" y2="21.041"/>
		
			<line fill="none" stroke="#454545" stroke-width="1.5" stroke-linecap="round" stroke-miterlimit="10" x1="13.952" y1="24.773" x2="19.535" y2="24.773"/>
		<path fill="none" stroke="#444444" stroke-width="1.5" stroke-linejoin="round" stroke-miterlimit="10" d="M31.719,30.577
			c-2.671,0.818-5.63-0.354-6.971-2.921c-1.513-2.896-0.392-6.47,2.504-7.983c2.896-1.513,6.472-0.392,7.983,2.504
			c1.164,2.228,0.77,4.856-0.792,6.64"/>
		<polygon fill="#444444" points="31.255,29.524 33.348,29.91 32.026,31.672 		"/>
		<g>
			<path fill="#444444" d="M25.77,25.95l0.066-0.361l0.543-0.419c0.504-0.411,0.831-0.707,0.831-1.009
				c0-0.178-0.124-0.306-0.349-0.306s-0.399,0.066-0.531,0.147l-0.113-0.4c0.202-0.124,0.493-0.217,0.78-0.217
				c0.512,0,0.788,0.299,0.788,0.687c0,0.516-0.412,0.873-0.858,1.214l-0.248,0.178v0.008h0.904l-0.089,0.478H25.77z"/>
			<path fill="#444444" d="M28.877,25.95l0.117-0.613h-1.075l0.069-0.373l1.203-1.537h0.687L29.6,24.91h0.294l-0.078,0.427h-0.298
				l-0.117,0.613H28.877z M29.075,24.91l0.117-0.547c0.035-0.159,0.082-0.334,0.12-0.493h-0.015c-0.113,0.171-0.21,0.33-0.33,0.497
				l-0.415,0.536l-0.004,0.007H29.075z"/>
			<path fill="#444444" d="M30.783,24.052l0.112,0.284c0.059,0.151,0.093,0.244,0.12,0.318h0.012
				c0.07-0.101,0.121-0.186,0.202-0.303l0.209-0.299h0.64l-0.799,0.919l0.442,0.978h-0.613l-0.12-0.303
				c-0.054-0.14-0.085-0.233-0.121-0.345h-0.011c-0.055,0.089-0.108,0.186-0.194,0.318l-0.225,0.33h-0.644l0.822-0.982l-0.446-0.916
				H30.783z"/>
			<path fill="#444444" d="M34.092,23.428L34.019,23.8c-0.458,0.714-0.919,1.432-1.385,2.149h-0.617
				c0.458-0.68,0.912-1.358,1.366-2.037v-0.008h-1.094l0.089-0.477H34.092z"/>
		</g>
	</g>
</g>
<g id="Layer_2">
</g>
</svg>
