<?xml version="1.0" encoding="utf-8"?>
<!-- Generator: Adobe Illustrator 16.0.0, SVG Export Plug-In . SVG Version: 6.00 Build 0)  -->
<!DOCTYPE svg PUBLIC "-//W3C//DTD SVG 1.1//EN" "http://www.w3.org/Graphics/SVG/1.1/DTD/svg11.dtd">
<svg version="1.1" xmlns="http://www.w3.org/2000/svg" xmlns:xlink="http://www.w3.org/1999/xlink" x="0px" y="0px" width="45px"
	 height="45px" viewBox="0 0 45 45" enable-background="new 0 0 45 45" xml:space="preserve">
<g id="Layer_1">
	<g>
		<g>
			
				<path fill="none" stroke="#444444" stroke-width="1.5" stroke-linecap="round" stroke-linejoin="round" stroke-miterlimit="10" d="
				M33.425,28.334h0.277c3.048,0,5.526-2.479,5.526-5.527c0-1.256-0.434-2.485-1.219-3.462c-0.69-0.856-1.628-1.491-2.672-1.815
				c-0.116-2.424-1.123-4.687-2.857-6.406c-1.827-1.813-4.251-2.812-6.826-2.812c-3.381,0-6.509,1.763-8.268,4.63
				c-0.429-0.135-0.873-0.203-1.327-0.203c-2.093,0-3.891,1.477-4.326,3.49c-2.687,0.698-4.602,3.146-4.602,5.954
				c0,3.392,2.759,6.151,6.151,6.151h1.19v5.93H13.39"/>
		</g>
		
			<polyline fill="none" stroke="#444444" stroke-width="1.5" stroke-linecap="round" stroke-linejoin="round" stroke-miterlimit="10" points="
			17.989,28.313 19.791,28.313 19.791,36.846 		"/>
		
			<polyline fill="none" stroke="#444444" stroke-width="1.5" stroke-linecap="round" stroke-linejoin="round" stroke-miterlimit="10" points="
			23.112,28.313 24.601,28.313 24.545,36.846 		"/>
		
			<polyline fill="none" stroke="#444444" stroke-width="1.5" stroke-linecap="round" stroke-linejoin="round" stroke-miterlimit="10" points="
			28.188,28.259 29.801,28.259 29.801,36.18 31.741,36.18 		"/>
		<circle fill="#444444" cx="11.926" cy="34.324" r="1.488"/>
		<circle fill="#444444" cx="19.791" cy="38.198" r="1.488"/>
		<circle fill="#444444" cx="24.601" cy="38.198" r="1.488"/>
		<circle fill="#444444" cx="32.875" cy="36.18" r="1.488"/>
	</g>
</g>
<g id="Layer_2">
</g>
</svg>
