<?xml version="1.0" encoding="utf-8"?>
<!-- Generator: Adobe Illustrator 16.0.0, SVG Export Plug-In . SVG Version: 6.00 Build 0)  -->
<!DOCTYPE svg PUBLIC "-//W3C//DTD SVG 1.1//EN" "http://www.w3.org/Graphics/SVG/1.1/DTD/svg11.dtd">
<svg version="1.1" xmlns="http://www.w3.org/2000/svg" xmlns:xlink="http://www.w3.org/1999/xlink" x="0px" y="0px" width="45px"
	 height="45px" viewBox="0 0 45 45" enable-background="new 0 0 45 45" xml:space="preserve">
<g id="Layer_1">
</g>
<g id="Layer_2">
</g>
<g id="Layer_3">
</g>
<g id="Layer_4">
</g>
<g id="Layer_5">
	<g>
		<g>
			<path fill="none" stroke="#444444" stroke-width="1.5" stroke-linecap="round" stroke-miterlimit="10" d="M34.284,29.356
				c4.926-0.438,6.512-4.071,6.512-7.906c0-3.128-2.781-6.998-6.662-7.75c-1.443-3.848-5.25-6.414-9.586-6.414
				c-4.088,0-7.765,2.333-9.355,5.868c-0.748-0.33-1.563-0.501-2.39-0.501c-3.154,0-5.719,2.432-5.725,5.42
				c-1.64,1.189-2.61,3.035-2.61,5.002c0,3.464,2.979,6.282,6.739,6.284"/>
		</g>
		<g>
			<path id="path23484" fill="#444444" d="M22.584,16.933c-2.197,0-4.19,0.44-5.667,1.178c-1.477,0.738-2.49,1.813-2.49,3.094
				v13.147c0,1.282,1.014,2.356,2.49,3.094c1.477,0.739,3.47,1.178,5.667,1.178c2.198,0,4.191-0.439,5.669-1.178
				c1.476-0.738,2.488-1.812,2.488-3.094V21.205c0-1.282-1.013-2.356-2.488-3.094C26.774,17.373,24.782,16.933,22.584,16.933z
				 M22.584,18.076c2.014,0,3.835,0.413,5.119,1.056c1.284,0.641,1.983,1.479,1.983,2.31c0,0.83-0.699,1.666-1.983,2.308
				c-1.284,0.643-3.105,1.057-5.119,1.057c-2.013,0-3.834-0.414-5.118-1.057c-1.285-0.642-1.984-1.478-1.984-2.308
				c0-0.831,0.699-1.668,1.984-2.31C18.75,18.488,20.571,18.076,22.584,18.076z M22.584,18.636c-1.938,0-3.685,0.406-4.869,0.996
				c-1.184,0.593-1.672,1.27-1.672,1.809c-0.002,0.103,0.08,0.187,0.184,0.188c0.103,0.001,0.187-0.081,0.189-0.184
				c0-0.002,0-0.004,0-0.005c0-0.285,0.352-0.917,1.466-1.474c1.111-0.556,2.815-0.957,4.701-0.957
				c0.104,0.002,0.188-0.081,0.189-0.185c0.002-0.102-0.081-0.188-0.184-0.189C22.588,18.636,22.586,18.636,22.584,18.636z
				 M15.482,23.523c0.416,0.463,0.983,0.866,1.648,1.198c1.422,0.711,3.338,1.134,5.454,1.134s4.034-0.423,5.454-1.134
				c0.666-0.332,1.232-0.735,1.648-1.198v2.208c0,0.83-0.699,1.667-1.983,2.309c-1.284,0.642-3.105,1.055-5.119,1.055
				c-2.013,0-3.834-0.413-5.118-1.055c-1.285-0.642-1.984-1.479-1.984-2.309V23.523z M15.482,27.663
				c0.416,0.462,0.983,0.864,1.648,1.197c1.422,0.712,3.338,1.135,5.454,1.135s4.034-0.423,5.454-1.135
				c0.666-0.333,1.232-0.735,1.648-1.197v2.207c0,0.831-0.699,1.665-1.983,2.31c-1.284,0.641-3.105,1.056-5.119,1.056
				c-2.013,0-3.834-0.415-5.118-1.056c-1.285-0.645-1.984-1.479-1.984-2.31V27.663z M15.482,31.76
				c0.416,0.462,0.983,0.866,1.648,1.197c1.422,0.711,3.338,1.135,5.454,1.135s4.034-0.424,5.454-1.135
				c0.666-0.332,1.232-0.735,1.648-1.197v2.208c0,0.83-0.699,1.667-1.983,2.309c-1.284,0.644-3.105,1.056-5.119,1.056
				c-2.013,0-3.834-0.412-5.118-1.056c-1.285-0.642-1.984-1.479-1.984-2.309V31.76z"/>
		</g>
	</g>
</g>
</svg>
