<?xml version="1.0" encoding="utf-8"?>
<!-- Generator: Adobe Illustrator 16.0.0, SVG Export Plug-In . SVG Version: 6.00 Build 0)  -->
<!DOCTYPE svg PUBLIC "-//W3C//DTD SVG 1.1//EN" "http://www.w3.org/Graphics/SVG/1.1/DTD/svg11.dtd">
<svg version="1.1" xmlns="http://www.w3.org/2000/svg" xmlns:xlink="http://www.w3.org/1999/xlink" x="0px" y="0px" width="45px"
	 height="45px" viewBox="0 0 45 45" enable-background="new 0 0 45 45" xml:space="preserve">
<g id="Layer_1">
</g>
<g id="Layer_2">
</g>
<g id="Layer_3">
</g>
<g id="Layer_4">
</g>
<g id="Layer_5">
</g>
<g id="Layer_6">
</g>
<g id="Layer_7">
</g>
<g id="Layer_8">
	<g>
		<g>
			<g>
				<polyline fill="none" stroke="#444444" stroke-width="1.5" stroke-miterlimit="10" points="24.525,36.053 20.671,37.657 
					5.832,31.479 5.832,13.882 20.809,7.313 35.511,13.831 35.511,21.064 				"/>
				<polyline fill="none" stroke="#444444" stroke-width="1.5" stroke-miterlimit="10" points="5.656,14.793 20.839,21.438 
					35.636,14.793 				"/>
				
					<line fill="none" stroke="#444444" stroke-width="1.5" stroke-miterlimit="10" x1="20.839" y1="21.438" x2="20.839" y2="37.403"/>
				<polyline fill="none" stroke="#444444" stroke-width="1.5" stroke-miterlimit="10" points="28.38,10.67 12.442,17.841 
					12.442,22.872 				"/>
			</g>
		</g>
		<g>
			<g>
				<g>
					<path fill="none" stroke="#444444" stroke-width="1.5" stroke-miterlimit="10" d="M32.595,23.349c-4,0-7.253,3.254-7.253,7.254
						c0,4,3.253,7.253,7.253,7.253c4,0,7.254-3.254,7.254-7.253C39.849,26.603,36.596,23.349,32.595,23.349z"/>
					<polyline fill="none" stroke="#444444" stroke-width="1.5" stroke-miterlimit="10" points="32.781,34.152 32.781,28.654 
						31.108,28.654 					"/>
					
						<line fill="none" stroke="#444444" stroke-width="1.5" stroke-miterlimit="10" x1="31.212" y1="34.152" x2="34.351" y2="34.152"/>
					<circle fill="#444444" cx="32.595" cy="26.841" r="0.484"/>
				</g>
			</g>
		</g>
	</g>
</g>
</svg>
