<?xml version="1.0" encoding="utf-8"?>
<!-- Generator: Adobe Illustrator 16.0.0, SVG Export Plug-In . SVG Version: 6.00 Build 0)  -->
<!DOCTYPE svg PUBLIC "-//W3C//DTD SVG 1.1//EN" "http://www.w3.org/Graphics/SVG/1.1/DTD/svg11.dtd">
<svg version="1.1" id="Layer_1" xmlns="http://www.w3.org/2000/svg" xmlns:xlink="http://www.w3.org/1999/xlink" x="0px" y="0px"
	 width="45px" height="45px" viewBox="0 0 45 45" enable-background="new 0 0 45 45" xml:space="preserve">
<g>
	<path fill="#444444" stroke="#444444" stroke-miterlimit="10" d="M22.5,15.404c3.326,0,6.036-2.708,6.036-6.035
		c0-3.327-2.71-6.036-6.036-6.036c-3.327,0-6.036,2.708-6.036,6.036C16.464,12.697,19.173,15.404,22.5,15.404z M22.5,4.557
		c2.652,0,4.813,2.159,4.813,4.813c0,2.653-2.16,4.812-4.813,4.812c-2.653,0-4.812-2.159-4.812-4.812
		C17.688,6.716,19.847,4.557,22.5,4.557z"/>
	<path fill="#444444" stroke="#444444" stroke-miterlimit="10" d="M22.5,17.852c4.88,0,8.884,3.809,9.199,8.609H17.562
		c-0.337,0-0.611,0.271-0.611,0.609c0,0.339,0.274,0.613,0.611,0.613h14.769c0.338,0,0.61-0.274,0.61-0.613
		c0-5.757-4.686-10.442-10.441-10.442c-5.758,0-10.442,4.685-10.442,10.442c0,0.339,0.274,0.613,0.612,0.613h2.446
		c0.338,0,0.612-0.274,0.612-0.613c0-0.338-0.274-0.609-0.612-0.609H13.3C13.617,21.661,17.622,17.852,22.5,17.852z"/>
	<path fill="#444444" stroke="#444444" stroke-miterlimit="10" d="M14.785,34.141l-3.355-0.563l-1.573-3.017
		c-0.106-0.203-0.315-0.33-0.543-0.33s-0.437,0.127-0.542,0.33l-1.573,3.018l-3.355,0.563c-0.225,0.039-0.411,0.196-0.479,0.414
		c-0.07,0.217-0.015,0.454,0.145,0.616l2.384,2.431l-0.501,3.362c-0.033,0.228,0.061,0.452,0.246,0.585
		c0.184,0.135,0.427,0.154,0.632,0.055l3.046-1.518l3.045,1.518c0.086,0.043,0.18,0.063,0.273,0.063
		c0.126,0,0.252-0.039,0.359-0.117c0.185-0.133,0.279-0.358,0.245-0.585l-0.5-3.363l2.383-2.43c0.16-0.162,0.216-0.4,0.146-0.615
		C15.195,34.337,15.01,34.18,14.785,34.141L14.785,34.141z M11.65,36.959c-0.134,0.137-0.197,0.328-0.168,0.52l0.373,2.508
		l-2.268-1.133c-0.171-0.082-0.373-0.082-0.545,0l-2.268,1.133l0.373-2.508c0.028-0.19-0.034-0.383-0.168-0.52L5.204,35.15
		l2.498-0.42c0.189-0.029,0.353-0.147,0.441-0.319l1.171-2.246l1.171,2.246c0.089,0.172,0.251,0.29,0.441,0.319l2.499,0.42
		L11.65,36.959z"/>
	<path fill="#444444" stroke="#444444" stroke-miterlimit="10" d="M27.973,34.141l-3.356-0.563l-1.572-3.019
		c-0.105-0.201-0.314-0.328-0.543-0.328s-0.438,0.127-0.542,0.328l-1.573,3.019l-3.356,0.563c-0.225,0.039-0.41,0.196-0.48,0.414
		c-0.07,0.217-0.015,0.454,0.146,0.616l2.383,2.431l-0.501,3.362c-0.034,0.226,0.061,0.452,0.246,0.585
		c0.183,0.135,0.427,0.154,0.632,0.055l3.045-1.518l3.046,1.518c0.085,0.043,0.182,0.063,0.271,0.063
		c0.127,0,0.252-0.039,0.359-0.117c0.184-0.133,0.279-0.358,0.246-0.585l-0.502-3.363l2.385-2.43c0.159-0.162,0.215-0.4,0.146-0.615
		C28.38,34.337,28.195,34.18,27.973,34.141L27.973,34.141z M24.835,36.959c-0.133,0.137-0.196,0.328-0.167,0.52l0.371,2.508
		l-2.267-1.133c-0.087-0.041-0.18-0.063-0.272-0.063s-0.188,0.021-0.273,0.063l-2.268,1.133l0.373-2.508
		c0.028-0.19-0.034-0.383-0.168-0.52l-1.776-1.809l2.5-0.42c0.188-0.029,0.352-0.147,0.439-0.319l1.172-2.246l1.171,2.246
		c0.089,0.172,0.251,0.29,0.439,0.319l2.5,0.42L24.835,36.959z"/>
	<path fill="#444444" stroke="#444444" stroke-miterlimit="10" d="M41.639,34.555c-0.072-0.218-0.257-0.375-0.481-0.414
		l-3.355-0.563l-1.573-3.019c-0.104-0.201-0.313-0.328-0.541-0.328c-0.229,0-0.438,0.127-0.543,0.328l-1.571,3.019l-3.356,0.563
		c-0.224,0.039-0.41,0.196-0.48,0.414c-0.07,0.217-0.014,0.454,0.146,0.616l2.385,2.431l-0.502,3.362
		c-0.035,0.226,0.06,0.452,0.246,0.585c0.184,0.135,0.428,0.154,0.631,0.055l3.047-1.518l3.047,1.518
		c0.084,0.043,0.178,0.063,0.271,0.063c0.127,0,0.253-0.039,0.361-0.117c0.183-0.133,0.276-0.358,0.245-0.585l-0.502-3.363
		l2.385-2.43C41.65,35.009,41.707,34.771,41.639,34.555L41.639,34.555z M38.021,36.959c-0.135,0.137-0.198,0.328-0.17,0.52
		l0.373,2.508l-2.267-1.133c-0.087-0.041-0.181-0.063-0.272-0.063c-0.095,0-0.188,0.021-0.273,0.063l-2.27,1.133l0.375-2.508
		c0.027-0.19-0.033-0.383-0.168-0.52l-1.774-1.809l2.498-0.42c0.188-0.029,0.353-0.147,0.442-0.319l1.17-2.246l1.17,2.246
		c0.088,0.172,0.252,0.29,0.441,0.319l2.499,0.42L38.021,36.959z"/>
	<path fill="#444444" d="M22.5,12.142c0.802,0,1.564-0.348,2.093-0.955c0.222-0.255,0.195-0.642-0.062-0.863
		c-0.254-0.222-0.641-0.195-0.861,0.061c-0.296,0.34-0.723,0.535-1.17,0.535c-0.448,0-0.873-0.194-1.169-0.535
		c-0.222-0.255-0.609-0.282-0.862-0.061c-0.256,0.221-0.283,0.608-0.061,0.863C20.935,11.793,21.698,12.142,22.5,12.142z"/>
</g>
</svg>
