<?xml version="1.0" encoding="utf-8"?>
<!-- Generator: Adobe Illustrator 16.0.0, SVG Export Plug-In . SVG Version: 6.00 Build 0)  -->
<!DOCTYPE svg PUBLIC "-//W3C//DTD SVG 1.1//EN" "http://www.w3.org/Graphics/SVG/1.1/DTD/svg11.dtd">
<svg version="1.1" id="Layer_1" xmlns="http://www.w3.org/2000/svg" xmlns:xlink="http://www.w3.org/1999/xlink" x="0px" y="0px"
	 width="110.996px" height="110.746px" viewBox="0 0 110.996 110.746" enable-background="new 0 0 110.996 110.746"
	 xml:space="preserve">
<g>
	<g>
		<path fill="#FFFFFF" d="M108.507,87.593L91.366,70.451c-3.414-3.4-9.068-3.298-12.603,0.236l-8.636,8.635
			c-0.545-0.302-1.11-0.615-1.704-0.949c-5.453-3.021-12.918-7.162-20.772-15.022c-7.877-7.876-12.024-15.353-15.054-20.81
			c-0.321-0.579-0.627-1.136-0.929-1.665l5.796-5.789l2.849-2.853c3.539-3.54,3.637-9.192,0.229-12.602L23.402,2.487
			c-3.405-3.405-9.062-3.302-12.601,0.237L5.97,7.583l0.133,0.131c-1.619,2.067-2.974,4.451-3.98,7.021
			c-0.929,2.447-1.508,4.783-1.772,7.122c-2.263,18.765,6.312,35.914,29.583,59.186c32.166,32.166,58.089,29.735,59.208,29.617
			c2.438-0.291,4.771-0.873,7.144-1.795c2.549-0.996,4.931-2.348,6.995-3.963l0.105,0.092l4.895-4.793
			C111.813,96.664,111.913,91.009,108.507,87.593z M104.473,96.391l-2.156,2.153l-0.859,0.824c-1.354,1.309-3.693,3.146-7.114,4.482
			c-1.94,0.747-3.854,1.229-5.802,1.459c-0.245,0.023-24.627,2.104-54.804-28.07C8.078,51.583,3.966,36.798,5.689,22.479
			c0.216-1.898,0.692-3.808,1.454-5.804c1.349-3.439,3.184-5.779,4.481-7.134l2.983-3.012c1.437-1.441,3.678-1.551,4.992-0.237
			L36.74,23.434c1.312,1.315,1.208,3.557-0.231,5.002L24.933,40.001l1.068,1.798c0.594,1.002,1.222,2.125,1.893,3.345
			c3.184,5.743,7.541,13.604,15.955,22.01c8.391,8.396,16.24,12.749,21.967,15.926c1.235,0.685,2.365,1.313,3.379,1.918l1.803,1.067
			l11.568-11.571c1.442-1.438,3.692-1.545,5.006-0.234l17.134,17.138C106.016,92.71,105.911,94.953,104.473,96.391z"/>
	</g>
</g>
</svg>
