<?xml version="1.0" encoding="utf-8"?>
<!-- Generator: Adobe Illustrator 16.0.0, SVG Export Plug-In . SVG Version: 6.00 Build 0)  -->
<!DOCTYPE svg PUBLIC "-//W3C//DTD SVG 1.1//EN" "http://www.w3.org/Graphics/SVG/1.1/DTD/svg11.dtd">
<svg version="1.1" id="Layer_1" xmlns="http://www.w3.org/2000/svg" xmlns:xlink="http://www.w3.org/1999/xlink" x="0px" y="0px"
	 width="45px" height="45px" viewBox="0 0 45 45" enable-background="new 0 0 45 45" xml:space="preserve">
<g>
	<g>
		<polygon fill="none" stroke="#444444" stroke-width="1.5" stroke-miterlimit="10" points="3.81,7.563 32.669,7.528 32.528,31.411 
			3.669,31.447 		"/>
		<line fill="none" stroke="#444444" stroke-width="1.5" stroke-miterlimit="10" x1="32.559" y1="26.388" x2="4.029" y2="26.427"/>
		
			<line fill="none" stroke="#444444" stroke-width="1.5" stroke-linecap="round" stroke-miterlimit="10" x1="28.219" y1="36.293" x2="8.254" y2="36.174"/>
		<line fill="none" stroke="#444444" stroke-width="1.5" stroke-miterlimit="10" x1="18.265" y1="31.533" x2="18.236" y2="36.232"/>
		
			<rect x="29.185" y="28.312" transform="matrix(-1 -0.006 0.006 -1 59.8228 58.4324)" fill="#444444" width="1.628" height="1.628"/>
	</g>
	<g>
		<path fill="#FFFFFF" stroke="#444444" stroke-width="1.5" stroke-miterlimit="10" d="M38.76,15.261H26.548
			c-0.907,0-1.647,0.74-1.647,1.647v18.99c0,0.908,0.74,1.646,1.647,1.646H38.76c0.907,0,1.646-0.738,1.646-1.646v-18.99
			C40.406,16.001,39.667,15.261,38.76,15.261z"/>
		<path fill="none" stroke="#444444" stroke-width="0.4" stroke-linecap="round" stroke-miterlimit="10" d="M32.653,34.727
			c-0.399,0-0.724,0.326-0.724,0.724c0,0.399,0.324,0.724,0.724,0.724c0.398,0,0.723-0.324,0.723-0.724
			C33.376,35.053,33.052,34.727,32.653,34.727z"/>
		<path fill="none" stroke="#FFFFFF" stroke-width="1.5" stroke-miterlimit="10" d="M40.495,18.259"/>
		<path fill="none" stroke="#FFFFFF" stroke-width="1.5" stroke-miterlimit="10" d="M24.873,18.259"/>
		<path fill="none" stroke="#FFFFFF" stroke-width="1.5" stroke-miterlimit="10" d="M40.495,34.23"/>
		<path fill="none" stroke="#FFFFFF" stroke-width="1.5" stroke-miterlimit="10" d="M24.873,34.23"/>
		
			<line fill="none" stroke="#444444" stroke-width="0.4" stroke-linecap="round" stroke-miterlimit="10" x1="31.739" y1="16.994" x2="33.754" y2="16.994"/>
		<line fill="none" stroke="#444444" stroke-width="1.5" stroke-miterlimit="10" x1="25.225" y1="33.313" x2="40.144" y2="33.313"/>
		<line fill="none" stroke="#444444" stroke-width="1.5" stroke-miterlimit="10" x1="25.225" y1="18.625" x2="40.144" y2="18.625"/>
	</g>
	<g>
		<path fill="#FFFFFF" stroke="#444444" stroke-width="1.5" stroke-miterlimit="10" d="M40.462,23.711H34.68
			c-0.755,0-1.369,0.614-1.369,1.369v12.148c0,0.754,0.614,1.369,1.369,1.369h5.782c0.754,0,1.369-0.615,1.369-1.369V25.08
			C41.831,24.325,41.216,23.711,40.462,23.711z"/>
		<path fill="none" stroke="#444444" stroke-width="0.4" stroke-linecap="round" stroke-miterlimit="10" d="M37.57,36.174
			c-0.331,0-0.602,0.27-0.602,0.603c0,0.33,0.271,0.601,0.602,0.601c0.332,0,0.602-0.271,0.602-0.601
			C38.172,36.443,37.902,36.174,37.57,36.174z"/>
		<line fill="none" stroke="#444444" stroke-width="1.5" stroke-miterlimit="10" x1="33.287" y1="26.53" x2="41.904" y2="26.53"/>
		<line fill="none" stroke="#444444" stroke-width="1.5" stroke-miterlimit="10" x1="33.287" y1="35.027" x2="41.904" y2="35.027"/>
		
			<line fill="none" stroke="#444444" stroke-width="0.4" stroke-linecap="round" stroke-miterlimit="10" x1="36.81" y1="25.151" x2="38.488" y2="25.151"/>
	</g>
</g>
</svg>
