<?xml version="1.0" encoding="utf-8"?>
<!-- Generator: Adobe Illustrator 16.0.0, SVG Export Plug-In . SVG Version: 6.00 Build 0)  -->
<!DOCTYPE svg PUBLIC "-//W3C//DTD SVG 1.1//EN" "http://www.w3.org/Graphics/SVG/1.1/DTD/svg11.dtd">
<svg version="1.1" id="Layer_1" xmlns="http://www.w3.org/2000/svg" xmlns:xlink="http://www.w3.org/1999/xlink" x="0px" y="0px"
	 width="45px" height="45px" viewBox="0 0 45 45" enable-background="new 0 0 45 45" xml:space="preserve">
<g>
	<path fill="#444444" d="M33.453,4.692H13.042c-1.162,0-2.105,0.944-2.105,2.105v30.704c0,1.162,0.944,2.105,2.105,2.105h16.68
		c0.196,0,0.382-0.077,0.519-0.216l5.104-5.104c0.137-0.137,0.214-0.322,0.214-0.517V6.798C35.558,5.636,34.615,4.692,33.453,4.692z
		 M30.454,37.105v-1.963c0-0.354,0.288-0.64,0.64-0.64h1.963L30.454,37.105z M13.042,6.158h20.412c0.354,0,0.64,0.288,0.64,0.64
		v2.265H12.401V6.798C12.401,6.445,12.689,6.158,13.042,6.158z M12.401,37.502V10.528h21.691v22.51h-2.999
		c-1.159,0-2.104,0.944-2.104,2.104v3H13.042C12.689,38.143,12.401,37.854,12.401,37.502z"/>
	<path fill="#444444" d="M26.427,14.783c0.404,0,0.732-0.328,0.732-0.734c0-0.404-0.329-0.731-0.732-0.731H15.445
		c-0.403,0-0.732,0.327-0.732,0.731c0,0.406,0.329,0.734,0.732,0.734H26.427z"/>
	<path fill="#444444" d="M22.427,17.783c0.404,0,0.732-0.328,0.732-0.734c0-0.404-0.329-0.731-0.732-0.731h-6.981
		c-0.403,0-0.732,0.327-0.732,0.731c0,0.406,0.329,0.734,0.732,0.734H22.427z"/>
	<g>
		
			<line fill="#FFFFFF" stroke="#3C3C3B" stroke-width="1.3" stroke-miterlimit="10" x1="30.624" y1="27.771" x2="15.695" y2="27.771"/>
		
			<line fill="#FFFFFF" stroke="#3C3C3B" stroke-width="1.3" stroke-miterlimit="10" x1="23.159" y1="20.308" x2="23.159" y2="35.236"/>
		
			<line fill="#FFFFFF" stroke="#3C3C3B" stroke-width="1.3" stroke-miterlimit="10" x1="27.79" y1="33.626" x2="18.529" y2="21.918"/>
		
			<line fill="#FFFFFF" stroke="#3C3C3B" stroke-width="1.3" stroke-miterlimit="10" x1="29.183" y1="23.366" x2="17.134" y2="32.178"/>
		
			<line fill="#FFFFFF" stroke="#3C3C3B" stroke-width="1.3" stroke-miterlimit="10" x1="30.271" y1="30.037" x2="16.047" y2="25.508"/>
		
			<line fill="#FFFFFF" stroke="#3C3C3B" stroke-width="1.3" stroke-miterlimit="10" x1="25.659" y1="20.739" x2="20.659" y2="34.805"/>
		
			<line fill="#FFFFFF" stroke="#3C3C3B" stroke-width="1.3" stroke-miterlimit="10" x1="25.643" y1="34.812" x2="20.677" y2="20.733"/>
		
			<line fill="#FFFFFF" stroke="#3C3C3B" stroke-width="1.3" stroke-miterlimit="10" x1="30.228" y1="25.376" x2="16.09" y2="30.169"/>
		
			<line fill="#FFFFFF" stroke="#3C3C3B" stroke-width="1.3" stroke-miterlimit="10" x1="27.66" y1="21.818" x2="18.658" y2="33.727"/>
		
			<line fill="#FFFFFF" stroke="#3C3C3B" stroke-width="1.3" stroke-miterlimit="10" x1="29.34" y1="31.956" x2="16.978" y2="23.588"/>
		<circle fill="#FFFFFF" stroke="#3C3C3B" stroke-width="1.3" stroke-miterlimit="10" cx="23.16" cy="27.821" r="5.945"/>
		<circle fill="none" stroke="#3C3C3B" stroke-width="1.3" stroke-miterlimit="10" cx="23.159" cy="27.821" r="1.488"/>
	</g>
</g>
</svg>
