<?xml version="1.0" encoding="utf-8"?>
<!-- Generator: Adobe Illustrator 16.0.0, SVG Export Plug-In . SVG Version: 6.00 Build 0)  -->
<!DOCTYPE svg PUBLIC "-//W3C//DTD SVG 1.1//EN" "http://www.w3.org/Graphics/SVG/1.1/DTD/svg11.dtd">
<svg version="1.1" id="Layer_1" xmlns="http://www.w3.org/2000/svg" xmlns:xlink="http://www.w3.org/1999/xlink" x="0px" y="0px"
	 width="45px" height="45px" viewBox="0 0 45 45" enable-background="new 0 0 45 45" xml:space="preserve">
<g>
	<g>
		<circle fill="none" stroke="#444444" stroke-width="1.5" stroke-miterlimit="10" cx="22.5" cy="23.137" r="14.926"/>
	</g>
	<g>
		<path fill="#444444" d="M21.403,33.838V31.11c-1.379,0-2.862-0.478-3.763-1.192l0.557-0.982c0.821,0.664,2.093,1.142,3.392,1.142
			c2.146,0,3.551-1.379,3.551-3.181c0-1.723-1.14-2.783-3.101-3.657c-2.623-1.14-4.134-2.306-4.134-4.453
			c0-2.12,1.511-3.684,3.684-4.001v-2.756h1.087v2.73c1.483,0.053,2.49,0.503,3.18,0.98l-0.557,0.98
			c-0.477-0.345-1.511-0.927-3.048-0.927c-2.253,0-3.153,1.51-3.153,2.782c0,1.669,1.007,2.438,3.339,3.472
			c2.466,1.141,3.923,2.438,3.923,4.744c0,1.961-1.325,3.896-3.869,4.292v2.756H21.403z"/>
	</g>
	<path fill="#F9F9FA" d="M26.502,32.732c0,0-2.085,0.2-0.884,1.885c1.198,1.687,3.341,4.971,5.969,4.684
		c2.628-0.283,4.37-2.198,4.455-4.855c0.085-2.655-1.398-2.712-2.484-4.998c0,0-1.171-0.678-1.771,0.746l-1.8-2.059
		c0,0-1.171-0.172-1.229,0.971c0,0-1.222-1.801-1.942-0.801l-0.57,0.56l-1.001-1.066l-1.084,0.308l-0.2,0.759L26.502,32.732z"/>
	<g>
		<g>
			<path fill="#444444" d="M29.44,36.038l-0.56,0.404c-0.011-0.013-2.185-3.028-2.234-3.094c-0.186-0.229-0.536-0.274-0.785-0.096
				c-0.248,0.18-0.316,0.52-0.157,0.779c0.059,0.082,2.216,3.076,2.23,3.092l-0.561,0.406c-0.835-1.159-2.239-3.106-2.26-3.142
				c-0.345-0.56-0.195-1.308,0.343-1.695c0.548-0.395,1.311-0.294,1.735,0.234C27.214,32.951,29.418,36.009,29.44,36.038z"/>
			<path fill="#444444" d="M27.703,33.641l-0.561,0.404c-0.557-0.771-3.334-4.623-3.355-4.659c-0.348-0.565-0.198-1.312,0.34-1.699
				c0.548-0.396,1.311-0.294,1.736,0.232c0.018,0.021,2.237,3.098,2.247,3.112l-0.559,0.404c-0.011-0.015-2.196-3.043-2.234-3.096
				c-0.185-0.229-0.534-0.276-0.787-0.094c-0.245,0.178-0.314,0.521-0.155,0.779C24.438,29.113,27.689,33.622,27.703,33.641z"/>
			<path fill="#444444" d="M32.538,30.824l-0.561,0.404c-0.009-0.013-1.777-2.461-1.828-2.532c-0.188-0.232-0.537-0.278-0.788-0.098
				c-0.246,0.178-0.315,0.52-0.156,0.777c0.047,0.069,1.331,1.849,1.343,1.867l-0.56,0.402c-0.013-0.019-1.348-1.869-1.373-1.911
				c-0.346-0.562-0.195-1.308,0.343-1.695c0.548-0.395,1.312-0.294,1.734,0.232C30.71,28.294,31.855,29.879,32.538,30.824z"/>
			<path fill="#444444" d="M30.548,31.241l-0.559,0.404c-0.009-0.015-2.185-3.028-2.232-3.096c-0.185-0.227-0.535-0.274-0.787-0.094
				c-0.245,0.178-0.315,0.52-0.156,0.779c0.055,0.075,2.216,3.074,2.23,3.093l-0.561,0.404c-0.229-0.318-2.234-3.099-2.258-3.137
				c-0.346-0.565-0.198-1.312,0.342-1.699c0.548-0.396,1.311-0.294,1.735,0.232C28.323,28.154,30.528,31.211,30.548,31.241z"/>
		</g>
		<path fill="#444444" d="M34.354,38.653c-2.24,1.616-5.379,1.11-6.996-1.132l0.561-0.404c1.393,1.933,4.101,2.372,6.031,0.977
			c1.67-1.205,2.283-3.416,1.467-5.271c-0.223-0.307-2.157-2.991-2.211-3.063c-0.186-0.23-0.535-0.276-0.787-0.098
			c-0.246,0.178-0.314,0.52-0.155,0.777c0.098,0.159,0.051,0.396-0.101,0.47c-0.204,0.136-0.344,0.054-0.484-0.107l-0.003,0.002
			c-0.005-0.008-0.01-0.017-0.013-0.022c-0.047-0.057-0.093-0.12-0.144-0.188l0.016-0.109c-0.14-0.503,0.04-1.063,0.48-1.381
			c0.552-0.395,1.313-0.292,1.738,0.234c0.005,0.009,0.014,0.021,2.243,3.112c0.015,0.019,0.026,0.038,0.035,0.061
			C37.004,34.667,36.299,37.251,34.354,38.653z"/>
	</g>
</g>
</svg>
