<?xml version="1.0" encoding="utf-8"?>
<!-- Generator: Adobe Illustrator 19.1.1, SVG Export Plug-In . SVG Version: 6.00 Build 0)  -->
<svg version="1.1" id="Layer_1" xmlns="http://www.w3.org/2000/svg" xmlns:xlink="http://www.w3.org/1999/xlink" x="0px" y="0px"
	 viewBox="-283 374 45 45" style="enable-background:new -283 374 45 45;" xml:space="preserve">
<style type="text/css">
	.st0{fill:none;stroke:#444444;stroke-width:1.2;stroke-miterlimit:10;}
	.st1{fill:none;stroke:#444444;stroke-width:1.5;stroke-miterlimit:10;}
	.st2{fill:#444444;}
</style>
<path class="st0" d="M-275.1,383.1l13.7,7.8c0.1,0.1,0.3,0.1,0.5,0.1c0.3,0,0.5-0.1,0.7-0.3l10.9-12.6l0.3,2.2
	c0.1,0.5,0.5,0.8,0.9,0.8c0,0,0.1,0,0.1,0c0.5-0.1,0.9-0.5,0.8-1.1l-0.6-4.2c0-0.3-0.2-0.5-0.4-0.6c-0.2-0.1-0.5-0.2-0.7-0.1l-4.1,1
	c-0.5,0.1-0.8,0.6-0.7,1.1c0.1,0.5,0.6,0.8,1.1,0.7l1.3-0.3l-9.9,11.4l-13-7.4c-0.4-0.3-1-0.1-1.3,0.4
	C-275.7,382.3-275.6,382.8-275.1,383.1z"/>
<path class="st1" d="M-278.3,413.9h9.3c0.5,0,0.9-0.4,0.9-0.9v-20.1c0-0.5-0.4-0.9-0.9-0.9h-9.3c-0.5,0-0.9,0.4-0.9,0.9v20.1
	C-279.3,413.4-278.8,413.9-278.3,413.9z"/>
<path class="st1" d="M-252.9,385.6v27.3c0,0.5,0.4,0.9,0.9,0.9h8.7c0.5,0,0.9-0.4,0.9-0.9v-27.3c0-0.5-0.4-0.9-0.9-0.9h-8.7
	C-252.5,384.7-252.9,385.1-252.9,385.6z"/>
<path class="st1" d="M-264.8,400.6c-0.5,0-0.9,0.4-0.9,0.9v11.4c0,0.5,0.4,0.9,0.9,0.9h8.7c0.5,0,0.9-0.4,0.9-0.9v-11.4
	c0-0.5-0.4-0.9-0.9-0.9C-256.2,400.6-264.8,400.6-264.8,400.6z"/>
<path class="st2" d="M-279.3,417.4c-0.5,0-0.9-0.4-0.9-0.9l0,0c0-0.5,0.4-0.9,0.9-0.9h37.1c0.5,0,0.9,0.4,0.9,0.9l0,0
	c0,0.5-0.4,0.9-0.9,0.9"/>
</svg>
