<?xml version="1.0" encoding="utf-8"?>
<!-- Generator: Adobe Illustrator 19.1.1, SVG Export Plug-In . SVG Version: 6.00 Build 0)  -->
<svg version="1.1" id="Layer_1" xmlns="http://www.w3.org/2000/svg" xmlns:xlink="http://www.w3.org/1999/xlink" x="0px" y="0px"
	 viewBox="-283.6 374 45.9 45" style="enable-background:new -283.6 374 45.9 45;" xml:space="preserve">
<style type="text/css">
	.st0{fill:#444444;stroke:#444444;stroke-width:0.5;stroke-miterlimit:10;}
	.st1{fill:#444444;}
</style>
<path class="st0" d="M-239,376.4h-43c-0.4,0-0.7,0.3-0.7,0.7v38.7c0,0.4,0.3,0.7,0.7,0.7h43c0.4,0,0.7-0.3,0.7-0.7v-10.4
	c0-0.4-0.3-0.7-0.7-0.7c-0.4,0-0.7,0.3-0.7,0.7v9.7h-41.5v-31.6h41.5v21.9c0,0.4,0.3,0.7,0.7,0.7c0.4,0,0.7-0.3,0.7-0.7v-28.3
	C-238.3,376.8-238.6,376.4-239,376.4z M-281.3,377.9h26.2v4.2h-26.2V377.9z M-253.7,382.1v-4.2h13.9v4.2L-253.7,382.1L-253.7,382.1z
	"/>
<path class="st1" d="M-246.7,379.2c-0.4,0-0.8,0.3-0.8,0.8c0,0.4,0.3,0.8,0.8,0.8c0.4,0,0.8-0.3,0.8-0.8
	C-245.9,379.6-246.3,379.2-246.7,379.2z"/>
<path class="st1" d="M-250.5,379.2c-0.4,0-0.8,0.3-0.8,0.8c0,0.4,0.3,0.8,0.8,0.8c0.4,0,0.8-0.3,0.8-0.8
	C-249.8,379.6-250.1,379.2-250.5,379.2z"/>
<path class="st1" d="M-242.8,379.2c-0.4,0-0.8,0.3-0.8,0.8c0,0.4,0.3,0.8,0.8,0.8c0.4,0,0.8-0.3,0.8-0.8
	C-242,379.6-242.4,379.2-242.8,379.2z"/>
<path class="st0" d="M-252.7,393.5c-0.3,0.2-0.4,0.7-0.1,1c0.2,0.3,0.7,0.4,1,0.1c2.6-1.9,4-4.8,4-8c0-0.4-0.3-0.7-0.7-0.7h-18.4
	c0,0,0,0,0,0h-5.5c-0.4,0-0.7,0.3-0.7,0.7c0,4.3,2.8,8.2,6.9,9.5c0.6,2.4,2.6,4.3,5.1,4.6v3.7h-5.1c-0.4,0-0.7,0.3-0.7,0.7v7
	c0,0.4,0.3,0.7,0.7,0.7h11.7c0.4,0,0.7-0.3,0.7-0.7v-7c0-0.4-0.3-0.7-0.7-0.7h-5.1v-3.7c2.6-0.3,4.8-2.4,5.2-5.1l1.1-8.3h4.2
	C-249.4,389.8-250.7,392-252.7,393.5z M-255.4,411.4h-10.3v-5.6h10.3V411.4z M-271.7,387.3h4.2l1,7.2
	C-269.5,393.3-271.5,390.5-271.7,387.3z M-256,395.4c-0.3,2.2-2.2,3.9-4.5,3.9c-2.2,0-4.2-1.7-4.5-3.9l-1.1-8.1h1.4l0.3,2.3
	c0,0.4,0.4,0.6,0.7,0.6c0,0,0.1,0,0.1,0c0.4-0.1,0.7-0.4,0.6-0.8l-0.3-2.1h8.4L-256,395.4z"/>
<path class="st1" d="M-263.4,391.6c-0.4,0.1-0.7,0.4-0.6,0.8l0.4,2.9c0.2,1.5,1.5,2.7,3.1,2.7c0.4,0,0.7-0.3,0.7-0.7
	c0-0.4-0.3-0.7-0.7-0.7c-0.8,0-1.6-0.6-1.7-1.5l-0.4-2.9C-262.6,391.8-263,391.5-263.4,391.6z"/>
<path class="st0" d="M-263.6,408.5c0,0.4,0.3,0.7,0.7,0.7h4.8c0.4,0,0.7-0.3,0.7-0.7s-0.3-0.7-0.7-0.7h-4.8
	C-263.3,407.8-263.6,408.1-263.6,408.5L-263.6,408.5z"/>
</svg>
