<?xml version="1.0" encoding="utf-8"?>
<!-- Generator: Adobe Illustrator 16.0.0, SVG Export Plug-In . SVG Version: 6.00 Build 0)  -->
<!DOCTYPE svg PUBLIC "-//W3C//DTD SVG 1.1//EN" "http://www.w3.org/Graphics/SVG/1.1/DTD/svg11.dtd">
<svg version="1.1" id="Layer_1" xmlns="http://www.w3.org/2000/svg" xmlns:xlink="http://www.w3.org/1999/xlink" x="0px" y="0px"
	 width="45px" height="45px" viewBox="0 0 45 45" enable-background="new 0 0 45 45" xml:space="preserve">
<g>
	<g>
		<g>
			<g>
				<g>
					<path fill="#444444" d="M31.537,0h-17.47c-2.283,0-4.14,1.857-4.14,4.14v36.706c0,2.282,1.857,4.139,4.14,4.139h17.47
						c2.283,0,4.14-1.856,4.14-4.139V4.14C35.677,1.857,33.82,0,31.537,0z M11.163,8.746h23.278v27.063H11.163V8.746z M14.067,1.236
						h17.47c1.482,0,2.904,1.421,2.904,2.904v3.371H11.163V4.14C11.163,2.657,12.584,1.236,14.067,1.236z M31.537,43.75h-17.47
						c-1.483,0-2.904-1.207-2.904-2.689v-4.018h23.278v4.018C34.441,42.543,33.02,43.75,31.537,43.75z"/>
					<path fill="none" stroke="#444444" stroke-width="1.5" stroke-miterlimit="10" d="M22.802,38.471
						c-1.002,0-1.817,0.815-1.817,1.818c0,1.002,0.815,1.817,1.817,1.817c1.002,0,1.817-0.815,1.817-1.817
						C24.619,39.286,23.805,38.471,22.802,38.471z"/>
					
						<line fill="none" stroke="#444444" stroke-width="1.5" stroke-linecap="round" stroke-miterlimit="10" x1="20.064" y1="4.419" x2="25.541" y2="4.419"/>
				</g>
			</g>
		</g>
		<g display="none">
			
				<line display="inline" fill="none" stroke="#444444" stroke-width="1.2" stroke-linecap="round" stroke-miterlimit="10" x1="14" y1="28.244" x2="31.833" y2="28.244"/>
			
				<line display="inline" fill="none" stroke="#444444" stroke-width="1.2" stroke-linecap="round" stroke-miterlimit="10" x1="14" y1="28.177" x2="14" y2="17.002"/>
			
				<polyline display="inline" fill="none" stroke="#444444" stroke-width="1.2" stroke-linecap="round" stroke-miterlimit="10" points="
				14.19,28.244 21.687,21.068 24.51,23.719 29.806,18.008 			"/>
			
				<polyline display="inline" fill="none" stroke="#444444" stroke-width="1.2" stroke-linecap="round" stroke-miterlimit="10" points="
				27.547,17.75 30.228,17.75 30.228,20.25 			"/>
		</g>
	</g>
	<g>
		<path fill="none" stroke="#444444" stroke-width="1.3" stroke-linecap="round" stroke-miterlimit="10" d="M22.909,17.102
			c-1.253,0-2.273,1.02-2.273,2.273"/>
		<path fill="none" stroke="#444444" stroke-width="1.3" stroke-linecap="round" stroke-miterlimit="10" d="M20.622,25.678
			c0.061-0.126,0.529-1.299-1.156-3.624c-0.007-0.01-0.015-0.02-0.023-0.029c-0.586-0.767-0.896-1.683-0.896-2.651
			c0-2.407,1.958-4.365,4.365-4.365c2.407,0,4.365,1.958,4.365,4.365c0,0.971-0.312,1.891-0.907,2.666
			c-1.685,2.326-1.198,3.512-1.137,3.639"/>
		<path fill="none" stroke="#444444" stroke-width="1.3" stroke-miterlimit="10" d="M25.908,26.545v-0.06
			c0-0.444-0.362-0.806-0.805-0.806h-4.415c-0.443,0-0.805,0.361-0.805,0.806v0.06c0,0.443,0.362,0.805,0.805,0.805h4.415
			C25.546,27.35,25.908,26.988,25.908,26.545z"/>
		<path fill="none" stroke="#444444" stroke-width="1.3" stroke-linecap="round" stroke-miterlimit="10" d="M15.396,14.426
			l2.272,1.675"/>
		<path fill="none" stroke="#444444" stroke-width="1.3" stroke-linecap="round" stroke-miterlimit="10" d="M15.786,25.363
			l2.375-1.751"/>
		<path fill="none" stroke="#444444" stroke-width="1.3" stroke-linecap="round" stroke-miterlimit="10" d="M14,19.959h2.585"/>
		<path fill="none" stroke="#444444" stroke-width="1.3" stroke-linecap="round" stroke-miterlimit="10" d="M30.301,14.426
			l-2.272,1.675"/>
		<path fill="none" stroke="#444444" stroke-width="1.3" stroke-linecap="round" stroke-miterlimit="10" d="M29.912,25.363
			l-2.375-1.751"/>
		<path fill="none" stroke="#444444" stroke-width="1.3" stroke-linecap="round" stroke-miterlimit="10" d="M31.697,19.959h-2.585"
			/>
		<path fill="none" stroke="#444444" stroke-width="1.3" stroke-miterlimit="10" d="M24.53,27.183v1.146
			c0,0.929-0.753,1.682-1.682,1.682l0,0c-0.929,0-1.683-0.753-1.683-1.682v-1.146"/>
	</g>
</g>
</svg>
