<?xml version="1.0" encoding="utf-8"?>
<!-- Generator: Adobe Illustrator 16.0.0, SVG Export Plug-In . SVG Version: 6.00 Build 0)  -->
<!DOCTYPE svg PUBLIC "-//W3C//DTD SVG 1.1//EN" "http://www.w3.org/Graphics/SVG/1.1/DTD/svg11.dtd">
<svg version="1.1" id="Layer_1" xmlns="http://www.w3.org/2000/svg" xmlns:xlink="http://www.w3.org/1999/xlink" x="0px" y="0px"
	 width="45px" height="45px" viewBox="0 0 45 45" enable-background="new 0 0 45 45" xml:space="preserve">
<g>
	<g>
		<circle fill="#444444" cx="14.453" cy="20.02" r="1.053"/>
		<circle fill="#444444" cx="22.875" cy="20.02" r="1.053"/>
		<circle fill="#444444" cx="31.297" cy="20.02" r="1.053"/>
		<circle fill="#444444" cx="14.453" cy="26.336" r="1.053"/>
		<circle fill="#444444" cx="31.297" cy="26.336" r="1.053"/>
		<circle fill="#444444" cx="31.297" cy="32.652" r="1.053"/>
		<circle fill="#444444" cx="22.875" cy="32.652" r="1.053"/>
		<circle fill="#444444" cx="14.453" cy="32.652" r="1.053"/>
		<path fill="none" stroke="#444444" stroke-width="1.5" stroke-miterlimit="10" d="M36.561,9.492h-2.105h-1.053V7.387
			c0-1.163-0.942-2.105-2.105-2.105c-1.162,0-2.105,0.942-2.105,2.105v2.105H16.559V7.387c0-1.163-0.942-2.105-2.105-2.105
			s-2.106,0.942-2.106,2.105v2.105h-1.053h-1.053H9.189c-1.743,0-3.158,1.413-3.158,3.158v3.158v1.053v18.949
			c0,1.745,1.415,3.158,3.158,3.158h27.372c1.744,0,3.158-1.413,3.158-3.158V16.861v-1.053V12.65
			C39.719,10.905,38.305,9.492,36.561,9.492z"/>
		<path fill="#444444" d="M22.875,28.968c1.453,0,2.632-1.179,2.632-2.632s-1.179-2.632-2.632-2.632
			c-1.454,0-2.632,1.179-2.632,2.632S21.421,28.968,22.875,28.968z M22.875,24.757c0.871,0,1.579,0.708,1.579,1.579
			s-0.708,1.579-1.579,1.579c-0.872,0-1.579-0.708-1.579-1.579S22.003,24.757,22.875,24.757z"/>
		<line fill="none" stroke="#444444" stroke-width="1.5" stroke-miterlimit="10" x1="6.031" y1="13.847" x2="39.432" y2="13.847"/>
		<line fill="none" stroke="#444444" stroke-width="1.5" stroke-miterlimit="10" x1="12.347" y1="9.492" x2="16.559" y2="9.492"/>
		<line fill="none" stroke="#444444" stroke-width="1.5" stroke-miterlimit="10" x1="29.303" y1="9.492" x2="33.514" y2="9.492"/>
	</g>
</g>
</svg>
