<?xml version="1.0" encoding="utf-8"?>
<!-- Generator: Adobe Illustrator 16.0.0, SVG Export Plug-In . SVG Version: 6.00 Build 0)  -->
<!DOCTYPE svg PUBLIC "-//W3C//DTD SVG 1.1//EN" "http://www.w3.org/Graphics/SVG/1.1/DTD/svg11.dtd">
<svg version="1.1" id="Layer_1" xmlns="http://www.w3.org/2000/svg" xmlns:xlink="http://www.w3.org/1999/xlink" x="0px" y="0px"
	 width="45px" height="45px" viewBox="0 0 45 45" enable-background="new 0 0 45 45" xml:space="preserve">
<g>
	<path fill="none" stroke="#444444" stroke-width="1.5" stroke-linecap="round" stroke-linejoin="round" stroke-miterlimit="10" d="
		M20.893,19.544l1.885-1.886c0.197-0.197,0.309-0.466,0.309-0.745v-5.656"/>
	<path fill="none" stroke="#444444" stroke-width="1.5" stroke-linecap="round" stroke-linejoin="round" stroke-miterlimit="10" d="
		M14.563,16.491c0-4.617,3.756-8.372,8.372-8.372s8.372,3.755,8.372,8.372s-3.756,8.372-8.372,8.372S14.563,21.107,14.563,16.491z"
		/>
	
		<line fill="none" stroke="#444444" stroke-width="1.5" stroke-linecap="round" stroke-linejoin="round" stroke-miterlimit="10" x1="22.936" y1="25.823" x2="22.936" y2="36.328"/>
	
		<polyline fill="none" stroke="#444444" stroke-width="1.5" stroke-linecap="round" stroke-linejoin="round" stroke-miterlimit="10" points="
		35.834,36.328 35.834,31.075 22.936,31.075 10.037,31.075 10.037,36.328 	"/>
	<path fill="none" stroke="#444444" stroke-width="1.5" stroke-linecap="round" stroke-linejoin="round" stroke-miterlimit="10" d="
		M12.358,38.318c0,0.293-0.237,0.53-0.53,0.53H8.246c-0.293,0-0.531-0.237-0.531-0.53v-1.459c0-0.293,0.238-0.531,0.531-0.531h3.582
		c0.293,0,0.53,0.238,0.53,0.531V38.318z"/>
	<path fill="none" stroke="#444444" stroke-width="1.5" stroke-linecap="round" stroke-linejoin="round" stroke-miterlimit="10" d="
		M25.257,38.318c0,0.293-0.237,0.53-0.53,0.53h-3.582c-0.293,0-0.531-0.237-0.531-0.53v-1.459c0-0.293,0.238-0.531,0.531-0.531
		h3.582c0.293,0,0.53,0.238,0.53,0.531V38.318z"/>
	<path fill="none" stroke="#444444" stroke-width="1.5" stroke-linecap="round" stroke-linejoin="round" stroke-miterlimit="10" d="
		M38.156,38.318c0,0.293-0.237,0.53-0.531,0.53h-3.582c-0.292,0-0.529-0.237-0.529-0.53v-1.459c0-0.293,0.237-0.531,0.529-0.531
		h3.582c0.294,0,0.531,0.238,0.531,0.531V38.318z"/>
</g>
</svg>
