<?xml version="1.0" encoding="utf-8"?>
<!-- Generator: Adobe Illustrator 16.0.0, SVG Export Plug-In . SVG Version: 6.00 Build 0)  -->
<!DOCTYPE svg PUBLIC "-//W3C//DTD SVG 1.1//EN" "http://www.w3.org/Graphics/SVG/1.1/DTD/svg11.dtd">
<svg version="1.1" xmlns="http://www.w3.org/2000/svg" xmlns:xlink="http://www.w3.org/1999/xlink" x="0px" y="0px" width="45px"
	 height="45px" viewBox="0 0 45 45" enable-background="new 0 0 45 45" xml:space="preserve">
<g id="Layer_1">
</g>
<g id="Layer_2">
</g>
<g id="Layer_3">
</g>
<g id="Layer_4">
	<g>
		<g>
			<polyline fill="none" stroke="#444444" stroke-width="1.5" stroke-linecap="round" stroke-miterlimit="10" points="
				24.684,34.551 5.211,34.551 5.211,7.219 37.863,7.219 37.863,28.012 			"/>
			<line fill="none" stroke="#444444" stroke-width="1.5" stroke-miterlimit="10" x1="5.211" y1="13.598" x2="37.441" y2="13.598"/>
			<line fill="none" stroke="#444444" stroke-width="1.5" stroke-miterlimit="10" x1="9.259" y1="18.344" x2="33.393" y2="18.344"/>
			<line fill="none" stroke="#444444" stroke-width="1.5" stroke-miterlimit="10" x1="9.259" y1="22.145" x2="31.215" y2="22.145"/>
			<line fill="none" stroke="#444444" stroke-width="1.5" stroke-miterlimit="10" x1="9.259" y1="25.975" x2="28.629" y2="25.975"/>
			
				<line fill="none" stroke="#444444" stroke-width="1.5" stroke-miterlimit="10" x1="34.031" y1="10.386" x2="35.625" y2="10.386"/>
			<line fill="none" stroke="#444444" stroke-width="1.5" stroke-miterlimit="10" x1="9.259" y1="29.6" x2="19.629" y2="29.6"/>
			
				<line fill="none" stroke="#444444" stroke-width="1.5" stroke-miterlimit="10" x1="31.359" y1="10.386" x2="32.953" y2="10.386"/>
			
				<line fill="none" stroke="#444444" stroke-width="1.5" stroke-miterlimit="10" x1="28.672" y1="10.386" x2="30.266" y2="10.386"/>
		</g>
		
			<path fill="none" stroke="#444444" stroke-width="1.5" stroke-linecap="square" stroke-linejoin="round" stroke-miterlimit="10" d="
			M41.694,33.973c0,0-3.081,3.739-6.88,3.739c-3.801,0-6.882-3.739-6.882-3.739s3.081-3.739,6.882-3.739
			C38.613,30.233,41.694,33.973,41.694,33.973z"/>
		
			<circle fill="none" stroke="#444444" stroke-width="1.5" stroke-linecap="square" stroke-linejoin="round" stroke-miterlimit="10" cx="34.922" cy="33.87" r="1.462"/>
	</g>
</g>
<g id="Layer_5">
</g>
</svg>
