<?xml version="1.0" encoding="utf-8"?>
<!-- Generator: Adobe Illustrator 16.0.0, SVG Export Plug-In . SVG Version: 6.00 Build 0)  -->
<!DOCTYPE svg PUBLIC "-//W3C//DTD SVG 1.1//EN" "http://www.w3.org/Graphics/SVG/1.1/DTD/svg11.dtd">
<svg version="1.1" xmlns="http://www.w3.org/2000/svg" xmlns:xlink="http://www.w3.org/1999/xlink" x="0px" y="0px" width="45px"
	 height="45px" viewBox="0 0 45 45" enable-background="new 0 0 45 45" xml:space="preserve">
<g id="Layer_1">
</g>
<g id="Layer_2">
</g>
<g id="Layer_3">
</g>
<g id="Layer_4">
	<g>
		<polyline fill="none" stroke="#454545" stroke-width="1.5" stroke-miterlimit="10" points="18.667,24.042 4.991,24.042 
			4.991,7.243 34.746,7.243 32.509,16.543 		"/>
		<polyline fill="none" stroke="#454545" stroke-width="1.5" stroke-miterlimit="10" points="13.415,11.366 8.406,11.366 
			8.406,15.539 12.419,15.539 12.419,19.257 7.796,19.257 		"/>
		<polyline fill="none" stroke="#454545" stroke-width="1.5" stroke-miterlimit="10" points="15.816,19.874 15.816,11.366 
			19.795,11.366 19.795,19.874 		"/>
		<polyline fill="none" stroke="#454545" stroke-width="1.5" stroke-miterlimit="10" points="22.756,19.874 22.756,11.366 
			26.734,11.366 27.466,11.366 27.466,15.619 23.229,15.619 		"/>
		<line fill="none" stroke="#454545" stroke-width="1.5" stroke-miterlimit="10" x1="16.299" y1="15.619" x2="19.67" y2="15.619"/>
		<g>
			<g>
				<g>
					<g>
						<g>
							<g>
								<path fill="none" stroke="#3D3D3C" stroke-width="1.5" stroke-miterlimit="10" d="M34.018,37.273l-2.02,0.459
									c-0.303,0.068-0.408,0.094-2.027-2.235l-0.873-0.144c-1.953,1.482-2.211,1.541-2.298,1.561l-0.166,0.038l-0.169-0.089
									l-1.75-1.075c-0.267-0.167-0.359-0.226,0.186-3.011l-0.502-0.697c-2.842-0.346-2.869-0.455-2.938-0.766l-0.449-1.979
									c-0.071-0.311-0.093-0.409,2.298-2.018l0.149-0.848c-1.75-2.222-1.687-2.318-1.503-2.591l1.195-1.858l0.191-0.049
									c0.231-0.052,1.166,0.066,2.776,0.352l0.724-0.504c0.374-2.792,0.492-2.819,0.795-2.887l2.018-0.458
									c0.304-0.069,0.41-0.094,2.027,2.236l0.875,0.141c1.95-1.48,2.213-1.54,2.299-1.559l0.166-0.038l0.17,0.088l1.748,1.072
									c0.269,0.17,0.358,0.229-0.186,3.015l0.503,0.701c2.845,0.34,2.87,0.449,2.941,0.76l0.448,1.978
									c0.069,0.303,0.095,0.409-2.299,2.021L38.2,29.734c1.741,2.214,1.682,2.31,1.511,2.582l-1.205,1.871l-0.191,0.049
									c-0.23,0.053-1.164-0.067-2.771-0.355l-0.729,0.506C34.436,37.18,34.326,37.204,34.018,37.273z"/>
							</g>
						</g>
					</g>
				</g>
			</g>
			
				<line fill="none" stroke="#454545" stroke-width="1.5" stroke-linecap="round" stroke-miterlimit="10" x1="27.88" y1="30.053" x2="33.184" y2="24.486"/>
			<polyline fill="none" stroke="#454545" stroke-width="1.5" stroke-linecap="round" stroke-miterlimit="10" points="33.15,24.454 
				28.09,25.061 27.848,30.021 			"/>
			
				<line fill="none" stroke="#454545" stroke-width="1.5" stroke-linecap="round" stroke-miterlimit="10" x1="30.525" y1="27.439" x2="34.805" y2="31.5"/>
		</g>
	</g>
</g>
<g id="Layer_5">
</g>
</svg>
