<?xml version="1.0" encoding="utf-8"?>
<!-- Generator: Adobe Illustrator 16.0.0, SVG Export Plug-In . SVG Version: 6.00 Build 0)  -->
<!DOCTYPE svg PUBLIC "-//W3C//DTD SVG 1.1//EN" "http://www.w3.org/Graphics/SVG/1.1/DTD/svg11.dtd">
<svg version="1.1" id="Layer_1" xmlns="http://www.w3.org/2000/svg" xmlns:xlink="http://www.w3.org/1999/xlink" x="0px" y="0px"
	 width="45px" height="45px" viewBox="0 0 45 45" enable-background="new 0 0 45 45" xml:space="preserve">
<g>
	<path fill="none" stroke="#444444" stroke-width="1.5" stroke-linecap="round" stroke-linejoin="round" stroke-miterlimit="10" d="
		M26.253,10.348H8.531c-0.264,0-0.478,0.214-0.478,0.478v24.283c0,0.264,0.214,0.478,0.478,0.478h17.471"/>
	<path fill="none" stroke="#444444" stroke-width="1.5" stroke-miterlimit="10" d="M31.959,34.552"/>
	
		<line fill="none" stroke="#444444" stroke-width="1.5" stroke-linecap="round" stroke-linejoin="round" stroke-miterlimit="10" x1="12.615" y1="23.491" x2="25.303" y2="23.491"/>
	
		<line fill="none" stroke="#444444" stroke-width="1.5" stroke-linecap="round" stroke-linejoin="round" stroke-miterlimit="10" x1="12.615" y1="26.936" x2="21.72" y2="26.936"/>
	
		<line fill="none" stroke="#444444" stroke-width="1.5" stroke-linecap="round" stroke-linejoin="round" stroke-miterlimit="10" x1="12.615" y1="30.381" x2="21.72" y2="30.381"/>
	<g>
		<path fill="#444444" d="M14.047,20.405v-0.8c-0.565-0.025-1.111-0.176-1.432-0.362l0.252-0.983c0.355,0.193,0.85,0.37,1.396,0.37
			c0.481,0,0.81-0.184,0.81-0.521c0-0.32-0.271-0.521-0.893-0.732c-0.899-0.302-1.516-0.722-1.516-1.538
			c0-0.74,0.523-1.321,1.428-1.497v-0.799h0.82v0.741c0.563,0.026,0.944,0.142,1.219,0.277l-0.245,0.95
			c-0.218-0.092-0.603-0.286-1.209-0.286c-0.549,0-0.723,0.236-0.723,0.472c0,0.276,0.294,0.454,1.009,0.723
			c1.001,0.353,1.405,0.815,1.405,1.572c0,0.75-0.531,1.389-1.498,1.556v0.859H14.047z"/>
	</g>
	<g>
		<path fill="#F9F9FA" stroke="#444444" stroke-width="1.5" stroke-miterlimit="10" d="M32.719,14.425c-1.67,0-3.03-1.36-3.03-3.03
			c0-1.67,1.359-3.03,3.03-3.03s3.03,1.36,3.03,3.03C35.749,13.065,34.39,14.425,32.719,14.425z M34.043,38.824h-4.411
			c-0.21,0-0.381-0.171-0.381-0.381V21.618c0-1.333-1.085-2.901-2.419-2.901h-5.789c-0.584,0-1.06-0.476-1.06-1.06
			s0.476-1.059,1.06-1.059h11.676c2.912,0,5.281,2.852,5.281,5.764v5.639c0,0.522-0.424,0.947-0.945,0.947
			c-0.48,0-0.868,0.389-0.868,0.867v8.628c0,0.21-0.172,0.381-0.381,0.381h-2.219"/>
	</g>
	
		<line fill="none" stroke="#444444" stroke-width="1.5" stroke-linecap="round" stroke-miterlimit="10" x1="32.906" y1="30.135" x2="32.906" y2="38.65"/>
</g>
</svg>
