<?xml version="1.0" encoding="utf-8"?>
<!-- Generator: Adobe Illustrator 16.0.0, SVG Export Plug-In . SVG Version: 6.00 Build 0)  -->
<!DOCTYPE svg PUBLIC "-//W3C//DTD SVG 1.1//EN" "http://www.w3.org/Graphics/SVG/1.1/DTD/svg11.dtd">
<svg version="1.1" id="Layer_1" xmlns="http://www.w3.org/2000/svg" xmlns:xlink="http://www.w3.org/1999/xlink" x="0px" y="0px"
	 width="45px" height="45px" viewBox="0 0 45 45" enable-background="new 0 0 45 45" xml:space="preserve">
<g>
	
		<line fill="none" stroke="#444444" stroke-width="1.5" stroke-linecap="round" stroke-linejoin="round" stroke-miterlimit="10" x1="22.935" y1="25.823" x2="22.935" y2="36.328"/>
	
		<polyline fill="none" stroke="#444444" stroke-width="1.5" stroke-linecap="round" stroke-linejoin="round" stroke-miterlimit="10" points="
		35.834,36.328 35.834,31.075 22.935,31.075 10.037,31.075 10.037,36.328 	"/>
	<g>
		<path fill="none" stroke="#444444" stroke-width="1.5" stroke-linecap="round" stroke-miterlimit="10" d="M31.985,25.315
			c3.826-0.34,5.057-3.161,5.057-6.14c0-2.429-2.16-5.434-5.174-6.019c-1.121-2.988-4.077-4.981-7.444-4.981
			c-3.174,0-6.031,1.811-7.266,4.557c-0.581-0.256-1.213-0.389-1.856-0.389c-2.449,0-4.442,1.888-4.446,4.209
			c-1.274,0.923-2.027,2.357-2.027,3.884c0,2.69,2.313,4.879,5.233,4.88L31.985,25.315z"/>
	</g>
	<path fill="none" stroke="#444444" stroke-width="1.5" stroke-linecap="round" stroke-linejoin="round" stroke-miterlimit="10" d="
		M12.358,38.318c0,0.293-0.237,0.53-0.531,0.53H8.246c-0.293,0-0.531-0.237-0.531-0.53v-1.459c0-0.293,0.238-0.531,0.531-0.531
		h3.582c0.293,0,0.531,0.238,0.531,0.531V38.318z"/>
	<path fill="none" stroke="#444444" stroke-width="1.5" stroke-linecap="round" stroke-linejoin="round" stroke-miterlimit="10" d="
		M25.257,38.318c0,0.293-0.237,0.53-0.531,0.53h-3.582c-0.292,0-0.53-0.237-0.53-0.53v-1.459c0-0.293,0.238-0.531,0.53-0.531h3.582
		c0.293,0,0.531,0.238,0.531,0.531V38.318z"/>
	<path fill="none" stroke="#444444" stroke-width="1.5" stroke-linecap="round" stroke-linejoin="round" stroke-miterlimit="10" d="
		M38.156,38.318c0,0.293-0.237,0.53-0.531,0.53h-3.582c-0.292,0-0.53-0.237-0.53-0.53v-1.459c0-0.293,0.238-0.531,0.53-0.531h3.582
		c0.293,0,0.531,0.238,0.531,0.531V38.318z"/>
</g>
</svg>
