<?xml version="1.0" encoding="utf-8"?>
<!-- Generator: Adobe Illustrator 16.0.0, SVG Export Plug-In . SVG Version: 6.00 Build 0)  -->
<!DOCTYPE svg PUBLIC "-//W3C//DTD SVG 1.1//EN" "http://www.w3.org/Graphics/SVG/1.1/DTD/svg11.dtd">
<svg version="1.1" xmlns="http://www.w3.org/2000/svg" xmlns:xlink="http://www.w3.org/1999/xlink" x="0px" y="0px" width="45px"
	 height="45px" viewBox="0 0 45 45" enable-background="new 0 0 45 45" xml:space="preserve">
<g id="Layer_1">
</g>
<g id="Layer_2">
</g>
<g id="Layer_3">
</g>
<g id="Layer_4">
	<g>
		<g>
			<path fill="none" stroke="#444444" stroke-width="1.5" stroke-linejoin="round" stroke-miterlimit="10" d="M19.767,24.121v2.572
				l-4.741,1.692c-1.131,0.406-1.885,1.478-1.885,2.676v1.783h17.98v-1.783c0-1.199-0.754-2.271-1.883-2.676l-4.74-1.692v-2.75"/>
			
				<ellipse fill="none" stroke="#444444" stroke-width="1.5" stroke-linejoin="round" stroke-miterlimit="10" cx="22.012" cy="19.124" rx="4.732" ry="5.678"/>
			<path fill="none" stroke="#444444" stroke-width="1.5" stroke-linejoin="round" stroke-miterlimit="10" d="M26.699,18.605
				c-0.158,0.021-0.268,0.013-0.43,0.045c-1.609,0.309-2.645-0.275-3.533-1.827c-0.531,1.021-2.196,1.827-3.563,1.827
				c-0.672,0-1.252-0.139-1.83-0.44"/>
		</g>
		
			<path fill="none" stroke="#444444" stroke-width="1.5" stroke-linecap="round" stroke-linejoin="round" stroke-miterlimit="10" d="
			M36,19.584V35.83c0,1.052-0.853,1.904-1.905,1.904H10.436c-1.052,0-1.904-0.853-1.904-1.904V11.17
			c0-1.052,0.853-1.904,1.904-1.904h17.268"/>
		<g id="_x37_7_Essential_Icons_42_">
			<path id="Notification" fill="none" stroke="#454545" stroke-width="1.5" stroke-miterlimit="10" d="M31.073,12.237l0.862,2.358
				l-0.729,1.55c-0.041,0.067-0.054,0.146-0.026,0.226c0.052,0.146,0.211,0.211,0.344,0.159l0,0l2.888-1.033
				c0.346,0.583,1.087,0.861,1.75,0.623c0.662-0.238,1.047-0.914,0.928-1.59l2.862-1.047c0.226-0.08,0.238-0.384,0.026-0.477
				l-1.59-0.729l-0.861-2.358c-0.622-1.669-2.438-2.57-4.146-2.106l-0.147-0.371c-0.039-0.132-0.198-0.212-0.331-0.159
				c-0.146,0.04-0.212,0.199-0.159,0.331l0.134,0.384C31.261,8.727,30.451,10.567,31.073,12.237z M34.412,15.497l2.678-0.967"/>
		</g>
	</g>
</g>
<g id="Layer_5">
</g>
</svg>
