<?xml version="1.0" encoding="utf-8"?>
<!-- Generator: Adobe Illustrator 16.0.0, SVG Export Plug-In . SVG Version: 6.00 Build 0)  -->
<!DOCTYPE svg PUBLIC "-//W3C//DTD SVG 1.1//EN" "http://www.w3.org/Graphics/SVG/1.1/DTD/svg11.dtd">
<svg version="1.1" id="Layer_1" xmlns="http://www.w3.org/2000/svg" xmlns:xlink="http://www.w3.org/1999/xlink" x="0px" y="0px"
	 width="45px" height="45px" viewBox="0 0 45 45" enable-background="new 0 0 45 45" xml:space="preserve">
<g>
	<path fill="#FFFFFF" stroke="#434343" stroke-width="1.5" stroke-miterlimit="10" d="M9.137,4.92h25.374
		c0.865,0,1.566,0.701,1.566,1.566v2.87c0,0.865-0.701,1.565-1.566,1.565H9.137"/>
	<path fill="#FFFFFF" stroke="#434343" stroke-width="1.5" stroke-miterlimit="10" d="M9.137,9.551h13.886
		c0.865,0,1.566,0.701,1.566,1.565v6.301c0,0.865-0.701,1.565-1.566,1.565H9.137"/>
	<path fill="#FFFFFF" stroke="#434343" stroke-width="1.5" stroke-miterlimit="10" d="M9.137,23.273H28.6
		c0.865,0,1.566,0.701,1.566,1.566v2.87c0,0.865-0.701,1.565-1.566,1.565H9.137"/>
	
		<line fill="none" stroke="#434343" stroke-width="1.5" stroke-linecap="round" stroke-miterlimit="10" x1="9.117" y1="0.9" x2="9.117" y2="43.93"/>
	
		<line fill="none" stroke="#434343" stroke-width="1.5" stroke-linecap="round" stroke-miterlimit="10" x1="14.15" y1="37.262" x2="23.259" y2="37.262"/>
	<polyline fill="none" stroke="#434343" stroke-width="1.5" stroke-linecap="round" stroke-miterlimit="10" points="16.039,34.412 
		13.659,37.294 16.039,40.049 	"/>
</g>
</svg>
