<?xml version="1.0" encoding="utf-8"?>
<!-- Generator: Adobe Illustrator 16.0.0, SVG Export Plug-In . SVG Version: 6.00 Build 0)  -->
<!DOCTYPE svg PUBLIC "-//W3C//DTD SVG 1.1//EN" "http://www.w3.org/Graphics/SVG/1.1/DTD/svg11.dtd">
<svg version="1.1" id="Layer_1" xmlns="http://www.w3.org/2000/svg" xmlns:xlink="http://www.w3.org/1999/xlink" x="0px" y="0px"
	 width="45px" height="45px" viewBox="0 0 45 45" enable-background="new 0 0 45 45" xml:space="preserve">
<path fill="none" stroke="#454545" stroke-width="1.5" stroke-linecap="round" stroke-linejoin="round" stroke-miterlimit="10" d="
	M26.75,17.08v-6.134c0.001-1.555-1.265-2.82-2.817-2.82H12.034c-1.553,0-2.817,1.264-2.817,2.819v25
	c0,1.554,1.265,2.819,2.817,2.819h11.898c1.553,0,2.817-1.265,2.817-2.819v-0.153 M10.058,14.082h15.852 M10.058,33.357h9.852"/>
<path fill="none" stroke="#454545" stroke-width="1.5" stroke-linecap="round" stroke-linejoin="round" stroke-miterlimit="10" d="
	M27.774,24.599c0,2.704-2.192,4.895-4.896,4.895l0,0c-2.704,0-4.896-2.191-4.896-4.895l0,0c0-2.704,2.191-4.896,4.896-4.896l0,0
	C25.582,19.703,27.774,21.895,27.774,24.599L27.774,24.599z"/>
<path fill="none" stroke="#454545" stroke-width="1.5" stroke-linecap="round" stroke-linejoin="round" stroke-miterlimit="10" d="
	M38.349,20.003c0,2.461-1.996,4.457-4.457,4.457l0,0c-2.462,0-4.457-1.995-4.457-4.457l0,0c0-2.462,1.995-4.457,4.457-4.457l0,0
	C36.353,15.546,38.349,17.542,38.349,20.003L38.349,20.003z"/>
<path fill="none" stroke="#454545" stroke-width="1.5" stroke-linecap="round" stroke-linejoin="round" stroke-miterlimit="10" d="
	M37.078,31.333c0,2.461-1.996,4.457-4.458,4.457l0,0c-2.462,0-4.457-1.996-4.457-4.457l0,0c0-2.462,1.995-4.458,4.457-4.458l0,0
	C35.082,26.876,37.078,28.872,37.078,31.333L37.078,31.333z"/>
<g>
	<path fill="#444444" d="M24.75,23.445c-0.172,0-0.313,0.14-0.313,0.312v1.248c0,0.172,0.141,0.312,0.313,0.312
		c0.171,0,0.312-0.14,0.312-0.312v-1.248C25.062,23.585,24.921,23.445,24.75,23.445z M21.007,23.445
		c-0.172,0-0.312,0.14-0.312,0.312v1.248c0,0.172,0.14,0.312,0.312,0.312s0.312-0.14,0.312-0.312v-1.248
		C21.318,23.585,21.179,23.445,21.007,23.445z M21.475,25.472c0,0.259,0.209,0.468,0.468,0.468h0.156v0.624
		c0,0.172,0.141,0.312,0.312,0.312c0.172,0,0.312-0.14,0.312-0.312V25.94h0.313v0.624c0,0.172,0.141,0.312,0.312,0.312
		c0.172,0,0.313-0.14,0.313-0.312V25.94h0.156c0.258,0,0.467-0.209,0.467-0.468v-1.715h-2.807V25.472z M23.456,22.322l0.197-0.379
		c0.011-0.019,0.003-0.042-0.017-0.053c-0.019-0.01-0.042-0.002-0.053,0.017l-0.2,0.385c-0.156-0.061-0.327-0.094-0.506-0.094
		c-0.178,0-0.349,0.033-0.506,0.094l-0.2-0.385c-0.01-0.019-0.033-0.026-0.053-0.017c-0.019,0.01-0.026,0.034-0.017,0.053
		l0.197,0.379c-0.441,0.2-0.761,0.622-0.816,1.124h2.79C24.218,22.943,23.897,22.521,23.456,22.322z M22.255,23.203
		c-0.125,0-0.227-0.101-0.227-0.226s0.102-0.226,0.227-0.226c0.124,0,0.226,0.101,0.226,0.226S22.379,23.203,22.255,23.203z
		 M23.502,23.203c-0.125,0-0.226-0.101-0.226-0.226s0.101-0.226,0.226-0.226s0.227,0.101,0.227,0.226S23.627,23.203,23.502,23.203z"
		/>
</g>
<g>
	<path fill="#444444" d="M35.035,19.788c-0.006-0.53,0.433-0.785,0.452-0.797c-0.246-0.36-0.63-0.41-0.767-0.415
		c-0.326-0.033-0.636,0.192-0.802,0.192c-0.165,0-0.421-0.187-0.691-0.182c-0.355,0.005-0.683,0.207-0.866,0.525
		c-0.369,0.641-0.095,1.591,0.266,2.111c0.176,0.254,0.386,0.54,0.661,0.53c0.265-0.011,0.365-0.171,0.687-0.171
		c0.32,0,0.41,0.171,0.691,0.166c0.285-0.005,0.466-0.259,0.641-0.515c0.202-0.295,0.285-0.581,0.29-0.595
		C35.591,20.633,35.04,20.422,35.035,19.788z M34.508,18.231c0.146-0.177,0.244-0.423,0.218-0.669
		c-0.211,0.009-0.466,0.14-0.617,0.317c-0.136,0.157-0.254,0.407-0.223,0.648C34.121,18.546,34.361,18.408,34.508,18.231z"/>
</g>
<g>
	<path id="Windows" fill="#444444" d="M31.363,29.599c0.268-0.106,0.503-0.16,0.718-0.164c0.113,0,0.219,0.012,0.32,0.036
		c0.153,0.039,0.366,0.154,0.447,0.201l-0.385,1.311c-0.196-0.125-0.433-0.247-0.753-0.25l0,0c-0.213,0-0.445,0.049-0.715,0.15
		L31.363,29.599z M31.967,32.742c0.095-0.321,0.323-1.099,0.392-1.331c-0.05-0.03-0.101-0.06-0.152-0.088
		c-0.197-0.101-0.39-0.152-0.571-0.152c-0.025,0-0.05,0.001-0.075,0.003c-0.231,0.019-0.442,0.08-0.58,0.127
		c-0.035,0.013-0.072,0.027-0.11,0.042l-0.373,1.286c0.257-0.094,0.483-0.14,0.69-0.14C31.521,32.489,31.765,32.614,31.967,32.742z
		 M34.236,31.784c-0.244,0.078-0.478,0.118-0.695,0.118c-0.398,0-0.677-0.129-0.853-0.252l-0.376,1.297
		c0.112,0.063,0.486,0.264,0.773,0.264c0.231,0,0.49-0.059,0.792-0.181L34.236,31.784z M34.745,30.027
		c-0.244,0.094-0.482,0.142-0.71,0.142c-0.381,0-0.661-0.131-0.843-0.257l-0.381,1.314c0.255,0.164,0.531,0.248,0.821,0.248
		c0.236,0,0.481-0.057,0.729-0.168l-0.001-0.009l0.015-0.004L34.745,30.027z"/>
</g>
</svg>
