<?xml version="1.0" encoding="utf-8"?>
<!-- Generator: Adobe Illustrator 16.0.0, SVG Export Plug-In . SVG Version: 6.00 Build 0)  -->
<!DOCTYPE svg PUBLIC "-//W3C//DTD SVG 1.1//EN" "http://www.w3.org/Graphics/SVG/1.1/DTD/svg11.dtd">
<svg version="1.1" id="Layer_1" xmlns="http://www.w3.org/2000/svg" xmlns:xlink="http://www.w3.org/1999/xlink" x="0px" y="0px"
	 width="320.687px" height="252.675px" viewBox="0 0 320.687 252.675" enable-background="new 0 0 320.687 252.675"
	 xml:space="preserve">
<g>
	<polygon fill="#E8E8E8" points="0,203.982 155.2,154.884 320.687,203.982 160.343,252.675 	"/>
	<circle fill="none" stroke="#3B3B3B" stroke-width="6" stroke-miterlimit="10" cx="220.847" cy="15.268" r="12.268"/>
	<circle fill="none" stroke="#3B3B3B" stroke-width="6" stroke-miterlimit="10" cx="166.669" cy="13.125" r="9.082"/>
	<circle fill="#3B3B3B" cx="193.419" cy="29.039" r="6.832"/>
	
		<line fill="none" stroke="#3B3B3B" stroke-width="6" stroke-linecap="round" stroke-miterlimit="10" x1="255.495" y1="42.34" x2="243.245" y2="92.09"/>
	<polyline fill="none" stroke="#3B3B3B" stroke-width="6" stroke-linecap="round" stroke-miterlimit="10" points="267.752,54.84 
		282.002,72.09 267.752,88.59 	"/>
	<polyline fill="none" stroke="#3B3B3B" stroke-width="6" stroke-linecap="round" stroke-miterlimit="10" points="228.002,54.84 
		213.752,72.09 228.002,88.59 	"/>
	<g>
		
			<path fill="none" stroke="#3B3B3B" stroke-width="6" stroke-linecap="round" stroke-miterlimit="10" stroke-dasharray="361.4154,36.1415" d="
			M171.929,86.573c33.704,9.238,53.539,44.051,44.301,77.756c-9.239,33.705-44.053,53.539-77.757,44.302
			c-33.706-9.241-53.539-44.054-44.3-77.759C103.411,97.167,138.224,77.334,171.929,86.573z"/>
	</g>
	<path fill="none" stroke="#3B3B3B" stroke-width="6" stroke-linecap="round" stroke-miterlimit="10" d="M179.639,39.255
		c0,3.314-2.687,6-6,6h-40.438c-3.313,0-6-2.686-6-6v-2.216c0-3.313,2.687-6,6-6h40.438c3.313,0,6,2.687,6,6V39.255z"/>
	
		<line fill="none" stroke="#3B3B3B" stroke-width="6" stroke-linecap="round" stroke-miterlimit="10" x1="136.912" y1="87.032" x2="136.912" y2="45.255"/>
	
		<line fill="none" stroke="#3B3B3B" stroke-width="6" stroke-linecap="round" stroke-miterlimit="10" x1="170.912" y1="86.032" x2="170.912" y2="45.255"/>
	<circle fill="none" stroke="#3B3B3B" stroke-width="6" stroke-miterlimit="10" cx="179.996" cy="180.944" r="7.439"/>
	<circle fill="none" stroke="#3B3B3B" stroke-width="6" stroke-miterlimit="10" cx="123.996" cy="166.944" r="7.439"/>
	<circle fill="#3B3B3B" cx="144.745" cy="191.03" r="6.832"/>
	
		<line fill="none" stroke="#3B3B3B" stroke-width="6" stroke-linecap="round" stroke-miterlimit="10" x1="92.511" y1="148.601" x2="142.745" y2="148.601"/>
	
		<line fill="none" stroke="#3B3B3B" stroke-width="6" stroke-linecap="round" stroke-miterlimit="10" x1="172.511" y1="148.601" x2="217.745" y2="148.601"/>
	
		<line fill="none" stroke="#3B3B3B" stroke-width="6" stroke-linecap="round" stroke-miterlimit="10" x1="184.511" y1="160.601" x2="215.745" y2="160.601"/>
	<path fill="none" stroke="#3B3B3B" stroke-width="6" stroke-linecap="round" stroke-miterlimit="10" d="M157.587,98.579
		c0,0-43.596,0-52.553,47.979"/>
	<g>
		
			<circle fill="none" stroke="#3B3B3B" stroke-width="6" stroke-linecap="round" stroke-miterlimit="10" stroke-dasharray="64.5713,23.4805" cx="156.918" cy="147.021" r="14.017"/>
	</g>
</g>
</svg>
