<?xml version="1.0" encoding="utf-8"?>
<!-- Generator: Adobe Illustrator 16.0.0, SVG Export Plug-In . SVG Version: 6.00 Build 0)  -->
<!DOCTYPE svg PUBLIC "-//W3C//DTD SVG 1.1//EN" "http://www.w3.org/Graphics/SVG/1.1/DTD/svg11.dtd">
<svg version="1.1" id="Layer_1" xmlns="http://www.w3.org/2000/svg" xmlns:xlink="http://www.w3.org/1999/xlink" x="0px" y="0px"
	 width="320.687px" height="252.71px" viewBox="0 0 320.687 252.71" enable-background="new 0 0 320.687 252.71"
	 xml:space="preserve">
<g>
	<polygon fill="#E8E8E8" points="0,204.018 155.2,154.919 320.687,204.018 160.343,252.71 	"/>
	
		<line fill="none" stroke="#3B3B3B" stroke-width="6" stroke-linecap="round" stroke-miterlimit="10" x1="38.128" y1="145.363" x2="141.441" y2="21.936"/>
	
		<line fill="none" stroke="#3B3B3B" stroke-width="6" stroke-linecap="round" stroke-miterlimit="10" x1="158.579" y1="17.661" x2="262.19" y2="48.534"/>
	
		<circle fill="none" stroke="#3B3B3B" stroke-width="6" stroke-linecap="round" stroke-miterlimit="10" cx="148.349" cy="13.23" r="10.23"/>
	<path fill="none" stroke="#3B3B3B" stroke-width="6" stroke-linecap="round" stroke-miterlimit="10" d="M299.671,51.811
		c0,10.327-8.374,18.702-18.706,18.702c-10.325,0-18.701-8.375-18.701-18.702c0-10.329,8.376-18.704,18.701-18.704
		C291.297,33.107,299.671,41.481,299.671,51.811z"/>
	
		<circle fill="none" stroke="#3B3B3B" stroke-width="6" stroke-linecap="round" stroke-miterlimit="10" cx="254.525" cy="139.687" r="10.23"/>
	
		<circle fill="none" stroke="#3B3B3B" stroke-width="6" stroke-linecap="round" stroke-miterlimit="10" cx="119.903" cy="113.267" r="10.23"/>
	
		<circle fill="none" stroke="#3B3B3B" stroke-width="6" stroke-linecap="round" stroke-miterlimit="10" cx="29.589" cy="152.266" r="10.23"/>
	<path fill="none" stroke="#3B3B3B" stroke-width="6" stroke-linecap="round" stroke-miterlimit="10" d="M192.077,185.242
		c0,20.747-16.817,37.564-37.568,37.564c-20.74,0-37.561-16.817-37.561-37.564c0-20.74,16.82-37.564,37.561-37.564
		C175.26,147.677,192.077,164.501,192.077,185.242z"/>
	
		<line fill="none" stroke="#3B3B3B" stroke-width="6" stroke-linecap="round" stroke-miterlimit="10" x1="177.246" y1="153.917" x2="265.19" y2="63.041"/>
	
		<line fill="none" stroke="#3B3B3B" stroke-width="6" stroke-linecap="round" stroke-miterlimit="10" x1="40.913" y1="148.677" x2="110.246" y2="118.375"/>
	
		<line fill="none" stroke="#3B3B3B" stroke-width="6" stroke-linecap="round" stroke-miterlimit="10" x1="263.579" y1="61.374" x2="131.246" y2="109.041"/>
	
		<line fill="none" stroke="#3B3B3B" stroke-width="6" stroke-linecap="round" stroke-miterlimit="10" x1="143.441" y1="23.04" x2="120.913" y2="102.04"/>
	
		<line fill="none" stroke="#3B3B3B" stroke-width="6" stroke-linecap="round" stroke-miterlimit="10" x1="137.579" y1="150.363" x2="123.579" y2="123.373"/>
	
		<line fill="none" stroke="#3B3B3B" stroke-width="6" stroke-linecap="round" stroke-miterlimit="10" x1="190.077" y1="169.372" x2="244.913" y2="144.363"/>
	
		<line fill="none" stroke="#3B3B3B" stroke-width="6" stroke-linecap="round" stroke-miterlimit="10" x1="273.913" y1="69.706" x2="258.913" y2="130.497"/>
	
		<line fill="none" stroke="#3B3B3B" stroke-width="6" stroke-linecap="round" stroke-miterlimit="10" x1="40.246" y1="151.868" x2="117.246" y2="177.04"/>
	<path fill="#3B3B3B" d="M152.268,189.213c-10.161,0-18.401-3.29-18.401-7.359v7.359c0,4.07,8.24,7.359,18.401,7.359
		s18.401-3.294,18.401-7.359v-7.359C170.669,185.923,162.429,189.213,152.268,189.213z"/>
	<path fill="#3B3B3B" d="M152.268,200.26c-10.161,0-18.401-3.297-18.401-7.364v7.364c0,4.066,8.24,7.359,18.401,7.359
		s18.401-3.293,18.401-7.359v-7.364C170.669,196.963,162.429,200.26,152.268,200.26z"/>
	<path fill="#3B3B3B" d="M152.268,163.454c-10.161,0-18.401,3.29-18.401,7.359v7.359c0,4.072,8.24,7.364,18.401,7.364
		s18.401-3.294,18.401-7.364v-7.359C170.669,166.744,162.429,163.454,152.268,163.454z M152.268,176.334
		c-10.112,0-16.563-3.271-16.563-5.521s6.449-5.517,16.563-5.517c10.111,0,16.56,3.266,16.56,5.517
		C168.827,173.066,162.379,176.334,152.268,176.334z"/>
	<path fill="#3B3B3B" stroke="#E8E8E8" stroke-miterlimit="10" d="M178.54,199.325l-0.965-0.354
		c0.076-0.705,0.051-1.423-0.082-2.135l0.933-0.431c0.583-0.267,0.838-0.958,0.568-1.542l-0.543-1.182
		c-0.271-0.584-0.96-0.84-1.542-0.57l-0.934,0.43c-0.456-0.564-0.985-1.051-1.568-1.45l0.355-0.964
		c0.222-0.601-0.087-1.271-0.688-1.494l-1.223-0.45c-0.582-0.216-1.276,0.104-1.492,0.687l-0.356,0.966
		c-0.702-0.075-1.421-0.051-2.134,0.081l-0.429-0.932c-0.271-0.582-0.961-0.838-1.544-0.569l-1.182,0.544
		c-0.582,0.27-0.837,0.961-0.568,1.543l0.429,0.933c-0.563,0.456-1.05,0.986-1.45,1.57l-0.964-0.355
		c-0.58-0.216-1.277,0.103-1.493,0.688l-0.45,1.221c-0.107,0.292-0.094,0.607,0.034,0.891c0.131,0.28,0.362,0.495,0.653,0.602
		l0.966,0.356c-0.077,0.705-0.053,1.421,0.08,2.136l-0.933,0.43c-0.582,0.269-0.838,0.959-0.568,1.541l0.544,1.184
		c0.268,0.581,0.96,0.837,1.541,0.568l0.934-0.428c0.456,0.563,0.986,1.049,1.57,1.448l-0.355,0.963
		c-0.109,0.292-0.096,0.609,0.035,0.891c0.129,0.281,0.36,0.497,0.653,0.605l1.22,0.45c0.291,0.107,0.606,0.095,0.889-0.035
		s0.496-0.361,0.604-0.652l0.356-0.967c0.703,0.077,1.421,0.053,2.135-0.08l0.429,0.933c0.268,0.581,0.96,0.837,1.541,0.568
		l1.183-0.545c0.583-0.269,0.837-0.958,0.569-1.542l-0.429-0.933c0.563-0.455,1.05-0.983,1.449-1.569l0.965,0.355
		c0.292,0.11,0.607,0.096,0.89-0.035c0.28-0.128,0.496-0.361,0.604-0.652l0.45-1.221C179.448,200.217,179.14,199.546,178.54,199.325
		z M172.147,202.363c-0.61,0.278-1.256,0.422-1.923,0.422c-1.788,0-3.428-1.051-4.176-2.674c-1.06-2.302-0.052-5.039,2.252-6.097
		c0.608-0.28,1.255-0.423,1.921-0.423c1.788,0,3.428,1.05,4.176,2.673C175.457,198.566,174.448,201.3,172.147,202.363z"/>
	<circle fill="#E8E8E8" cx="170.182" cy="198.286" r="4.78"/>
</g>
</svg>
