<?xml version="1.0" encoding="utf-8"?>
<!-- Generator: Adobe Illustrator 16.0.0, SVG Export Plug-In . SVG Version: 6.00 Build 0)  -->
<!DOCTYPE svg PUBLIC "-//W3C//DTD SVG 1.1//EN" "http://www.w3.org/Graphics/SVG/1.1/DTD/svg11.dtd">
<svg version="1.1" id="Layer_1" xmlns="http://www.w3.org/2000/svg" xmlns:xlink="http://www.w3.org/1999/xlink" x="0px" y="0px"
	 width="45px" height="45px" viewBox="0 0 45 45" enable-background="new 0 0 45 45" xml:space="preserve">
<g>
	<polygon fill="none" stroke="#444444" stroke-width="1.3" stroke-linecap="round" stroke-miterlimit="10" points="15.464,18.021 
		15.464,8.394 24.032,5.126 28.847,6.443 28.847,19.826 24.089,21.259 18.502,19.489 24.061,19.225 24.061,7.647 18.474,9.463 
		18.474,16.846 	"/>
	<g>
		<g>
			<path fill="none" stroke="#444444" stroke-width="1.5" stroke-linecap="round" stroke-miterlimit="10" d="M5.271,16.972v18.44
				c0,0.525,0.425,0.95,0.951,0.95h32.313c0.525,0,0.951-0.425,0.951-0.95v-18.44c0-0.526-0.426-0.95-0.951-0.95h-5.394"/>
		</g>
		
			<line fill="none" stroke="#444444" stroke-width="1.5" stroke-linecap="round" stroke-miterlimit="10" x1="1.705" y1="39.234" x2="43.29" y2="39.234"/>
		<g>
			<path fill="none" stroke="#444444" stroke-width="1.5" stroke-linecap="round" stroke-miterlimit="10" d="M5.271,17.241v-0.713
				c0-0.524,0.425-0.951,0.951-0.951h4.789"/>
		</g>
	</g>
	<line fill="none" stroke="#444444" stroke-width="1.3" stroke-miterlimit="10" x1="20.067" y1="24.035" x2="35.417" y2="24.035"/>
	<line fill="none" stroke="#444444" stroke-width="1.3" stroke-miterlimit="10" x1="20.067" y1="28.351" x2="35.417" y2="28.351"/>
	<line fill="none" stroke="#444444" stroke-width="1.3" stroke-miterlimit="10" x1="20.067" y1="32.666" x2="35.417" y2="32.666"/>
	<line fill="none" stroke="#444444" stroke-width="1.3" stroke-miterlimit="10" x1="8.731" y1="32.666" x2="16.667" y2="32.666"/>
	<rect x="8.988" y="24.035" fill="none" stroke="#444444" stroke-width="1.3" stroke-miterlimit="10" width="7.24" height="5.874"/>
	<line fill="none" stroke="#444444" stroke-width="1.3" stroke-miterlimit="10" x1="5.271" y1="19.58" x2="12.608" y2="19.58"/>
	<line fill="none" stroke="#444444" stroke-width="1.3" stroke-miterlimit="10" x1="31.748" y1="19.58" x2="39.085" y2="19.58"/>
</g>
</svg>
