<?xml version="1.0" encoding="utf-8"?>
<!-- Generator: Adobe Illustrator 16.0.0, SVG Export Plug-In . SVG Version: 6.00 Build 0)  -->
<!DOCTYPE svg PUBLIC "-//W3C//DTD SVG 1.1//EN" "http://www.w3.org/Graphics/SVG/1.1/DTD/svg11.dtd">
<svg version="1.1" id="Layer_1" xmlns="http://www.w3.org/2000/svg" xmlns:xlink="http://www.w3.org/1999/xlink" x="0px" y="0px"
	 width="45px" height="45px" viewBox="0 0 45 45" enable-background="new 0 0 45 45" xml:space="preserve">
<g>
	<g>
		<g>
			<g>
				<path fill="#434343" d="M30.537,0h-17.47c-2.283,0-4.14,1.857-4.14,4.14v36.705c0,2.283,1.857,4.14,4.14,4.14h17.47
					c2.283,0,4.14-1.857,4.14-4.14V4.14C34.677,1.857,32.82,0,30.537,0z M10.163,8.746h23.278v27.062H10.163V8.746z M13.067,1.236
					h17.47c1.482,0,2.904,1.421,2.904,2.904v3.371H10.163V4.14C10.163,2.657,11.584,1.236,13.067,1.236z M30.537,43.75h-17.47
					c-1.483,0-2.904-1.207-2.904-2.688v-4.018h23.278v4.018C33.441,42.543,32.02,43.75,30.537,43.75z"/>
				<path fill="none" stroke="#434343" stroke-width="1.5" stroke-miterlimit="10" d="M21.802,38.471
					c-1.002,0-1.817,0.815-1.817,1.818c0,1.002,0.815,1.818,1.817,1.818c1.002,0,1.817-0.816,1.817-1.818
					C23.619,39.286,22.805,38.471,21.802,38.471z"/>
				
					<line fill="none" stroke="#434343" stroke-width="1.5" stroke-linecap="round" stroke-miterlimit="10" x1="19.064" y1="4.419" x2="24.541" y2="4.419"/>
			</g>
		</g>
	</g>
	<path fill="none" stroke="#434343" stroke-width="1.5" stroke-miterlimit="10" d="M30.572,15.43c0,0.693-0.563,1.255-1.254,1.255
		H14.466c-0.693,0-1.255-0.562-1.255-1.255v-2.3c0-0.693,0.562-1.255,1.255-1.255h14.852c0.692,0,1.254,0.563,1.254,1.255V15.43z"/>
	<path fill="none" stroke="#434343" stroke-width="1.5" stroke-miterlimit="10" d="M16.976,31.536c0,0.694-0.563,1.255-1.255,1.255
		h-1.255c-0.693,0-1.255-0.562-1.255-1.255v-1.254c0-0.694,0.562-1.255,1.255-1.255h1.255c0.693,0,1.255,0.561,1.255,1.255V31.536z"
		/>
	<path fill="none" stroke="#434343" stroke-width="1.5" stroke-miterlimit="10" d="M23.878,31.536c0,0.694-0.563,1.255-1.254,1.255
		h-1.256c-0.693,0-1.255-0.562-1.255-1.255v-1.254c0-0.694,0.562-1.255,1.255-1.255h1.256c0.691,0,1.254,0.561,1.254,1.255V31.536z"
		/>
	<path fill="none" stroke="#434343" stroke-width="1.5" stroke-miterlimit="10" d="M30.781,31.536c0,0.694-0.563,1.255-1.255,1.255
		H28.27c-0.692,0-1.255-0.562-1.255-1.255v-1.254c0-0.694,0.563-1.255,1.255-1.255h1.256c0.692,0,1.255,0.561,1.255,1.255V31.536z"
		/>
	
		<line fill="none" stroke="#434343" stroke-width="1.5" stroke-linecap="round" stroke-miterlimit="10" x1="13.194" y1="19.822" x2="30.579" y2="19.822"/>
	
		<line fill="none" stroke="#434343" stroke-width="1.5" stroke-linecap="round" stroke-miterlimit="10" x1="13.194" y1="22.75" x2="28.07" y2="22.75"/>
	
		<line fill="none" stroke="#434343" stroke-width="1.5" stroke-linecap="round" stroke-miterlimit="10" x1="13.194" y1="25.679" x2="23.887" y2="25.679"/>
</g>
</svg>
