<?xml version="1.0" encoding="utf-8"?>
<!-- Generator: Adobe Illustrator 16.0.0, SVG Export Plug-In . SVG Version: 6.00 Build 0)  -->
<!DOCTYPE svg PUBLIC "-//W3C//DTD SVG 1.1//EN" "http://www.w3.org/Graphics/SVG/1.1/DTD/svg11.dtd">
<svg version="1.1" id="Layer_1" xmlns="http://www.w3.org/2000/svg" xmlns:xlink="http://www.w3.org/1999/xlink" x="0px" y="0px"
	 width="45px" height="45px" viewBox="0 0 45 45" enable-background="new 0 0 45 45" xml:space="preserve">
<g>
	<g>
		<path fill="#444444" d="M38.666,7.476h-6.81H13.144H6.335c-0.507,0-0.918,0.411-0.918,0.918v30.342
			c0,0.506,0.411,0.917,0.918,0.917h6.809h18.713h6.81c0.506,0,0.918-0.411,0.918-0.917V8.394
			C39.584,7.887,39.172,7.476,38.666,7.476z M32.773,21.678h4.975v3.964h-4.975V21.678L32.773,21.678z M37.748,19.843h-4.974v-3.963
			h4.974V19.843z M32.773,27.477h4.975v3.964h-4.975V27.477L32.773,27.477z M37.748,14.044h-4.974V9.312h4.974V14.044z
			 M7.252,21.678h4.976v3.964H7.252V21.678z M12.228,19.843H7.252v-3.963h4.976V19.843z M7.252,27.477h4.976v3.964H7.252V27.477z
			 M12.228,9.312v4.732H7.252V9.312H12.228z M7.252,33.276h4.976v4.542H7.252V33.276z M14.063,37.818V9.312h16.877v28.507H14.063
			L14.063,37.818z M32.773,37.818v-4.542h4.975v4.542H32.773z"/>
	</g>
	<g>
		<path fill="none" stroke="#444444" stroke-width="1.5" stroke-linecap="round" stroke-miterlimit="10" d="M20.48,19.401v8.746"/>
		<polyline fill="none" stroke="#444444" stroke-width="1.5" stroke-linecap="round" stroke-miterlimit="10" points="20.497,28.16 
			25.602,23.691 20.497,19.414 		"/>
	</g>
</g>
</svg>
