<?xml version="1.0" encoding="utf-8"?>
<!-- Generator: Adobe Illustrator 16.0.0, SVG Export Plug-In . SVG Version: 6.00 Build 0)  -->
<!DOCTYPE svg PUBLIC "-//W3C//DTD SVG 1.1//EN" "http://www.w3.org/Graphics/SVG/1.1/DTD/svg11.dtd">
<svg version="1.1" id="Layer_1" xmlns="http://www.w3.org/2000/svg" xmlns:xlink="http://www.w3.org/1999/xlink" x="0px" y="0px"
	 width="45px" height="45px" viewBox="0 0 45 45" enable-background="new 0 0 45 45" xml:space="preserve">
<g>
	<rect x="1.917" y="5" fill="none" stroke="#444444" stroke-width="2" stroke-miterlimit="10" width="41.336" height="35.75"/>
	<line fill="none" stroke="#444444" stroke-width="2" stroke-miterlimit="10" x1="1.917" y1="12.027" x2="42.777" y2="12.027"/>
	<rect x="16.842" y="7.963" fill="#444444" width="4.833" height="1.166"/>
	<rect x="24.013" y="7.963" fill="#444444" width="4.829" height="1.166"/>
	<rect x="31.182" y="7.963" fill="#444444" width="4.833" height="1.166"/>
	<line fill="none" stroke="#444444" stroke-width="2" stroke-miterlimit="10" x1="5.058" y1="17.699" x2="24.896" y2="17.699"/>
	<line fill="none" stroke="#444444" stroke-width="2" stroke-miterlimit="10" x1="5.058" y1="23.115" x2="20.293" y2="23.115"/>
	<rect x="4.977" y="7.38" fill="#444444" width="8.544" height="2.332"/>
	<g>
		<path fill="#444444" d="M33.992,36.545c-1.855,0.896-3.584,1.216-5.791,1.216c-5.281,0-9.855-3.808-9.855-10.047
			c0-6.527,4.672-12.223,11.838-12.223c5.633,0,9.504,3.903,9.504,9.247c0,4.736-2.656,7.615-5.887,7.615
			c-1.408,0-2.529-0.8-2.592-2.624h-0.098c-1.055,1.76-2.494,2.624-4.287,2.624c-1.984,0-3.551-1.536-3.551-4.096
			c0-3.936,3.008-7.519,7.551-7.519c1.408,0,2.816,0.32,3.648,0.736l-1.025,5.855c-0.383,2.144-0.096,3.136,0.865,3.136
			c1.504,0.064,3.264-1.888,3.264-5.567c0-4.416-2.721-7.647-7.68-7.647c-5.057,0-9.375,3.936-9.375,10.239
			c0,5.343,3.455,8.479,8.191,8.479c1.727,0,3.455-0.352,4.734-1.056L33.992,36.545z M31.656,23.074
			c-0.32-0.096-0.736-0.192-1.279-0.192c-2.432,0-4.352,2.368-4.352,5.088c0,1.312,0.607,2.208,1.791,2.208
			c1.504,0,2.943-1.92,3.264-3.808L31.656,23.074z"/>
	</g>
</g>
</svg>
