<?xml version="1.0" encoding="utf-8"?>
<!-- Generator: Adobe Illustrator 16.0.0, SVG Export Plug-In . SVG Version: 6.00 Build 0)  -->
<!DOCTYPE svg PUBLIC "-//W3C//DTD SVG 1.1//EN" "http://www.w3.org/Graphics/SVG/1.1/DTD/svg11.dtd">
<svg version="1.1" id="Layer_1" xmlns="http://www.w3.org/2000/svg" xmlns:xlink="http://www.w3.org/1999/xlink" x="0px" y="0px"
	 width="45px" height="45px" viewBox="0 0 45 45" enable-background="new 0 0 45 45" xml:space="preserve">
<g>
	<g>
		<circle fill="none" stroke="#444444" stroke-width="1.5" stroke-miterlimit="10" cx="23.071" cy="21.958" r="15.942"/>
	</g>
	<g>
		<path fill="#444444" d="M21.9,33.387v-2.915c-1.473,0-3.058-0.51-4.02-1.274l0.595-1.047c0.877,0.708,2.235,1.217,3.623,1.217
			c2.292,0,3.792-1.472,3.792-3.396c0-1.84-1.217-2.972-3.312-3.906c-2.802-1.217-4.415-2.462-4.415-4.755
			c0-2.264,1.613-3.935,3.935-4.274v-2.944h1.16v2.916c1.585,0.057,2.66,0.538,3.396,1.047l-0.595,1.047
			c-0.509-0.368-1.613-0.991-3.255-0.991c-2.406,0-3.368,1.613-3.368,2.972c0,1.783,1.075,2.604,3.566,3.708
			c2.633,1.217,4.189,2.604,4.189,5.067c0,2.094-1.415,4.161-4.133,4.585v2.943H21.9z"/>
	</g>
	<path fill="#FFFFFF" d="M27.346,32.205c0,0-2.227,0.214-0.944,2.014c1.28,1.8,3.568,5.308,6.375,5.002
		c2.807-0.304,4.668-2.349,4.759-5.186s-1.494-2.898-2.653-5.338c0,0-1.251-0.725-1.892,0.796l-1.922-2.2
		c0,0-1.251-0.183-1.313,1.037c0,0-1.305-1.923-2.074-0.854l-0.609,0.597l-1.069-1.138l-1.157,0.328l-0.214,0.81L27.346,32.205z"/>
	<g>
		<g>
			<path fill="#444444" d="M30.484,35.737l-0.598,0.432c-0.012-0.015-2.334-3.234-2.387-3.305c-0.198-0.245-0.572-0.294-0.839-0.101
				c-0.265,0.19-0.338,0.554-0.168,0.831c0.063,0.088,2.367,3.285,2.383,3.304l-0.599,0.432c-0.893-1.237-2.392-3.317-2.414-3.354
				c-0.368-0.599-0.208-1.396,0.366-1.811c0.585-0.423,1.399-0.314,1.854,0.249C28.105,32.44,30.46,35.705,30.484,35.737z"/>
			<path fill="#444444" d="M28.629,33.176l-0.599,0.431c-0.595-0.824-3.562-4.938-3.584-4.977c-0.371-0.603-0.212-1.4,0.362-1.815
				c0.586-0.423,1.4-0.313,1.854,0.25c0.02,0.023,2.39,3.308,2.4,3.323l-0.597,0.431c-0.012-0.014-2.346-3.25-2.387-3.306
				c-0.197-0.244-0.57-0.294-0.84-0.1c-0.263,0.19-0.336,0.556-0.166,0.832C25.141,28.34,28.614,33.156,28.629,33.176z"/>
			<path fill="#444444" d="M33.792,30.167l-0.599,0.431c-0.009-0.014-1.897-2.629-1.952-2.705c-0.2-0.247-0.573-0.296-0.842-0.103
				c-0.263,0.189-0.337,0.554-0.167,0.83c0.051,0.073,1.422,1.973,1.435,1.993l-0.598,0.431c-0.014-0.019-1.439-1.996-1.467-2.042
				c-0.369-0.599-0.208-1.396,0.366-1.811c0.585-0.422,1.4-0.313,1.853,0.248C31.84,27.464,33.063,29.158,33.792,30.167z"/>
			<path fill="#444444" d="M31.667,30.613l-0.597,0.431c-0.01-0.016-2.333-3.234-2.385-3.306c-0.197-0.244-0.571-0.293-0.84-0.101
				c-0.263,0.19-0.337,0.556-0.167,0.832c0.058,0.081,2.366,3.283,2.382,3.303l-0.599,0.432c-0.244-0.339-2.387-3.309-2.411-3.349
				c-0.37-0.603-0.212-1.4,0.364-1.814c0.586-0.424,1.4-0.314,1.854,0.248C29.291,27.316,31.646,30.58,31.667,30.613z"/>
		</g>
		<path fill="#444444" d="M35.732,38.529c-2.393,1.727-5.745,1.185-7.472-1.209l0.599-0.432c1.487,2.064,4.379,2.532,6.441,1.043
			c1.783-1.287,2.438-3.648,1.566-5.628c-0.237-0.33-2.304-3.196-2.361-3.272c-0.198-0.247-0.571-0.296-0.841-0.103
			c-0.263,0.189-0.336,0.555-0.166,0.83c0.104,0.169,0.055,0.42-0.107,0.5c-0.218,0.146-0.367,0.058-0.517-0.115l-0.004,0.002
			c-0.005-0.008-0.01-0.017-0.014-0.024c-0.05-0.06-0.099-0.128-0.152-0.2l0.017-0.118c-0.149-0.537,0.042-1.134,0.513-1.474
			c0.589-0.423,1.401-0.314,1.856,0.249c0.006,0.009,0.015,0.021,2.396,3.324c0.016,0.02,0.028,0.042,0.038,0.065
			C38.563,34.272,37.81,37.032,35.732,38.529z"/>
	</g>
</g>
</svg>
