<?xml version="1.0" encoding="utf-8"?>
<!-- Generator: Adobe Illustrator 16.0.0, SVG Export Plug-In . SVG Version: 6.00 Build 0)  -->
<!DOCTYPE svg PUBLIC "-//W3C//DTD SVG 1.1//EN" "http://www.w3.org/Graphics/SVG/1.1/DTD/svg11.dtd">
<svg version="1.1" id="Layer_1" xmlns="http://www.w3.org/2000/svg" xmlns:xlink="http://www.w3.org/1999/xlink" x="0px" y="0px"
	 width="45px" height="45px" viewBox="0 0 45 45" enable-background="new 0 0 45 45" xml:space="preserve">
<g>
	<path fill="#434343" d="M39.523,11.696l0.023-0.062L22.802,4.923L6.085,11.531l-0.053-0.021v0.042L6.03,11.554l0.002,0.007v20.981
		l16.763,6.571l16.766-6.571v-20.86L39.523,11.696z M22.787,6.039l5.68,2.203l-15.31,6.182l-5.758-2.238L22.787,6.039z
		 M22.198,37.802l-6.28-2.536l-3.149-1.184l-5.71-2.185V13.271l5.654,2.162v4.616l0.488-0.136l0.331,0.452l0.459-0.106l0.446,0.471
		l0.387-0.135l0.628,0.622v-4.704l0.488,0.195l6.258,2.467v18.456V37.802z M22.796,18.125l-6.972-2.585l15.607-6.121l6.738,2.707
		L22.796,18.125z M38.534,31.897l-15.139,5.904V19.175L38.533,13.1L38.534,31.897L38.534,31.897L38.534,31.897z"/>
</g>
</svg>
