<?xml version="1.0" encoding="utf-8"?>
<!-- Generator: Adobe Illustrator 16.0.0, SVG Export Plug-In . SVG Version: 6.00 Build 0)  -->
<!DOCTYPE svg PUBLIC "-//W3C//DTD SVG 1.1//EN" "http://www.w3.org/Graphics/SVG/1.1/DTD/svg11.dtd">
<svg version="1.1" id="Layer_1" xmlns="http://www.w3.org/2000/svg" xmlns:xlink="http://www.w3.org/1999/xlink" x="0px" y="0px"
	 width="45px" height="45px" viewBox="0 0 45 45" enable-background="new 0 0 45 45" xml:space="preserve">
<g>
	<g>
		<path fill="none" stroke="#444444" stroke-width="1.5" stroke-linecap="round" stroke-miterlimit="10" d="M9.656,23.099
			c0.304,3.603,1.891,6.942,4.513,9.47c2.792,2.691,6.467,4.174,10.347,4.174c3.984,0,7.729-1.551,10.545-4.369
			c2.817-2.815,4.369-6.562,4.369-10.545c0-3.984-1.552-7.729-4.369-10.546C32.244,8.465,28.5,6.914,24.516,6.914 M5.192,23.068
			h8.746"/>
		<polyline fill="none" stroke="#444444" stroke-width="1.5" stroke-linecap="round" stroke-miterlimit="10" points="13.952,23.057 
			9.482,19.363 5.206,23.057 		"/>
	</g>
	<g>
		<path fill="#444444" d="M28.378,25.682c0-0.738-0.241-1.342-0.724-1.813c-0.48-0.471-1.331-0.924-2.549-1.359
			c-1.393-0.441-2.422-0.974-3.091-1.596c-0.669-0.622-1.004-1.499-1.004-2.63c0-1.084,0.334-1.967,1.004-2.65
			c0.669-0.683,1.58-1.07,2.73-1.164v-2.028h1.023v2.028c1.172,0.107,2.078,0.545,2.721,1.315s0.957,1.81,0.943,3.122l-0.03,0.05
			h-1.124c0-1.017-0.268-1.844-0.803-2.479s-1.285-0.954-2.248-0.954c-0.991,0-1.742,0.259-2.254,0.778
			c-0.512,0.519-0.768,1.173-0.768,1.962c0,0.763,0.228,1.377,0.683,1.842c0.455,0.465,1.328,0.912,2.62,1.34
			c1.386,0.461,2.411,0.999,3.077,1.611c0.665,0.611,0.998,1.477,0.998,2.594c0,1.111-0.348,2-1.044,2.666s-1.633,1.045-2.81,1.139
			v1.908h-1.015v-1.898c-1.211-0.072-2.216-0.459-3.016-1.158s-1.186-1.756-1.159-3.168l0.03-0.059h1.125
			c0,1.191,0.338,2.049,1.014,2.574c0.676,0.525,1.493,0.787,2.45,0.787c0.99,0,1.774-0.26,2.354-0.779
			C28.088,27.141,28.378,26.48,28.378,25.682z"/>
	</g>
</g>
</svg>
