<?xml version="1.0" encoding="utf-8"?>
<!-- Generator: Adobe Illustrator 16.0.0, SVG Export Plug-In . SVG Version: 6.00 Build 0)  -->
<!DOCTYPE svg PUBLIC "-//W3C//DTD SVG 1.1//EN" "http://www.w3.org/Graphics/SVG/1.1/DTD/svg11.dtd">
<svg version="1.1" id="Layer_1" xmlns="http://www.w3.org/2000/svg" xmlns:xlink="http://www.w3.org/1999/xlink" x="0px" y="0px"
	 width="45px" height="45px" viewBox="0 0 45 45" enable-background="new 0 0 45 45" xml:space="preserve">
<g>
	<path fill="#434343" d="M27.99,7.916c-2.539,0-4.925,0.988-6.722,2.783L4.684,27.285c-0.722,0.723-1.12,1.687-1.12,2.717
		c0,1.027,0.398,1.993,1.12,2.717l8.007,8.007c0.724,0.722,1.689,1.12,2.717,1.12c1.028,0,1.994-0.398,2.717-1.12L34.71,24.139
		c3.706-3.705,3.706-9.734,0-13.44C32.915,8.904,30.528,7.916,27.99,7.916z M33.853,23.281L17.267,39.867
		c-0.494,0.494-1.153,0.766-1.859,0.766c-0.703,0-1.363-0.271-1.858-0.766L5.541,31.86c-0.493-0.495-0.765-1.155-0.765-1.858
		c0-0.706,0.271-1.365,0.765-1.86l16.586-16.585c1.566-1.565,3.647-2.428,5.863-2.428c2.214,0,4.296,0.863,5.862,2.428
		C37.085,14.79,37.085,20.049,33.853,23.281z"/>
	<path fill="#434343" d="M19.268,20.421c-0.236-0.237-0.62-0.237-0.856,0c-0.237,0.237-0.237,0.622,0,0.858l5.718,5.718
		c0.119,0.118,0.274,0.18,0.43,0.18s0.312-0.062,0.43-0.18c0.236-0.237,0.236-0.621,0-0.856L19.268,20.421z"/>
	<path fill="#434343" d="M16.98,22.709c-0.237-0.236-0.621-0.236-0.857,0c-0.237,0.237-0.237,0.62,0,0.857l5.719,5.719
		c0.119,0.119,0.273,0.178,0.43,0.178c0.154,0,0.311-0.059,0.429-0.178c0.236-0.235,0.236-0.621,0-0.856L16.98,22.709z"/>
	<path fill="#434343" d="M27.99,11.153c-1.677,0-3.25,0.651-4.433,1.833c-2.442,2.444-2.442,6.421,0,8.865
		c1.183,1.182,2.756,1.834,4.433,1.834s3.249-0.652,4.432-1.834c2.445-2.444,2.445-6.42,0-8.865
		C31.239,11.804,29.667,11.153,27.99,11.153z M31.564,20.993c-0.953,0.954-2.222,1.478-3.574,1.478
		c-1.352,0-2.622-0.524-3.574-1.478c-1.971-1.971-1.971-5.178,0-7.149c0.952-0.953,2.223-1.478,3.574-1.478
		c1.353,0,2.621,0.525,3.574,1.478C33.535,15.815,33.535,19.022,31.564,20.993z"/>
	<path fill="#434343" d="M27.99,14.387c-0.811,0-1.572,0.315-2.146,0.888c-1.181,1.183-1.181,3.106,0,4.289
		c0.573,0.572,1.335,0.888,2.146,0.888c0.812,0,1.572-0.315,2.145-0.887c1.183-1.184,1.183-3.107,0-4.29
		C29.563,14.702,28.802,14.387,27.99,14.387z M29.277,18.706c-0.344,0.343-0.8,0.532-1.287,0.532c-0.488,0-0.944-0.189-1.286-0.532
		c-0.711-0.709-0.711-1.865,0-2.574c0.342-0.343,0.798-0.532,1.286-0.532c0.487,0,0.943,0.189,1.287,0.532
		C29.986,16.841,29.986,17.997,29.277,18.706z"/>
	<path fill="#434343" d="M35.997,10.019c0.156,0,0.31-0.06,0.429-0.178l2.288-2.288c0.236-0.237,0.236-0.622,0-0.858
		c-0.237-0.236-0.621-0.236-0.857,0l-2.289,2.288c-0.235,0.237-0.235,0.621,0,0.857C35.687,9.959,35.841,10.019,35.997,10.019z"/>
	<path fill="#434343" d="M30.764,7.068c0.053,0.013,0.106,0.02,0.157,0.02c0.268,0,0.513-0.178,0.586-0.45l0.837-3.125
		c0.087-0.324-0.104-0.656-0.429-0.743c-0.323-0.087-0.655,0.105-0.743,0.429l-0.838,3.125C30.248,6.647,30.44,6.981,30.764,7.068z"
		/>
	<path fill="#434343" d="M42.64,13.494c-0.087-0.323-0.421-0.516-0.744-0.429l-3.124,0.837c-0.325,0.086-0.517,0.419-0.429,0.743
		c0.072,0.271,0.316,0.45,0.585,0.45c0.051,0,0.104-0.006,0.157-0.021l3.124-0.836C42.533,14.15,42.725,13.817,42.64,13.494z"/>
</g>
</svg>
