<?xml version="1.0" encoding="utf-8"?>
<!-- Generator: Adobe Illustrator 16.0.0, SVG Export Plug-In . SVG Version: 6.00 Build 0)  -->
<!DOCTYPE svg PUBLIC "-//W3C//DTD SVG 1.1//EN" "http://www.w3.org/Graphics/SVG/1.1/DTD/svg11.dtd">
<svg version="1.1" id="Layer_1" xmlns="http://www.w3.org/2000/svg" xmlns:xlink="http://www.w3.org/1999/xlink" x="0px" y="0px"
	 width="64px" height="64px" viewBox="0 0 64 64" enable-background="new 0 0 64 64" xml:space="preserve">
<g>
	<path fill="#444444" d="M48.31,53.748h-6.639c-0.239,0-0.436-0.196-0.436-0.436v-1.616c0-0.239-0.196-0.436-0.436-0.436h-9.289
		c-0.24,0-0.436,0.196-0.436,0.436v1.616c0,0.239-0.196,0.436-0.436,0.436h-4.991c-0.24,0-0.436,0.196-0.436,0.436v1.868
		c0,0.24,0.196,0.436,0.436,0.436H48.31c0.239,0,0.435-0.195,0.435-0.436v-1.869C48.745,53.944,48.549,53.748,48.31,53.748z"/>
	<g>
		<path fill="#444444" d="M59.463,10.042H12.091c-1.648,0-2.989,1.341-2.989,2.989c0,0,0,5.7,0,7.797
			c0,1.031-0.077,1.177,0.615,1.177c0.367,0,0.774,0,1.186,0c0.58,0,0.461-0.146,0.461-1.195c0-2.093,0-7.778,0-7.778
			c0-0.394,0.333-0.727,0.727-0.727h47.372c0.394,0,0.727,0.333,0.727,0.727v29.185H26.416c0,0-1.19-0.002-1.19,1.537
			c0,0.913,0,2.738,0,3.65c0,1.537,1.229,1.537,1.229,1.537h33.008c1.647,0,2.989-1.341,2.989-2.988V13.031
			C62.452,11.383,61.11,10.042,59.463,10.042z M35.776,46.36c-0.744,0-1.347-0.604-1.347-1.348c0-0.743,0.603-1.347,1.347-1.347
			s1.347,0.604,1.347,1.347C37.123,45.757,36.521,46.36,35.776,46.36z"/>
		<path fill="#444444" d="M20.615,24.675H3.478c-1.064,0-1.929,0.865-1.929,1.929v28.167c0,1.063,0.865,1.93,1.929,1.93h17.137
			c1.063,0,1.929-0.866,1.929-1.93V26.604C22.544,25.541,21.678,24.675,20.615,24.675z M9.932,26.643h4.228
			c0.202,0,0.366,0.164,0.366,0.366c0,0.202-0.164,0.366-0.366,0.366H9.932c-0.202,0-0.365-0.164-0.365-0.366
			C9.567,26.806,9.73,26.643,9.932,26.643z M12.021,55.346c-0.552,0-0.999-0.446-0.999-0.998s0.447-0.999,0.999-0.999
			s0.999,0.447,0.999,0.999S12.572,55.346,12.021,55.346z M20.886,52.411c0,0.258-0.206,0.468-0.458,0.468H3.665
			c-0.252,0-0.458-0.21-0.458-0.468V29.006c0-0.258,0.206-0.468,0.458-0.468h16.764c0.252,0,0.458,0.211,0.458,0.468V52.411z"/>
		<path fill="#444444" d="M15.169,32.492H7.787c-0.458,0-0.831,0.443-0.831,0.987v14.417c0,0.545,0.373,0.988,0.831,0.988h7.382
			c0.458,0,0.831-0.443,0.831-0.988V33.479C16,32.936,15.627,32.492,15.169,32.492z M10.567,33.499h1.822
			c0.087,0,0.157,0.084,0.157,0.188c0,0.103-0.07,0.187-0.157,0.187h-1.822c-0.086,0-0.157-0.084-0.157-0.187
			C10.41,33.583,10.48,33.499,10.567,33.499z M11.467,48.19c-0.237,0-0.43-0.229-0.43-0.511s0.192-0.512,0.43-0.512
			c0.238,0,0.43,0.229,0.43,0.512S11.705,48.19,11.467,48.19z M15.286,46.688c0,0.132-0.089,0.239-0.197,0.239H7.867
			c-0.108,0-0.197-0.107-0.197-0.239V34.709c0-0.133,0.088-0.24,0.197-0.24h7.222c0.108,0,0.197,0.108,0.197,0.24V46.688z"/>
	</g>
</g>
</svg>
