<?xml version="1.0" encoding="utf-8"?>
<!-- Generator: Adobe Illustrator 16.0.0, SVG Export Plug-In . SVG Version: 6.00 Build 0)  -->
<!DOCTYPE svg PUBLIC "-//W3C//DTD SVG 1.1//EN" "http://www.w3.org/Graphics/SVG/1.1/DTD/svg11.dtd">
<svg version="1.1" id="Layer_1" xmlns="http://www.w3.org/2000/svg" xmlns:xlink="http://www.w3.org/1999/xlink" x="0px" y="0px"
	 width="45px" height="45px" viewBox="0 0 45 45" enable-background="new 0 0 45 45" xml:space="preserve">
<g>
	<path fill="#444444" d="M32.563,35.328h-4.222c-0.152,0-0.276-0.124-0.276-0.276v-1.028c0-0.151-0.125-0.276-0.276-0.276h-5.908
		c-0.152,0-0.277,0.125-0.277,0.276v1.028c0,0.152-0.125,0.276-0.277,0.276h-3.173c-0.152,0-0.277,0.125-0.277,0.277v1.188
		c0,0.152,0.125,0.276,0.277,0.276h14.409c0.151,0,0.276-0.124,0.276-0.276v-1.188C32.84,35.454,32.715,35.328,32.563,35.328z"/>
	<g>
		<path fill="#444444" d="M39.655,7.538H9.533c-1.048,0-1.901,0.853-1.901,1.901c0,0,0,3.625,0,4.958
			c0,0.655-0.048,0.749,0.391,0.749c0.233,0,0.492,0,0.754,0c0.369,0,0.293-0.093,0.293-0.761c0-1.331,0-4.946,0-4.946
			c0-0.25,0.212-0.462,0.462-0.462h30.122c0.25,0,0.463,0.212,0.463,0.462v18.558H18.642c0,0-0.757-0.001-0.757,0.977
			c0,0.581,0,1.742,0,2.322c0,0.977,0.781,0.977,0.781,0.977h20.989c1.048,0,1.9-0.853,1.9-1.9V9.438
			C41.556,8.39,40.703,7.538,39.655,7.538z M24.594,30.631c-0.473,0-0.856-0.383-0.856-0.856c0-0.473,0.384-0.856,0.856-0.856
			c0.474,0,0.857,0.384,0.857,0.856C25.451,30.248,25.067,30.631,24.594,30.631z"/>
		<path fill="#444444" d="M14.954,16.842H4.057c-0.677,0-1.227,0.55-1.227,1.227V35.98c0,0.676,0.55,1.227,1.227,1.227h10.897
			c0.676,0,1.226-0.551,1.226-1.227V18.069C16.18,17.393,15.63,16.842,14.954,16.842z M8.161,18.093h2.688
			c0.128,0,0.232,0.104,0.232,0.233s-0.104,0.232-0.232,0.232H8.161c-0.128,0-0.232-0.104-0.232-0.232S8.032,18.093,8.161,18.093z
			 M9.489,36.345c-0.351,0-0.635-0.284-0.635-0.635s0.284-0.635,0.635-0.635c0.351,0,0.634,0.284,0.634,0.635
			S9.839,36.345,9.489,36.345z M15.126,34.479c0,0.164-0.131,0.298-0.291,0.298H4.175c-0.16,0-0.291-0.134-0.291-0.298V19.596
			c0-0.164,0.131-0.298,0.291-0.298h10.66c0.16,0,0.291,0.134,0.291,0.298V34.479z"/>
	</g>
</g>
</svg>
