<?xml version="1.0" encoding="utf-8"?>
<!-- Generator: Adobe Illustrator 16.0.0, SVG Export Plug-In . SVG Version: 6.00 Build 0)  -->
<!DOCTYPE svg PUBLIC "-//W3C//DTD SVG 1.1//EN" "http://www.w3.org/Graphics/SVG/1.1/DTD/svg11.dtd">
<svg version="1.1" id="Layer_1" xmlns="http://www.w3.org/2000/svg" xmlns:xlink="http://www.w3.org/1999/xlink" x="0px" y="0px"
	 width="45px" height="45px" viewBox="0 0 45 45" enable-background="new 0 0 45 45" xml:space="preserve">
<g>
	<g>
		<g>
			<polygon fill="none" stroke="#444444" stroke-width="1.5" stroke-miterlimit="10" points="7.024,7.096 39.572,7.092 
				39.413,34.028 6.865,34.031 			"/>
			<line fill="none" stroke="#444444" stroke-width="1.5" stroke-miterlimit="10" x1="39.446" y1="28.363" x2="7.272" y2="28.367"/>
			
				<line fill="none" stroke="#444444" stroke-width="1.5" stroke-linecap="round" stroke-miterlimit="10" x1="34.553" y1="39.301" x2="12.038" y2="39.361"/>
			
				<line fill="none" stroke="#444444" stroke-width="1.5" stroke-miterlimit="10" x1="23.327" y1="34.128" x2="23.296" y2="39.428"/>
			
				<rect x="35.889" y="31.016" fill="none" stroke="#444444" stroke-width="1.5" stroke-miterlimit="10" width="0.533" height="0.533"/>
		</g>
	</g>
	<g>
		<path fill="none" stroke="#444444" stroke-width="1.5" stroke-miterlimit="10" d="M21.959,18.265v1.771l-3.266,1.166
			c-0.779,0.279-1.299,1.018-1.299,1.843v1.229H29.78v-1.229c0-0.825-0.519-1.563-1.297-1.843l-3.266-1.166v-1.895"/>
		<ellipse fill="none" stroke="#444444" stroke-width="1.5" stroke-miterlimit="10" cx="23.506" cy="14.821" rx="3.26" ry="3.911"/>
		<path fill="none" stroke="#444444" stroke-width="1.5" stroke-miterlimit="10" d="M26.734,14.465
			c-0.109,0.015-0.185,0.009-0.295,0.031c-1.109,0.213-1.823-0.188-2.435-1.259c-0.365,0.704-1.513,1.259-2.454,1.259
			c-0.463,0-0.863-0.096-1.261-0.304"/>
	</g>
</g>
</svg>
