<?xml version="1.0" encoding="utf-8"?>
<!-- Generator: Adobe Illustrator 16.0.0, SVG Export Plug-In . SVG Version: 6.00 Build 0)  -->
<!DOCTYPE svg PUBLIC "-//W3C//DTD SVG 1.1//EN" "http://www.w3.org/Graphics/SVG/1.1/DTD/svg11.dtd">
<svg version="1.1" id="Layer_1" xmlns="http://www.w3.org/2000/svg" xmlns:xlink="http://www.w3.org/1999/xlink" x="0px" y="0px"
	 width="45px" height="45px" viewBox="0 0 45 45" enable-background="new 0 0 45 45" xml:space="preserve">
<g>
	<path fill-rule="evenodd" clip-rule="evenodd" fill="none" stroke="#444444" stroke-width="1.5" stroke-miterlimit="10" d="
		M14.375,8.229v2.522h-1.513c0,0-0.504,0.005-0.504,0.504v1.009h2.018l-0.495,2.532l-1.523-0.011v5.549H9.836v-5.549H8.323v-2.521
		h1.513l0.121-1.684c0,0-0.217-2.356,2.22-2.356C14.613,8.224,14.375,8.229,14.375,8.229z"/>
	<path fill="none" stroke="#444444" stroke-width="1.5" stroke-miterlimit="10" d="M37.4,10.177
		c-0.496,0.235-1.033,0.391-1.594,0.461c0.57-0.361,1.012-0.933,1.219-1.61c-0.537,0.332-1.129,0.572-1.76,0.707
		c-0.512-0.566-1.229-0.922-2.031-0.922c-1.533,0-2.777,1.304-2.777,2.913c0,0.225,0.025,0.45,0.076,0.662
		c-2.313-0.121-4.357-1.279-5.727-3.044c-0.241,0.432-0.376,0.933-0.376,1.465c0,1.013,0.491,1.898,1.233,2.426
		c-0.455-0.016-0.883-0.15-1.259-0.366v0.036c0,1.408,0.958,2.586,2.231,2.852c-0.236,0.07-0.481,0.106-0.732,0.106
		c-0.18,0-0.355-0.021-0.521-0.057c0.351,1.158,1.379,2,2.593,2.026c-0.952,0.776-2.146,1.244-3.448,1.244
		c-0.227,0-0.447-0.017-0.663-0.042c1.228,0.828,2.688,1.31,4.257,1.31c5.109,0,7.9-4.438,7.9-8.282c0-0.125,0-0.251-0.011-0.375
		C36.559,11.274,37.029,10.763,37.4,10.177z"/>
	<g>
		<path fill="none" stroke="#444444" stroke-width="1.5" stroke-linecap="round" stroke-miterlimit="10" d="M21.225,29.27v5.783"/>
		<polyline fill="none" stroke="#444444" stroke-width="1.5" stroke-linecap="round" stroke-miterlimit="10" points="21.236,35.062 
			24.611,32.107 21.236,29.279 		"/>
	</g>
	<path fill="none" stroke="#444444" stroke-width="1.5" stroke-linecap="round" stroke-miterlimit="10" d="M30.037,36.082
		c0,1.104-0.896,2-2,2H16.963c-1.104,0-2-0.896-2-2v-7.674c0-1.104,0.896-2,2-2h11.074c1.104,0,2,0.896,2,2V36.082z"/>
</g>
</svg>
