<?xml version="1.0" encoding="utf-8"?>
<!-- Generator: Adobe Illustrator 16.0.0, SVG Export Plug-In . SVG Version: 6.00 Build 0)  -->
<!DOCTYPE svg PUBLIC "-//W3C//DTD SVG 1.1//EN" "http://www.w3.org/Graphics/SVG/1.1/DTD/svg11.dtd">
<svg version="1.1" id="Layer_1" xmlns="http://www.w3.org/2000/svg" xmlns:xlink="http://www.w3.org/1999/xlink" x="0px" y="0px"
	 width="45px" height="45px" viewBox="0 0 45 45" enable-background="new 0 0 45 45" xml:space="preserve">
<g>
	<g>
		<path fill="none" stroke="#444444" stroke-width="1.5" stroke-linecap="round" stroke-miterlimit="10" d="M41.498,37.904H37.12
			v-21.86c0-0.58-0.471-1.05-1.051-1.05h-6.304c-0.58,0-1.051,0.47-1.051,1.05v21.86h-2.101V9.171c0-0.58-0.471-1.051-1.051-1.051
			H19.26c-0.58,0-1.05,0.471-1.05,1.051v28.732h-2.101V25.55c0-0.58-0.471-1.05-1.051-1.05H8.754c-0.581,0-1.051,0.47-1.051,1.05
			v12.354H3.501"/>
	</g>
	<line fill="none" stroke="#444444" stroke-width="1.5" stroke-miterlimit="10" x1="18.241" y1="14.865" x2="26.591" y2="14.865"/>
	<line fill="none" stroke="#444444" stroke-width="1.5" stroke-miterlimit="10" x1="28.868" y1="22.456" x2="37.219" y2="22.456"/>
	<line fill="none" stroke="#444444" stroke-width="1.5" stroke-miterlimit="10" x1="7.804" y1="30.375" x2="16.154" y2="30.375"/>
	<line fill="none" stroke="#444444" stroke-width="1.5" stroke-miterlimit="10" x1="7.858" y1="37.903" x2="37.272" y2="37.903"/>
</g>
</svg>
