<?xml version="1.0" encoding="utf-8"?>
<!-- Generator: Adobe Illustrator 16.0.0, SVG Export Plug-In . SVG Version: 6.00 Build 0)  -->
<!DOCTYPE svg PUBLIC "-//W3C//DTD SVG 1.1//EN" "http://www.w3.org/Graphics/SVG/1.1/DTD/svg11.dtd">
<svg version="1.1" id="Layer_1" xmlns="http://www.w3.org/2000/svg" xmlns:xlink="http://www.w3.org/1999/xlink" x="0px" y="0px"
	 width="45px" height="45px" viewBox="0 0 45 45" enable-background="new 0 0 45 45" xml:space="preserve">
<g>
	<rect x="6" y="8.25" fill="none" stroke="#444444" stroke-width="1.5" stroke-miterlimit="10" width="29.484" height="29.838"/>
	<line fill="none" stroke="#444444" stroke-width="1.5" stroke-miterlimit="10" x1="6.37" y1="14.875" x2="35.281" y2="14.875"/>
	<g>
		<path fill="#F9F9FA" stroke="#444444" stroke-width="1.5" stroke-miterlimit="10" d="M36.385,19.336
			c-1.526,0-2.77-1.242-2.77-2.77c0-1.526,1.242-2.77,2.77-2.77s2.77,1.243,2.77,2.77C39.154,18.094,37.912,19.336,36.385,19.336z
			 M36.016,38.088h-2.097c-0.167,0-0.304-0.137-0.304-0.304V24.346c0-1.064-0.867-1.932-1.932-1.932H27.06
			c-0.467,0-0.847-0.38-0.847-0.846c0-0.467,0.38-0.847,0.847-0.847h9.325c2.325,0,4.218,1.893,4.218,4.218v4.504
			c0,0.418-0.339,0.757-0.755,0.757c-0.384,0-0.693,0.311-0.693,0.692v6.892c0,0.167-0.138,0.304-0.305,0.304h-3.193"/>
	</g>
	
		<line fill="none" stroke="#444444" stroke-width="1.5" stroke-linecap="round" stroke-miterlimit="10" x1="36.484" y1="30.688" x2="36.484" y2="37.953"/>
	
		<rect x="9.672" y="18.708" fill="none" stroke="#444444" stroke-width="1.5" stroke-miterlimit="10" width="4.461" height="5.408"/>
	
		<rect x="17.672" y="18.708" fill="none" stroke="#444444" stroke-width="1.5" stroke-miterlimit="10" width="4.461" height="5.408"/>
	
		<rect x="9.672" y="28.407" fill="none" stroke="#444444" stroke-width="1.5" stroke-miterlimit="10" width="4.461" height="5.408"/>
	
		<rect x="17.672" y="28.407" fill="none" stroke="#444444" stroke-width="1.5" stroke-miterlimit="10" width="4.461" height="5.408"/>
	
		<rect x="25.672" y="28.407" fill="none" stroke="#444444" stroke-width="1.5" stroke-miterlimit="10" width="4.461" height="5.408"/>
</g>
</svg>
